<svg width="64" height="64" viewBox="0 0 64 64" fill="none" xmlns="http://www.w3.org/2000/svg">
<g clip-path="url(#clip0)">
<path d="M64 64H0V0H64V64ZM1.3 62.7H62.6V1.4H1.3V62.7Z" fill="#383529"/>
<path d="M61.4 2.7H2.5V61.6H61.4V2.7Z" fill="#FBFAF7"/>
<path d="M45.1 24.1C44.6 32.5 40.5 41.5 33 45.8C30.7 47.2 28.4 48.6 26 49.8C23.2 51.2 22 51.2 20.3 54.3C19.7 55.1 18 55.3 18.2 54C18.4 52.5 19.9 51.6 21 50.7C27.5 48 25.6 48.3 26.3 42.1C26.4 35.3 26.7 28.5 26.7 21.7C26.3 21 25 22.3 24.5 22.8C24 23.1 23.2 26 24 25.8C24.8 25 24.9 24.3 25.7 25.8C28.5 35.5 11.3 34.1 17.1 20.7C23.3 8.1 45.1 7.1 45.1 24.1ZM28.2 46.8C34 43.8 37.6 37.5 37.6 31C37.4 27 35.5 22.5 31.5 21.1C30.9 20.9 28.6 20.5 28.5 21.2C27.9 29.8 28.2 38.3 28.2 46.8ZM34 19C39.3 20.1 39.6 26 40.4 30.4C41.2 26.1 39.6 18.4 34 19Z" fill="#383529"/>
<path d="M43.3 14.2C43.3 14.2 43.4 14.3 43.3 14.2C43.3 14.2 43.4 14.3 43.3 14.2C43.4 14.3 43.4 14.3 43.4 14.4C43.5 14.5 43.5 14.6 43.6 14.7C43.7 14.9 43.8 15 43.9 15.2C44.1 15.5 44.3 15.9 44.5 16.3C44.9 17 45.1 17.8 45.4 18.6C45.9 20.3 46.1 22 46.2 23.7C46.2 24.6 46.2 25.4 46.1 26.3C46.1 26.7 46 27.1 45.9 27.5C45.8 27.9 45.7 28.4 45.7 28.8C45.5 29.7 45.2 30.7 44.9 31.6C44.6 32.4 44.3 33.3 44 34.1C43.3 35.8 42.4 37.5 41.4 39.1C41.3 39.3 41.1 39.5 41 39.8C40.9 40 41 40.2 41.1 40.3C41.3 40.4 41.5 40.3 41.6 40.2C42.6 38.5 43.5 36.8 44.3 35.1C45.1 33.4 45.7 31.6 46.2 29.7C46.6 28 46.9 26.2 46.9 24.4C46.9 22.6 46.7 20.8 46.3 19.1C45.9 17.5 45.2 15.8 44.2 14.4C44.1 14.2 43.9 14 43.8 13.9C43.7 13.7 43.4 13.8 43.3 13.9C43.2 13.9 43.2 14.1 43.3 14.2Z" fill="#B5B1A4"/>
<path d="M29.3 22.7C29.2 25.5 29.2 28.2 29.2 31C29.2 33.8 29.2 36.5 29.2 39.3C29.2 40.8 29.2 42.4 29.3 43.9C29.3 44.1 29.5 44.3 29.7 44.3C29.9 44.3 30.1 44.1 30.1 43.9C30.1 41.2 30 38.4 30 35.7C30 32.9 30 30.2 30 27.4C30 25.8 30 24.3 30.1 22.7C30.1 22.5 29.9 22.3 29.7 22.3C29.4 22.3 29.3 22.5 29.3 22.7Z" fill="#B5B1A4"/>
<path d="M18.4 34.7C18.8418 34.7 19.2 34.3418 19.2 33.9C19.2 33.4582 18.8418 33.1 18.4 33.1C17.9582 33.1 17.6 33.4582 17.6 33.9C17.6 34.3418 17.9582 34.7 18.4 34.7Z" fill="#EF3C23"/>
<path d="M53.3 10.1C53.7418 10.1 54.1 9.74183 54.1 9.3C54.1 8.85817 53.7418 8.5 53.3 8.5C52.8582 8.5 52.5 8.85817 52.5 9.3C52.5 9.74183 52.8582 10.1 53.3 10.1Z" fill="#EF3C23"/>
<path d="M50.1 25.8C50.5418 25.8 50.9 25.4418 50.9 25C50.9 24.5582 50.5418 24.2 50.1 24.2C49.6582 24.2 49.3 24.5582 49.3 25C49.3 25.4418 49.6582 25.8 50.1 25.8Z" fill="#EF3C23"/>
<path d="M50.3 58.2C50.7418 58.2 51.1 57.8418 51.1 57.4C51.1 56.9582 50.7418 56.6 50.3 56.6C49.8582 56.6 49.5 56.9582 49.5 57.4C49.5 57.8418 49.8582 58.2 50.3 58.2Z" fill="#EF3C23"/>
<path d="M33.9 55.7C34.3418 55.7 34.7 55.3418 34.7 54.9C34.7 54.4582 34.3418 54.1 33.9 54.1C33.4582 54.1 33.1 54.4582 33.1 54.9C33.1 55.3418 33.4582 55.7 33.9 55.7Z" fill="#EF3C23"/>
<path d="M47.7 37.5C48.1418 37.5 48.5 37.1418 48.5 36.7C48.5 36.2582 48.1418 35.9 47.7 35.9C47.2582 35.9 46.9 36.2582 46.9 36.7C46.9 37.1418 47.2582 37.5 47.7 37.5Z" fill="#EF3C23"/>
<path d="M14 51.3C14.4418 51.3 14.8 50.9418 14.8 50.5C14.8 50.0582 14.4418 49.7 14 49.7C13.5582 49.7 13.2 50.0582 13.2 50.5C13.2 50.9418 13.5582 51.3 14 51.3Z" fill="#EF3C23"/>
<path d="M53.4 43.2C53.8418 43.2 54.2 42.8418 54.2 42.4C54.2 41.9582 53.8418 41.6 53.4 41.6C52.9582 41.6 52.6 41.9582 52.6 42.4C52.6 42.8418 52.9582 43.2 53.4 43.2Z" fill="#EF3C23"/>
<path d="M11.2 6.1C11.6418 6.1 12 5.74183 12 5.3C12 4.85817 11.6418 4.5 11.2 4.5C10.7582 4.5 10.4 4.85817 10.4 5.3C10.4 5.74183 10.7582 6.1 11.2 6.1Z" fill="#EF3C23"/>
<path d="M5.90001 53.7C6.34183 53.7 6.70001 53.3418 6.70001 52.9C6.70001 52.4582 6.34183 52.1 5.90001 52.1C5.45818 52.1 5.10001 52.4582 5.10001 52.9C5.10001 53.3418 5.45818 53.7 5.90001 53.7Z" fill="#EF3C23"/>
<path d="M55.4 21.7C55.8418 21.7 56.2 21.3418 56.2 20.9C56.2 20.4582 55.8418 20.1 55.4 20.1C54.9582 20.1 54.6 20.4582 54.6 20.9C54.6 21.3418 54.9582 21.7 55.4 21.7Z" fill="#EF3C23"/>
<path d="M12.2 30.1C12.6418 30.1 13 29.7418 13 29.3C13 28.8582 12.6418 28.5 12.2 28.5C11.7582 28.5 11.4 28.8582 11.4 29.3C11.4 29.7418 11.7582 30.1 12.2 30.1Z" fill="#EF3C23"/>
<path d="M19.3 12.8C19.7418 12.8 20.1 12.4418 20.1 12C20.1 11.5582 19.7418 11.2 19.3 11.2C18.8582 11.2 18.5 11.5582 18.5 12C18.5 12.4418 18.8582 12.8 19.3 12.8Z" fill="#EF3C23"/>
<path d="M55.1 26.8C55.1 27.9 54.8 28.8 54.1 29.4C54.1 29.4 54 29.5 53.9 29.4C53.8 29.4 53.8 29.3 53.8 29.3C53.6 28.9 53.5 28.6 53.4 28.2C53 26.7 53.2 25 54 23.7C53.1 23.2 52.2 22.7 51.6 21.8C51.2 21.3 51 20.8 50.8 20.2C50.7 19.9 50.7 19.6 50.7 19.3C50.6 18.9 50.3 18.5 49.8 18.2C49.3 17.9 48.8 17.8 48.4 18C48.3 18 48.2 18 48.1 17.9C48.1 17.8 48.1 17.7 48.2 17.7C48.7 17.5 49.4 17.6 49.9 18C50.2 18.2 50.4 18.4 50.6 18.6C50.6 18.4 50.7 18.2 50.7 18.1C50.8 17.7 51 17.4 51.2 17.1C50.9 17 50.5 16.9 50.3 16.6C50 16.3 49.7 15.9 49.6 15.4C49.6 15.2 49.5 15 49.5 14.8C49.5 13.7 50.1 12.7 50.6 11.8C50.6 11.7 50.7 11.7 50.8 11.7C50.9 11.7 50.9 11.7 51 11.8C51.6 13.1 52.2 14.9 51.9 16.3C52 16.2 52.2 16.1 52.3 16.1C53.1 15.8 54.2 16 54.7 16.9C54.8 17 54.7 17.1 54.6 17.2C54.5 17.3 54.4 17.2 54.3 17.1C54 16.4 53.1 16.3 52.4 16.5C51.8 16.8 51.3 17.4 51 18.2C50.9 18.6 50.8 19 50.8 19.4C50.8 20.2 51.1 21.1 51.6 21.7C52.3 22.6 53.3 23.1 54.3 23.7C54.6 23.9 55 24.1 55.3 24.3C56.4 25 57 25.6 57.4 26.3C57.6 26.6 57.9 26.8 58.3 26.8C58.6 26.8 59 26.7 59.3 26.4C59.4 26.3 59.5 26.3 59.6 26.4C59.7 26.5 59.7 26.6 59.6 26.7C59.3 27 58.8 27.2 58.3 27.2C58.1 27.2 57.9 27.1 57.7 27C57.8 27.4 57.8 27.8 57.8 28.1C57.8 28.2 57.7 28.3 57.6 28.3C57.5 28.3 57.4 28.2 57.4 28.1C57.6 26.3 55.7 25 55.1 24.7C54.8 24.5 54.5 24.4 54.2 24.2C54.7 24.6 55.1 25.8 55.1 26.8Z" fill="#7A913A"/>
<path d="M30.7 8C30.6 8 30.5 8 30.4 8.1C30.4 8.2 30.4 8.3 30.5 8.4C30.6 8.4 30.6 8.4 30.7 8.5C31.9 8.9 33.3 8.8 34.5 8.3C35 9 35.7 9.6 36.1 9.8C36.9 10.3 37.8 10.8 38.7 11.1C39.1 11.2 39.5 11.3 40 11.4C40.1 11.4 40.2 11.3 40.2 11.2C40.2 11.1 40.1 11 40 11C38.5 10.8 37.4 10.2 36.2 9.5C35.6 9.1 35.1 8.6 34.8 8.1C35 8 35.1 7.9 35.3 7.8C35.6 7.6 35.9 7.4 36.1 7.1C36.3 6.7 36.3 6.3 36.1 6C35.8 5.7 35.3 5.6 34.9 5.8C34.6 6 34.3 6.3 34.3 6.8C34.2 7.2 34.3 7.5 34.4 7.9C33.7 8.2 33 8.3 32.2 8.3C32.3 7.1 31.7 5.9 30.7 5.2C30.6 5.1 30.4 5 30.1 5.1C29.8 5.2 29.8 5.5 29.9 5.9C30.1 6.7 30.9 7.7 31.6 8.3C31.3 8.1 31 8.1 30.7 8ZM35.1 6.2C35.2 6.1 35.4 6.1 35.6 6.1C35.7 6.1 35.8 6.2 35.8 6.2C36 6.4 35.9 6.7 35.8 6.9C35.7 7.2 35.4 7.3 35.2 7.5C35.1 7.6 34.9 7.7 34.7 7.7C34.6 7.4 34.6 7.1 34.6 6.9C34.8 6.5 34.9 6.3 35.1 6.2Z" fill="#7A913A"/>
<path d="M51.4 34.5C50.6 33.7 50.1 33 49.8 32.3C49.5 31.4 49.5 30.4 49.9 29.7C50 29.6 49.9 29.5 49.8 29.4C49.7 29.3 49.6 29.4 49.5 29.5C49 30.3 49 31.4 49.3 32.4C49.7 33.4 50.4 34.3 51 34.8C51.6 35.4 52.3 35.9 52.9 36.3C52.9 37.1 52.7 38.2 52.2 38.7C51.7 39.2 50.9 39.6 50.1 39.6C50 39.6 49.9 39.7 49.9 39.8C49.9 39.9 50 40 50.1 40C51 40 51.8 39.6 52.4 39C52.8 38.6 53 38 53.1 37.5C53.2 37.2 53.2 36.8 53.2 36.5C53.9 36.8 54.6 36.9 55.3 36.8C55.9 36.7 56.5 36.4 57 36C57.8 35.3 58.4 34.3 58.7 33.2C58.7 33.1 58.7 33 58.8 32.9C58.9 32.6 58.9 32.1 58.8 31.7C58.7 31.1 58.3 30.7 57.8 30.5C57.5 30.4 57.1 30.4 56.7 30.6C56.3 30.8 55.9 31.3 55.8 31.8C55.6 32.6 55.9 33.5 56.1 34.2C56.2 34.5 56.3 34.7 56.4 35C56.5 35.2 56.6 35.4 56.6 35.7C56.2 36 55.7 36.2 55.3 36.3C54.6 36.4 53.9 36.3 53.1 35.9C52.7 35.6 52 35.1 51.4 34.5Z" fill="#7A913A"/>
<path d="M38.5 5.8C38.4 5.9 38.4 6.1 38.6 6.4C40 8.3 42.7 9.3 44.8 8.7C45.1 9.1 45.4 9.5 45.6 10C45.1 10 44.7 10.3 44.5 10.7C44.2 11.2 44.2 11.8 44.5 12.3C44.8 12.8 45.2 13.1 45.6 13.2C46.2 13.3 46.7 12.9 46.9 12.4C47 12.1 46.9 11.8 46.7 11.6C46.5 11.4 46.3 11.3 46 11.3C45.9 11.3 45.8 11.4 45.8 11.5C45.8 11.6 45.9 11.7 46 11.7C46.1 11.7 46.2 11.8 46.3 11.9C46.4 12 46.5 12.2 46.4 12.4C46.3 12.7 45.9 12.9 45.6 12.9C45.3 12.9 44.9 12.6 44.8 12.2C44.6 11.8 44.6 11.3 44.8 11C45 10.6 45.5 10.4 45.8 10.5C45.9 10.5 46 10.5 46.1 10.4V10.3V10.2C45.9 9.6 45.5 9 45.1 8.5C44.4 7.6 43.5 6.9 42.6 6.5C41.5 5.9 40.3 5.7 39 5.7C38.9 5.6 38.7 5.6 38.5 5.8Z" fill="#7A913A"/>
<path d="M5.90001 5.7C5.90001 5.7 5.80001 5.7 5.90001 5.7C5.80001 5.7 5.80001 5.7 5.90001 5.7C5.80001 5.7 5.80001 5.7 5.90001 5.7C5.80001 5.7 5.80001 5.7 5.90001 5.7C5.80001 5.7 5.80001 5.7 5.80001 5.7C5.80001 6.2 6.00001 6.3 6.10001 6.5C7.00001 7.7 7.60001 9.1 7.80001 10.5C7.80001 10.5 7.80001 10.5 7.80001 10.6C8.00001 11.7 7.90001 12.8 7.70001 13.8C7.50001 14.8 7.00001 15.7 6.70001 16.6C6.50001 17.1 6.20001 17.7 6.00001 18.3C5.30001 20.2 5.20001 21.8 5.70001 23.1C6.10001 24 6.90001 24.8 7.80001 25.1C6.70001 26.6 6.50001 28.8 7.30001 30.5C7.30001 30.6 7.40001 30.6 7.50001 30.6C7.60001 30.6 7.60001 30.6 7.70001 30.5C8.30001 29.5 8.60001 28.3 8.60001 27.1C8.60001 26.5 8.50001 25.8 8.30001 25.2C8.80001 25.3 9.30001 25.2 9.80001 25C10.7 24.6 11.2 23.8 11.5 22.7V22.6C11.5 22.6 11.5 22.6 11.5 22.5C11.5 22.4 11.5 22.2 11.5 22.1C11.6 21.7 11.8 20.9 12.3 20.5C12.9 20 13.7 19.9 14.4 20.1C14.5 20.1 14.6 20.1 14.7 20C14.7 20 14.7 20 14.7 19.9C14.7 19.8 14.6 19.7 14.6 19.7C13.8 19.4 12.8 19.6 12.1 20.1C11.9 20.3 11.7 20.5 11.5 20.8C11.5 20.6 11.4 20.4 11.4 20.2C11.3 19.7 10.9 18.5 9.80001 18.4C9.00001 18.3 8.40001 19 8.20001 19.6C8.00001 20.3 8.10001 20.9 8.20001 21.6C8.20001 21.7 8.30001 21.8 8.40001 21.8C8.50001 21.8 8.60001 21.7 8.60001 21.6C8.50001 21 8.40001 20.4 8.60001 19.8C8.80001 19.3 9.20001 18.8 9.80001 18.8C10.6 18.9 10.9 20 11 20.3C11.1 20.8 11.2 21.4 11.1 21.9C11.1 22 11.1 22.2 11.1 22.3C10.9 23.3 10.4 24.1 9.70001 24.4C9.20001 24.6 8.70001 24.6 8.20001 24.5C7.30001 24.2 6.50001 23.5 6.10001 22.6C5.60001 21.4 5.70001 19.9 6.40001 18.1C6.60001 17.6 6.90001 17 7.10001 16.5C7.50001 15.6 7.90001 14.7 8.20001 13.7C8.40001 13 8.50001 12.4 8.50001 11.7C8.70001 12.1 8.90001 12.4 9.20001 12.6C9.20001 12.6 9.20001 12.6 9.20001 12.7H9.30001C9.40001 12.8 9.50001 12.9 9.70001 12.9C10.4 13.3 11.2 13.4 11.9 13.6C12.1 13.6 12.3 13.7 12.6 13.7C13.4 13.9 14.4 14.2 15.1 15C15.2 15.1 15.2 15.1 15.3 15.1C15.4 15.1 15.4 15 15.4 14.9C15.3 13.6 14.5 12.4 13.4 11.8C12.3 11.2 10.5 11.6 9.40001 12.2C8.80001 11.7 8.50001 10.9 8.40001 10.3C8.10001 9.4 7.70001 8.4 7.20001 7.4C8.80001 8.4 11 8.8 13.4 8.4C14.5 8.2 15.7 7.9 16.8 7.6C17.4 7.5 17.9 7.3 18.5 7.2C20.3 8.6 22.6 9.4 24.9 9.3C25 9.3 25.1 9.2 25.1 9.1C25.1 9 25.2 8.8 25.2 8.7C25.2 7.9 24.6 7.1 24 6.8C23 6.3 22 6.3 21.3 6.3C20.4 6.4 19.5 6.5 18.4 6.8C17.8 6.9 17.2 7.1 16.6 7.3C15.5 7.6 14.4 7.9 13.3 8.1C10.4 8.6 7.80001 7.9 6.40001 6.3C6.30001 6.1 6.20001 5.9 6.10001 5.8C6.00001 5.7 6.00001 5.7 5.90001 5.7C6.00001 5.7 6.00001 5.7 5.90001 5.7C5.90001 5.7 6.00001 5.7 5.90001 5.7Z" fill="#7A913A"/>
<path d="M54.7 47C54.7 46.9 54.7 46.9 54.7 47C54.7 46.9 54.7 46.9 54.7 46.9C53.3 48 52.4 49.6 51.5 51.2C51.1 51.9 50.8 52.5 50.3 53.1C49.6 54.1 48.8 55 47.8 55.7C48.2 54.1 47.1 52.7 45.9 51.9C45.5 51.6 45 51.5 44.6 51.8C44.4 52 44.3 52.2 44.3 52.6C44.4 54.2 45.7 55.7 47.3 56C46.2 56.7 45.1 57.2 43.8 57.5C43.3 57.6 42.5 57.7 41.8 57.5C41.1 57.3 40.7 56.8 40.6 56.2C40.6 56.1 40.5 56 40.4 56C40.3 56 40.2 56.1 40.2 56.2C40.3 57 41 57.6 41.7 57.9C42 58 42.3 58 42.6 58C43.1 58 43.5 57.9 43.8 57.8C46.5 57.2 49 55.5 50.5 53.2C50.9 52.6 51.3 51.9 51.7 51.2C52.3 50.1 53 48.9 53.8 48C53.5 48.8 53.4 49.7 54 50.5C54.4 51 55 51.3 55.5 51.6C55.7 51.7 55.9 51.8 56.2 51.9C56.5 52.1 56.8 52.4 57.1 52.7C58.1 53.8 58.5 55.4 58.1 56.7C58 57.2 57.7 57.8 57.1 58.3C56.6 58.7 56 58.9 55.4 58.7C55 58.6 54.6 58.2 54.4 57.8C54.2 57.3 54.2 56.9 54.4 56.5C54.6 56.1 55 55.8 55.5 55.7C56 55.6 56.5 55.7 56.8 56C56.9 56.1 57 56.1 57.1 56C57.2 55.9 57.2 55.8 57.1 55.7C56.7 55.3 56.1 55.2 55.5 55.3C54.9 55.4 54.4 55.8 54.1 56.3C53.8 56.8 53.8 57.4 54.1 58C54.3 58.6 54.8 59 55.3 59.1C55.5 59.1 55.7 59.2 55.8 59.2C56.3 59.2 56.9 59 57.3 58.7C57.9 58.2 58.2 57.5 58.4 56.9C58.8 55.5 58.4 53.8 57.4 52.6C58 51.8 58.4 50.9 58.7 49.8C59.4 47.3 59.1 44.6 58 42.7C58 42.6 57.9 42.6 57.8 42.6C57.7 42.6 57.7 42.7 57.6 42.7C56.7 44.9 56.9 47.4 58.3 49.7C58 50.6 57.6 51.5 57.2 52.2C57 52 56.7 51.7 56.4 51.6C56.2 51.5 55.9 51.4 55.7 51.2C55.2 50.9 54.6 50.7 54.3 50.2C53.7 49.3 54.1 47.9 54.8 47C54.7 47.1 54.7 47.1 54.7 47C54.7 47.1 54.7 47.1 54.7 47C54.7 47.1 54.7 47.1 54.7 47C54.7 47.1 54.7 47.1 54.7 47C54.7 47.1 54.7 47.1 54.7 47Z" fill="#7A913A"/>
<path d="M13.8 35.7C13.7 35.6 13.6 35.7 13.5 35.8C13.4 35.9 13.5 36 13.6 36.1C13.9 36.3 14.4 36.3 14.8 36.1C15.2 35.8 15.5 35.4 15.5 34.9C15.5 34.1 14.6 33.3 13.7 33.4C12.9 33.4 12.2 33.9 11.7 34.6C11.2 35.4 11.1 36.6 11.2 37.7C11.1 37.7 11.1 37.6 11 37.6C10.6 37.3 10.2 37.1 9.80001 36.9C9.30001 36.6 8.80001 36.4 8.40001 36C7.50001 35.1 7.50001 33.4 8.40001 32.5C8.50001 32.4 8.50001 32.3 8.40001 32.2C8.30001 32.1 8.20001 32.1 8.10001 32.2C7.10001 33.3 7.10001 35.2 8.10001 36.3C8.50001 36.7 9.10001 37 9.60001 37.3C10 37.5 10.4 37.7 10.7 38C10.9 38.2 11.1 38.4 11.3 38.6C11.8 39.3 12.2 40.2 12.3 41.2C12.2 41.8 12.1 42.2 11.8 42.7C11.5 43.2 11 43.5 10.5 43.5C10 43.5 9.50001 43.1 9.50001 42.7C9.50001 42.5 9.60001 42.2 9.90001 42.1C10 42 10.2 41.9 10.5 42C10.6 42.1 10.7 42 10.8 41.9C10.9 41.8 10.8 41.7 10.7 41.6C10.4 41.4 10 41.5 9.70001 41.7C9.40001 41.9 9.10001 42.3 9.20001 42.7C9.20001 43.3 9.70001 43.8 10.3 43.9C10.4 43.9 10.5 43.9 10.7 43.9C11.3 43.9 11.9 43.5 12.3 42.9C12.4 42.8 12.4 42.7 12.5 42.6C12.4 43.8 12 45 11.6 46.1C11.6 46.2 11.6 46.3 11.7 46.4C11.8 46.4 11.9 46.4 11.9 46.3C12.4 44.9 12.8 43.4 12.8 41.8C12.8 41.6 12.8 41.4 12.8 41.2V41.1C12.7 40 12.3 39 11.8 38.3C11.5 37.3 11.5 35.7 12.1 34.9C12.5 34.2 13.2 33.8 13.8 33.8C14.4 33.8 15.1 34.3 15.2 34.9C15.2 35.2 15 35.5 14.7 35.7C14.4 35.7 14.1 35.9 13.8 35.7Z" fill="#7A913A"/>
<path d="M24.6 55.4C24.8 55.4 25.1 55.6 25.2 55.8C25.3 56 25.4 56.2 25.3 56.4C25.3 56.5 25.3 56.6 25.4 56.7C25.5 56.7 25.6 56.7 25.7 56.6C25.8 56.3 25.7 56 25.5 55.7C25.3 55.2 25 55 24.6 55C24 54.9 23.3 55.4 23.1 56.1C22.9 56.7 23 57.4 23.4 57.9C23.5 58.1 23.7 58.3 23.9 58.5C24.1 58.7 24.4 58.9 24.8 59.1C25.4 59.4 26.6 59.8 27.8 59.4C29.2 58.8 29.7 57.1 29.8 56.4C29.9 55.8 29.9 55.2 30 54.7C30 54.1 30.1 53.5 30.2 52.9C30.4 51.6 31.1 50.6 32 50.3C32.1 50.3 32.2 50.1 32.1 50C32.1 49.9 31.9 49.8 31.8 49.9C30.8 50.3 30 51.4 29.7 52.8C29.6 53.4 29.6 54 29.5 54.6C29.5 55.2 29.4 55.7 29.4 56.3C29.3 56.9 28.9 58.4 27.7 59C26.7 59.4 25.6 59 25.1 58.7C24.5 58.4 24.1 58.1 23.8 57.7C23.5 57.2 23.4 56.7 23.5 56.2C23.7 55.7 24.1 55.4 24.6 55.4Z" fill="#7A913A"/>
<path d="M45.3 6.2C45.7418 6.2 46.1 5.84183 46.1 5.4C46.1 4.95817 45.7418 4.6 45.3 4.6C44.8582 4.6 44.5 4.95817 44.5 5.4C44.5 5.84183 44.8582 6.2 45.3 6.2Z" fill="#EF3C23"/>
<path d="M24.1 37.5C24.2 37.6 24.3 37.6 24.4 37.5C24.6 37.3 24.6 37.1 24.6 36.8C24.5 36.5 24.2 36.2 23.9 36.2C23.9 36.2 23.9 36.2 23.8 36.2C23.2 36.1 22.7 36.5 22.4 36.8C21.8 37.4 21.5 38.1 21.3 38.9C21 38.2 20.7 37.5 20.3 36.9C20.3 36.8 20.2 36.8 20.2 36.8H20.1C20 36.8 20 36.9 20 37C21 38.9 21.9 40.9 22.1 43.1C21.9 42.6 21.7 42.1 21.4 41.7C21.2 41.4 20.9 41.1 20.6 40.9C19.4 40 18.1 39.5 16.9 39.2H16.8C16.1 39 15.8 39.3 15.7 39.5C15.5 39.8 15.6 40.1 15.8 40.5C16.9 42.2 19.3 43 21.2 42.3C21.7 43.1 22 44 22.1 45C21.9 47.1 20.6 49.6 18.3 50.3C18.2 50.3 18.1 50.4 18.2 50.6C18.2 50.7 18.3 50.8 18.5 50.7C21 49.9 22.4 47.3 22.6 45.1C22.6 45.1 22.6 45.1 22.6 45C22.6 44.8 22.6 44.6 22.6 44.4C22.6 42.8 22.3 41.2 21.7 39.7V39.6C21.7 38.7 22.1 37.8 22.8 37.1C23 36.9 23.4 36.5 23.8 36.6C24 36.6 24.1 36.8 24.2 37C24.2 37.1 24.2 37.2 24.1 37.3C24 37.3 24 37.4 24.1 37.5Z" fill="#7A913A"/>
<path d="M14.6 57.7C14.6 57.6 14.6 57.4 14.5 57.3C14.3 56.6 13.6 56.1 12.6 55.9C10 55.4 7.20001 56.7 6.10001 59.1C6.10001 59.2 6.10001 59.3 6.20001 59.4C6.30001 59.4 6.40001 59.4 6.50001 59.3C7.60001 57.1 10.2 55.8 12.6 56.3C13 56.4 14 56.7 14.2 57.4C14.3 57.9 14.2 58.4 13.8 58.7C13.4 59 12.9 59.1 12.3 58.9C11.9 58.8 11.5 58.4 11.5 58C11.5 57.8 11.7 57.6 11.8 57.5C11.9 57.5 12 57.4 12.2 57.5C12.3 57.6 12.4 57.6 12.5 57.5C12.6 57.4 12.6 57.3 12.5 57.2C12.3 57 12 57 11.7 57.1C11.3 57.3 11.1 57.6 11.1 58C11.1 58.6 11.7 59.1 12.2 59.3C12.8 59.5 13.5 59.4 14 59C14.4 58.7 14.6 58.2 14.6 57.7Z" fill="#7A913A"/>
<path d="M47.2 47.9C47.3 47.9 47.5 47.9 47.6 47.8C48.3 47.6 48.8 46.9 49 45.9C49.5 43.3 48.2 40.5 45.8 39.4C45.7 39.4 45.6 39.4 45.5 39.5C45.5 39.6 45.5 39.7 45.6 39.8C47.8 40.9 49.1 43.5 48.6 45.9C48.5 46.3 48.2 47.3 47.5 47.5C47 47.6 46.5 47.5 46.2 47.1C45.9 46.7 45.8 46.2 46 45.6C46.1 45.2 46.5 44.8 46.9 44.8C47.1 44.8 47.3 45 47.4 45.1C47.4 45.2 47.5 45.3 47.4 45.5C47.3 45.6 47.3 45.7 47.4 45.8C47.5 45.9 47.6 45.9 47.7 45.8C47.9 45.6 47.9 45.3 47.8 45C47.6 44.6 47.3 44.4 46.9 44.4C46.3 44.4 45.8 45 45.6 45.5C45.4 46.1 45.5 46.8 45.9 47.3C46.2 47.6 46.7 47.9 47.2 47.9Z" fill="#7A913A"/>
<path d="M9.5 54.7C9.6 54.8 9.7 54.8 9.8 54.7C10.6 54.1 10.8 52.9 10.6 52C10.6 52 10.6 52 10.6 51.9C10.3 50.9 9.5 50.1 8.9 49.6C8.7 49.4 8.5 49.3 8.3 49.1C7.8 48.7 7.3 48.3 6.9 47.8C6.3 47.1 5.9 46.2 5.7 45.3C6.9 44 7.9 42 7.5 40.1C7.3 40 7.3 40 7.2 40C7.1 40 7.1 40 7 40C5.9 41 5.1 42.4 5 44C5 44.4 5 44.9 5.1 45.3C5.3 46.4 5.7 47.3 6.4 48.1C6.8 48.6 7.4 49 7.9 49.5C8.1 49.7 8.3 49.8 8.5 50C9 50.5 9.8 51.2 10.1 52.1C10.3 52.9 10.2 53.9 9.5 54.4C9.5 54.5 9.5 54.6 9.5 54.7Z" fill="#7A913A"/>
<path d="M34.3 58.5C34.3 58.6 34.4 58.7 34.5 58.7C35.5 58.8 36.5 58 36.8 57.2C36.8 57.2 36.8 57.2 36.8 57.1C37.2 56.1 37.1 55 37 54.2C37 53.9 36.9 53.7 36.9 53.4C36.8 52.8 36.7 52.1 36.7 51.5C36.7 50.6 37 49.6 37.4 48.8C39.1 48.6 41.2 47.7 42.2 46.1C42.2 46 42.2 46 42.2 45.9C42.2 45.8 42.1 45.8 42 45.8C40.5 45.8 39 46.4 37.9 47.5C37.6 47.8 37.3 48.2 37.1 48.6C36.5 49.5 36.2 50.6 36.2 51.6C36.2 52.3 36.3 53 36.4 53.6C36.4 53.9 36.5 54.1 36.5 54.4C36.6 55.1 36.7 56.1 36.3 57C36 57.7 35.2 58.4 34.3 58.3C34.4 58.3 34.3 58.4 34.3 58.5Z" fill="#7A913A"/>
<path d="M58.7 6.2C58.7 6.2 58.6 6.2 58.6 6.1C58.5 6.1 58.5 6 58.4 6.1C56 6.8 53.4 6.8 51 6.2C50.9 6.2 50.8 6.2 50.8 6.1C50.3 6 49.8 5.8 49.3 5.8C49.1 5.8 48.8 5.8 48.6 5.9C47.9 6.1 47.4 6.6 47.4 7.2C47.3 7.5 47.5 7.9 47.7 8.2C47.9 8.5 48.2 8.6 48.5 8.7C48.9 8.7 49.2 8.6 49.4 8.2C49.6 7.9 49.7 7.6 49.5 7.3C49.5 7.2 49.3 7.2 49.2 7.2C49.1 7.2 49.1 7.4 49.1 7.5C49.2 7.7 49.1 7.8 49 8C48.9 8.2 48.6 8.3 48.4 8.3C48.2 8.3 48 8.2 47.9 8C47.7 7.8 47.7 7.5 47.7 7.3C47.8 6.9 48.1 6.5 48.6 6.3C49.2 6.1 49.9 6.3 50.6 6.5C50.7 6.5 50.8 6.5 50.8 6.6C53.1 7.2 55.6 7.2 57.9 6.6C56.8 8 56.2 9.6 56.5 11.1C56.6 11.8 56.9 12.5 57.2 13.2C56.2 14.4 55.8 16.1 56.3 17.5C56.4 17.7 56.5 17.9 56.7 18.1C57.1 18.4 57.7 18.1 58 17.6C58.7 16.5 58.4 15.1 58.1 14.1C58 13.8 57.8 13.4 57.7 13.1C57.4 12.4 57.1 11.7 57 11C56.8 9.5 57.4 7.8 58.7 6.5C58.7 6.4 58.7 6.3 58.7 6.2Z" fill="#7A913A"/>
</g>
<defs>
<clipPath id="clip0">
<rect width="64" height="64" fill="white"/>
</clipPath>
</defs>
</svg>
