<svg width="64" height="64" viewBox="0 0 64 64" fill="none" xmlns="http://www.w3.org/2000/svg">
<path d="M64 64H0V0H64V64ZM1.33 62.65H62.59V1.38H1.33V62.65Z" fill="#383529"/>
<path d="M61.42 2.65H2.51001V61.56H61.42V2.65Z" fill="#FBFAF7"/>
<path d="M38 42.05C38.2806 43.2389 38.8706 44.3325 39.71 45.22C39.7892 45.2924 39.8927 45.3325 40 45.3325C40.1073 45.3325 40.2108 45.2924 40.29 45.22C40.3281 45.1819 40.3583 45.1367 40.3789 45.087C40.3996 45.0372 40.4102 44.9839 40.4102 44.93C40.4102 44.8761 40.3996 44.8228 40.3789 44.773C40.3583 44.7233 40.3281 44.6781 40.29 44.64L40 44.31L39.95 44.24L39.83 44.08C39.6649 43.8498 39.5146 43.6093 39.38 43.36C39.31 43.24 39.25 43.12 39.19 42.99L39.1 42.79C39.1 42.79 39.1 42.72 39.1 42.68C39.0004 42.4196 38.9202 42.1522 38.86 41.88C38.8462 41.8284 38.8222 41.7801 38.7894 41.7379C38.7566 41.6958 38.7157 41.6606 38.6691 41.6345C38.6225 41.6084 38.5711 41.5919 38.518 41.586C38.4649 41.5801 38.4112 41.5848 38.36 41.6C38.2554 41.6282 38.1662 41.6965 38.1119 41.7902C38.0576 41.8839 38.0425 41.9953 38.07 42.1L38 42.05Z" fill="#B5B1A4"/>
<path d="M55.3101 27.45C55.0401 27.63 54.7501 27.77 54.4701 27.92C54.1901 28.07 53.68 28.36 53.3 28.6C53.1286 28.7086 52.9649 28.8289 52.8101 28.96C52.6653 29.1048 52.5528 29.2786 52.4801 29.47C52.1701 30.07 51.8701 30.67 51.5601 31.26C50.9101 32.53 50.2401 33.79 49.5601 35.05L47.5601 38.9C46.9201 40.13 46.2801 41.36 45.6601 42.59L45.44 43.03C45.3857 43.1242 45.371 43.236 45.3991 43.3411C45.4272 43.4461 45.4959 43.5356 45.5901 43.59C45.6853 43.6393 45.7955 43.6513 45.8991 43.6236C46.0027 43.5958 46.0922 43.5303 46.1501 43.44C46.7401 42.22 47.3601 41 48.0001 39.8C48.6401 38.6 49.3401 37.25 50.0001 35.98C50.6601 34.71 51.3401 33.45 52.0001 32.19C52.3201 31.59 52.6301 30.98 52.9301 30.38C53.0701 30.11 53.2001 29.85 53.3301 29.58C53.3301 29.52 53.2601 29.67 53.3301 29.63C53.348 29.6019 53.3719 29.578 53.4001 29.56L53.4701 29.5C53.3601 29.59 53.4701 29.5 53.4701 29.5C54.1301 29.03 54.8701 28.68 55.5701 28.28L55.69 28.2C55.7377 28.1736 55.7795 28.138 55.8132 28.0952C55.8469 28.0525 55.8717 28.0034 55.8863 27.951C55.9008 27.8985 55.9048 27.8437 55.8979 27.7897C55.891 27.7357 55.8734 27.6836 55.8462 27.6364C55.819 27.5893 55.7827 27.548 55.7393 27.5151C55.696 27.4821 55.6465 27.4582 55.5938 27.4445C55.5411 27.4309 55.4862 27.4279 55.4324 27.4357C55.3785 27.4435 55.3267 27.462 55.28 27.49L55.3101 27.45Z" fill="#B5B1A4"/>
<path d="M30.92 17.36C31.1709 17.4745 31.4089 17.6153 31.63 17.78C31.71 17.84 31.63 17.78 31.63 17.78L31.71 17.84L31.86 17.98C31.955 18.0684 32.0452 18.1618 32.13 18.26L32.25 18.39L32.31 18.47C32.31 18.47 32.31 18.4 32.31 18.47L32.54 18.8C32.6868 19.0289 32.8203 19.2659 32.94 19.51C33.24 20.08 33.51 20.66 33.77 21.25L33.82 21.37V21.42L33.91 21.66C33.98 21.82 34.04 21.98 34.11 22.15C34.23 22.47 34.34 22.79 34.43 23.15C34.63 23.83 34.75 24.53 34.89 25.23L35.31 27.4C35.58 28.85 35.83 30.31 36.06 31.77C36.17 32.5 36.29 33.24 36.39 33.97C36.45 34.34 36.5 34.7 36.55 35.07C36.55 35.25 36.55 35.44 36.62 35.62V35.76V35.82C36.62 35.88 36.62 35.75 36.62 35.82C36.62 35.89 36.62 36.01 36.62 36.11C36.62 36.21 36.67 36.47 36.69 36.65C36.6949 36.7572 36.7397 36.8586 36.8155 36.9345C36.8914 37.0104 36.9929 37.0551 37.1 37.06C37.3 37.06 37.54 36.87 37.51 36.65C37.31 35.14 37.1 33.65 36.87 32.13C36.64 30.61 36.39 29.13 36.12 27.7C35.99 26.95 35.85 26.21 35.7 25.47C35.55 24.73 35.44 24.03 35.26 23.32C34.888 21.975 34.3716 20.6741 33.72 19.44C33.2837 18.3868 32.5463 17.4858 31.6 16.85L31.22 16.65C31.1248 16.6007 31.0145 16.5887 30.9109 16.6164C30.8073 16.6442 30.7178 16.7097 30.66 16.8C30.6057 16.8942 30.5909 17.006 30.6191 17.1111C30.6472 17.2161 30.7159 17.3056 30.81 17.36H30.92Z" fill="#B5B1A4"/>
<path d="M21.6 31.39C21.6 31.59 21.6 31.79 21.6 31.99V32.15C21.6 32.15 21.6 32.05 21.6 32.15C21.6 32.25 21.6 32.15 21.6 32.23L21.54 32.52L21.45 32.81C21.4395 32.8555 21.4226 32.8992 21.4 32.94V33.02C21.4 33.1 21.4 32.95 21.4 33.02C21.3171 33.2039 21.2202 33.3811 21.11 33.55L21.02 33.69L20.93 33.79L20.82 33.91L20.61 34.13L20.5 34.22H20.44C20.2769 34.3373 20.1066 34.4442 19.93 34.54L19.79 34.61C19.7483 34.64 19.7005 34.6605 19.65 34.67H19.59L19.43 34.73L19.09 34.83H18.93H18.77H18.16C18.0513 34.83 17.947 34.8732 17.8701 34.9501C17.7932 35.027 17.75 35.1313 17.75 35.24C17.75 35.3487 17.7932 35.453 17.8701 35.5299C17.947 35.6068 18.0513 35.65 18.16 35.65C19.0734 35.6936 19.9759 35.4372 20.73 34.92C21.4977 34.3853 22.0617 33.6063 22.33 32.71C22.4801 32.2285 22.5378 31.7229 22.5 31.22C22.4566 31.1297 22.3823 31.0579 22.2907 31.0176C22.199 30.9773 22.0959 30.971 22 31C21.8913 31 21.787 31.0432 21.7101 31.1201C21.6332 31.197 21.59 31.3013 21.59 31.41L21.6 31.39Z" fill="#B5B1A4"/>
<path d="M18.5 53.55C18.9584 53.55 19.33 53.1784 19.33 52.72C19.33 52.2616 18.9584 51.89 18.5 51.89C18.0416 51.89 17.67 52.2616 17.67 52.72C17.67 53.1784 18.0416 53.55 18.5 53.55Z" fill="#EF3C23"/>
<path d="M6.22001 32.84C6.67841 32.84 7.05001 32.4684 7.05001 32.01C7.05001 31.5516 6.67841 31.18 6.22001 31.18C5.76162 31.18 5.39001 31.5516 5.39001 32.01C5.39001 32.4684 5.76162 32.84 6.22001 32.84Z" fill="#EF3C23"/>
<path d="M14.04 27.07C14.4984 27.07 14.87 26.6984 14.87 26.24C14.87 25.7816 14.4984 25.41 14.04 25.41C13.5816 25.41 13.21 25.7816 13.21 26.24C13.21 26.6984 13.5816 27.07 14.04 27.07Z" fill="#EF3C23"/>
<path d="M23.3901 6.26C23.8485 6.26 24.2201 5.88839 24.2201 5.43C24.2201 4.9716 23.8485 4.6 23.3901 4.6C22.9317 4.6 22.5601 4.9716 22.5601 5.43C22.5601 5.88839 22.9317 6.26 23.3901 6.26Z" fill="#EF3C23"/>
<path d="M57.8999 15.79C58.3583 15.79 58.7299 15.4184 58.7299 14.96C58.7299 14.5016 58.3583 14.13 57.8999 14.13C57.4416 14.13 57.0699 14.5016 57.0699 14.96C57.0699 15.4184 57.4416 15.79 57.8999 15.79Z" fill="#EF3C23"/>
<path d="M52.8 5.77C53.2584 5.77 53.63 5.3984 53.63 4.94C53.63 4.4816 53.2584 4.11 52.8 4.11C52.3416 4.11 51.97 4.4816 51.97 4.94C51.97 5.3984 52.3416 5.77 52.8 5.77Z" fill="#EF3C23"/>
<path d="M40.3801 11.18C40.8384 11.18 41.21 10.8084 41.21 10.35C41.21 9.8916 40.8384 9.52 40.3801 9.52C39.9217 9.52 39.55 9.8916 39.55 10.35C39.55 10.8084 39.9217 11.18 40.3801 11.18Z" fill="#EF3C23"/>
<path d="M57.8999 29.46C58.3583 29.46 58.7299 29.0884 58.7299 28.63C58.7299 28.1716 58.3583 27.8 57.8999 27.8C57.4416 27.8 57.0699 28.1716 57.0699 28.63C57.0699 29.0884 57.4416 29.46 57.8999 29.46Z" fill="#EF3C23"/>
<path d="M49.5299 23.48C49.9883 23.48 50.36 23.1084 50.36 22.65C50.36 22.1916 49.9883 21.82 49.5299 21.82C49.0716 21.82 48.7 22.1916 48.7 22.65C48.7 23.1084 49.0716 23.48 49.5299 23.48Z" fill="#EF3C23"/>
<path d="M50.86 43.53C51.3184 43.53 51.69 43.1584 51.69 42.7C51.69 42.2416 51.3184 41.87 50.86 41.87C50.4016 41.87 50.03 42.2416 50.03 42.7C50.03 43.1584 50.4016 43.53 50.86 43.53Z" fill="#EF3C23"/>
<path d="M58.29 46.25C58.7484 46.25 59.12 45.8784 59.12 45.42C59.12 44.9616 58.7484 44.59 58.29 44.59C57.8316 44.59 57.46 44.9616 57.46 45.42C57.46 45.8784 57.8316 46.25 58.29 46.25Z" fill="#EF3C23"/>
<path d="M51.94 60.1C52.3984 60.1 52.77 59.7284 52.77 59.27C52.77 58.8116 52.3984 58.44 51.94 58.44C51.4816 58.44 51.11 58.8116 51.11 59.27C51.11 59.7284 51.4816 60.1 51.94 60.1Z" fill="#EF3C23"/>
<path d="M41.42 57.01C41.8784 57.01 42.25 56.6384 42.25 56.18C42.25 55.7216 41.8784 55.35 41.42 55.35C40.9616 55.35 40.59 55.7216 40.59 56.18C40.59 56.6384 40.9616 57.01 41.42 57.01Z" fill="#EF3C23"/>
<path d="M9.06999 9.91C9.52839 9.91 9.89999 9.5384 9.89999 9.08C9.89999 8.6216 9.52839 8.25 9.06999 8.25C8.61159 8.25 8.23999 8.6216 8.23999 9.08C8.23999 9.5384 8.61159 9.91 9.06999 9.91Z" fill="#EF3C23"/>
<path d="M29.45 49.33C29.9084 49.33 30.28 48.9584 30.28 48.5C30.28 48.0416 29.9084 47.67 29.45 47.67C28.9916 47.67 28.62 48.0416 28.62 48.5C28.62 48.9584 28.9916 49.33 29.45 49.33Z" fill="#EF3C23"/>
<path d="M6.73002 56.8C7.18842 56.8 7.56002 56.4284 7.56002 55.97C7.56002 55.5116 7.18842 55.14 6.73002 55.14C6.27163 55.14 5.90002 55.5116 5.90002 55.97C5.90002 56.4284 6.27163 56.8 6.73002 56.8Z" fill="#EF3C23"/>
<path d="M11.84 49.05C11.56 49.31 11.26 49.58 10.99 49.86C10.2985 50.5266 9.77132 51.3448 9.45005 52.25V52.31C9.37958 52.4723 9.27545 52.6179 9.14454 52.737C9.01363 52.8561 8.85892 52.946 8.69065 53.0008C8.52238 53.0557 8.34439 53.0741 8.16845 53.055C7.9925 53.0359 7.82262 52.9797 7.67005 52.89C7.64706 52.8762 7.62159 52.8671 7.59508 52.8631C7.56857 52.8592 7.54155 52.8605 7.51555 52.867C7.48955 52.8735 7.46508 52.8851 7.44355 52.901C7.42201 52.917 7.40383 52.937 7.39005 52.96C7.37626 52.983 7.36713 53.0085 7.36318 53.035C7.35924 53.0615 7.36056 53.0885 7.36706 53.1145C7.37356 53.1405 7.38511 53.165 7.40107 53.1865C7.41702 53.208 7.43706 53.2262 7.46005 53.24C7.71808 53.3904 8.01137 53.4698 8.31005 53.47C8.48343 53.4736 8.6561 53.4465 8.82004 53.39C9.00591 53.329 9.17884 53.2341 9.33005 53.11C9.32493 53.4501 9.37907 53.7885 9.49005 54.11C9.50325 54.1521 9.53003 54.1887 9.56621 54.2141C9.60239 54.2394 9.64593 54.252 9.69004 54.25H9.75005C9.79485 54.2283 9.82992 54.1906 9.84842 54.1444C9.86691 54.0981 9.86749 54.0466 9.85005 54C9.27005 52.38 10.66 50.75 11.28 50.12C11.52 49.88 11.77 49.64 12.03 49.41C11.9108 50.373 11.9108 51.347 12.03 52.31C12.1071 52.7824 12.2878 53.2319 12.5593 53.6261C12.8307 54.0203 13.1862 54.3495 13.6 54.59H13.7H13.79C13.842 54.5577 13.881 54.5082 13.9 54.45C14.0836 53.4928 14.0447 52.5062 13.7863 51.5665C13.528 50.6267 13.0571 49.7589 12.41 49.03C13.1986 48.3727 13.8422 47.5588 14.3 46.64C14.6756 45.8136 14.7806 44.8896 14.6 44C14.6059 43.7587 14.6603 43.521 14.76 43.3011C14.8596 43.0812 15.0025 42.8836 15.18 42.72C15.349 42.542 15.5521 42.3998 15.7771 42.3019C16.0022 42.204 16.2446 42.1523 16.49 42.15C16.5371 42.1538 16.584 42.1409 16.6225 42.1134C16.6609 42.0859 16.6884 42.0458 16.7 42C16.7028 41.9729 16.7 41.9456 16.6918 41.9196C16.6836 41.8937 16.6702 41.8697 16.6524 41.8491C16.6346 41.8285 16.6128 41.8117 16.5884 41.7999C16.5639 41.788 16.5372 41.7812 16.51 41.78C16.2092 41.7755 15.9107 41.8337 15.6336 41.9507C15.3564 42.0678 15.1066 42.2412 14.9 42.46C14.6655 42.6837 14.4784 42.9524 14.35 43.25C14.2801 43.0852 14.2 42.9248 14.11 42.77C13.9264 42.4462 13.6898 42.1555 13.41 41.91C13.7337 41.7592 14.0052 41.5155 14.19 41.21C14.5375 40.6339 14.6452 39.9446 14.49 39.29C14.143 38.2776 13.536 37.3741 12.73 36.67C12.7062 36.6416 12.6746 36.6207 12.639 36.6101C12.6035 36.5994 12.5656 36.5994 12.53 36.61C12.4922 36.6192 12.4578 36.6392 12.4312 36.6676C12.4045 36.696 12.3867 36.7316 12.38 36.77C11.9808 38.2911 12.047 39.8969 12.57 41.38C12.4126 41.3169 12.248 41.2733 12.08 41.25C11.6268 41.1748 11.1616 41.2646 10.769 41.5032C10.3763 41.7417 10.0822 42.1131 9.94004 42.55C9.93102 42.6029 9.94257 42.6572 9.97232 42.7018C10.0021 42.7464 10.0478 42.778 10.1 42.79C10.1257 42.7974 10.1526 42.7994 10.1791 42.7957C10.2055 42.792 10.2309 42.7828 10.2535 42.7686C10.2762 42.7545 10.2956 42.7357 10.3105 42.7135C10.3254 42.6914 10.3355 42.6663 10.34 42.64C10.4577 42.3023 10.6907 42.017 10.9979 41.8341C11.3052 41.6512 11.6671 41.5824 12.02 41.64C12.3891 41.7224 12.7359 41.884 13.0363 42.1137C13.3367 42.3433 13.5837 42.6355 13.76 42.97C13.963 43.3176 14.1083 43.6959 14.19 44.09C14.3768 44.8937 14.3104 45.7355 14 46.5C13.463 47.4894 12.7277 48.3575 11.84 49.05V49.05Z" fill="#7A913A"/>
<path d="M48.57 55.73H48.48H48.37C48.198 55.6999 48.0302 55.6496 47.87 55.58C47.1537 55.2776 46.4811 54.8807 45.87 54.4C45.449 54.0682 45.0045 53.7674 44.54 53.5C43.3542 52.798 41.9471 52.5694 40.6 52.86C39.9585 53.0113 39.3621 53.313 38.86 53.74V53.74C38.7354 53.2885 38.5068 52.8724 38.1925 52.5251C37.8782 52.1778 37.4869 51.9089 37.05 51.74C36.5967 51.5255 36.1015 51.4142 35.6 51.4142C35.0985 51.4142 34.6033 51.5255 34.15 51.74C34.109 51.7589 34.0752 51.7905 34.0536 51.8301C34.032 51.8698 34.0237 51.9153 34.03 51.96C34.1289 52.4593 34.3469 52.9274 34.6655 53.3244C34.9841 53.7213 35.3939 54.0354 35.86 54.24C36.2447 54.4077 36.6603 54.4929 37.08 54.49C37.5693 54.4914 38.0521 54.3783 38.49 54.16C38.1105 54.5729 37.827 55.0646 37.66 55.6C37.4667 56.279 37.4998 57.0024 37.7542 57.661C38.0086 58.3195 38.4705 58.8773 39.07 59.25H39.17C39.2059 59.2493 39.2411 59.2398 39.2724 59.2224C39.3038 59.2049 39.3304 59.1801 39.35 59.15C39.3755 59.102 39.3813 59.0461 39.3664 58.9939C39.3515 58.9417 39.317 58.8973 39.27 58.87C38.7504 58.5457 38.351 58.0605 38.1325 57.4882C37.9141 56.916 37.8886 56.2881 38.06 55.7C38.2515 55.1067 38.5951 54.5738 39.0565 54.1545C39.5179 53.7352 40.0811 53.444 40.69 53.31C41.9388 53.0422 43.2427 53.2565 44.34 53.91C44.7897 54.1697 45.2207 54.4604 45.63 54.78C46.2454 55.2598 46.917 55.6628 47.63 55.98C47.4773 56.0569 47.336 56.1545 47.21 56.27C46.7525 56.2503 46.2965 56.3355 45.877 56.5193C45.4576 56.703 45.0857 56.9803 44.79 57.33C44.5112 57.6657 44.3271 58.0699 44.2567 58.5006C44.1864 58.9313 44.2324 59.373 44.39 59.78C44.4071 59.8159 44.434 59.8463 44.4676 59.8675C44.5012 59.8888 44.5402 59.9 44.58 59.9C44.9298 59.859 45.2636 59.7302 45.5503 59.5256C45.837 59.3211 46.0674 59.0474 46.22 58.73C46.3705 58.4638 46.5074 58.1901 46.63 57.91C46.7565 57.6102 46.9035 57.3195 47.07 57.04C47.1636 56.8998 47.2708 56.7692 47.39 56.65V56.65C47.6297 56.3974 47.9532 56.241 48.3 56.21C49.1462 56.3798 50.0227 56.3138 50.8339 56.0193C51.6451 55.7248 52.3599 55.2131 52.9 54.54C52.9401 55.1998 53.17 55.834 53.5621 56.3663C53.9542 56.8985 54.4917 57.3061 55.11 57.54C55.3963 57.639 55.6971 57.6897 56 57.69C56.3769 57.6829 56.7484 57.5994 57.0921 57.4448C57.4359 57.2901 57.7447 57.0673 58 56.79C58.3578 56.4319 58.6068 55.9798 58.7183 55.4861C58.8298 54.9923 58.7992 54.4771 58.63 54C58.4494 53.5219 58.1261 53.1109 57.7039 52.8229C57.2817 52.5348 56.7811 52.3837 56.27 52.39C56.2433 52.3898 56.2168 52.3953 56.1924 52.4061C56.1679 52.4169 56.146 52.4327 56.1281 52.4525C56.1101 52.4723 56.0966 52.4957 56.0883 52.5211C56.08 52.5465 56.0772 52.5734 56.08 52.6C56.0826 52.6539 56.1058 52.7048 56.1449 52.7421C56.1841 52.7793 56.236 52.8001 56.29 52.8C56.7237 52.7759 57.1534 52.8936 57.5142 53.1354C57.875 53.3771 58.1474 53.7298 58.29 54.14C58.4265 54.544 58.4454 54.9784 58.3445 55.3927C58.2435 55.807 58.027 56.184 57.72 56.48C57.4006 56.7694 57.0103 56.969 56.5888 57.0586C56.1672 57.1482 55.7295 57.1245 55.32 56.99C54.7619 56.7794 54.2792 56.4072 53.9336 55.9209C53.588 55.4346 53.3953 54.8564 53.38 54.26C53.3496 53.3144 53.6268 52.3845 54.17 51.61C54.3183 51.3798 54.4855 51.1623 54.67 50.96C55.5265 50.0643 56.5443 49.3383 57.67 48.82C57.6936 48.8082 57.7147 48.7918 57.732 48.7719C57.7494 48.7519 57.7626 48.7287 57.7709 48.7036C57.7793 48.6786 57.7826 48.6521 57.7807 48.6257C57.7789 48.5994 57.7718 48.5736 57.76 48.55C57.7482 48.5264 57.7318 48.5053 57.7119 48.488C57.6919 48.4706 57.6687 48.4574 57.6436 48.4491C57.6186 48.4407 57.5921 48.4374 57.5657 48.4393C57.5394 48.4411 57.5136 48.4482 57.49 48.46C56.3825 48.9492 55.3676 49.6258 54.49 50.46C54.7596 49.7412 55.0735 49.0399 55.43 48.36C55.6836 47.919 55.9139 47.465 56.12 47C56.3256 46.493 56.4668 45.9622 56.54 45.42C56.6279 44.8641 56.5831 44.2954 56.4093 43.7601C56.2355 43.2248 55.9377 42.7382 55.54 42.34C55.4281 42.2148 55.2846 42.1218 55.1246 42.0708C54.9645 42.0198 54.7938 42.0126 54.63 42.05C54.4779 42.1257 54.3476 42.2388 54.2514 42.3788C54.1552 42.5187 54.0962 42.6809 54.08 42.85C53.9429 43.6162 54.0134 44.4052 54.2842 45.135C54.555 45.8647 55.0162 46.5087 55.62 47V47C55.43 47.45 55.21 47.88 55.03 48.21C54.493 49.235 54.0576 50.3101 53.73 51.42C53.261 52.1067 52.9753 52.9019 52.9 53.73C52.4582 54.4554 51.8105 55.0329 51.0394 55.3891C50.2683 55.7452 49.4087 55.8639 48.57 55.73V55.73Z" fill="#7A913A"/>
<path d="M41.56 26.62C41.1386 27.2699 40.4771 27.7265 39.72 27.89C39.6669 27.9042 39.6211 27.9377 39.5915 27.984C39.5618 28.0302 39.5506 28.0859 39.56 28.14C39.571 28.185 39.5966 28.2251 39.6328 28.254C39.6689 28.283 39.7136 28.2991 39.76 28.3V28.3C40.6266 28.1066 41.3835 27.5828 41.87 26.84C42.2508 26.0362 42.3528 25.1283 42.16 24.26C42.452 24.3265 42.7505 24.3601 43.05 24.36C43.4762 24.3594 43.8991 24.285 44.3 24.14C44.878 23.9133 45.3877 23.5413 45.78 23.06C46.4984 22.1937 46.9253 21.1229 47 20C47.041 19.5061 46.9656 19.0095 46.78 18.55C46.6846 18.2931 46.5237 18.0656 46.3132 17.8902C46.1026 17.7147 45.8499 17.5975 45.58 17.55C45.3989 17.5348 45.2165 17.5571 45.0445 17.6156C44.8724 17.6741 44.7143 17.7675 44.58 17.89C44.3867 18.06 44.2295 18.2671 44.1178 18.499C44.0062 18.7309 43.9423 18.9829 43.93 19.24C43.9763 20.054 44.2386 20.841 44.69 21.52L45.11 22.26L45.46 22.87C45.1339 23.2499 44.7179 23.5421 44.25 23.72C43.5324 23.9572 42.7575 23.9572 42.04 23.72C41.2686 23.5027 40.5363 23.1652 39.87 22.72C39.0723 22.2406 38.3896 21.592 37.87 20.82C37.6227 20.4491 37.4613 20.0278 37.3973 19.5867C37.3332 19.1456 37.3683 18.6958 37.5 18.27C37.5196 18.2183 37.5179 18.1609 37.4955 18.1103C37.473 18.0598 37.4315 18.0201 37.38 18C37.3544 17.9907 37.3272 17.9867 37.3 17.9882C37.2729 17.9897 37.2463 17.9968 37.222 18.009C37.1976 18.0212 37.176 18.0382 37.1585 18.059C37.1409 18.0798 37.1278 18.1039 37.12 18.13C36.9678 18.6129 36.9248 19.1235 36.994 19.625C37.0632 20.1265 37.2428 20.6064 37.52 21.03C38.0658 21.8418 38.7825 22.5244 39.62 23.03C40.2855 23.4911 41.0172 23.8485 41.79 24.09C42.0083 24.9345 41.927 25.8287 41.56 26.62V26.62Z" fill="#7A913A"/>
<path d="M22.14 44.28C22.0168 44.1369 21.8831 44.0032 21.74 43.88C21.4883 43.6289 21.1741 43.4494 20.83 43.36C20.6356 43.3096 20.4305 43.3188 20.2414 43.3866C20.0523 43.4544 19.8881 43.5775 19.77 43.74C19.6655 43.9331 19.6275 44.1553 19.6618 44.3722C19.6962 44.589 19.8009 44.7886 19.96 44.94C20.2183 45.1694 20.5547 45.2911 20.9 45.28H21.09C21.4537 45.2343 21.7988 45.0928 22.09 44.87C22.5539 45.463 22.894 46.1431 23.09 46.87V46.87C22.5038 47.0164 21.9647 47.31 21.5237 47.723C21.0828 48.136 20.7545 48.6547 20.57 49.23C20.5316 49.3225 20.517 49.4231 20.5275 49.5226C20.538 49.6222 20.5732 49.7175 20.63 49.8C20.6734 49.8528 20.7286 49.8948 20.7911 49.9225C20.8536 49.9503 20.9217 49.9631 20.99 49.96C21.1559 49.9539 21.3161 49.8981 21.45 49.8C22.2647 49.1969 22.8865 48.37 23.24 47.42C23.2887 47.751 23.3088 48.0856 23.3 48.42C23.2986 48.4471 23.3028 48.4742 23.3122 48.4996C23.3217 48.525 23.3362 48.5483 23.3549 48.5679C23.3736 48.5876 23.3961 48.6032 23.4211 48.6139C23.446 48.6245 23.4728 48.63 23.5 48.63V48.63C23.5262 48.6313 23.5525 48.6275 23.5773 48.6187C23.6021 48.6098 23.6249 48.5962 23.6444 48.5786C23.6639 48.5609 23.6797 48.5396 23.691 48.5158C23.7022 48.492 23.7087 48.4663 23.71 48.44C23.7519 47.0565 23.3019 45.703 22.44 44.62C22.9391 44.0698 23.2992 43.408 23.49 42.69C23.9697 41.334 24.0937 39.8776 23.85 38.46C23.8394 38.407 23.8081 38.3603 23.7631 38.3303C23.7181 38.3003 23.663 38.2894 23.61 38.3C23.5569 38.3106 23.5103 38.3419 23.4803 38.3869C23.4503 38.4319 23.4394 38.487 23.45 38.54C23.6721 39.8823 23.5481 41.259 23.09 42.54C22.9243 43.1905 22.5976 43.7889 22.14 44.28ZM21.04 44.86C20.8994 44.8841 20.7552 44.8778 20.6172 44.8416C20.4793 44.8054 20.3506 44.74 20.24 44.65C20.1513 44.5849 20.0867 44.4923 20.0559 44.3867C20.0252 44.2811 20.0302 44.1684 20.07 44.0659C20.1099 43.9634 20.1824 43.8769 20.2764 43.8198C20.3704 43.7627 20.4806 43.7381 20.59 43.75H20.75C21.0205 43.8346 21.2672 43.982 21.47 44.18C21.6006 44.2922 21.7242 44.4125 21.84 44.54C21.5958 44.7238 21.3046 44.8347 21 44.86H21.04Z" fill="#7A913A"/>
<path d="M19.21 9.72C19.0811 9.47124 19.0138 9.19517 19.0138 8.915C19.0138 8.63484 19.0811 8.35876 19.21 8.11C19.3073 7.87867 19.4591 7.67425 19.6523 7.51408C19.8455 7.35392 20.0746 7.24275 20.32 7.19C20.5527 7.1457 20.7933 7.1737 21.0096 7.27024C21.226 7.36677 21.4075 7.52722 21.53 7.73C21.5575 7.78141 21.5809 7.83491 21.6 7.89C21.6424 8.0326 21.6501 8.18331 21.6222 8.32948C21.5944 8.47565 21.5319 8.613 21.44 8.73C21.3647 8.8372 21.2642 8.92426 21.1474 8.98355C21.0305 9.04283 20.9009 9.07252 20.77 9.07C20.7428 9.07003 20.716 9.06455 20.691 9.05388C20.6661 9.04321 20.6436 9.02758 20.6249 9.00793C20.6062 8.98829 20.5917 8.96504 20.5822 8.93961C20.5728 8.91418 20.5686 8.88709 20.57 8.86C20.5725 8.80606 20.5958 8.75518 20.6349 8.71793C20.674 8.68069 20.726 8.65994 20.78 8.66C20.8457 8.66023 20.9104 8.64385 20.9681 8.61238C21.0258 8.58091 21.0746 8.53538 21.11 8.48C21.1631 8.41743 21.2 8.34273 21.2175 8.26251C21.2349 8.18228 21.2323 8.09899 21.21 8.02C21.1441 7.86456 21.0264 7.73677 20.8769 7.65836C20.7273 7.57996 20.5553 7.5558 20.39 7.59C20.21 7.6328 20.0428 7.71765 19.902 7.83759C19.7612 7.95753 19.6508 8.10915 19.58 8.28C19.4833 8.4706 19.433 8.6813 19.433 8.895C19.433 9.1087 19.4833 9.3194 19.58 9.51C19.6828 9.67474 19.8342 9.80357 20.0133 9.87878C20.1923 9.95398 20.3903 9.97188 20.58 9.93C20.6317 9.91635 20.6866 9.92201 20.7345 9.94594C20.7823 9.96987 20.8198 10.0104 20.84 10.06C20.8448 10.0898 20.8448 10.1202 20.84 10.15C20.8552 10.192 20.8552 10.238 20.84 10.28C20.644 10.8907 20.3611 11.47 20 12C19.308 12.9385 18.4034 13.6997 17.3605 14.2211C16.3176 14.7426 15.1659 15.0095 14 15C13.9081 15.0106 13.815 14.9978 13.7293 14.9628C13.6437 14.9279 13.5682 14.8719 13.51 14.8C13.4579 14.702 13.4386 14.59 13.4548 14.4802C13.471 14.3705 13.5218 14.2688 13.6 14.19C14.274 13.2238 15.2063 12.4666 16.2903 12.0051C17.3743 11.5435 18.5662 11.3962 19.73 11.58C20.0134 11.1756 20.2484 10.7393 20.43 10.28C20.1959 10.2973 19.9612 10.255 19.7479 10.157C19.5345 10.0591 19.3495 9.90876 19.21 9.72Z" fill="#7A913A"/>
<path d="M43.3799 7.8C44.2585 8.1762 45.2043 8.37012 46.1599 8.37C47.67 8.34619 49.1454 7.91426 50.4299 7.12C51.3131 7.36259 52.1508 7.74765 52.9099 8.26C52.6634 8.50823 52.4453 8.78328 52.2599 9.08C52.1299 9.3 52.0099 9.54 51.8999 9.76C51.6843 10.2976 51.3411 10.7747 50.8999 11.15C49.9899 11.79 48.6399 11.35 47.7099 10.63H47.4599V10.81C48.6576 12.1418 50.1049 13.2256 51.7199 14C52.3699 14.37 53.0499 14.75 53.6599 15.15C54.67 15.8236 55.5535 16.6699 56.2699 17.65C54.6699 17.27 53.2699 18.38 52.4599 19.59C52.3053 19.768 52.2145 19.9925 52.2019 20.228C52.1892 20.4634 52.2554 20.6964 52.3899 20.89C52.4894 20.981 52.6062 21.0509 52.7334 21.0956C52.8606 21.1403 52.9954 21.1588 53.1299 21.15H53.1999C54.0246 21.1015 54.8098 20.7805 55.4324 20.2376C56.055 19.6946 56.4797 18.9604 56.6399 18.15C57.3353 19.2097 57.8364 20.3847 58.1199 21.62C58.2893 22.2759 58.2893 22.9641 58.1199 23.62C58.0377 23.9216 57.8705 24.1932 57.6383 24.4024C57.406 24.6116 57.1185 24.7496 56.8099 24.8C56.7836 24.8025 56.7581 24.8102 56.7347 24.8226C56.7114 24.8351 56.6908 24.852 56.6741 24.8725C56.6573 24.8929 56.6448 24.9165 56.6372 24.9418C56.6297 24.9671 56.6272 24.9937 56.6299 25.02C56.6347 25.0705 56.6576 25.1175 56.6944 25.1524C56.7311 25.1874 56.7793 25.2078 56.8299 25.21V25.21C57.2208 25.156 57.5869 24.9877 57.8823 24.7261C58.1777 24.4645 58.3891 24.1214 58.4899 23.74C58.6776 23.0221 58.6776 22.2679 58.4899 21.55C57.8552 18.7957 56.1963 16.386 53.8499 14.81C53.2299 14.4 52.5499 14.02 51.8499 13.64C50.7079 13.0475 49.6291 12.3405 48.6299 11.53C49.0104 11.6745 49.413 11.7523 49.8199 11.76C50.277 11.7681 50.725 11.6316 51.0999 11.37C51.5933 11.0129 51.9944 10.5432 52.2699 10C52.3799 9.78 52.4899 9.55 52.6099 9.34C52.8157 9.00288 53.0721 8.69935 53.3699 8.44C53.9043 7.95928 54.5483 7.61679 55.2456 7.44247C55.9429 7.26815 56.6722 7.2673 57.3699 7.44C57.9808 7.60409 58.5258 7.95345 58.9299 8.44C59.123 8.66741 59.2599 8.9371 59.3294 9.22723C59.3989 9.51736 59.3991 9.81978 59.3299 10.11C59.2609 10.3317 59.1448 10.5359 58.9894 10.7085C58.8341 10.8811 58.6432 11.0181 58.4299 11.11C58.2233 11.2065 57.998 11.2565 57.7699 11.2565C57.5419 11.2565 57.3166 11.2065 57.1099 11.11C56.9083 10.9999 56.7343 10.8455 56.6009 10.6584C56.4676 10.4714 56.3783 10.2565 56.3399 10.03C56.2874 9.80835 56.2843 9.57784 56.331 9.35487C56.3777 9.13191 56.4729 8.92197 56.6099 8.74C56.6329 8.697 56.6402 8.64734 56.6306 8.59955C56.6209 8.55176 56.595 8.5088 56.5571 8.47806C56.5193 8.44732 56.4719 8.4307 56.4232 8.43105C56.3744 8.4314 56.3273 8.44871 56.2899 8.48C56.1094 8.70974 55.9813 8.97625 55.9148 9.2608C55.8483 9.54534 55.845 9.841 55.905 10.127C55.9651 10.413 56.0871 10.6823 56.2624 10.9161C56.4378 11.1498 56.6622 11.3423 56.9199 11.48C57.1819 11.6003 57.4667 11.6626 57.7549 11.6626C58.0432 11.6626 58.328 11.6003 58.5899 11.48C58.8592 11.374 59.1008 11.2081 59.2965 10.9951C59.4923 10.782 59.6371 10.5272 59.7199 10.25C59.8078 9.89538 59.8111 9.52506 59.7294 9.16895C59.6478 8.81284 59.4835 8.48093 59.2499 8.2C58.8061 7.63167 58.1989 7.21289 57.5099 7C56.767 6.81211 55.9898 6.80485 55.2435 6.97882C54.4971 7.1528 53.8033 7.50295 53.2199 8C52.3806 7.41276 51.4472 6.97311 50.4599 6.7V6.7C48.0877 6.00675 45.5382 6.27248 43.3599 7.44C43.3261 7.45789 43.2984 7.48561 43.2805 7.51952C43.2627 7.55343 43.2555 7.59194 43.2599 7.63C43.2612 7.66694 43.2733 7.70269 43.2946 7.73289C43.3159 7.76308 43.3456 7.78641 43.3799 7.8V7.8Z" fill="#7A913A"/>
<path d="M27.9201 8.57C28.2666 8.69234 28.6327 8.74996 29.0001 8.74C29.6866 8.72207 30.3643 8.57977 31.0001 8.32L30.9101 8.51C30.7345 8.92321 30.5972 9.35168 30.5001 9.79C30.3885 10.3415 30.1893 10.8715 29.9101 11.36C29.541 11.8879 28.9923 12.2634 28.3666 12.4161C27.7408 12.5689 27.0808 12.4885 26.5101 12.19C26.4866 12.176 26.4606 12.167 26.4335 12.1635C26.4065 12.16 26.379 12.162 26.3528 12.1695C26.3266 12.177 26.3021 12.1898 26.281 12.2071C26.2599 12.2244 26.2426 12.2458 26.2301 12.27C26.2046 12.318 26.1987 12.3739 26.2136 12.4261C26.2286 12.4783 26.2631 12.5227 26.3101 12.55C26.7353 12.7849 27.2143 12.9055 27.7001 12.9C28.2016 12.9107 28.6978 12.7955 29.1432 12.5649C29.5887 12.3343 29.9693 11.9957 30.2501 11.58C30.5549 11.0557 30.7712 10.4847 30.8901 9.89C30.9883 9.47712 31.1187 9.07255 31.2801 8.68C31.4066 8.41232 31.5643 8.16057 31.7501 7.93V7.93C32.3712 7.19941 33.1856 6.65873 34.1001 6.37C34.6204 6.31839 35.1457 6.37979 35.6401 6.55C35.8945 6.63052 36.126 6.77048 36.3156 6.95829C36.5051 7.1461 36.6472 7.37636 36.7301 7.63C36.7978 7.86634 36.7761 8.11936 36.6691 8.34071C36.5621 8.56207 36.3773 8.73626 36.1501 8.83C36.029 8.85531 35.9036 8.85029 35.7849 8.8154C35.6663 8.78051 35.5581 8.71682 35.4701 8.63C35.396 8.56506 35.3397 8.48233 35.3064 8.3896C35.2732 8.29687 35.2641 8.19721 35.2801 8.1C35.2876 8.0744 35.29 8.04753 35.2871 8.02099C35.2841 7.99445 35.2758 7.96877 35.2628 7.94547C35.2497 7.92216 35.2322 7.90171 35.2111 7.88532C35.19 7.86892 35.1659 7.85691 35.1401 7.85C35.0871 7.83777 35.0314 7.84657 34.9848 7.87455C34.9382 7.90252 34.9042 7.9475 34.8901 8C34.8569 8.16536 34.8661 8.33643 34.9168 8.49728C34.9675 8.65813 35.0581 8.80355 35.1801 8.92C35.3962 9.13336 35.6864 9.25514 35.9901 9.26C36.0798 9.26967 36.1703 9.26967 36.2601 9.26C36.5905 9.13552 36.8627 8.89241 37.0235 8.57809C37.1844 8.26378 37.2223 7.90081 37.1301 7.56C37.0396 7.23573 36.8711 6.93857 36.6393 6.69451C36.4074 6.45044 36.1193 6.26692 35.8001 6.16L35.4801 6.06C36.6868 5.93503 37.9033 5.93503 39.1101 6.06C39.1636 6.0605 39.2154 6.04148 39.2559 6.00651C39.2964 5.97154 39.3228 5.92301 39.3301 5.87C39.3329 5.8159 39.3147 5.76281 39.2793 5.72181C39.2439 5.68082 39.194 5.65509 39.1401 5.65C37.6219 5.46183 36.0838 5.50905 34.5801 5.79C34.3993 5.82402 34.2219 5.87422 34.0501 5.94L34.0001 6C33.0314 6.31015 32.1689 6.88517 31.5101 7.66C30.4881 8.27997 29.2636 8.47389 28.1001 8.2C27.7658 8.09524 27.4611 7.91288 27.2108 7.66782C26.9606 7.42276 26.7718 7.12196 26.6601 6.79C26.5745 6.47285 26.6076 6.1354 26.753 5.84087C26.8984 5.54634 27.1463 5.31493 27.4501 5.19C27.6132 5.16159 27.7808 5.17412 27.9379 5.22648C28.095 5.27884 28.2366 5.36939 28.3501 5.49C28.4469 5.57979 28.5176 5.69418 28.5546 5.82097C28.5916 5.94776 28.5935 6.08222 28.5601 6.21C28.5464 6.26174 28.5521 6.31667 28.576 6.36453C28.5999 6.41239 28.6405 6.44988 28.6901 6.47C28.7431 6.48559 28.8001 6.47963 28.8488 6.45342C28.8975 6.42721 28.9339 6.38286 28.9501 6.33C29.0078 6.1322 29.0104 5.92236 28.9576 5.72319C28.9047 5.52402 28.7983 5.3431 28.6501 5.2C28.4885 5.02077 28.2813 4.88886 28.0505 4.8184C27.8197 4.74794 27.5742 4.74158 27.3401 4.8C26.9301 4.94797 26.5916 5.24606 26.393 5.63402C26.1943 6.02199 26.1504 6.47089 26.2701 6.89C26.3956 7.27899 26.6101 7.63336 26.8965 7.92498C27.1829 8.2166 27.5334 8.43745 27.9201 8.57V8.57Z" fill="#7A913A"/>
<path d="M58.77 42.6C58.7606 42.6541 58.7719 42.7098 58.8015 42.756C58.8311 42.8023 58.8769 42.8358 58.93 42.85C58.9828 42.859 59.0372 42.8475 59.0818 42.8177C59.1264 42.788 59.158 42.7423 59.17 42.69C59.2502 42.0715 59.171 41.4428 58.94 40.8635C58.709 40.2842 58.3338 39.7736 57.85 39.38C57.3978 38.9662 56.9165 38.5852 56.41 38.24C55.9483 37.9318 55.5043 37.5979 55.08 37.24C54.6521 36.8899 54.3124 36.4441 54.0884 35.9387C53.8643 35.4332 53.7621 34.8822 53.79 34.33C53.9097 33.9011 54.1173 33.5018 54.3996 33.1575C54.682 32.8132 55.0329 32.5314 55.43 32.33C55.8933 32.0369 56.4228 31.8649 56.97 31.83C57.2271 31.8187 57.4835 31.8649 57.7205 31.9652C57.9575 32.0655 58.1691 32.2175 58.34 32.41C58.4853 32.6051 58.5637 32.8418 58.5637 33.085C58.5637 33.3282 58.4853 33.5649 58.34 33.76C58.262 33.854 58.1641 33.9297 58.0535 33.9815C57.9429 34.0334 57.8222 34.0602 57.7 34.06C57.5974 34.0695 57.4941 34.0545 57.3985 34.0163C57.3028 33.978 57.2177 33.9176 57.15 33.84C57.1099 33.8048 57.0583 33.7855 57.005 33.7855C56.9516 33.7855 56.9001 33.8048 56.86 33.84C56.8403 33.8587 56.8246 33.8812 56.8139 33.9061C56.8032 33.931 56.7977 33.9579 56.7977 33.985C56.7977 34.0121 56.8032 34.039 56.8139 34.0639C56.8246 34.0888 56.8403 34.1113 56.86 34.13C56.9669 34.251 57.0998 34.3462 57.2487 34.4086C57.3976 34.4709 57.5588 34.4988 57.72 34.49C57.9103 34.499 58.1001 34.463 58.2739 34.3848C58.4477 34.3066 58.6005 34.1884 58.72 34.04C58.8608 33.8523 58.9544 33.6334 58.9927 33.4019C59.031 33.1704 59.0129 32.933 58.94 32.71C58.889 32.516 58.7969 32.3353 58.67 32.18C58.4612 31.9359 58.1997 31.7425 57.9052 31.6143C57.6107 31.4861 57.2909 31.4265 56.97 31.44C56.3556 31.4794 55.7609 31.6719 55.24 32C54.7852 32.2352 54.3859 32.5647 54.0686 32.9665C53.7513 33.3683 53.5234 33.8331 53.4 34.33C53.3732 34.9305 53.4857 35.5291 53.7285 36.079C53.9714 36.6289 54.3381 37.1152 54.8 37.5C55.236 37.8823 55.6934 38.2395 56.17 38.57C56.6565 38.9063 57.1208 39.2737 57.56 39.67C57.9921 40.0169 58.3296 40.4674 58.5411 40.9797C58.7527 41.4919 58.8314 42.0492 58.77 42.6V42.6Z" fill="#7A913A"/>
<path d="M17.3701 56.69C17.3422 56.6436 17.2971 56.6101 17.2445 56.597C17.192 56.5839 17.1365 56.5922 17.0901 56.62C17.0436 56.6479 17.0102 56.693 16.9971 56.7455C16.9839 56.798 16.9922 56.8536 17.0201 56.9C17.6158 57.7658 18.4225 58.4653 19.3639 58.9325C20.3053 59.3997 21.3503 59.6191 22.4001 59.57C22.7648 59.569 23.129 59.5422 23.4901 59.49H23.5801L24.1201 59.39C25.6898 58.9897 27.1647 58.2828 28.4601 57.31C28.4985 57.3256 28.5416 57.3256 28.5801 57.31C29.4875 57.1353 30.4274 57.2802 31.2401 57.72C31.4901 57.86 31.9301 58.16 31.9701 58.59C31.9715 58.6842 31.9482 58.7772 31.9026 58.8596C31.857 58.9421 31.7906 59.0112 31.7101 59.06C31.6667 59.0876 31.6164 59.1022 31.5651 59.1022C31.5137 59.1022 31.4634 59.0876 31.4201 59.06C31.3964 59.0454 31.3702 59.0357 31.3428 59.0313C31.3154 59.0269 31.2874 59.028 31.2605 59.0346C31.2335 59.0411 31.2081 59.0529 31.1857 59.0692C31.1633 59.0856 31.1444 59.1063 31.1301 59.13C31.106 59.1773 31.0999 59.2316 31.1127 59.2831C31.1256 59.3345 31.1566 59.3796 31.2001 59.41C31.3002 59.4685 31.4141 59.4995 31.5301 59.5C31.6723 59.5004 31.8115 59.4586 31.9301 59.38C32.0746 59.292 32.1928 59.1665 32.272 59.0169C32.3512 58.8673 32.3885 58.6991 32.3801 58.53C32.3299 58.2709 32.2184 58.0277 32.0549 57.8206C31.8913 57.6136 31.6805 57.4487 31.4401 57.34C30.7169 56.9503 29.9004 56.767 29.0801 56.81C29.6801 56.35 30.2601 55.86 30.8201 55.37C30.8573 55.3309 30.8781 55.279 30.8781 55.225C30.8781 55.171 30.8573 55.1191 30.8201 55.08C30.8014 55.0603 30.7789 55.0447 30.754 55.034C30.729 55.0233 30.7022 55.0178 30.6751 55.0178C30.6479 55.0178 30.6211 55.0233 30.5962 55.034C30.5712 55.0447 30.5487 55.0603 30.5301 55.08C28.9776 56.5717 27.1686 57.7709 25.1901 58.62C25.6167 58.3167 26.0031 57.9605 26.3401 57.56C26.573 57.2748 26.7649 56.9584 26.9101 56.62C27.3767 55.3365 27.6301 53.9853 27.6601 52.62C27.6601 52 27.5101 51.62 27.1401 51.48C26.9525 51.4347 26.7554 51.4488 26.5763 51.5205C26.3971 51.5922 26.2446 51.7178 26.1401 51.88C25.4671 52.6557 25.0643 53.6289 24.9921 54.6532C24.92 55.6776 25.1825 56.6977 25.7401 57.56V57.56C25.0784 58.2434 24.272 58.7696 23.3801 59.1C21.3501 59.4 18.6501 58.78 17.3701 56.69Z" fill="#7A913A"/>
<path d="M6.48001 60C6.50422 60.0117 6.53054 60.0183 6.55738 60.0196C6.58423 60.0209 6.61105 60.0167 6.63626 60.0074C6.66146 59.998 6.68452 59.9837 6.70406 59.9653C6.72361 59.9468 6.73924 59.9246 6.75001 59.9C7.30375 58.8106 8.19522 57.9297 9.29113 57.3889C10.387 56.8482 11.6285 56.6767 12.83 56.9C13.23 56.98 14.2 57.25 14.43 58.02C14.5073 58.2695 14.5076 58.5366 14.4309 58.7863C14.3542 59.036 14.2041 59.2569 14 59.42C13.7899 59.5703 13.548 59.6702 13.2931 59.7118C13.0381 59.7534 12.777 59.7357 12.53 59.66C12.14 59.54 11.71 59.21 11.71 58.78C11.7156 58.6735 11.7515 58.5708 11.8135 58.484C11.8756 58.3971 11.9611 58.3299 12.06 58.29C12.1151 58.2543 12.1794 58.2353 12.245 58.2353C12.3107 58.2353 12.3749 58.2543 12.43 58.29C12.4489 58.3149 12.473 58.3353 12.5007 58.3497C12.5285 58.364 12.559 58.3721 12.5902 58.3731C12.6215 58.3742 12.6525 58.3683 12.6812 58.3558C12.7098 58.3434 12.7353 58.3247 12.7558 58.3012C12.7763 58.2776 12.7913 58.2498 12.7997 58.2197C12.8081 58.1896 12.8097 58.1581 12.8043 58.1273C12.799 58.0965 12.7869 58.0674 12.7688 58.0419C12.7508 58.0164 12.7273 57.9953 12.7 57.98C12.5873 57.8857 12.4487 57.8275 12.3024 57.8133C12.1561 57.799 12.0089 57.8292 11.88 57.9C11.7139 57.9766 11.572 58.0973 11.4698 58.2489C11.3675 58.4005 11.3088 58.5773 11.3 58.76C11.3309 59.0605 11.4543 59.344 11.6531 59.5715C11.8519 59.799 12.1163 59.9592 12.41 60.03C12.6115 60.0885 12.8202 60.1188 13.03 60.12C13.4696 60.1244 13.8984 59.9838 14.25 59.72C14.5015 59.5194 14.6892 59.25 14.7904 58.9446C14.8916 58.6393 14.9019 58.3111 14.82 58C14.6581 57.6147 14.3952 57.2804 14.059 57.0322C13.7228 56.784 13.3259 56.6312 12.91 56.59C11.6247 56.35 10.2962 56.5307 9.12175 57.1053C7.94725 57.6799 6.9893 58.6179 6.39001 59.78C6.38103 59.8215 6.38482 59.8647 6.40089 59.904C6.41696 59.9432 6.44454 59.9767 6.48001 60V60Z" fill="#7A913A"/>
<path d="M42.12 50.77C42.1436 50.782 42.1693 50.7892 42.1957 50.7911C42.2221 50.7931 42.2486 50.7898 42.2738 50.7814C42.2989 50.773 42.3221 50.7598 42.342 50.7424C42.362 50.725 42.3783 50.7038 42.39 50.68C42.9419 49.5914 43.8316 48.7108 44.9258 48.17C46.02 47.6292 47.2599 47.4573 48.46 47.68C48.87 47.76 49.83 48.04 50.07 48.8C50.1314 49.0415 50.1216 49.2956 50.0418 49.5316C49.9619 49.7676 49.8154 49.9755 49.62 50.13C49.4139 50.2846 49.1736 50.3871 48.9194 50.4289C48.6652 50.4707 48.4047 50.4505 48.16 50.37C47.9484 50.3255 47.7555 50.2173 47.6071 50.06C47.4587 49.9027 47.362 49.7038 47.33 49.49C47.3419 49.3853 47.3802 49.2854 47.4415 49.1997C47.5027 49.1139 47.5848 49.0452 47.68 49C47.7377 48.9666 47.8033 48.9491 47.87 48.9491C47.9367 48.9491 48.0022 48.9666 48.06 49C48.102 49.0236 48.1509 49.0319 48.1985 49.0237C48.246 49.0154 48.2892 48.991 48.3209 48.9547C48.3526 48.9183 48.3708 48.8721 48.3724 48.8239C48.3741 48.7758 48.3591 48.7285 48.33 48.69C48.2165 48.5976 48.0787 48.54 47.9332 48.5241C47.7878 48.5081 47.6408 48.5345 47.51 48.6C47.3405 48.676 47.1956 48.7976 47.0914 48.9512C46.9872 49.1049 46.9278 49.2845 46.92 49.47C46.9389 49.7755 47.0534 50.0672 47.2472 50.3041C47.441 50.541 47.7043 50.7109 48 50.79C48.1995 50.858 48.4091 50.8919 48.62 50.89C49.0583 50.8955 49.4853 50.7508 49.83 50.48C50.0922 50.2763 50.2882 49.9995 50.3933 49.6844C50.4983 49.3694 50.5076 49.0303 50.42 48.71C50.2558 48.3272 49.992 47.9955 49.6561 47.7493C49.3202 47.503 48.9244 47.3514 48.51 47.31C47.2263 47.0739 45.9007 47.2565 44.7286 47.8308C43.5565 48.4051 42.6 49.3409 42 50.5C41.9888 50.5255 41.9831 50.553 41.9832 50.5808C41.9832 50.6086 41.9891 50.6361 42.0004 50.6615C42.0117 50.6869 42.0282 50.7097 42.0487 50.7283C42.0693 50.747 42.0936 50.7612 42.12 50.77V50.77Z" fill="#7A913A"/>
<path d="M6.74996 26.48C6.76936 26.4622 6.78485 26.4406 6.79545 26.4165C6.80604 26.3924 6.81151 26.3663 6.81151 26.34C6.81151 26.3137 6.80604 26.2876 6.79545 26.2635C6.78485 26.2394 6.76936 26.2178 6.74996 26.2C5.98301 25.2533 5.54077 24.0851 5.48855 22.8679C5.43633 21.6507 5.7769 20.4489 6.45996 19.44C6.69996 19.1 7.33996 18.33 8.12996 18.44C8.36869 18.4856 8.58951 18.5982 8.7666 18.7646C8.94368 18.9311 9.06972 19.1445 9.12996 19.38C9.18989 19.6313 9.18847 19.8933 9.12581 20.144C9.06315 20.3946 8.9411 20.6265 8.76996 20.82C8.64236 20.9938 8.46524 21.1249 8.26182 21.1963C8.0584 21.2677 7.83816 21.2759 7.62996 21.22C7.53692 21.1711 7.45893 21.0978 7.40433 21.0079C7.34973 20.9181 7.32057 20.8151 7.31996 20.71C7.31348 20.6419 7.32707 20.5735 7.35906 20.5131C7.39105 20.4526 7.44003 20.4029 7.49996 20.37C7.53188 20.3431 7.55506 20.3073 7.56653 20.2671C7.578 20.227 7.57725 20.1844 7.56437 20.1447C7.55149 20.1049 7.52707 20.07 7.49422 20.0442C7.46138 20.0184 7.4216 20.0031 7.37996 20C7.25807 20.0701 7.15801 20.1726 7.09092 20.2962C7.02383 20.4198 6.99234 20.5596 6.99996 20.7C7.00329 20.884 7.05733 21.0635 7.15614 21.2188C7.25494 21.3741 7.39468 21.4991 7.55996 21.58C7.8491 21.6712 8.15946 21.6702 8.44796 21.577C8.73647 21.4838 8.98881 21.3031 9.16996 21.06C9.30703 20.9017 9.41839 20.7229 9.49996 20.53C9.68276 20.1325 9.72507 19.6847 9.61996 19.26C9.53544 18.9326 9.35518 18.6378 9.10223 18.4133C8.84928 18.1889 8.53513 18.045 8.19996 18C7.79197 18.0076 7.393 18.1214 7.04231 18.33C6.69163 18.5387 6.40132 18.8351 6.19996 19.19C5.46307 20.2722 5.09519 21.5633 5.15105 22.8714C5.2069 24.1795 5.6835 25.4346 6.50996 26.45C6.54121 26.4805 6.58158 26.5 6.62492 26.5054C6.66825 26.5108 6.71217 26.5019 6.74996 26.48V26.48Z" fill="#7A913A"/>
<path d="M39.4499 28.08C39.4442 28.107 39.4441 28.135 39.4497 28.162C39.4553 28.1891 39.4664 28.2147 39.4824 28.2372C39.4983 28.2598 39.5188 28.2788 39.5425 28.293C39.5662 28.3073 39.5925 28.3165 39.6199 28.32C40.8093 28.5829 41.8823 29.2219 42.6802 30.1422C43.4781 31.0626 43.9584 32.2154 44.0499 33.43C44.0971 33.7666 44.0606 34.1096 43.9438 34.4288C43.8269 34.7479 43.6333 35.0334 43.3799 35.26C43.1641 35.3843 42.9167 35.443 42.668 35.4288C42.4193 35.4146 42.1802 35.3281 41.9799 35.18C41.7774 35.0181 41.6165 34.8103 41.5104 34.5738C41.4043 34.3373 41.3561 34.0789 41.3699 33.82C41.3551 33.608 41.4081 33.3968 41.5214 33.217C41.6347 33.0372 41.8023 32.8981 41.9999 32.82C42.1051 32.8 42.2136 32.809 42.314 32.846C42.4144 32.883 42.5029 32.9466 42.5699 33.03C42.6168 33.0779 42.6484 33.1386 42.6608 33.2044C42.6733 33.2703 42.666 33.3383 42.6399 33.4C42.621 33.4247 42.6077 33.4533 42.6012 33.4838C42.5947 33.5142 42.595 33.5458 42.6021 33.5761C42.6093 33.6064 42.6231 33.6348 42.6425 33.6591C42.662 33.6834 42.6866 33.7031 42.7146 33.7167C42.7427 33.7304 42.7733 33.7376 42.8045 33.7379C42.8356 33.7382 42.8665 33.7315 42.8947 33.7184C42.923 33.7054 42.948 33.6861 42.9679 33.6622C42.9879 33.6383 43.0022 33.6102 43.0099 33.58C43.0719 33.4475 43.0927 33.2994 43.0695 33.155C43.0463 33.0106 42.9803 32.8764 42.8799 32.77C42.7628 32.6239 42.6069 32.5136 42.4301 32.4517C42.2533 32.3898 42.0627 32.3788 41.8799 32.42C41.6114 32.5375 41.3841 32.7327 41.2273 32.9804C41.0705 33.2281 40.9913 33.517 40.9999 33.81C40.993 34.019 41.0166 34.2278 41.0699 34.43C41.1749 34.8558 41.4218 35.2332 41.7699 35.5C42.034 35.7011 42.3519 35.8189 42.6832 35.8385C43.0145 35.8581 43.3441 35.7785 43.6299 35.61C43.9606 35.3542 44.216 35.0138 44.3692 34.6248C44.5223 34.2358 44.5675 33.8126 44.4999 33.4C44.4013 32.0962 43.8849 30.8589 43.0274 29.8717C42.17 28.8846 41.0171 28.2001 39.7399 27.92C39.7105 27.9093 39.679 27.905 39.6477 27.9075C39.6165 27.9099 39.5861 27.919 39.5586 27.9342C39.5312 27.9493 39.5073 27.9702 39.4885 27.9953C39.4698 28.0205 39.4566 28.0493 39.4499 28.08V28.08Z" fill="#7A913A"/>
<path d="M6.71005 41.3C6.99278 41.9045 7.32737 42.4833 7.71005 43.03L8.17005 43.69C8.7006 44.418 9.02842 45.2738 9.12005 46.17C9.13975 46.5871 9.03407 47.0005 8.81662 47.357C8.59917 47.7135 8.27993 47.9966 7.90005 48.17C7.8749 48.1789 7.85178 48.1928 7.83207 48.2108C7.81235 48.2287 7.79643 48.2505 7.78525 48.2747C7.77407 48.2989 7.76784 48.3252 7.76695 48.3518C7.76606 48.3785 7.77051 48.4051 7.78005 48.43C7.79278 48.4705 7.81804 48.5059 7.8522 48.531C7.88635 48.5562 7.92763 48.5698 7.97005 48.57H8.04005C8.50548 48.361 8.89683 48.0161 9.16274 47.5806C9.42865 47.1452 9.55669 46.6395 9.53005 46.13C9.44255 45.1602 9.09729 44.2315 8.53005 43.44C8.38005 43.21 8.22005 42.98 8.07005 42.77C7.68802 42.244 7.35338 41.6851 7.07005 41.1C6.67531 40.2334 6.51992 39.277 6.62005 38.33C7.46126 37.8749 8.1876 37.2339 8.74384 36.4559C9.30008 35.6779 9.67157 34.7832 9.83005 33.84C9.83341 33.8046 9.82675 33.7689 9.81084 33.7371C9.79493 33.7053 9.7704 33.6786 9.74005 33.66C9.71045 33.6402 9.67565 33.6297 9.64005 33.6297C9.60445 33.6297 9.56965 33.6402 9.54005 33.66C8.15392 34.2999 7.07597 35.4605 6.54005 36.89C6.37845 37.3114 6.27093 37.7516 6.22005 38.2V38.2C6.09062 39.2588 6.26036 40.3327 6.71005 41.3V41.3Z" fill="#7A913A"/>
<path d="M39.6 15.32C40.2169 15.0368 40.809 14.7023 41.37 14.32L42.05 13.89C42.797 13.3931 43.664 13.1065 44.56 13.06C44.9864 13.0454 45.4071 13.1623 45.7648 13.3948C46.1226 13.6274 46.4002 13.9643 46.56 14.36C46.5678 14.386 46.5809 14.4102 46.5985 14.431C46.616 14.4518 46.6376 14.4688 46.662 14.481C46.6863 14.4932 46.7129 14.5002 46.74 14.5018C46.7672 14.5033 46.7944 14.4993 46.82 14.49C46.8596 14.4792 46.8947 14.4558 46.92 14.4233C46.9452 14.3909 46.9592 14.3511 46.96 14.31C46.9655 14.287 46.9655 14.263 46.96 14.24C46.7743 13.7648 46.4478 13.3578 46.0241 13.0736C45.6005 12.7894 45.1 12.6416 44.59 12.65C43.6159 12.6929 42.6721 13.0006 41.86 13.54L41.17 13.97C40.6304 14.3386 40.058 14.6567 39.46 14.92C38.5754 15.2742 37.6128 15.3881 36.67 15.25C36.2534 14.39 35.6459 13.6367 34.8937 13.0474C34.1415 12.4581 33.2646 12.0486 32.33 11.85C32.2939 11.8436 32.2569 11.8478 32.2232 11.862C32.1895 11.8762 32.1606 11.8998 32.14 11.93C32.1202 11.9596 32.1096 11.9944 32.1096 12.03C32.1096 12.0656 32.1202 12.1004 32.14 12.13C32.7202 13.5436 33.8339 14.6717 35.24 15.27C35.6571 15.4445 36.0935 15.5687 36.54 15.64V15.64C37.57 15.8169 38.6288 15.7061 39.6 15.32V15.32Z" fill="#7A913A"/>
<path d="M6 13C5.73819 13.7029 5.67928 14.4652 5.83 15.2C5.91447 15.5116 6.08493 15.7932 6.3219 16.0125C6.55887 16.2318 6.85278 16.3799 7.17 16.44C7.34695 16.4628 7.52666 16.4497 7.69846 16.4016C7.87026 16.3535 8.03062 16.2714 8.17 16.16C8.29661 16.0668 8.40276 15.9486 8.48188 15.8127C8.561 15.6768 8.61141 15.5261 8.63 15.37C8.63915 15.1861 8.6007 15.003 8.51836 14.8383C8.43603 14.6737 8.3126 14.533 8.16 14.43C8.03046 14.3278 7.87605 14.2618 7.71262 14.239C7.54918 14.2162 7.38261 14.2372 7.23 14.3C7.18673 14.3267 7.15464 14.3683 7.13969 14.4169C7.12474 14.4656 7.12795 14.518 7.14872 14.5644C7.1695 14.6108 7.20643 14.6481 7.25264 14.6694C7.29886 14.6907 7.35122 14.6944 7.4 14.68C7.48614 14.6469 7.57943 14.6369 7.67063 14.6509C7.76183 14.665 7.84779 14.7026 7.92 14.76C8.01454 14.8215 8.09174 14.9061 8.14426 15.0059C8.19678 15.1057 8.22286 15.2173 8.22 15.33C8.19087 15.5328 8.08311 15.716 7.92 15.84C7.82173 15.9165 7.70924 15.9726 7.58907 16.0052C7.4689 16.0379 7.34345 16.0463 7.22 16.03C6.97405 15.9788 6.7484 15.8569 6.57076 15.6792C6.39311 15.5016 6.27121 15.276 6.22 15.03C6.0917 14.3611 6.14699 13.67 6.38 13.03L6.44 12.8C7.03006 10.4803 7.03006 8.04973 6.44 5.73C7.04317 6.27256 7.75379 6.68208 8.52565 6.9319C9.29751 7.18172 10.1133 7.26625 10.92 7.18C11.6349 7.08538 12.3342 6.8971 13 6.62C13.5827 7.13446 14.2899 7.48734 15.0514 7.64348C15.8128 7.79963 16.6019 7.75361 17.34 7.51C17.5742 7.44849 17.7816 7.3114 17.93 7.12C18.0281 6.88677 18.0342 6.625 17.947 6.38747C17.8598 6.14994 17.6858 5.9543 17.46 5.84C16.9294 5.55897 16.3408 5.4046 15.7406 5.38898C15.1403 5.37337 14.5446 5.49693 14 5.75C13.66 5.88 13.32 6.03 13 6.17C12.3358 6.4909 11.6335 6.72611 10.91 6.87C10.0746 6.93986 9.2342 6.82363 8.44916 6.52967C7.66412 6.23572 6.95403 5.77135 6.37 5.17C6.35123 5.15268 6.32915 5.13933 6.3051 5.13074C6.28104 5.12215 6.2555 5.1185 6.23 5.12C6.2022 5.11902 6.1745 5.12385 6.14868 5.13418C6.12285 5.14451 6.09946 5.16012 6.08 5.18C6.05768 5.19651 6.03904 5.21748 6.02527 5.24158C6.0115 5.26568 6.00289 5.29239 6 5.32C5.98495 5.35119 5.97713 5.38537 5.97713 5.42C5.97713 5.45463 5.98495 5.48881 6 5.52C6.6894 7.89582 6.73083 10.4128 6.12 12.81L6 13Z" fill="#7A913A"/>
<path d="M54.06 25.63C50.43 27.25 46.41 28.52 45.93 28.82C45.8484 28.8699 45.7778 28.9357 45.7223 29.0136C45.6668 29.0915 45.6276 29.1798 45.6071 29.2731C45.5865 29.3665 45.585 29.4631 45.6027 29.5571C45.6204 29.6511 45.6569 29.7405 45.71 29.82C45.93 30.2 46.28 30.2 46.65 30.03C47.02 29.86 48.76 29.23 49.65 29.03C47.26 32.59 45.57 36.97 43.24 40.6C42.24 39.31 41.49 38.12 40.58 37.02C39.67 35.92 39.58 36.08 38.73 37.02C37.9811 38.0101 37.1516 38.9366 36.25 39.79C34.82 35.22 34.56 30.64 33.65 26.17C33.07 23.27 32.21 20.5 30.14 18.31C29.4619 17.4717 28.6142 16.7862 27.6526 16.2985C26.6909 15.8107 25.637 15.5318 24.56 15.48C20.4447 15.2806 16.4003 16.605 13.2 19.2C10.966 20.8859 9.36355 23.2737 8.65002 25.98C8.21798 27.5948 8.40518 29.3128 9.17487 30.7967C9.94455 32.2805 11.2411 33.4231 12.81 34C14.401 34.3875 16.0536 34.4521 17.67 34.19C18.2925 34.0837 18.8751 33.8124 19.357 33.4044C19.8389 32.9963 20.2026 32.4664 20.41 31.87C20.72 31.08 20.61 30.94 19.79 30.94C18.97 30.94 18.67 30.54 19.05 29.8C19.7 28.53 21.95 27.71 23.15 28.44C24.3599 29.0558 25.3359 30.0494 25.93 31.27C26.7512 33.3008 27.4426 35.3816 28 37.5C28.599 39.8549 29.615 42.0835 31 44.08C31.4404 44.7021 32.0016 45.2293 32.65 45.63C34.4193 46.647 36.3068 47.4429 38.27 48C38.69 48.13 39.18 48.37 39.44 47.78C39.522 47.6722 39.5813 47.5489 39.6142 47.4175C39.6471 47.2861 39.653 47.1494 39.6315 47.0157C39.61 46.882 39.5615 46.754 39.4891 46.6396C39.4166 46.5252 39.3217 46.4266 39.21 46.35C38.1393 45.3122 37.3452 44.0231 36.9 42.6C36.8003 42.3991 36.7569 42.1748 36.7745 41.9512C36.7921 41.7275 36.87 41.5128 37 41.33C37.6065 40.3903 38.2959 39.5067 39.06 38.69C39.5 38.25 39.81 38.3 40.13 38.79C40.75 39.72 41.44 40.61 42.01 41.57C42.2647 42.0792 42.6027 42.5422 43.01 42.94C43.2002 42.9301 43.3864 42.8825 43.5581 42.8002C43.7297 42.7178 43.8833 42.6021 44.01 42.46C44.1616 42.2893 44.3019 42.109 44.43 41.92C44.4668 41.7933 44.5207 41.6722 44.59 41.56C46.28 38.74 51.69 28.22 51.69 28.22C51.69 28.22 54.69 26.74 54.86 26.64C54.9192 26.5974 54.9644 26.5382 54.99 26.47C55.0396 26.3433 55.0493 26.2045 55.0181 26.0722C54.9869 25.9398 54.9161 25.82 54.8151 25.7288C54.7142 25.6377 54.5879 25.5794 54.453 25.5617C54.3181 25.5441 54.181 25.5679 54.06 25.63V25.63ZM30.15 24.32C29.8915 23.1416 29.4278 22.0178 28.78 21C30.4 22.14 31.27 24.75 31.88 26.64C32.5569 28.6479 33.1112 30.695 33.54 32.77L34.86 39.27C32.83 34.39 30.15 24.32 30.15 24.32Z" fill="#383529"/>
</svg>
