<svg width="64" height="64" viewBox="0 0 64 64" fill="none" xmlns="http://www.w3.org/2000/svg">
<path d="M64 64H0V0H64V64ZM1.34 62.63H62.6V1.36H1.34V62.63Z" fill="#383529"/>
<path d="M61.42 2.63H2.51001V61.54H61.42V2.63Z" fill="#FBFAF7"/>
<path d="M31.24 49.08V43.55V38.07V34.96C31.24 34.8513 31.1968 34.747 31.1199 34.6701C31.043 34.5932 30.9387 34.55 30.83 34.55C30.7228 34.5549 30.6213 34.5996 30.5455 34.6755C30.4696 34.7514 30.4249 34.8528 30.42 34.96V40.49V45.98V49.08C30.4225 49.1879 30.4665 49.2908 30.5429 49.3671C30.6192 49.4434 30.722 49.4875 30.83 49.49C30.9387 49.49 31.043 49.4468 31.1199 49.3699C31.1968 49.293 31.24 49.1887 31.24 49.08V49.08Z" fill="#B5B1A4"/>
<path d="M51.73 15.11C51.6789 15.5131 51.5711 15.907 51.41 16.28C51.2289 16.6676 50.9895 17.0251 50.7 17.34C50.4151 17.6595 50.0767 17.9268 49.7 18.13C49.3281 18.3265 48.9311 18.4712 48.52 18.56C48.0552 18.6099 47.608 18.7657 47.2128 19.0153C46.8176 19.2649 46.4848 19.6018 46.24 20C46.0496 20.5108 45.9678 21.0558 46 21.6V23.43C46 25.88 46 28.33 46.08 30.77C46.16 33.21 46.18 35.68 46.25 38.14C46.32 40.6 46.4 43.05 46.5 45.51V46.41C46.5049 46.5172 46.5496 46.6186 46.6255 46.6945C46.7013 46.7704 46.8028 46.8151 46.91 46.82C47.0187 46.82 47.123 46.7768 47.1999 46.6999C47.2768 46.623 47.32 46.5187 47.32 46.41C47.22 43.96 47.14 41.5 47.06 39.05C46.98 36.6 46.93 34.13 46.89 31.68C46.85 29.23 46.82 26.78 46.8 24.34C46.8 23.72 46.8 23.11 46.8 22.5C46.7647 21.9506 46.7647 21.3994 46.8 20.85C46.8253 20.6259 46.8931 20.4086 47 20.21C47.0413 20.1345 47.0954 20.0669 47.16 20.01C47.1908 19.9742 47.2242 19.9408 47.26 19.91V19.91C47.26 19.91 47.32 19.91 47.32 19.86C47.6721 19.6472 48.0574 19.495 48.46 19.41C48.9321 19.3181 49.3943 19.1808 49.84 19C50.2676 18.7983 50.6595 18.5281 51 18.2C51.695 17.5642 52.1915 16.7412 52.43 15.83C52.4846 15.5927 52.5246 15.3522 52.55 15.11C52.55 15.0013 52.5068 14.897 52.4299 14.8201C52.353 14.7432 52.2487 14.7 52.14 14.7C52.0312 14.7 51.927 14.7432 51.8501 14.8201C51.7732 14.897 51.73 15.0013 51.73 15.11V15.11Z" fill="#B5B1A4"/>
<path d="M38.23 21.31C38.56 21.88 38.86 22.46 39.15 23.06C39.3 23.35 39.43 23.65 39.57 23.94C39.71 24.23 39.7 24.25 39.77 24.4L39.86 24.61C39.86 24.61 39.86 24.69 39.86 24.61C39.86 24.53 39.86 24.61 39.86 24.61L39.92 24.74C40.4225 25.9526 40.85 27.1949 41.2 28.46C41.4 29.17 41.58 29.9 41.73 30.62C41.7581 30.7246 41.8265 30.8138 41.9202 30.8681C42.0139 30.9224 42.1252 30.9375 42.23 30.91C42.3339 30.8775 42.4216 30.8068 42.4755 30.7121C42.5293 30.6175 42.5452 30.5059 42.52 30.4C41.9841 27.8015 41.1381 25.2767 40 22.88C39.67 22.21 39.33 21.54 39 20.88C38.9443 20.7858 38.8535 20.7177 38.7475 20.6905C38.6416 20.6633 38.5291 20.6793 38.435 20.735C38.3408 20.7907 38.2727 20.8815 38.2455 20.9875C38.2183 21.0934 38.2343 21.2058 38.29 21.3L38.23 21.31Z" fill="#B5B1A4"/>
<path d="M22.13 26.58C22.0993 26.6985 22.0626 26.8153 22.02 26.93L21.96 27.09C21.96 27.16 21.96 27.01 21.96 27.09C21.9583 27.1233 21.9583 27.1567 21.96 27.19C21.86 27.4 21.74 27.62 21.62 27.82C21.5 28.02 21.49 28.02 21.42 28.11L21.36 28.19L21.24 28.34C21.0871 28.5229 20.9235 28.6966 20.75 28.86L20.47 29.11L20.34 29.21C20.29 29.21 20.4 29.21 20.34 29.21L20.26 29.26C20.0635 29.4084 19.8562 29.5421 19.64 29.66L19.33 29.82L19.16 29.9C19.22 29.9 19.16 29.9 19.1 29.9C18.88 29.99 18.65 30.06 18.42 30.13L18.01 30.21H17.82C17.82 30.21 17.74 30.21 17.82 30.21H17.6C17.327 30.23 17.053 30.23 16.78 30.21C16.6713 30.21 16.567 30.2532 16.4901 30.3301C16.4132 30.407 16.37 30.5113 16.37 30.62C16.3749 30.7272 16.4196 30.8286 16.4955 30.9045C16.5714 30.9804 16.6728 31.0251 16.78 31.03C17.8236 31.071 18.8592 30.8328 19.78 30.34C20.7212 29.8571 21.5258 29.1452 22.12 28.27C22.4534 27.7799 22.7066 27.2398 22.87 26.67C22.8979 26.5666 22.8842 26.4564 22.8319 26.363C22.7795 26.2695 22.6927 26.2003 22.59 26.17C22.4853 26.1418 22.3737 26.1552 22.2787 26.2074C22.1836 26.2596 22.1124 26.3465 22.08 26.45L22.13 26.58Z" fill="#B5B1A4"/>
<path d="M17.53 49.89C17.9884 49.89 18.36 49.5184 18.36 49.06C18.36 48.6016 17.9884 48.23 17.53 48.23C17.0716 48.23 16.7 48.6016 16.7 49.06C16.7 49.5184 17.0716 49.89 17.53 49.89Z" fill="#EF3C23"/>
<path d="M12.66 32.69C13.1184 32.69 13.49 32.3184 13.49 31.86C13.49 31.4016 13.1184 31.03 12.66 31.03C12.2016 31.03 11.83 31.4016 11.83 31.86C11.83 32.3184 12.2016 32.69 12.66 32.69Z" fill="#EF3C23"/>
<path d="M14.03 27.05C14.4884 27.05 14.86 26.6784 14.86 26.22C14.86 25.7616 14.4884 25.39 14.03 25.39C13.5716 25.39 13.2 25.7616 13.2 26.22C13.2 26.6784 13.5716 27.05 14.03 27.05Z" fill="#EF3C23"/>
<path d="M13.2 14.12C13.6584 14.12 14.03 13.7484 14.03 13.29C14.03 12.8316 13.6584 12.46 13.2 12.46C12.7416 12.46 12.37 12.8316 12.37 13.29C12.37 13.7484 12.7416 14.12 13.2 14.12Z" fill="#EF3C23"/>
<path d="M38.69 12.6C39.1484 12.6 39.52 12.2284 39.52 11.77C39.52 11.3116 39.1484 10.94 38.69 10.94C38.2316 10.94 37.86 11.3116 37.86 11.77C37.86 12.2284 38.2316 12.6 38.69 12.6Z" fill="#EF3C23"/>
<path d="M12.21 6.41C12.6684 6.41 13.04 6.0384 13.04 5.58C13.04 5.1216 12.6684 4.75 12.21 4.75C11.7516 4.75 11.38 5.1216 11.38 5.58C11.38 6.0384 11.7516 6.41 12.21 6.41Z" fill="#EF3C23"/>
<path d="M49.71 23.65C50.1684 23.65 50.54 23.2784 50.54 22.82C50.54 22.3616 50.1684 21.99 49.71 21.99C49.2516 21.99 48.88 22.3616 48.88 22.82C48.88 23.2784 49.2516 23.65 49.71 23.65Z" fill="#EF3C23"/>
<path d="M57.38 13.88C57.8384 13.88 58.21 13.5084 58.21 13.05C58.21 12.5916 57.8384 12.22 57.38 12.22C56.9216 12.22 56.55 12.5916 56.55 13.05C56.55 13.5084 56.9216 13.88 57.38 13.88Z" fill="#EF3C23"/>
<path d="M55.65 33.8C56.1084 33.8 56.48 33.4284 56.48 32.97C56.48 32.5116 56.1084 32.14 55.65 32.14C55.1916 32.14 54.82 32.5116 54.82 32.97C54.82 33.4284 55.1916 33.8 55.65 33.8Z" fill="#EF3C23"/>
<path d="M46.08 51.25C46.5384 51.25 46.91 50.8784 46.91 50.42C46.91 49.9616 46.5384 49.59 46.08 49.59C45.6216 49.59 45.25 49.9616 45.25 50.42C45.25 50.8784 45.6216 51.25 46.08 51.25Z" fill="#EF3C23"/>
<path d="M33.99 41.6C34.4484 41.6 34.82 41.2284 34.82 40.77C34.82 40.3116 34.4484 39.94 33.99 39.94C33.5316 39.94 33.16 40.3116 33.16 40.77C33.16 41.2284 33.5316 41.6 33.99 41.6Z" fill="#EF3C23"/>
<path d="M57.05 57.94C57.5084 57.94 57.88 57.5684 57.88 57.11C57.88 56.6516 57.5084 56.28 57.05 56.28C56.5916 56.28 56.22 56.6516 56.22 57.11C56.22 57.5684 56.5916 57.94 57.05 57.94Z" fill="#EF3C23"/>
<path d="M35.85 59.01C36.3084 59.01 36.68 58.6384 36.68 58.18C36.68 57.7216 36.3084 57.35 35.85 57.35C35.3916 57.35 35.02 57.7216 35.02 58.18C35.02 58.6384 35.3916 59.01 35.85 59.01Z" fill="#EF3C23"/>
<path d="M5.65001 19.78C6.1084 19.78 6.48001 19.4084 6.48001 18.95C6.48001 18.4916 6.1084 18.12 5.65001 18.12C5.19161 18.12 4.82001 18.4916 4.82001 18.95C4.82001 19.4084 5.19161 19.78 5.65001 19.78Z" fill="#EF3C23"/>
<path d="M24.58 34.92C25.0384 34.92 25.41 34.5484 25.41 34.09C25.41 33.6316 25.0384 33.26 24.58 33.26C24.1216 33.26 23.75 33.6316 23.75 34.09C23.75 34.5484 24.1216 34.92 24.58 34.92Z" fill="#EF3C23"/>
<path d="M5.65001 54.59C6.1084 54.59 6.48001 54.2184 6.48001 53.76C6.48001 53.3016 6.1084 52.93 5.65001 52.93C5.19161 52.93 4.82001 53.3016 4.82001 53.76C4.82001 54.2184 5.19161 54.59 5.65001 54.59Z" fill="#EF3C23"/>
<path d="M12.68 9.58L11.88 10.43C11.2226 11.1491 10.3934 11.6893 9.47 12C9.45366 12.0047 9.43633 12.0047 9.41999 12C9.25789 12.0726 9.11224 12.1774 8.9919 12.3081C8.87156 12.4387 8.77905 12.5925 8.72 12.76C8.67191 12.9262 8.65775 13.1004 8.67837 13.2722C8.69898 13.444 8.75395 13.6099 8.83999 13.76C8.86689 13.8083 8.87463 13.8649 8.86166 13.9187C8.84869 13.9724 8.81596 14.0193 8.77 14.05C8.72496 14.0762 8.6721 14.0855 8.62083 14.0763C8.56956 14.0672 8.5232 14.0401 8.48999 14C8.332 13.741 8.24892 13.4433 8.24999 13.14C8.25216 12.9671 8.2791 12.7953 8.32999 12.63C8.40017 12.4432 8.49792 12.2679 8.61999 12.11C8.28033 12.1209 7.94152 12.0701 7.61999 11.96C7.58218 11.9444 7.54973 11.9182 7.52664 11.8844C7.50354 11.8507 7.49081 11.8109 7.48999 11.77C7.48514 11.7469 7.48514 11.7231 7.48999 11.7C7.49891 11.6748 7.51276 11.6517 7.53074 11.632C7.54873 11.6123 7.57047 11.5964 7.5947 11.5852C7.61893 11.574 7.64515 11.5678 7.67182 11.5669C7.69849 11.566 7.72507 11.5705 7.74999 11.58C8.28999 11.77 9.74999 12.01 11.63 10.15C11.87 9.91 12.11 9.65 12.34 9.4C11.377 9.51873 10.403 9.51873 9.43999 9.4C8.95497 9.3259 8.49349 9.14127 8.09121 8.86037C7.68892 8.57946 7.35663 8.20982 7.11999 7.78C7.10665 7.75187 7.09973 7.72113 7.09973 7.69C7.09973 7.65887 7.10665 7.62813 7.11999 7.6C7.13257 7.57163 7.15191 7.54676 7.17631 7.52759C7.20072 7.50841 7.22945 7.49551 7.25999 7.49C8.21866 7.30524 9.20712 7.34545 10.1476 7.60746C11.0881 7.86948 11.955 8.34616 12.68 9C13.3338 8.20934 14.1441 7.56246 15.06 7.1C15.8981 6.73897 16.8279 6.6481 17.72 6.84C17.9633 6.82914 18.202 6.76956 18.4218 6.66478C18.6417 6.56 18.8383 6.41215 19 6.23C19.1782 6.06326 19.3206 5.86204 19.4186 5.63856C19.5165 5.41508 19.5681 5.17401 19.57 4.93C19.5672 4.8759 19.5854 4.82281 19.6208 4.78181C19.6562 4.74082 19.7061 4.71509 19.76 4.71C19.815 4.70977 19.8682 4.73019 19.9089 4.76721C19.9496 4.80424 19.975 4.85519 19.98 4.91C19.9808 5.21122 19.92 5.50942 19.8013 5.78628C19.6827 6.06314 19.5087 6.31283 19.29 6.52C19.0674 6.75588 18.7985 6.94314 18.5 7.07C18.6699 7.13577 18.8339 7.21607 18.99 7.31C19.3098 7.49538 19.5997 7.72801 19.85 8C20.0037 7.67828 20.2467 7.40753 20.55 7.22C21.1279 6.87757 21.8152 6.77018 22.47 6.92C23.4861 7.27045 24.3928 7.88066 25.1 8.69C25.1166 8.72071 25.1253 8.75508 25.1253 8.79C25.1253 8.82492 25.1166 8.85929 25.1 8.89C25.0916 8.91412 25.0784 8.93629 25.0612 8.95519C25.044 8.97409 25.0232 8.98933 25 9C23.4761 9.40445 21.8655 9.33821 20.38 8.81C20.445 8.96753 20.492 9.13191 20.52 9.3C20.5952 9.75324 20.5054 10.2184 20.2668 10.6111C20.0283 11.0037 19.6569 11.2978 19.22 11.44C19.167 11.4522 19.1113 11.4434 19.0647 11.4155C19.0181 11.3875 18.9841 11.3425 18.97 11.29C18.9578 11.237 18.9666 11.1814 18.9945 11.1347C19.0225 11.0881 19.0675 11.0541 19.12 11.04C19.4592 10.9278 19.7468 10.6974 19.9304 10.3909C20.1139 10.0843 20.1812 9.72202 20.12 9.37C20.0432 9.00005 19.8849 8.65189 19.6566 8.35088C19.4282 8.04987 19.1356 7.8036 18.8 7.63C18.4493 7.42379 18.0678 7.27523 17.67 7.19C16.8558 7.01162 16.0062 7.09203 15.24 7.42C14.2457 7.95402 13.3737 8.68971 12.68 9.58V9.58Z" fill="#7A913A"/>
<path d="M47.82 53.9C47.831 53.8676 47.852 53.8396 47.88 53.82L47.99 53.75C48.1116 53.6345 48.2252 53.5109 48.33 53.38C48.7774 52.7644 49.1406 52.0918 49.41 51.38C49.6134 50.8845 49.8438 50.4004 50.1 49.93C50.764 48.7219 51.8553 47.8053 53.16 47.36C53.7881 47.1681 54.452 47.1236 55.1 47.23C54.9749 46.7776 54.9577 46.3022 55.0497 45.8419C55.1418 45.3817 55.3405 44.9495 55.63 44.58C55.8951 44.1488 56.2539 43.7829 56.6798 43.5093C57.1056 43.2358 57.5877 43.0617 58.09 43C58.1358 42.9956 58.1816 43.0072 58.2199 43.0327C58.2581 43.0582 58.2864 43.0961 58.3 43.14C58.4671 43.6139 58.5179 44.121 58.4483 44.6187C58.3787 45.1164 58.1907 45.5901 57.9 46C57.6555 46.3413 57.3421 46.6275 56.98 46.84C56.5597 47.0902 56.0876 47.2407 55.6 47.28C56.1402 47.4326 56.6369 47.7101 57.05 48.09C57.5835 48.5729 57.938 49.222 58.056 49.9318C58.174 50.6416 58.0485 51.3705 57.7 52C57.694 52.016 57.6846 52.0305 57.6726 52.0426C57.6605 52.0546 57.646 52.064 57.63 52.07C57.5915 52.0989 57.5439 52.1129 57.4958 52.1095C57.4478 52.1061 57.4026 52.0855 57.3686 52.0514C57.3346 52.0174 57.3139 51.9722 57.3105 51.9242C57.3071 51.8762 57.3211 51.8285 57.35 51.79C57.6269 51.2453 57.72 50.6256 57.6155 50.0235C57.5109 49.4215 57.2143 48.8695 56.77 48.45C56.2978 48.0426 55.7289 47.7633 55.1178 47.639C54.5067 47.5147 53.8738 47.5495 53.28 47.74C52.0715 48.1555 51.062 49.0081 50.45 50.13C50.2021 50.5864 49.9817 51.0572 49.79 51.54C49.5099 52.2468 49.1474 52.9181 48.71 53.54C48.8758 53.5156 49.0442 53.5156 49.21 53.54C49.5938 53.2872 50.0306 53.126 50.4866 53.0688C50.9426 53.0116 51.4057 53.0599 51.84 53.21C52.2508 53.3572 52.6152 53.6105 52.8962 53.9442C53.1773 54.278 53.3649 54.6802 53.44 55.11C53.4435 55.1507 53.4361 55.1917 53.4185 55.2286C53.4009 55.2655 53.3739 55.297 53.34 55.32V55.32C53.0194 55.4627 52.6679 55.5219 52.3182 55.4922C51.9685 55.4625 51.632 55.3448 51.34 55.15C51.0739 55.002 50.8168 54.8384 50.57 54.66C50.308 54.4613 50.0305 54.2841 49.74 54.13C49.5891 54.0586 49.4317 54.0017 49.27 53.96V53.96C48.9384 53.8613 48.5818 53.8898 48.27 54.04C48.0423 54.2519 47.7906 54.4365 47.52 54.59C46.9127 54.9523 46.2321 55.1745 45.528 55.2402C44.8239 55.3059 44.1139 55.2136 43.45 54.97C43.7439 55.5669 43.8578 56.2364 43.7779 56.8969C43.698 57.5574 43.4277 58.1804 43 58.69C42.8012 58.9149 42.5684 59.1072 42.31 59.26C41.711 59.6237 40.997 59.7487 40.31 59.61C39.8233 59.4963 39.3781 59.2487 39.0247 58.8953C38.6713 58.5419 38.4237 58.0967 38.31 57.61C38.2135 57.1053 38.2762 56.5831 38.4894 56.1155C38.7026 55.6479 39.0557 55.2581 39.5 55C39.5492 54.9753 39.6061 54.971 39.6584 54.9878C39.7108 55.0046 39.7544 55.0413 39.78 55.09C39.792 55.1136 39.7992 55.1394 39.8012 55.1658C39.8031 55.1922 39.7998 55.2187 39.7914 55.2438C39.7831 55.2689 39.7698 55.2921 39.7524 55.3121C39.735 55.332 39.7138 55.3483 39.69 55.36C39.3243 55.5766 39.033 55.899 38.8544 56.2846C38.6759 56.6703 38.6186 57.1011 38.69 57.52C38.7828 57.936 38.9903 58.3177 39.289 58.6217C39.5878 58.9257 39.9657 59.1399 40.38 59.24C40.8036 59.3224 41.2413 59.2928 41.6499 59.1543C42.0585 59.0158 42.4239 58.773 42.71 58.45C43.0917 57.9826 43.3235 57.411 43.3752 56.8098C43.427 56.2086 43.2962 55.6057 43 55.08C42.5509 54.2585 41.8498 53.603 41 53.21V53.21C40.7538 53.0928 40.4999 52.9926 40.24 52.91C39.0382 52.5882 37.7874 52.4899 36.55 52.62C36.5034 52.6096 36.4617 52.5837 36.4318 52.5464C36.4019 52.5091 36.3856 52.4628 36.3856 52.415C36.3856 52.3672 36.4019 52.3209 36.4318 52.2836C36.4617 52.2463 36.5034 52.2204 36.55 52.21C37.7516 52.0864 38.9655 52.1675 40.14 52.45C39.5455 51.9706 38.9208 51.5297 38.27 51.13C37.8041 50.8546 37.3535 50.5541 36.92 50.23C36.4852 49.8985 36.0953 49.5119 35.76 49.08C35.3886 48.6512 35.1257 48.1394 34.9934 47.5877C34.8612 47.036 34.8634 46.4606 35 45.91C35.0295 45.7451 35.104 45.5916 35.2151 45.4663C35.3263 45.3411 35.4698 45.2489 35.63 45.2C35.8002 45.1851 35.9713 45.2141 36.1271 45.2841C36.2829 45.3541 36.4182 45.4629 36.52 45.6C37.0332 46.1958 37.3757 46.9193 37.5113 47.6939C37.6468 48.4685 37.5704 49.2653 37.29 50C37.29 50 37.29 50 37.29 50C37.69 50.29 38.1 50.54 38.42 50.74C39.4058 51.3414 40.3302 52.0381 41.18 52.82C41.9358 53.1744 42.5895 53.7145 43.08 54.39H43.15C43.8915 54.7723 44.7285 54.9297 45.5582 54.8426C46.3879 54.7555 47.1741 54.4279 47.82 53.9V53.9Z" fill="#7A913A"/>
<path d="M51.85 25.67C51.9627 24.8998 52.3763 24.2057 53 23.74C53.0373 23.7009 53.0581 23.649 53.0581 23.595C53.0581 23.541 53.0373 23.4891 53 23.45C52.9709 23.4137 52.9305 23.3881 52.8853 23.3773C52.84 23.3664 52.7924 23.3709 52.75 23.39V23.39C52.0471 23.9264 51.5808 24.7155 51.45 25.59C51.4457 26.4809 51.7337 27.3486 52.27 28.06C51.9764 28.1234 51.6911 28.2207 51.42 28.35C50.9393 28.5588 50.5142 28.8774 50.179 29.2804C49.8438 29.6833 49.6078 30.1593 49.49 30.67C49.2099 31.7769 49.2941 32.9447 49.73 34C49.899 34.4682 50.1766 34.8898 50.54 35.23C50.7343 35.4132 50.9729 35.5427 51.2324 35.6058C51.4919 35.6689 51.7633 35.6635 52.02 35.59C52.1934 35.5289 52.3523 35.4324 52.4865 35.3068C52.6208 35.1811 52.7275 35.029 52.8 34.86C52.9012 34.6229 52.9534 34.3678 52.9534 34.11C52.9534 33.8522 52.9012 33.5971 52.8 33.36C52.4259 32.6361 51.8582 32.0302 51.16 31.61L50.46 31.11C50.28 30.97 50.09 30.84 49.89 30.7C50.0289 30.2173 50.2868 29.7771 50.64 29.42C51.1807 28.8787 51.8826 28.5278 52.64 28.42C53.4382 28.2908 54.2519 28.2908 55.05 28.42C55.9711 28.5304 56.8578 28.8373 57.65 29.32C58.0302 29.5546 58.3533 29.8712 58.5955 30.2467C58.8377 30.6221 58.993 31.0469 59.05 31.49C59.0525 31.5163 59.0602 31.5419 59.0726 31.5652C59.0851 31.5885 59.102 31.6091 59.1225 31.6259C59.1429 31.6426 59.1665 31.6551 59.1918 31.6627C59.2172 31.6703 59.2437 31.6728 59.27 31.67C59.2972 31.6688 59.3239 31.662 59.3483 31.6501C59.3728 31.6383 59.3946 31.6215 59.4124 31.6009C59.4302 31.5803 59.4436 31.5563 59.4518 31.5304C59.46 31.5044 59.4628 31.4771 59.46 31.45C59.3914 30.9511 59.2145 30.4732 58.9415 30.0499C58.6686 29.6267 58.3062 29.2683 57.88 29C57.0457 28.4658 56.1029 28.1242 55.12 28C54.3185 27.8714 53.5016 27.8714 52.7 28C52.1661 27.3391 51.8671 26.5194 51.85 25.67Z" fill="#7A913A"/>
<path d="M31.83 56.2C31.8778 56.0162 31.9112 55.829 31.93 55.64C31.9855 55.3044 31.9545 54.9603 31.84 54.64C31.7703 54.4533 31.6465 54.2917 31.4844 54.1759C31.3222 54.0601 31.1292 53.9954 30.93 53.99C30.711 54.0112 30.5051 54.104 30.3442 54.254C30.1833 54.4041 30.0764 54.603 30.04 54.82C29.9939 55.1744 30.0871 55.5329 30.3 55.82C30.3337 55.8747 30.374 55.9251 30.42 55.97C30.663 56.2514 30.9774 56.4621 31.33 56.58C31.124 57.2787 30.7844 57.9307 30.33 58.5C30.33 58.5 30.33 58.5 30.33 58.5C29.8747 58.1053 29.3269 57.8324 28.7376 57.7065C28.1484 57.5806 27.5368 57.6059 26.96 57.78C26.8632 57.8038 26.7732 57.8496 26.6969 57.9137C26.6206 57.9779 26.5601 58.0587 26.52 58.15C26.5034 58.2146 26.5011 58.2821 26.5132 58.3477C26.5253 58.4133 26.5515 58.4755 26.59 58.53C26.6908 58.665 26.8303 58.7662 26.99 58.82C27.9558 59.1577 29.0003 59.1995 29.99 58.94C29.7459 59.1802 29.4779 59.3946 29.19 59.58C29.1666 59.5934 29.1462 59.6114 29.1299 59.6329C29.1136 59.6544 29.1018 59.6789 29.0953 59.7051C29.0888 59.7312 29.0876 59.7584 29.0918 59.7851C29.0961 59.8117 29.1057 59.8372 29.12 59.86C29.135 59.8818 29.1542 59.9004 29.1764 59.9147C29.1987 59.929 29.2235 59.9388 29.2496 59.9435C29.2756 59.9481 29.3023 59.9475 29.3281 59.9418C29.354 59.9361 29.3784 59.9253 29.4 59.91C30.5611 59.1601 31.4186 58.0227 31.82 56.7C32.5547 56.7944 33.3012 56.7156 34 56.47C35.3894 56.0918 36.6593 55.3656 37.69 54.36C37.7084 54.341 37.7228 54.3185 37.7325 54.2939C37.7422 54.2692 37.747 54.2429 37.7465 54.2165C37.7461 54.19 37.7404 54.1639 37.7298 54.1396C37.7193 54.1153 37.704 54.0934 37.685 54.075C37.666 54.0566 37.6435 54.0422 37.6189 54.0325C37.5942 54.0228 37.5679 54.018 37.5415 54.0185C37.515 54.0189 37.4889 54.0246 37.4646 54.0352C37.4403 54.0457 37.4184 54.061 37.4 54.08C36.4107 55.0336 35.1964 55.7216 33.87 56.08C33.21 56.2861 32.5096 56.3273 31.83 56.2V56.2ZM30.73 55.63C30.6289 55.5264 30.5516 55.4021 30.5032 55.2658C30.4549 55.1294 30.4367 54.9841 30.45 54.84C30.4652 54.7163 30.522 54.6015 30.611 54.5143C30.7 54.4271 30.816 54.3727 30.94 54.36C31.0304 54.3637 31.1186 54.3894 31.197 54.4346C31.2754 54.4799 31.3416 54.5435 31.39 54.62L31.46 54.76C31.5562 55.0256 31.5804 55.312 31.53 55.59C31.5097 55.7616 31.4797 55.9319 31.44 56.1C31.1654 56.0099 30.9202 55.8475 30.73 55.63V55.63Z" fill="#7A913A"/>
<path d="M38.45 14.89C38.299 14.6523 38.0929 14.4546 37.8492 14.3136C37.6055 14.1725 37.3313 14.0924 37.05 14.08C36.7999 14.0578 36.548 14.0952 36.3151 14.189C36.0822 14.2829 35.8748 14.4306 35.71 14.62C35.562 14.8042 35.4732 15.0289 35.4554 15.2645C35.4375 15.5001 35.4914 15.7356 35.61 15.94C35.6445 15.9911 35.6848 16.0381 35.73 16.08C35.8331 16.1868 35.961 16.2664 36.1023 16.3117C36.2437 16.3571 36.394 16.3668 36.54 16.34C36.6707 16.3249 36.7957 16.2777 36.9039 16.2027C37.012 16.1277 37.1 16.0271 37.16 15.91C37.1847 15.8608 37.189 15.804 37.1722 15.7516C37.1554 15.6993 37.1187 15.6556 37.07 15.63C37.0458 15.6183 37.0195 15.6117 36.9926 15.6104C36.9658 15.6092 36.939 15.6133 36.9138 15.6226C36.8886 15.632 36.8655 15.6463 36.8459 15.6647C36.8264 15.6832 36.8108 15.7054 36.8 15.73C36.7672 15.7871 36.7209 15.8352 36.6651 15.8701C36.6092 15.905 36.5457 15.9256 36.48 15.93C36.3955 15.9502 36.3073 15.9488 36.2235 15.9261C36.1396 15.9034 36.0628 15.86 36 15.8C35.8937 15.6684 35.8357 15.5042 35.8357 15.335C35.8357 15.1658 35.8937 15.0016 36 14.87C36.1259 14.7336 36.2818 14.6283 36.4553 14.5624C36.6288 14.4965 36.8153 14.4717 37 14.49C37.2145 14.497 37.4241 14.5563 37.6105 14.6626C37.797 14.7688 37.9547 14.919 38.07 15.1C38.1795 15.2679 38.2318 15.4666 38.2192 15.6666C38.2066 15.8666 38.1297 16.0572 38 16.21C37.9627 16.2491 37.9419 16.301 37.9419 16.355C37.9419 16.409 37.9627 16.4609 38 16.5L38.07 16.55C38.1032 16.5815 38.1449 16.6024 38.19 16.61C38.8531 16.7081 39.5269 16.7081 40.19 16.61C41.3484 16.4565 42.4537 16.0302 43.4151 15.3661C44.3765 14.702 45.1665 13.819 45.72 12.79C45.7691 12.7154 45.7993 12.63 45.808 12.5412C45.8167 12.4523 45.8037 12.3627 45.77 12.28C45.7 12.16 45.55 12.02 45.19 12.06C44.0206 12.2019 42.9145 12.6687 41.9971 13.4076C41.0797 14.1465 40.3878 15.1277 40 16.24C39.5082 16.295 39.0118 16.295 38.52 16.24C38.6251 16.0279 38.6739 15.7923 38.6616 15.5558C38.6494 15.3194 38.5765 15.0901 38.45 14.89V14.89Z" fill="#7A913A"/>
<path d="M43.44 6.41C44.3135 6.79335 45.2561 6.99413 46.21 7C47.7199 6.9752 49.1951 6.54335 50.48 5.75C51.3758 5.98231 52.2273 6.36071 53 6.87C52.7536 7.11583 52.5386 7.39126 52.36 7.69C52.22 7.91 52.11 8.15 51.99 8.37C51.7751 8.90799 51.4318 9.3852 50.99 9.76C50.07 10.4 48.73 9.96 47.79 9.24H47.54V9.42C48.7376 10.7518 50.185 11.8356 51.8 12.61C52.46 12.98 53.13 13.36 53.74 13.76C54.7509 14.4361 55.6373 15.2819 56.36 16.26C54.75 15.88 53.36 16.99 52.54 18.2C52.3854 18.378 52.2946 18.6025 52.2819 18.838C52.2692 19.0734 52.3354 19.3064 52.47 19.5C52.5695 19.591 52.6863 19.6609 52.8134 19.7056C52.9406 19.7503 53.0755 19.7688 53.21 19.76H53.28C54.1046 19.7115 54.8899 19.3906 55.5124 18.8476C56.135 18.3047 56.5598 17.5704 56.72 16.76C57.4153 17.8197 57.9165 18.9947 58.2 20.23C58.3694 20.8859 58.3694 21.5741 58.2 22.23C58.1185 22.5302 57.9528 22.8009 57.7224 23.01C57.4921 23.2191 57.2067 23.3579 56.9 23.41C56.8728 23.4112 56.8462 23.418 56.8217 23.4299C56.7972 23.4417 56.7754 23.4585 56.7576 23.4791C56.7398 23.4997 56.7264 23.5237 56.7182 23.5496C56.7101 23.5756 56.7072 23.6029 56.71 23.63C56.7148 23.6805 56.7377 23.7275 56.7744 23.7624C56.8112 23.7974 56.8593 23.8178 56.91 23.82V23.82C57.3008 23.766 57.667 23.5977 57.9624 23.3361C58.2577 23.0745 58.4691 22.7314 58.57 22.35C58.7577 21.6321 58.7577 20.8779 58.57 20.16C57.9501 17.4019 56.2921 14.9883 53.94 13.42C53.31 13.01 52.63 12.63 51.94 12.25C50.7953 11.6622 49.7159 10.9549 48.72 10.14C49.0968 10.2853 49.4962 10.3632 49.9 10.37C50.3574 10.3802 50.806 10.2435 51.18 9.98C51.672 9.57075 52.0536 9.04473 52.29 8.45C52.4 8.23 52.51 8 52.64 7.79C52.8392 7.45106 53.0925 7.14704 53.39 6.89C53.9243 6.40929 54.5683 6.0668 55.2656 5.89247C55.9629 5.71815 56.6923 5.7173 57.39 5.89C58.0336 6.07394 58.5992 6.46386 59 7C59.1924 7.22782 59.3288 7.49752 59.3983 7.78751C59.4677 8.07751 59.4683 8.37974 59.4 8.67C59.3284 8.88757 59.2124 9.08786 59.0592 9.25812C58.906 9.42838 58.7191 9.56489 58.5102 9.65895C58.3014 9.75302 58.0753 9.80258 57.8463 9.80448C57.6173 9.80638 57.3904 9.76058 57.18 9.67C56.9806 9.55708 56.8084 9.40188 56.6753 9.21531C56.5423 9.02873 56.4518 8.8153 56.41 8.59C56.3574 8.36835 56.3544 8.13784 56.4011 7.91487C56.4477 7.69191 56.543 7.48197 56.68 7.3C56.7198 7.25889 56.7416 7.20366 56.7407 7.14647C56.7397 7.08927 56.7161 7.03478 56.675 6.995C56.6339 6.95522 56.5787 6.9334 56.5215 6.93433C56.4643 6.93527 56.4098 6.95889 56.37 7C56.1922 7.22577 56.0668 7.48822 56.0028 7.76838C55.9388 8.04855 55.9378 8.33943 56 8.62C56.0447 8.90953 56.1571 9.18441 56.3281 9.42225C56.4992 9.66009 56.724 9.85417 56.9842 9.98868C57.2445 10.1232 57.5328 10.1943 57.8258 10.1963C58.1187 10.1983 58.408 10.131 58.67 10C58.9377 9.88972 59.1783 9.72263 59.3751 9.51026C59.572 9.2979 59.7203 9.04532 59.81 8.77C59.8854 8.42199 59.8814 8.06147 59.7983 7.71522C59.7152 7.36897 59.5551 7.0459 59.33 6.77C58.8692 6.22762 58.2503 5.84298 57.56 5.67C56.817 5.48295 56.04 5.4761 55.2938 5.65005C54.5476 5.82399 53.8537 6.17368 53.27 6.67C52.4306 6.08756 51.4968 5.65453 50.51 5.39V5.39C48.1378 4.69675 45.5883 4.96248 43.41 6.13C43.3791 6.15115 43.3539 6.17951 43.3365 6.21262C43.319 6.24573 43.31 6.28259 43.31 6.32C43.34 6.36579 43.3866 6.39808 43.44 6.41Z" fill="#7A913A"/>
<path d="M30 8.26C30.3396 8.3858 30.698 8.45341 31.06 8.46C31.759 8.47004 32.4539 8.35139 33.11 8.11L33.01 8.29C32.8232 8.69937 32.6726 9.12433 32.56 9.56C32.4523 10.1019 32.2635 10.6244 32 11.11C31.6143 11.6245 31.0548 11.9812 30.4255 12.1137C29.7963 12.2462 29.1404 12.1453 28.58 11.83C28.557 11.8162 28.5316 11.8071 28.5051 11.8031C28.4785 11.7992 28.4515 11.8005 28.4255 11.807C28.3995 11.8135 28.3751 11.8251 28.3535 11.841C28.332 11.857 28.3138 11.877 28.3 11.9C28.2862 11.923 28.2771 11.9485 28.2732 11.975C28.2692 12.0015 28.2705 12.0285 28.277 12.0545C28.2835 12.0805 28.2951 12.105 28.311 12.1265C28.327 12.148 28.347 12.1662 28.37 12.18C28.7868 12.4324 29.2628 12.5704 29.75 12.58C30.2504 12.6018 30.7484 12.5001 31.2001 12.2839C31.6518 12.0676 32.0433 11.7434 32.34 11.34C32.6491 10.8228 32.872 10.2588 33 9.67C33.1134 9.25989 33.2571 8.85879 33.43 8.47C33.564 8.2082 33.7285 7.96317 33.92 7.74V7.74C34.5547 7.0262 35.3806 6.50914 36.3 6.25C36.8199 6.21201 37.3419 6.28706 37.83 6.47C38.081 6.55963 38.3075 6.70667 38.4915 6.8994C38.6756 7.09212 38.812 7.32518 38.89 7.58C38.9498 7.81851 38.9197 8.07069 38.8053 8.28837C38.6909 8.50604 38.5004 8.67395 38.27 8.76C38.1473 8.7847 38.0203 8.77744 37.9013 8.73891C37.7822 8.70039 37.675 8.63189 37.59 8.54C37.5197 8.471 37.4681 8.38521 37.4401 8.29073C37.4121 8.19625 37.4086 8.09619 37.43 8C37.4376 7.9744 37.44 7.94753 37.437 7.92099C37.4341 7.89445 37.4258 7.86877 37.4128 7.84547C37.3997 7.82217 37.3821 7.80171 37.361 7.78532C37.34 7.76892 37.3158 7.75691 37.29 7.75C37.2614 7.73744 37.2302 7.73144 37.199 7.73244C37.1677 7.73345 37.137 7.74143 37.1092 7.75581C37.0814 7.77019 37.0572 7.7906 37.0383 7.81554C37.0194 7.84049 37.0063 7.86935 37 7.9C36.9626 8.0652 36.9677 8.2372 37.0149 8.39987C37.0622 8.56253 37.1499 8.71054 37.27 8.83C37.4823 9.04585 37.7677 9.1743 38.07 9.19H38.34C38.6732 9.07541 38.952 8.84101 39.122 8.53237C39.292 8.22373 39.3412 7.8629 39.26 7.52C39.1784 7.19882 39.0216 6.90165 38.8025 6.65302C38.5834 6.40438 38.3084 6.2114 38 6.09L37.66 6C38.8716 5.92134 40.0881 5.96825 41.29 6.14C41.3452 6.14302 41.3995 6.12515 41.4421 6.08994C41.4848 6.05474 41.5126 6.00478 41.52 5.95C41.5228 5.92293 41.52 5.89558 41.5118 5.86963C41.5036 5.84368 41.4902 5.81967 41.4724 5.79908C41.4546 5.77848 41.4328 5.76173 41.4083 5.74986C41.3839 5.73798 41.3572 5.73122 41.33 5.73C39.8191 5.49492 38.2809 5.49492 36.77 5.73L36.24 5.87H36.16C35.183 6.15044 34.3034 6.69756 33.62 7.45C32.5768 8.03517 31.3472 8.1929 30.19 7.89C29.8597 7.77051 29.5619 7.57531 29.3205 7.32004C29.0791 7.06477 28.9009 6.75653 28.8 6.42C28.7212 6.10076 28.7634 5.76363 28.9185 5.47369C29.0737 5.18375 29.3307 4.96156 29.64 4.85C29.8033 4.82576 29.9699 4.8423 30.1252 4.89813C30.2805 4.95397 30.4196 5.04737 30.53 5.17C30.6252 5.26285 30.6931 5.37991 30.7266 5.50856C30.7601 5.63721 30.7578 5.77256 30.72 5.9C30.7034 5.95048 30.7066 6.00538 30.7288 6.05363C30.7511 6.10188 30.7908 6.13989 30.84 6.16C30.8676 6.16905 30.8969 6.17197 30.9257 6.16856C30.9546 6.16516 30.9824 6.1555 31.0071 6.14028C31.0319 6.12505 31.053 6.10461 31.069 6.08038C31.0851 6.05616 31.0957 6.02873 31.1 6C31.1659 5.80447 31.1765 5.59454 31.1306 5.39338C31.0847 5.19222 30.9842 5.00764 30.84 4.86C30.6849 4.67362 30.4818 4.53318 30.2527 4.45387C30.0236 4.37455 29.7771 4.35939 29.54 4.41C29.1164 4.54624 28.7615 4.84048 28.5492 5.23157C28.3369 5.62266 28.2835 6.08053 28.4 6.51C28.5146 6.90489 28.7185 7.26812 28.9959 7.57158C29.2734 7.87504 29.6169 8.11059 30 8.26V8.26Z" fill="#7A913A"/>
<path d="M60 35.9C60.0271 35.9014 60.0542 35.8972 60.0796 35.8877C60.105 35.8783 60.1283 35.8638 60.1479 35.8451C60.1676 35.8264 60.1832 35.8039 60.1939 35.7789C60.2045 35.754 60.21 35.7271 60.21 35.7C60.2128 35.6734 60.21 35.6465 60.2017 35.6211C60.1934 35.5957 60.1799 35.5723 60.1619 35.5525C60.144 35.5327 60.1221 35.5169 60.0976 35.5061C60.0732 35.4953 60.0467 35.4899 60.02 35.49C59.401 35.526 58.8012 35.7182 58.2766 36.0487C57.752 36.3792 57.3197 36.8372 57.02 37.38C56.6953 37.9024 56.4015 38.4433 56.14 39C55.9084 39.5161 55.6446 40.0171 55.35 40.5C55.0859 40.9833 54.7105 41.3969 54.2549 41.7064C53.7994 42.0159 53.2766 42.2125 52.73 42.28C52.2753 42.2465 51.8332 42.1148 51.4344 41.8938C51.0355 41.6728 50.6894 41.3678 50.42 41C50.0472 40.5995 49.7823 40.1109 49.65 39.58C49.6012 39.3337 49.6073 39.0797 49.6678 38.836C49.7283 38.5923 49.8417 38.3649 50 38.17C50.1561 37.9814 50.3702 37.8498 50.609 37.7955C50.8477 37.7412 51.0977 37.7674 51.32 37.87C51.4257 37.9319 51.517 38.0157 51.5877 38.1157C51.6584 38.2157 51.7069 38.3297 51.73 38.45C51.7525 38.5513 51.7534 38.6561 51.7327 38.7578C51.712 38.8594 51.6702 38.9556 51.61 39.04C51.5936 39.061 51.5815 39.085 51.5743 39.1107C51.5672 39.1364 51.5652 39.1633 51.5685 39.1897C51.5717 39.2162 51.5801 39.2418 51.5933 39.265C51.6064 39.2882 51.624 39.3086 51.645 39.325C51.666 39.3414 51.69 39.3535 51.7157 39.3607C51.7414 39.3678 51.7683 39.3698 51.7947 39.3665C51.8212 39.3633 51.8468 39.3548 51.87 39.3417C51.8932 39.3286 51.9136 39.311 51.93 39.29C52.03 39.1613 52.0998 39.0119 52.1344 38.8527C52.1691 38.6935 52.1675 38.5285 52.13 38.37C52.0935 38.1909 52.0193 38.0216 51.9124 37.8734C51.8055 37.7251 51.6684 37.6012 51.51 37.51C51.3016 37.4013 51.07 37.3446 50.835 37.3446C50.6 37.3446 50.3684 37.4013 50.16 37.51C49.9818 37.6033 49.8225 37.7287 49.69 37.88C49.486 38.1274 49.3419 38.4185 49.2691 38.7308C49.1962 39.043 49.1965 39.3679 49.27 39.68C49.4779 40.4737 49.922 41.1855 50.5434 41.7212C51.1648 42.257 51.9343 42.5913 52.75 42.68C53.3748 42.6151 53.9745 42.3992 54.4971 42.0507C55.0198 41.7023 55.4498 41.2318 55.75 40.68C56.0493 40.1826 56.3197 39.6684 56.56 39.14C56.8081 38.6002 57.0886 38.0759 57.4 37.57C57.6607 37.0977 58.0349 36.6978 58.4888 36.4062C58.9427 36.1147 59.4621 35.9407 60 35.9V35.9Z" fill="#7A913A"/>
<path d="M19 53.34C18.971 53.3454 18.9435 53.3569 18.9193 53.3736C18.895 53.3903 18.8746 53.412 18.8593 53.4372C18.8439 53.4623 18.8341 53.4904 18.8303 53.5196C18.8265 53.5489 18.829 53.5786 18.8374 53.6068C18.8459 53.635 18.8602 53.6611 18.8794 53.6834C18.8987 53.7058 18.9224 53.7238 18.949 53.7364C18.9757 53.7489 19.0047 53.7558 19.0341 53.7564C19.0636 53.757 19.0928 53.7514 19.12 53.74C20.1011 53.3726 20.9724 52.761 21.6513 51.9631C22.3302 51.1652 22.7944 50.2073 23 49.18C23.0898 48.8281 23.1567 48.4706 23.2 48.11V48.11C23.2049 48.0836 23.2049 48.0564 23.2 48.03C23.2105 47.8468 23.2105 47.6632 23.2 47.48C23.2003 45.8634 22.8808 44.2627 22.26 42.77C22.2687 42.7305 22.2687 42.6895 22.26 42.65C22.3128 41.7268 22.6839 40.8505 23.31 40.17C23.4295 40.0188 23.5814 39.8963 23.7544 39.8115C23.9275 39.7267 24.1173 39.6818 24.31 39.68C24.4018 39.6984 24.4867 39.7418 24.5555 39.8053C24.6243 39.8688 24.6743 39.95 24.7 40.04C24.7285 40.0849 24.7436 40.1369 24.7436 40.19C24.7436 40.2431 24.7285 40.2951 24.7 40.34C24.6806 40.3578 24.6651 40.3794 24.6545 40.4035C24.6439 40.4276 24.6385 40.4537 24.6385 40.48C24.6385 40.5063 24.6439 40.5324 24.6545 40.5565C24.6651 40.5806 24.6806 40.6022 24.7 40.62C24.7187 40.6397 24.7412 40.6553 24.7661 40.666C24.791 40.6767 24.8179 40.6823 24.845 40.6823C24.8721 40.6823 24.899 40.6767 24.9239 40.666C24.9488 40.6553 24.9713 40.6397 24.99 40.62C25.0748 40.5388 25.1339 40.4345 25.16 40.32C25.2043 40.1835 25.2043 40.0365 25.16 39.9C25.1089 39.7383 25.015 39.5934 24.8882 39.4808C24.7615 39.3681 24.6066 39.2918 24.44 39.26C24.1773 39.2466 23.9152 39.2959 23.6753 39.4037C23.4353 39.5114 23.2245 39.6747 23.06 39.88C22.5181 40.4755 22.1513 41.2092 22 42C21.7 41.31 21.37 40.63 21 40C20.9901 39.9716 20.9743 39.9457 20.9535 39.924C20.9328 39.9023 20.9076 39.8853 20.8797 39.8741C20.8518 39.8629 20.8219 39.8579 20.7918 39.8593C20.7618 39.8607 20.7325 39.8685 20.7058 39.8823C20.679 39.896 20.6556 39.9153 20.6369 39.9388C20.6183 39.9624 20.605 39.9897 20.5978 40.0189C20.5906 40.048 20.5898 40.0784 20.5953 40.1079C20.6009 40.1375 20.6127 40.1654 20.63 40.19C21.6892 42.0474 22.4072 44.0795 22.75 46.19C22.5628 45.6985 22.3106 45.2344 22 44.81C21.7824 44.5113 21.5231 44.2452 21.23 44.02C20.0899 43.2451 18.8296 42.6639 17.5 42.3C16.91 42.11 16.5 42.19 16.26 42.52C16.1939 42.685 16.1729 42.8646 16.1993 43.0404C16.2257 43.2161 16.2984 43.3817 16.41 43.52C16.998 44.3621 17.8425 44.9914 18.8176 45.314C19.7926 45.6366 20.8458 45.6352 21.82 45.31V45.31C22.3216 46.1188 22.6296 47.0326 22.72 47.98C22.61 50.16 21.34 52.63 19 53.34Z" fill="#7A913A"/>
<path d="M21.41 34.53C21.3608 34.5054 21.3039 34.501 21.2516 34.5178C21.1992 34.5346 21.1556 34.5713 21.13 34.62C20.5767 35.7075 19.6869 36.5871 18.593 37.1277C17.4992 37.6684 16.2599 37.841 15.06 37.62C14.65 37.53 13.69 37.26 13.46 36.5C13.3935 36.2597 13.3998 36.005 13.4781 35.7682C13.5564 35.5315 13.7032 35.3233 13.9 35.17C14.106 35.0154 14.3464 34.9129 14.6006 34.8711C14.8548 34.8293 15.1153 34.8495 15.36 34.93C15.5696 34.9752 15.7607 35.0823 15.9087 35.2374C16.0567 35.3925 16.1547 35.5885 16.19 35.8C16.1832 35.9062 16.1468 36.0084 16.085 36.095C16.0231 36.1816 15.9382 36.2491 15.84 36.29C15.7834 36.3266 15.7174 36.3461 15.65 36.3461C15.5826 36.3461 15.5166 36.3266 15.46 36.29C15.4209 36.2527 15.369 36.2319 15.315 36.2319C15.261 36.2319 15.209 36.2527 15.17 36.29C15.1348 36.3301 15.1154 36.3817 15.1154 36.435C15.1154 36.4883 15.1348 36.5399 15.17 36.58C15.2835 36.6724 15.4212 36.73 15.5667 36.7459C15.7122 36.7619 15.8591 36.7355 15.99 36.67C16.1594 36.594 16.3043 36.4724 16.4085 36.3188C16.5127 36.1651 16.5721 35.9855 16.58 35.8C16.5456 35.4992 16.4198 35.2161 16.2195 34.989C16.0193 34.7619 15.7542 34.6017 15.46 34.53C15.2588 34.47 15.0499 34.4397 14.84 34.44C14.4017 34.4345 13.9747 34.5792 13.63 34.85C13.3677 35.0537 13.1717 35.3305 13.0667 35.6456C12.9617 35.9606 12.9524 36.2997 13.04 36.62C13.2128 37.0047 13.4859 37.3359 13.8308 37.5787C14.1757 37.8215 14.5795 37.967 15 38C16.2834 38.2346 17.6082 38.0501 18.7787 37.4739C19.9492 36.8976 20.9032 35.9602 21.5 34.8C21.512 34.7764 21.5191 34.7506 21.5211 34.7242C21.5231 34.6978 21.5198 34.6713 21.5114 34.6462C21.503 34.6211 21.4897 34.5979 21.4723 34.5779C21.4549 34.558 21.4337 34.5417 21.41 34.53V34.53Z" fill="#7A913A"/>
<path d="M6.35 23.76C6.65059 23.1431 7.00531 22.5542 7.41 22C7.56 21.78 7.72 21.56 7.86 21.34C8.40677 20.6201 8.75193 19.7675 8.86 18.87C8.87835 18.4532 8.7721 18.0403 8.55481 17.6841C8.33752 17.3279 8.01904 17.0444 7.64 16.87C7.61485 16.8611 7.59174 16.8472 7.57202 16.8293C7.5523 16.8113 7.53639 16.7895 7.5252 16.7653C7.51402 16.7411 7.5078 16.7148 7.50691 16.6882C7.50601 16.6615 7.51047 16.6349 7.52 16.61C7.534 16.5703 7.5596 16.5357 7.59348 16.5108C7.62736 16.4858 7.66795 16.4716 7.71 16.47H7.78C8.24716 16.6768 8.64011 17.0211 8.90635 17.4571C9.1726 17.8931 9.29947 18.4 9.27001 18.91C9.18511 19.8773 8.83951 20.8035 8.27001 21.59C8.12001 21.82 7.97 22.05 7.81 22.27C7.42578 22.791 7.091 23.3468 6.81 23.93C6.42078 24.7982 6.26564 25.7532 6.36 26.7C7.19936 27.1575 7.92421 27.7991 8.48015 28.5767C9.0361 29.3543 9.4087 30.2478 9.57 31.19C9.57413 31.2259 9.56894 31.2622 9.55492 31.2955C9.54091 31.3288 9.51855 31.3579 9.49 31.38C9.45778 31.3975 9.42168 31.4067 9.385 31.4067C9.34833 31.4067 9.31223 31.3975 9.28 31.38C7.89192 30.7428 6.8131 29.5813 6.28 28.15C6.12188 27.7275 6.01446 27.2878 5.96 26.84C5.80305 25.797 5.93804 24.7309 6.35 23.76V23.76Z" fill="#7A913A"/>
<path d="M43.45 41.92C43.45 35.11 43.21 26.68 43.01 19.84C43.01 18.09 38.66 21.84 39.37 19.32C41.52 17.17 47.37 18.44 47.73 14.96C47.7447 14.5066 47.93 14.0755 48.2489 13.7528C48.5678 13.4302 48.9968 13.2399 49.45 13.22C53.15 15.82 47.8 18.34 45.2 18.56C43.76 22.56 44.43 28.66 44.65 33.31C44.84 37.24 44.34 47.74 44.34 47.74C40.23 49.29 30 27.57 29.64 30.38C29.32 35.38 29.17 45.83 28.81 50.87C28.81 52.36 31.57 50.4 32.42 50.23C36.94 50.45 19.02 57.5 23.54 53.32C24.87 52.64 27.49 52.81 27.07 50.88C26.79 42.88 30.44 30.97 24.53 24.33C23.53 23.09 20.1 22.11 19.61 23.72C18.92 25.99 21.1 25.16 21.1 25.16C21.78 29.32 15.76 30.29 13.7 28.46C2.47999 18.52 27.25 2.46 37.28 21.7C40.53 27.93 41.55 35.4 43.45 41.92ZM34.53 20.6C36.66 26.72 37.88 33.6 42.53 42.5C39.71 37.09 38.91 26.62 34.53 20.6Z" fill="#383529"/>
<path d="M13.323 54.5239C14.134 54.3449 14.9773 54.3759 15.773 54.6139C15.869 54.6413 16.5597 54.9453 16.893 55.0939C17.9591 55.6668 18.9196 56.4176 19.733 57.3139C19.7527 57.3326 19.7683 57.355 19.779 57.38C19.7897 57.4049 19.7952 57.4317 19.7952 57.4589C19.7952 57.486 19.7897 57.5128 19.779 57.5378C19.7683 57.5627 19.7527 57.5852 19.733 57.6039C19.6939 57.6412 19.642 57.662 19.588 57.662C19.534 57.662 19.4821 57.6412 19.443 57.6039C18.6096 56.6822 17.6128 55.9228 16.503 55.3639C16.2514 55.2485 15.9905 55.1549 15.723 55.0839C14.8277 54.7821 13.8582 54.7821 12.963 55.0839C12.4028 55.281 11.9137 55.6399 11.5576 56.1152C11.2016 56.5906 10.9947 57.1609 10.963 57.7539C10.9593 58.1842 11.068 58.608 11.2785 58.9834C11.489 59.3588 11.7939 59.6726 12.163 59.8939C12.5394 60.0956 12.9648 60.1875 13.3909 60.1592C13.817 60.1309 14.2266 59.9836 14.573 59.7339C14.9052 59.4704 15.1499 59.1125 15.2748 58.7074C15.3997 58.3022 15.3991 57.8687 15.273 57.4639C15.2635 57.439 15.259 57.4124 15.2599 57.3857C15.2608 57.359 15.267 57.3328 15.2782 57.3086C15.2894 57.2844 15.3053 57.2626 15.325 57.2446C15.3447 57.2266 15.3678 57.2128 15.393 57.2039C15.4435 57.1873 15.4984 57.1904 15.5466 57.2127C15.5949 57.235 15.6329 57.2747 15.653 57.3239C15.8134 57.8105 15.8197 58.3347 15.6712 58.8251C15.5226 59.3154 15.2264 59.748 14.823 60.0639C14.5983 60.2354 14.3441 60.3642 14.073 60.4439C13.7262 60.5557 13.3602 60.5957 12.9974 60.5613C12.6346 60.5269 12.2826 60.4189 11.963 60.2439C11.5264 59.9907 11.1655 59.6255 10.9175 59.1859C10.6696 58.7463 10.5438 58.2485 10.553 57.7439C10.5865 57.0891 10.8081 56.4579 11.1912 55.9258C11.5743 55.3937 12.1027 54.9834 12.713 54.7439C11.9073 54.4312 11.2021 53.9047 10.6735 53.221C10.1448 52.5373 9.81276 51.7223 9.71299 50.8639C9.58672 50.5376 9.3396 50.2726 9.02299 50.1239C8.87376 50.046 8.71606 49.9856 8.55299 49.9439C8.22506 49.8591 7.89053 49.8022 7.55299 49.7739C7.25037 49.746 6.94978 49.6993 6.65299 49.6339C6.30474 49.5832 5.9748 49.4459 5.69348 49.2345C5.41215 49.023 5.18848 48.7443 5.04299 48.4239C5.02708 48.3842 5.02432 48.3404 5.03512 48.299C5.04592 48.2576 5.06971 48.2208 5.10299 48.1939C5.44507 47.9224 5.85323 47.747 6.28556 47.6855C6.71788 47.6239 7.15879 47.6786 7.56299 47.8439C7.98686 48.0217 8.3642 48.2945 8.66589 48.6413C8.96758 48.988 9.18556 49.3995 9.30299 49.8439C9.44617 49.93 9.58019 50.0306 9.70299 50.1439C9.7982 49.3805 9.98626 48.6316 10.263 47.9139C10.4431 47.4277 10.5901 46.9299 10.703 46.4239C10.9824 45.1768 10.7825 43.8703 10.143 42.7639C9.83111 42.2235 9.38416 41.7736 8.84597 41.458C8.30778 41.1424 7.69682 40.9722 7.07299 40.9639C6.46061 40.9789 5.86978 41.193 5.38986 41.5737C4.90995 41.9544 4.56704 42.481 4.41299 43.0739C4.39882 43.1269 4.3653 43.1728 4.31904 43.2024C4.27278 43.232 4.21712 43.2432 4.16299 43.2339C4.11072 43.2219 4.06502 43.1903 4.03527 43.1457C4.00552 43.1011 3.99397 43.0467 4.00299 42.9939C4.18264 42.3083 4.58014 41.6997 5.13563 41.2597C5.69112 40.8196 6.37454 40.5719 7.08299 40.5539C7.64325 40.55 8.1971 40.6731 8.70299 40.9139C8.37259 40.5703 8.12589 40.1551 7.98206 39.7006C7.83824 39.2461 7.80116 38.7646 7.87372 38.2934C7.94628 37.8223 8.12651 37.3742 8.40042 36.984C8.67432 36.5939 9.03451 36.2722 9.45299 36.0439C9.48847 36.0155 9.53255 36 9.57799 36C9.62343 36 9.66752 36.0155 9.70299 36.0439C10.0388 36.415 10.2883 36.8558 10.4335 37.3347C10.5787 37.8136 10.6161 38.3188 10.543 38.8139C10.5129 39.2824 10.3732 39.7372 10.1353 40.1419C9.89732 40.5466 9.56773 40.8898 9.17299 41.1439C9.72674 41.5012 10.1918 41.98 10.533 42.5439C11.2108 43.7427 11.4142 45.1523 11.103 46.4939C10.9848 47.016 10.8346 47.5303 10.653 48.0339C10.3699 48.7484 10.1881 49.499 10.113 50.2639C10.098 50.4402 10.098 50.6175 10.113 50.7939C10.1175 50.8304 10.1175 50.8673 10.113 50.9039C10.1229 50.9331 10.1229 50.9647 10.113 50.9939C10.2334 51.825 10.5951 52.6026 11.1533 53.2301C11.7115 53.8576 12.4415 54.3074 13.253 54.5239C13.2757 54.5163 13.3003 54.5163 13.323 54.5239Z" fill="#7A913A"/>
</svg>
