<svg width="64" height="64" viewBox="0 0 64 64" fill="none" xmlns="http://www.w3.org/2000/svg">
<g clip-path="url(#clip0)">
<path d="M64 63.91H0V-0.0900002H64V63.91ZM1.35 62.54H62.62V1.27H1.35V62.54Z" fill="#383529"/>
<path d="M61.44 2.55H2.53003V61.46H61.44V2.55Z" fill="#FBFAF7"/>
<path d="M49.6801 13.37C49.5546 13.7684 49.3905 14.1535 49.1901 14.52C49.0801 14.72 48.9601 14.92 48.8401 15.11L48.6501 15.37L48.5601 15.49C48.5423 15.521 48.5185 15.5482 48.4901 15.57C48.2202 15.9324 47.9154 16.2673 47.5801 16.57L47.3401 16.78L47.1201 16.95C46.9301 17.08 46.7501 17.21 46.5501 17.33C46.3501 17.45 46.1701 17.55 45.9701 17.65C45.7907 17.7358 45.6071 17.8126 45.4201 17.88C45.0101 18.04 44.5801 18.14 44.1501 18.27C43.683 18.3935 43.2447 18.6076 42.8601 18.9C42.477 19.2234 42.216 19.668 42.1201 20.16C42.0313 20.6751 41.9911 21.1974 42.0001 21.72V23.53V27.11L41.9001 34.32L41.8101 41.5V42.39C41.8101 42.4987 41.8533 42.603 41.9301 42.6799C42.007 42.7568 42.1113 42.8 42.2201 42.8C42.3272 42.7951 42.4287 42.7504 42.5046 42.6745C42.5804 42.5986 42.6252 42.4972 42.6301 42.39L42.7201 35.21L42.8201 28.03V24.46C42.8201 23.29 42.8201 22.13 42.8201 20.97C42.8105 20.5306 42.9249 20.0974 43.1501 19.72C43.2101 19.65 43.1501 19.72 43.1501 19.72V19.66L43.2601 19.56C43.2601 19.56 43.3601 19.47 43.2601 19.5L43.4201 19.4C43.5819 19.2946 43.7567 19.2106 43.9401 19.15C44.3601 19.01 44.8001 18.91 45.2201 18.77C45.6599 18.6315 46.0852 18.4506 46.4901 18.23C48.1106 17.3426 49.383 15.9328 50.1001 14.23C50.1901 14.02 50.2701 13.81 50.3401 13.59C50.3545 13.5381 50.3586 13.4839 50.3521 13.4305C50.3456 13.377 50.3286 13.3254 50.3021 13.2785C50.2757 13.2316 50.2402 13.1904 50.1978 13.1572C50.1554 13.124 50.1069 13.0994 50.0551 13.085C50.0032 13.0706 49.949 13.0665 49.8955 13.073C49.8421 13.0795 49.7904 13.0964 49.7435 13.1229C49.6966 13.1494 49.6554 13.1848 49.6222 13.2272C49.589 13.2696 49.5645 13.3181 49.5501 13.37H49.6801Z" fill="#B5B1A4"/>
<path d="M29 53.48C30.37 52.95 31.72 52.39 33.06 51.81C34.4 51.23 35.66 50.64 37 50L39.19 48.92C39.2368 48.8932 39.2777 48.8573 39.3102 48.8143C39.3428 48.7713 39.3663 48.7222 39.3794 48.6698C39.3924 48.6175 39.3948 48.5631 39.3863 48.5099C39.3778 48.4566 39.3587 48.4056 39.33 48.36C39.2739 48.2675 39.1837 48.201 39.0788 48.1747C38.9739 48.1485 38.8629 48.1648 38.77 48.22C37.5 48.86 36.21 49.49 34.9 50.08C34.26 50.38 33.61 50.67 32.9 50.96L31.9 51.38L31.66 51.49C31.66 51.49 31.52 51.55 31.6 51.49H31.48L30.98 51.7C30.24 52.01 29.49 52.31 28.74 52.6C28.6361 52.6304 28.5471 52.6981 28.49 52.79C28.4508 52.8931 28.4508 53.0069 28.49 53.11C28.5038 53.1616 28.5278 53.2099 28.5606 53.2521C28.5934 53.2942 28.6343 53.3294 28.6809 53.3555C28.7275 53.3816 28.7789 53.3981 28.832 53.404C28.885 53.4099 28.9388 53.4052 28.99 53.39L29 53.48Z" fill="#B5B1A4"/>
<path d="M27.6901 28C27.7296 28.1445 27.7597 28.2915 27.7801 28.44C27.7839 28.5133 27.7839 28.5867 27.7801 28.66C27.7801 28.66 27.7801 28.73 27.7801 28.76C27.7801 28.63 27.7801 28.76 27.7801 28.76C27.8166 29.0586 27.8333 29.3592 27.83 29.66C27.8333 29.9674 27.8166 30.2747 27.7801 30.58C27.7801 30.58 27.7801 30.65 27.7801 30.69V30.74C27.7801 30.74 27.7801 30.63 27.7801 30.74C27.7801 30.85 27.7801 30.9 27.7801 30.98C27.7607 31.1286 27.7306 31.2757 27.6901 31.42C27.6266 31.7143 27.5465 32.0048 27.4501 32.29C27.4001 32.43 27.3501 32.58 27.2901 32.72C27.2884 32.7533 27.2884 32.7867 27.2901 32.82C27.2901 32.82 27.2901 32.73 27.2901 32.82V32.87L27.1901 33.08C27.0627 33.3582 26.9191 33.6286 26.76 33.89C26.68 34.02 26.6 34.15 26.51 34.27L26.4 34.43L26.32 34.53L26.17 34.73L26 34.92L25.66 35.28L25.2901 35.62L25.09 35.79L24.99 35.87H24.92C24.8299 35.9291 24.7628 36.0173 24.73 36.12C24.708 36.1705 24.6967 36.2249 24.6967 36.28C24.6967 36.3351 24.708 36.3895 24.73 36.44C24.7878 36.5305 24.878 36.5954 24.9822 36.6214C25.0863 36.6475 25.1965 36.6327 25.2901 36.58C26.331 35.8015 27.1767 34.7916 27.76 33.63C28.342 32.4697 28.6661 31.1973 28.71 29.9C28.7282 29.173 28.6509 28.4468 28.48 27.74C28.4662 27.6884 28.4422 27.6401 28.4094 27.5979C28.3766 27.5558 28.3357 27.5206 28.2891 27.4945C28.2425 27.4684 28.1912 27.4519 28.1381 27.446C28.085 27.4401 28.0313 27.4448 27.98 27.46C27.8769 27.4904 27.7893 27.5592 27.7354 27.6522C27.6814 27.7452 27.6652 27.8554 27.6901 27.96V28Z" fill="#B5B1A4"/>
<path d="M10.31 12.61C10.705 12.6895 11.107 12.7297 11.51 12.73C13.0651 12.7314 14.5667 12.1621 15.73 11.13C16.3905 11.906 17.1997 12.5419 18.11 13C18.6589 13.2387 19.2514 13.3613 19.85 13.36C20.1621 13.3598 20.4736 13.3297 20.78 13.27C21.0217 13.2736 21.2601 13.3269 21.4804 13.4267C21.7006 13.5265 21.8979 13.6706 22.06 13.85C22.2389 14.0183 22.3817 14.2212 22.4797 14.4464C22.5777 14.6716 22.6288 14.9144 22.63 15.16C22.6286 15.1863 22.6325 15.2125 22.6413 15.2373C22.6501 15.2621 22.6638 15.2849 22.6814 15.3044C22.6991 15.3239 22.7204 15.3398 22.7442 15.351C22.7679 15.3623 22.7937 15.3687 22.82 15.37V15.37C22.8641 15.3644 22.9053 15.3449 22.9377 15.3143C22.97 15.2838 22.9919 15.2438 23 15.2C23.004 14.8977 22.9457 14.5979 22.8287 14.3192C22.7117 14.0404 22.5385 13.7888 22.32 13.58C22.0934 13.3514 21.8253 13.1681 21.53 13.04C21.6948 12.9701 21.8551 12.8899 22.01 12.8C22.3315 12.6132 22.6217 12.3769 22.87 12.1C23.0219 12.4261 23.2695 12.6982 23.58 12.88C23.9806 13.1238 24.441 13.2518 24.91 13.25C25.1052 13.247 25.2996 13.2236 25.49 13.18C26.5024 12.8329 27.4059 12.226 28.11 11.42C28.1383 11.3939 28.1588 11.3605 28.1694 11.3234C28.18 11.2864 28.1802 11.2471 28.17 11.21C28.1603 11.1734 28.1399 11.1405 28.1114 11.1155C28.0829 11.0906 28.0476 11.0747 28.01 11.07C26.4889 10.6707 24.883 10.7369 23.4 11.26C23.463 11.1025 23.5067 10.938 23.53 10.77C23.6052 10.3168 23.5153 9.85159 23.2768 9.45893C23.0383 9.06627 22.6669 8.77216 22.23 8.63C22.2044 8.62407 22.1778 8.62325 22.1519 8.62758C22.126 8.63192 22.1012 8.64132 22.0789 8.65525C22.0566 8.66918 22.0373 8.68737 22.022 8.70877C22.0068 8.73018 21.9959 8.75438 21.99 8.78C21.9777 8.83298 21.9865 8.88864 22.0145 8.93527C22.0425 8.9819 22.0875 9.01585 22.14 9.03C22.4788 9.14596 22.7654 9.37857 22.9486 9.68631C23.1317 9.99404 23.1996 10.3569 23.14 10.71C23.0594 11.0785 22.8985 11.4247 22.6685 11.7238C22.4386 12.0229 22.1454 12.2674 21.81 12.44C21.4621 12.6446 21.0841 12.7931 20.69 12.88C19.8726 13.0605 19.0192 12.9801 18.25 12.65C17.2665 12.1214 16.3993 11.4004 15.7 10.53C15.44 10.24 15.17 9.95 14.9 9.67C14.3553 9.10153 13.7114 8.63726 13 8.3C12.8633 8.24117 12.723 8.19107 12.58 8.15C12.5606 8.14314 12.5394 8.14314 12.52 8.15C12.3576 8.07954 12.2121 7.97541 12.093 7.84449C11.9739 7.71358 11.884 7.55887 11.8291 7.3906C11.7743 7.22234 11.7558 7.04434 11.7749 6.8684C11.7941 6.69246 11.8503 6.52258 11.94 6.37C11.9543 6.34717 11.9639 6.32168 11.9681 6.29506C11.9724 6.26844 11.9712 6.24123 11.9647 6.21508C11.9581 6.18892 11.9464 6.16436 11.9301 6.14287C11.9138 6.12137 11.8934 6.10339 11.87 6.09C11.8471 6.07565 11.8217 6.06607 11.795 6.06183C11.7684 6.05759 11.7412 6.05877 11.715 6.06531C11.6889 6.07185 11.6643 6.08361 11.6428 6.09988C11.6213 6.11615 11.6034 6.1366 11.59 6.16C11.4698 6.36301 11.3942 6.58931 11.3683 6.82383C11.3425 7.05834 11.3669 7.29567 11.44 7.52C11.5032 7.70794 11.5979 7.88378 11.72 8.04C11.38 8.02407 11.0403 8.07504 10.72 8.19C10.6939 8.19787 10.6698 8.21098 10.649 8.22852C10.6281 8.24606 10.6111 8.26766 10.599 8.292C10.5868 8.31634 10.5797 8.3429 10.5782 8.37007C10.5766 8.39724 10.5806 8.42444 10.59 8.45C10.6082 8.50102 10.6454 8.54303 10.6938 8.56726C10.7423 8.59148 10.7982 8.59605 10.85 8.58C12.52 7.98 14.24 9.52 14.73 10C14.97 10.24 15.21 10.5 15.44 10.75C14.477 10.6313 13.503 10.6313 12.54 10.75C12.0676 10.827 11.6181 11.0078 11.2239 11.2792C10.8296 11.5507 10.5004 11.9061 10.26 12.32C10.2451 12.3477 10.2373 12.3786 10.2373 12.41C10.2373 12.4414 10.2451 12.4723 10.26 12.5C10.2642 12.5411 10.2818 12.5797 10.31 12.61V12.61Z" fill="#7A913A"/>
<path d="M23.18 50.94C23.6378 50.8138 24.064 50.5928 24.4309 50.2913C24.7978 49.9898 25.0973 49.6146 25.31 49.19C25.3997 49.0478 25.4473 48.8831 25.4473 48.715C25.4473 48.5469 25.3997 48.3822 25.31 48.24C25.1992 48.1103 25.0542 48.0143 24.8916 47.9631C24.7289 47.9118 24.5551 47.9073 24.39 47.95C23.6088 48.0407 22.8673 48.3428 22.2452 48.8239C21.6231 49.305 21.1442 49.9468 20.86 50.68C20.86 50.68 20.86 50.68 20.86 50.68C20.39 50.68 19.92 50.55 19.52 50.48C18.3825 50.2686 17.2268 50.1715 16.07 50.19C15.2743 49.952 14.431 49.921 13.62 50.1C13.5973 50.0924 13.5727 50.0924 13.55 50.1C12.7385 49.8835 12.0085 49.4337 11.4503 48.8062C10.8921 48.1787 10.5304 47.4012 10.41 46.57C10.4199 46.5408 10.4199 46.5092 10.41 46.48C10.4145 46.4435 10.4145 46.4065 10.41 46.37C10.395 46.1937 10.395 46.0164 10.41 45.84C10.4851 45.0751 10.6669 44.3245 10.95 43.61C11.1316 43.1064 11.2818 42.5921 11.4 42.07C11.7112 40.7284 11.5078 39.3189 10.83 38.12C10.4888 37.5561 10.0237 37.0774 9.46999 36.72V36.72C9.86473 36.4659 10.1943 36.1227 10.4323 35.718C10.6702 35.3134 10.8099 34.8585 10.84 34.39C10.9131 33.8949 10.8757 33.3898 10.7305 32.9108C10.5853 32.4319 10.3358 31.9911 9.99999 31.62C9.96452 31.5916 9.92043 31.5761 9.87499 31.5761C9.82955 31.5761 9.78546 31.5916 9.74999 31.62C9.33151 31.8483 8.97132 32.17 8.69742 32.5602C8.42351 32.9503 8.24327 33.3984 8.17072 33.8695C8.09816 34.3407 8.13523 34.8222 8.27906 35.2767C8.42289 35.7312 8.66959 36.1464 8.99999 36.49C8.4941 36.2492 7.94025 36.1261 7.37999 36.13C6.67154 36.148 5.98812 36.3957 5.43263 36.8358C4.87714 37.2759 4.47964 37.8845 4.29999 38.57C4.29097 38.6229 4.30252 38.6772 4.33227 38.7218C4.36202 38.7664 4.40772 38.798 4.45999 38.81C4.51411 38.8194 4.56978 38.8081 4.61604 38.7785C4.6623 38.7489 4.69581 38.7031 4.70999 38.65C4.86403 38.0571 5.20694 37.5305 5.68686 37.1498C6.16678 36.7691 6.7576 36.5551 7.36999 36.54C7.99381 36.5483 8.60477 36.7186 9.14297 37.0341C9.68116 37.3497 10.1281 37.7997 10.44 38.34C11.0795 39.4464 11.2794 40.753 11 42C10.887 42.506 10.74 43.0038 10.56 43.49C10.2833 44.2078 10.0952 44.9566 9.99999 45.72C9.87719 45.6067 9.74317 45.5062 9.59999 45.42C9.48256 44.9756 9.26458 44.5642 8.96289 44.2174C8.66119 43.8706 8.28385 43.5978 7.85999 43.42C7.45579 43.2547 7.01488 43.2001 6.58255 43.2616C6.15023 43.3231 5.74207 43.4986 5.39999 43.77C5.3667 43.7969 5.34291 43.8337 5.33212 43.8751C5.32132 43.9165 5.32408 43.9603 5.33999 44C5.48547 44.3204 5.70915 44.5992 5.99047 44.8106C6.27179 45.022 6.60174 45.1594 6.94999 45.21C7.24678 45.2754 7.54737 45.3221 7.84999 45.35C8.18752 45.3783 8.52205 45.4352 8.84999 45.52C9.01305 45.5617 9.17076 45.6221 9.31999 45.7V45.7C9.6366 45.8488 9.88372 46.1138 10.01 46.44C10.1098 47.2985 10.4418 48.1134 10.9705 48.7971C11.4991 49.4809 12.2043 50.0074 13.01 50.32C12.3997 50.5595 11.8713 50.9698 11.4882 51.5019C11.1051 52.034 10.8835 52.6652 10.85 53.32C10.8408 53.8246 10.9666 54.3224 11.2145 54.762C11.4625 55.2016 11.8234 55.5669 12.26 55.82C12.5796 55.995 12.9316 56.1031 13.2944 56.1374C13.6572 56.1718 14.0232 56.1319 14.37 56.02C14.6411 55.9403 14.8953 55.8115 15.12 55.64C15.5234 55.3242 15.8196 54.8916 15.9682 54.4012C16.1167 53.9109 16.1104 53.3866 15.95 52.9C15.9299 52.8508 15.8919 52.8111 15.8436 52.7888C15.7954 52.7665 15.7405 52.7634 15.69 52.78C15.6648 52.7889 15.6417 52.8028 15.622 52.8207C15.6023 52.8387 15.5864 52.8605 15.5752 52.8847C15.564 52.9089 15.5578 52.9352 15.5569 52.9618C15.556 52.9885 15.5605 53.0151 15.57 53.04C15.6961 53.4448 15.6967 53.8783 15.5718 54.2835C15.4469 54.6887 15.2022 55.0465 14.87 55.31C14.5236 55.5597 14.114 55.7071 13.6879 55.7353C13.2618 55.7636 12.8364 55.6717 12.46 55.47C12.0909 55.2487 11.786 54.9349 11.5755 54.5595C11.365 54.1842 11.2563 53.7603 11.26 53.33C11.2917 52.737 11.4986 52.1667 11.8546 51.6914C12.2107 51.2161 12.6998 50.8571 13.26 50.66C14.1552 50.3582 15.1247 50.3582 16.02 50.66C16.2875 50.731 16.5484 50.8247 16.8 50.94C17.9098 51.4989 18.9066 52.2583 19.74 53.18C19.7791 53.2173 19.831 53.2381 19.885 53.2381C19.939 53.2381 19.9909 53.2173 20.03 53.18C20.0497 53.1613 20.0653 53.1388 20.076 53.1139C20.0867 53.089 20.0922 53.0621 20.0922 53.035C20.0922 53.0079 20.0867 52.981 20.076 52.9561C20.0653 52.9312 20.0497 52.9087 20.03 52.89C19.2166 51.9937 18.2561 51.2429 17.19 50.67C17.9544 50.7127 18.7156 50.7996 19.47 50.93C19.9987 51.0339 20.5329 51.1074 21.07 51.15C21.6145 51.1965 22.1627 51.1696 22.7 51.07C22.8627 51.0372 23.023 50.9937 23.18 50.94V50.94Z" fill="#7A913A"/>
<path d="M48.76 30.63C48.3369 29.9331 47.7272 29.3685 47 29L46.27 28.56C46.07 28.45 45.86 28.33 45.66 28.2C45.7539 27.7104 45.9706 27.2528 46.29 26.87C46.781 26.2967 47.4438 25.8969 48.18 25.73C48.9655 25.5436 49.7755 25.4828 50.58 25.55C51.5072 25.5752 52.4179 25.8003 53.25 26.21C53.6459 26.4058 53.9937 26.6865 54.2686 27.0323C54.5434 27.378 54.7385 27.7801 54.84 28.21C54.8493 28.263 54.8793 28.3102 54.9233 28.3412C54.9674 28.3721 55.022 28.3843 55.075 28.375C55.128 28.3657 55.1752 28.3357 55.2062 28.2917C55.2371 28.2476 55.2493 28.193 55.24 28.14C55.1335 27.6443 54.9175 27.1787 54.6078 26.7773C54.298 26.3758 53.9025 26.0488 53.45 25.82C52.5689 25.3712 51.5985 25.1252 50.61 25.1C49.8027 25.0353 48.9902 25.0926 48.2 25.27C47.604 24.6615 47.2336 23.8677 47.15 23.02C47.2058 22.2474 47.5654 21.5283 48.15 21.02C48.1773 20.9806 48.1902 20.933 48.1868 20.8852C48.1833 20.8374 48.1635 20.7923 48.1308 20.7572C48.0981 20.7222 48.0544 20.6994 48.007 20.6926C47.9595 20.6858 47.9112 20.6955 47.87 20.72C47.2173 21.3128 46.8255 22.1395 46.78 23.02C46.7853 23.588 46.9518 24.1429 47.26 24.62C47.4211 24.8958 47.6015 25.1598 47.8 25.41C47.1029 25.6191 46.4812 26.0254 46.01 26.58C45.6231 27.0633 45.3681 27.6387 45.27 28.25V28.25C45.1058 29.3599 45.2947 30.4933 45.81 31.49L45.94 31.73C46.1333 32.0847 46.3991 32.3947 46.72 32.64C46.9317 32.8029 47.1813 32.9094 47.4454 32.9496C47.7094 32.9898 47.9794 32.9624 48.23 32.87C48.3976 32.7936 48.5474 32.6829 48.6697 32.5451C48.7919 32.4074 48.884 32.2455 48.94 32.07C49.0064 31.83 49.0246 31.5792 48.9937 31.332C48.9628 31.0849 48.8834 30.8463 48.76 30.63V30.63Z" fill="#7A913A"/>
<path d="M6.25999 50.78C6.23315 50.7381 6.19162 50.7076 6.14354 50.6947C6.09545 50.6817 6.04426 50.6872 5.99999 50.71C5.97756 50.7274 5.95741 50.7476 5.93999 50.77C5.89957 50.7967 5.8682 50.8351 5.84999 50.88C5.62512 51.5009 5.49042 52.1509 5.44999 52.81V52.81C5.39516 53.9172 5.58287 55.0229 5.99999 56.05C6.44456 57.2221 7.18946 58.2566 8.15999 59.05C8.22431 59.1111 8.30247 59.1558 8.3878 59.1802C8.47312 59.2046 8.56308 59.2079 8.64999 59.19C8.78999 59.19 8.94999 59.03 8.97999 58.67C9.07406 57.495 8.835 56.3172 8.29022 55.2719C7.74544 54.2266 6.91702 53.356 5.89999 52.76C5.94052 52.2638 6.03782 51.774 6.18999 51.3C6.36954 51.4524 6.58558 51.5556 6.81697 51.5994C7.04835 51.6432 7.28715 51.6262 7.50999 51.55C7.77405 51.4489 8.00948 51.2849 8.19592 51.0724C8.38236 50.8598 8.51419 50.605 8.57999 50.33C8.64799 50.0886 8.659 49.8346 8.61214 49.5882C8.56529 49.3418 8.46186 49.1096 8.30999 48.91C8.13995 48.703 7.90243 48.5624 7.63911 48.5131C7.37578 48.4637 7.10348 48.5086 6.86999 48.64C6.74921 48.728 6.64968 48.8419 6.57873 48.9735C6.50778 49.105 6.4672 49.2507 6.45999 49.4C6.45125 49.5292 6.47398 49.6585 6.52623 49.777C6.57848 49.8954 6.6587 49.9994 6.75999 50.08C6.78429 50.0958 6.81145 50.1066 6.83992 50.1118C6.8684 50.1171 6.89763 50.1167 6.92595 50.1107C6.95427 50.1046 6.98113 50.0931 7.00499 50.0767C7.02884 50.0602 7.04923 50.0393 7.06499 50.015C7.08075 49.9907 7.09157 49.9635 7.09683 49.9351C7.10209 49.9066 7.10169 49.8774 7.09566 49.849C7.08962 49.8207 7.07807 49.7939 7.06165 49.77C7.04524 49.7461 7.02429 49.7258 6.99999 49.71C6.94823 49.6689 6.90808 49.615 6.88353 49.5536C6.85898 49.4922 6.85087 49.4255 6.85999 49.36C6.85276 49.2826 6.86145 49.2045 6.88552 49.1305C6.9096 49.0566 6.94856 48.9883 6.99999 48.93C7.15012 48.8547 7.32161 48.8335 7.48556 48.8699C7.6495 48.9064 7.79587 48.9982 7.89999 49.13C8.00494 49.2716 8.07654 49.4351 8.10944 49.6083C8.14234 49.7814 8.13569 49.9598 8.08999 50.13C8.04268 50.3385 7.94503 50.5323 7.80558 50.6944C7.66613 50.8565 7.48911 50.9821 7.28999 51.06C7.11033 51.1247 6.9151 51.1326 6.73082 51.0825C6.54655 51.0324 6.38216 50.9268 6.25999 50.78V50.78Z" fill="#7A913A"/>
<path d="M59.4701 5.77V5.67H59.3401H59.2401C59.0601 5.78 58.9201 5.89 58.7801 5.99C57.5194 6.80262 56.0757 7.28731 54.5801 7.4H54.5101C53.4215 7.50397 52.3231 7.38835 51.2801 7.06C50.35 6.73136 49.45 6.32318 48.5901 5.84C48.0701 5.57 47.5301 5.29 46.9801 5.05C45.5148 4.26494 43.8053 4.06824 42.2001 4.5C41.7245 4.66952 41.2885 4.93434 40.9188 5.27824C40.5491 5.62213 40.2535 6.03787 40.0501 6.5C39.3049 5.90594 38.4179 5.5161 37.4763 5.36881C36.5347 5.22153 35.5711 5.32188 34.6801 5.66C34.6451 5.67408 34.6147 5.69729 34.5918 5.7272C34.5689 5.75711 34.5545 5.79261 34.5501 5.83C34.5447 5.86701 34.5504 5.90478 34.5664 5.93858C34.5824 5.97238 34.608 6.0007 34.6401 6.02C35.6315 6.70664 36.7955 7.10158 38.0001 7.16C38.6345 7.19684 39.2709 7.14296 39.8901 7C39.7773 7.49319 39.8157 8.00889 40.0001 8.48C40.1916 8.9379 40.4938 9.34112 40.8795 9.65352C41.2652 9.96592 41.7224 10.1777 42.2101 10.27C42.2389 10.2817 42.2712 10.2817 42.3001 10.27H42.3601C42.4913 10.3063 42.625 10.333 42.7601 10.35C43.3771 10.46 43.9381 10.7776 44.3501 11.25C44.5667 11.556 44.7016 11.9123 44.7419 12.2851C44.7821 12.6579 44.7264 13.0348 44.5801 13.38C44.5599 13.4305 44.5601 13.4868 44.5806 13.5372C44.6011 13.5876 44.6403 13.628 44.6901 13.65H44.7601C44.8018 13.6534 44.8435 13.6437 44.8794 13.6222C44.9152 13.6006 44.9435 13.5684 44.9601 13.53C45.1304 13.1189 45.1941 12.6713 45.1451 12.229C45.0962 11.7867 44.9362 11.3639 44.6801 11C44.4871 10.7454 44.2458 10.5313 43.9701 10.37C44.1616 10.3615 44.3522 10.3381 44.5401 10.3C45.0601 10.21 46.2801 9.88 46.4401 8.86C46.4616 8.49229 46.3617 8.12769 46.1557 7.82233C45.9497 7.51697 45.6491 7.28777 45.3001 7.17C44.6511 6.98019 43.9682 6.93581 43.3001 7.04C43.2461 7.04749 43.1971 7.07567 43.1635 7.11858C43.1299 7.1615 43.1144 7.2158 43.1201 7.27C43.1226 7.29631 43.1302 7.32187 43.1427 7.3452C43.1551 7.36852 43.1721 7.38915 43.1925 7.40589C43.213 7.42262 43.2365 7.43514 43.2619 7.44271C43.2872 7.45028 43.3138 7.45276 43.3401 7.45C43.944 7.34974 44.5627 7.38734 45.1501 7.56C45.414 7.64827 45.641 7.82211 45.795 8.05398C45.9489 8.28584 46.0211 8.56246 46.0001 8.84C45.8701 9.63 44.7701 9.89 44.4301 9.95C43.8871 10.0403 43.333 10.0403 42.7901 9.95L42.4001 9.88C41.9634 9.80267 41.5525 9.61898 41.2037 9.34516C40.8549 9.07134 40.5789 8.71581 40.4001 8.31C40.2202 7.82274 40.2202 7.28726 40.4001 6.8C40.5675 6.34786 40.834 5.93895 41.1801 5.60325C41.5262 5.26756 41.943 5.01359 42.4001 4.86C43.9046 4.46647 45.5025 4.6595 46.8701 5.4C47.4101 5.64 47.9401 5.92 48.4601 6.18C49.3411 6.67093 50.2609 7.08899 51.2101 7.43C51.8585 7.63698 52.5305 7.7613 53.2101 7.8C53.5201 7.8 54.4401 7.8 54.5901 7.8C54.5301 7.86 54.4701 7.91 54.4201 7.97H54.3601C54.3548 7.99977 54.3548 8.03023 54.3601 8.06C54.2642 8.1599 54.1803 8.27065 54.1101 8.39C53.7447 9.08215 53.4691 9.81809 53.2901 10.58L53.1101 11.23C52.8915 12.1547 52.3878 12.9873 51.6701 13.61C51.6327 13.6331 51.604 13.6679 51.5884 13.7089C51.5728 13.7499 51.5711 13.795 51.5836 13.8371C51.5961 13.8791 51.6221 13.9159 51.6576 13.9418C51.6931 13.9676 51.7362 13.981 51.7801 13.98V13.98C52.427 13.9811 53.0631 13.8138 53.6259 13.4948C54.1887 13.1757 54.6588 12.7157 54.9901 12.16C55.2612 11.5219 55.385 10.8308 55.3521 10.1383C55.3192 9.44574 55.1305 8.76953 54.8001 8.16C55.0385 7.9221 55.3202 7.73201 55.6301 7.6C56.376 7.44635 57.1011 7.20466 57.7901 6.88C56.5658 8.67057 56.0426 10.8487 56.3201 13C56.4401 14.1433 56.6271 15.2786 56.8801 16.4C56.9901 16.97 57.1101 17.55 57.2101 18.13C55.6436 19.8546 54.7584 22.0905 54.7201 24.42C54.721 24.4634 54.7349 24.5056 54.7598 24.5412C54.7847 24.5768 54.8196 24.6042 54.8601 24.62C55.0026 24.6659 55.1505 24.6928 55.3001 24.7C55.6976 24.7038 56.0895 24.6068 56.4393 24.4179C56.7891 24.229 57.0852 23.9545 57.3001 23.62C57.7404 22.8408 57.9551 21.9543 57.9201 21.06C57.9093 20.0904 57.8156 19.1236 57.6401 18.17C57.5401 17.55 57.4101 16.93 57.2901 16.32C57.0441 15.2242 56.8572 14.1159 56.7301 13C56.4501 10.07 57.2801 7.54 58.9401 6.25L59.3901 5.93V5.82L59.4701 5.77Z" fill="#7A913A"/>
<path d="M57.15 42.77C57.113 42.7713 57.0773 42.7833 57.0471 42.8047C57.0169 42.826 56.9936 42.8556 56.98 42.89C56.5227 44.0256 56.3457 45.2547 56.4641 46.4731C56.5825 47.6916 56.9927 48.8636 57.66 49.89C57.4174 50.7732 57.0323 51.6108 56.52 52.37C56.2715 52.1265 55.9965 51.9119 55.7 51.73C55.48 51.6 55.24 51.48 55.02 51.37C54.4824 51.1544 54.0053 50.8112 53.63 50.37C52.99 49.46 53.43 48.11 54.15 47.18V47H53.89C52.5561 48.1957 51.4719 49.6435 50.7 51.26C50.33 51.91 49.95 52.58 49.55 53.19C48.8558 54.1912 47.993 55.0641 47 55.77C47.0951 55.0067 46.9544 54.2327 46.5969 53.5516C46.2394 52.8706 45.6822 52.3152 45 51.96C44.8219 51.8054 44.5974 51.7146 44.362 51.7019C44.1265 51.6892 43.8936 51.7554 43.7 51.89C43.6015 51.9985 43.5281 52.1272 43.4849 52.2672C43.4417 52.4072 43.4298 52.5549 43.45 52.7C43.5002 53.5241 43.8217 54.3085 44.3644 54.9307C44.907 55.553 45.6403 55.9782 46.45 56.14C45.3964 56.8332 44.2283 57.3342 43 57.62C42.3449 57.7957 41.6551 57.7957 41 57.62C40.6992 57.5396 40.4279 57.3743 40.2186 57.1437C40.0093 56.9132 39.8709 56.6272 39.82 56.32C39.8149 56.2661 39.7892 56.2162 39.7482 56.1808C39.7072 56.1454 39.6541 56.1272 39.6 56.13C39.5723 56.1325 39.5455 56.1405 39.521 56.1534C39.4964 56.1663 39.4747 56.184 39.457 56.2054C39.4394 56.2268 39.4261 56.2515 39.418 56.278C39.41 56.3045 39.4072 56.3324 39.41 56.36C39.4712 56.7537 39.6486 57.1201 39.9194 57.4123C40.1902 57.7045 40.5421 57.9091 40.93 58C41.2537 58.0998 41.5913 58.1471 41.93 58.14C42.3303 58.1322 42.7288 58.0854 43.12 58C45.8743 57.3653 48.284 55.7064 49.86 53.36C50.27 52.74 50.65 52.06 51.03 51.36C51.6202 50.2166 52.3273 49.1375 53.14 48.14C52.9575 48.5321 52.8765 48.9638 52.9044 49.3954C52.9324 49.827 53.0684 50.2447 53.3 50.61C53.714 51.0969 54.2386 51.4775 54.83 51.72C55.05 51.82 55.28 51.94 55.49 52.06C55.8226 52.268 56.1254 52.5203 56.39 52.81V52.81C56.8692 53.3453 57.2107 53.9893 57.385 54.6863C57.5592 55.3832 57.5609 56.1122 57.39 56.81C57.2235 57.4198 56.8746 57.9641 56.39 58.37C56.1626 58.5631 55.8929 58.6999 55.6027 58.7694C55.3126 58.8389 55.0102 58.8391 54.72 58.77C54.4967 58.7011 54.2913 58.5839 54.1184 58.4266C53.9456 58.2693 53.8095 58.0758 53.72 57.86C53.593 57.5448 53.573 57.1967 53.6633 56.8691C53.7535 56.5415 53.9489 56.2526 54.2194 56.0469C54.4898 55.8412 54.8204 55.7301 55.1602 55.7306C55.5 55.7312 55.8302 55.8434 56.1 56.05C56.1198 56.0737 56.1447 56.0928 56.1728 56.1058C56.2009 56.1188 56.2316 56.1254 56.2625 56.1252C56.2935 56.125 56.324 56.1179 56.352 56.1045C56.3799 56.0911 56.4045 56.0717 56.424 56.0476C56.4435 56.0236 56.4575 55.9956 56.4649 55.9655C56.4723 55.9354 56.473 55.9041 56.4669 55.8737C56.4608 55.8434 56.448 55.8147 56.4295 55.7899C56.411 55.765 56.3873 55.7446 56.36 55.73C56.1309 55.549 55.8649 55.4204 55.5808 55.3532C55.2968 55.2859 55.0014 55.2817 54.7155 55.3408C54.4296 55.3999 54.1601 55.5209 53.9259 55.6952C53.6917 55.8696 53.4986 56.093 53.36 56.35C53.2397 56.6121 53.1757 56.8965 53.1723 57.1849C53.1689 57.4733 53.2261 57.7592 53.3401 58.0241C53.4542 58.2889 53.6226 58.5269 53.8345 58.7226C54.0463 58.9183 54.2969 59.0673 54.57 59.16C54.7492 59.2088 54.9343 59.2323 55.12 59.23C55.6681 59.2234 56.1975 59.0293 56.62 58.68C57.1628 58.2457 57.5661 57.6615 57.78 57C57.967 56.2554 57.9739 55.4769 57.8 54.7291C57.6261 53.9812 57.2764 53.2857 56.78 52.7C57.3633 51.8802 57.8029 50.9672 58.08 50V50C58.7792 47.6317 58.5132 45.0829 57.34 42.91C57.3287 42.8687 57.3038 42.8323 57.2693 42.8069C57.2349 42.7815 57.1928 42.7685 57.15 42.77V42.77Z" fill="#7A913A"/>
<path d="M57 34.42C56.9626 34.3834 56.9123 34.3628 56.86 34.3628C56.8076 34.3628 56.7573 34.3834 56.72 34.42C56.6827 34.4591 56.6619 34.511 56.6619 34.565C56.6619 34.619 56.6827 34.6709 56.72 34.71C56.8505 34.869 57.0219 34.9893 57.2157 35.058C57.4095 35.1267 57.6185 35.1412 57.82 35.1C58.0585 35.0644 58.2834 34.966 58.4714 34.8149C58.6595 34.6638 58.8039 34.4654 58.89 34.24C58.9979 33.8173 58.9413 33.3695 58.7315 32.987C58.5217 32.6045 58.1744 32.3161 57.76 32.18C57.3632 32.0608 56.9436 32.0386 56.5364 32.1152C56.1292 32.1917 55.7464 32.3648 55.42 32.62C54.6121 33.3167 54.0684 34.27 53.88 35.32L53.78 35.14C53.5123 34.7328 53.2077 34.3512 52.87 34C52.4648 33.6003 52.1271 33.1377 51.87 32.63C51.6383 32.03 51.6346 31.366 51.8594 30.7635C52.0842 30.1609 52.522 29.6616 53.09 29.36C53.1386 29.3344 53.1753 29.2907 53.1922 29.2384C53.209 29.186 53.2046 29.1292 53.18 29.08C53.1683 29.0562 53.152 29.0351 53.132 29.0176C53.1121 29.0002 53.0889 28.987 53.0638 28.9786C53.0386 28.9702 53.0121 28.9669 52.9857 28.9689C52.9593 28.9708 52.9336 28.978 52.91 28.99C52.2516 29.3424 51.7443 29.9226 51.4829 30.622C51.2215 31.3215 51.224 32.0923 51.49 32.79C51.7437 33.3327 52.0812 33.8321 52.49 34.27C52.7807 34.5807 53.0449 34.9152 53.28 35.27C53.4305 35.5205 53.5482 35.7894 53.63 36.07C53.9005 36.9905 53.9005 37.9695 53.63 38.89C53.3828 39.3461 53.042 39.7448 52.63 40.06C52.4208 40.2237 52.1761 40.3361 51.9156 40.3882C51.6551 40.4403 51.386 40.4307 51.13 40.36C50.8946 40.2838 50.6958 40.123 50.572 39.9088C50.4483 39.6945 50.4083 39.442 50.46 39.2C50.5057 39.0844 50.5802 38.9823 50.6765 38.9036C50.7728 38.8248 50.8875 38.7719 51.01 38.75C51.1053 38.7264 51.2051 38.7278 51.2997 38.754C51.3943 38.7803 51.4805 38.8306 51.55 38.9C51.566 38.927 51.5879 38.95 51.614 38.9674C51.6401 38.9848 51.6697 38.9962 51.7008 39.0006C51.7319 39.005 51.7635 39.0024 51.7934 38.993C51.8234 38.9836 51.8508 38.9676 51.8738 38.9462C51.8967 38.9248 51.9145 38.8985 51.926 38.8693C51.9374 38.8401 51.9422 38.8087 51.9399 38.7774C51.9376 38.7461 51.9284 38.7157 51.9128 38.6885C51.8972 38.6613 51.8758 38.6378 51.85 38.62C51.7315 38.5015 51.5852 38.4147 51.4244 38.3675C51.2637 38.3204 51.0936 38.3143 50.93 38.35C50.736 38.3875 50.5549 38.4744 50.4043 38.6023C50.2537 38.7302 50.1385 38.8947 50.07 39.08C49.9997 39.3614 50.0198 39.6577 50.1275 39.927C50.2352 40.1962 50.425 40.4247 50.67 40.58C50.7676 40.6522 50.8755 40.7094 50.99 40.75C51.3093 40.8441 51.6466 40.8605 51.9736 40.7979C52.3006 40.7353 52.6079 40.5954 52.87 40.39C52.9605 40.3249 53.0473 40.2548 53.13 40.18C52.5496 41.2466 51.8627 42.2517 51.08 43.18C51.0427 43.2191 51.0219 43.271 51.0219 43.325C51.0219 43.379 51.0427 43.4309 51.08 43.47V43.47C51.1194 43.5025 51.1689 43.5203 51.22 43.5203C51.271 43.5203 51.3205 43.5025 51.36 43.47C52.3649 42.3166 53.1907 41.0188 53.81 39.62C53.88 39.42 53.93 39.25 53.98 39.09C53.9843 39.0669 53.9843 39.0431 53.98 39.02C54.2595 38.0395 54.2595 37.0005 53.98 36.02C54.0374 34.8256 54.5617 33.7015 55.44 32.89C55.7187 32.6715 56.0454 32.5222 56.393 32.4544C56.7407 32.3866 57.0995 32.4022 57.44 32.5C57.7512 32.6055 58.0128 32.8217 58.175 33.1075C58.3373 33.3933 58.3888 33.7287 58.32 34.05C58.2527 34.2012 58.149 34.3333 58.0181 34.4345C57.8872 34.5358 57.7332 34.6029 57.57 34.63C57.4654 34.638 57.3604 34.6233 57.2621 34.5871C57.1637 34.5509 57.0743 34.4939 57 34.42Z" fill="#7A913A"/>
<path d="M16.45 42.63C16.5595 42.6848 16.6562 42.7622 16.7338 42.857C16.8113 42.9517 16.868 43.0618 16.9 43.18C16.9274 43.2791 16.9336 43.3829 16.9181 43.4846C16.9026 43.5863 16.8658 43.6835 16.81 43.77C16.7932 43.7919 16.781 43.8171 16.7744 43.8439C16.7677 43.8708 16.7667 43.8987 16.7714 43.926C16.7761 43.9532 16.7864 43.9792 16.8017 44.0023C16.8169 44.0253 16.8368 44.045 16.86 44.06C16.9045 44.0883 16.9579 44.0989 17.0098 44.0896C17.0617 44.0804 17.1081 44.0519 17.14 44.01C17.2343 43.8767 17.2969 43.7236 17.3229 43.5624C17.3489 43.4012 17.3377 43.2362 17.29 43.08C17.2496 42.9021 17.1691 42.7359 17.0547 42.5938C16.9404 42.4517 16.7951 42.3375 16.63 42.26C16.319 42.1307 15.974 42.1077 15.6486 42.1945C15.3231 42.2813 15.0354 42.473 14.83 42.74C14.6408 42.9985 14.5135 43.2971 14.458 43.6127C14.4025 43.9283 14.4203 44.2524 14.51 44.56C14.5814 44.8189 14.6856 45.0676 14.82 45.3C14.9953 45.5984 15.2069 45.8738 15.45 46.12C15.7855 46.5055 16.1985 46.8161 16.6619 47.0314C17.1254 47.2468 17.629 47.3622 18.14 47.37C18.7522 47.2653 19.3307 47.0168 19.828 46.6447C20.3252 46.2726 20.7269 45.7877 21 45.23C21.2665 44.7192 21.5068 44.1952 21.72 43.66C21.9349 43.0898 22.1888 42.5352 22.48 42C22.7169 41.4985 23.0767 41.065 23.526 40.7398C23.9754 40.4146 24.4996 40.2083 25.05 40.14C25.0807 40.1468 25.1126 40.1467 25.1432 40.1395C25.1738 40.1324 25.2025 40.1185 25.227 40.0988C25.2515 40.0791 25.2713 40.0542 25.2849 40.0258C25.2985 39.9975 25.3056 39.9664 25.3056 39.935C25.3056 39.9036 25.2985 39.8725 25.2849 39.8442C25.2713 39.8158 25.2515 39.7909 25.227 39.7712C25.2025 39.7515 25.1738 39.7376 25.1432 39.7305C25.1126 39.7233 25.0807 39.7232 25.05 39.73C24.4307 39.8005 23.8393 40.0262 23.3305 40.3864C22.8218 40.7465 22.4123 41.2293 22.14 41.79C21.8436 42.3289 21.5831 42.8868 21.36 43.46C21.1555 43.9827 20.9218 44.4935 20.66 44.99C20.4299 45.5049 20.0788 45.9565 19.6365 46.3065C19.1943 46.6565 18.674 46.8944 18.12 47C17.6688 46.9887 17.2248 46.8832 16.8167 46.6904C16.4086 46.4975 16.0453 46.2215 15.75 45.88C15.3556 45.5003 15.0662 45.0248 14.91 44.5C14.831 44.2485 14.8115 43.982 14.8532 43.7217C14.8948 43.4614 14.9965 43.2143 15.15 43C15.2958 42.8038 15.5022 42.6612 15.7372 42.5943C15.9723 42.5274 16.2228 42.54 16.45 42.63V42.63Z" fill="#7A913A"/>
<path d="M4.87005 15.64H4.94005C5.20207 15.6325 5.46211 15.6876 5.69861 15.8006C5.93512 15.9137 6.14129 16.0814 6.30005 16.29C6.85296 16.8975 7.22073 17.6504 7.36005 18.46C7.67005 17.77 8.02005 17.09 8.36005 16.46C8.3739 16.4355 8.39255 16.414 8.41489 16.3968C8.43722 16.3796 8.46278 16.3671 8.49005 16.36C8.51205 16.3501 8.53591 16.3449 8.56005 16.3449C8.58419 16.3449 8.60805 16.3501 8.63005 16.36C8.67873 16.3856 8.71542 16.4293 8.73225 16.4816C8.74908 16.534 8.7447 16.5908 8.72005 16.64C7.62012 18.4868 6.87088 20.521 6.51005 22.64C6.69842 22.1502 6.95422 21.6891 7.27005 21.27C7.49655 20.9815 7.75863 20.7228 8.05005 20.5C9.20401 19.7378 10.4787 19.1766 11.8201 18.84H11.9601C12.6601 18.67 12.9601 18.94 13.0501 19.12C13.1229 19.2843 13.1465 19.4662 13.1181 19.6437C13.0897 19.8212 13.0105 19.9866 12.8901 20.12C12.2879 20.9519 11.4323 21.5663 10.4515 21.871C9.47073 22.1756 8.41764 22.1543 7.45005 21.81V21.81C6.918 22.605 6.57585 23.5117 6.45005 24.46C6.63005 26.6 7.85005 29.08 10.1801 29.84C10.2061 29.8479 10.2303 29.861 10.2511 29.8785C10.2719 29.8961 10.2889 29.9177 10.3011 29.942C10.3132 29.9663 10.3203 29.9929 10.3218 30.0201C10.3234 30.0472 10.3194 30.0744 10.3101 30.1C10.2919 30.1488 10.2563 30.1891 10.2101 30.2132C10.1639 30.2372 10.1104 30.2432 10.0601 30.23C7.56005 29.42 6.25005 26.79 6.06005 24.54C6.05538 24.5289 6.05297 24.517 6.05297 24.505C6.05297 24.493 6.05538 24.4811 6.06005 24.47C6.04984 24.2835 6.04984 24.0965 6.06005 23.91C6.07983 22.2927 6.4197 20.6953 7.06005 19.21C7.05028 19.174 7.05028 19.136 7.06005 19.1C7.02564 18.1761 6.67227 17.2927 6.06005 16.6C5.94454 16.4222 5.7879 16.2749 5.60339 16.1704C5.41888 16.066 5.21193 16.0075 5.00005 16C4.90688 16.0178 4.82037 16.0608 4.74986 16.1242C4.67935 16.1877 4.62755 16.2692 4.60005 16.36C4.57125 16.4029 4.55586 16.4533 4.55586 16.505C4.55586 16.5566 4.57125 16.6071 4.60005 16.65C4.63734 16.6891 4.65815 16.741 4.65815 16.795C4.65815 16.849 4.63734 16.9009 4.60005 16.94C4.56099 16.9773 4.50906 16.9981 4.45505 16.9981C4.40105 16.9981 4.34912 16.9773 4.31005 16.94C4.22119 16.8475 4.16077 16.7314 4.13595 16.6055C4.11113 16.4797 4.12297 16.3493 4.17005 16.23C4.23133 16.083 4.32682 15.9528 4.44857 15.8502C4.57033 15.7476 4.71483 15.6755 4.87005 15.64V15.64Z" fill="#7A913A"/>
<path d="M6.81003 14.33C7.19466 14.1672 7.52848 13.9041 7.77653 13.5681C8.02459 13.232 8.17776 12.8355 8.22003 12.42C8.45823 11.1299 8.27349 9.79743 7.6933 8.62083C7.1131 7.44423 6.16848 6.48643 5.00003 5.89C4.94931 5.86862 4.89241 5.86703 4.84058 5.88554C4.78874 5.90406 4.74573 5.94133 4.72003 5.99C4.70837 6.01421 4.70171 6.04053 4.70044 6.06737C4.69918 6.09422 4.70334 6.12104 4.71267 6.14625C4.722 6.17145 4.73632 6.19451 4.75477 6.21405C4.77321 6.2336 4.79541 6.24923 4.82003 6.26C5.90943 6.81374 6.79035 7.70521 7.3311 8.80112C7.87184 9.89703 8.04337 11.1385 7.82003 12.34C7.74003 12.74 7.47003 13.7 6.70003 13.94C6.45856 14.0015 6.20446 13.9917 5.96844 13.9118C5.73242 13.8319 5.52458 13.6854 5.37003 13.49C5.21271 13.2795 5.10796 13.0345 5.06447 12.7753C5.02099 12.5161 5.04003 12.2503 5.12003 12C5.17348 11.7958 5.28509 11.6114 5.44131 11.4694C5.59753 11.3274 5.79163 11.2338 6.00003 11.2C6.10561 11.209 6.20682 11.2462 6.29304 11.3078C6.37926 11.3694 6.44731 11.453 6.49003 11.55C6.52662 11.6066 6.54609 11.6726 6.54609 11.74C6.54609 11.8074 6.52662 11.8734 6.49003 11.93C6.47036 11.9487 6.4547 11.9712 6.444 11.9961C6.4333 12.021 6.42778 12.0479 6.42778 12.075C6.42778 12.1021 6.4333 12.129 6.444 12.1539C6.4547 12.1788 6.47036 12.2013 6.49003 12.22C6.53015 12.2552 6.58168 12.2745 6.63503 12.2745C6.68838 12.2745 6.73991 12.2552 6.78003 12.22C6.87314 12.1066 6.93046 11.9682 6.9447 11.8222C6.95894 11.6762 6.92947 11.5292 6.86003 11.4C6.78773 11.2283 6.6689 11.0802 6.51695 10.9725C6.365 10.8647 6.18597 10.8015 6.00003 10.79C5.69869 10.823 5.41492 10.9483 5.18757 11.1488C4.96021 11.3493 4.80041 11.6152 4.73003 11.91C4.62996 12.2167 4.60226 12.5425 4.6491 12.8617C4.69594 13.1809 4.81605 13.485 5.00003 13.75C5.16075 13.949 5.36313 14.1103 5.59291 14.2226C5.8227 14.3349 6.07431 14.3954 6.33003 14.4C6.49263 14.4009 6.65445 14.3773 6.81003 14.33V14.33Z" fill="#7A913A"/>
<path d="M24 7.51H24.06C24.9779 7.8343 25.9673 7.90003 26.92 7.7L27.73 7.55C28.3653 7.41536 29.011 7.33507 29.66 7.31C30.6153 7.30798 31.554 7.55992 32.38 8.04C32.446 8.99401 32.7301 9.92015 33.2103 10.7471C33.6905 11.5741 34.3541 12.2798 35.15 12.81V12.81C35.1794 12.8249 35.212 12.8327 35.245 12.8327C35.278 12.8327 35.3105 12.8249 35.34 12.81C35.3707 12.7911 35.396 12.7646 35.4136 12.7331C35.4311 12.7016 35.4402 12.6661 35.44 12.63C35.4255 11.1016 34.8115 9.64006 33.73 8.56C33.4123 8.2434 33.0562 7.96791 32.67 7.74C31.7682 7.18488 30.7289 6.89386 29.67 6.9C28.9971 6.92284 28.3277 7.00651 27.67 7.15L26.88 7.29C26.0025 7.47782 25.0906 7.426 24.24 7.14C23.8428 6.99046 23.5002 6.72409 23.2575 6.37598C23.0147 6.02788 22.8831 5.61439 22.88 5.19C22.8755 5.14112 22.8541 5.09534 22.8193 5.06063C22.7846 5.02592 22.7389 5.00447 22.69 5C22.6637 4.99724 22.6371 4.99971 22.6118 5.00729C22.5865 5.01486 22.5629 5.02738 22.5424 5.04411C22.522 5.06085 22.505 5.08148 22.4926 5.1048C22.4802 5.12813 22.4725 5.15369 22.47 5.18C22.4649 5.67639 22.6076 6.16307 22.8801 6.57802C23.1526 6.99298 23.5424 7.31742 24 7.51V7.51Z" fill="#7A913A"/>
<path d="M14.2601 17.62C14.7184 17.62 15.0901 17.2484 15.0901 16.79C15.0901 16.3316 14.7184 15.96 14.2601 15.96C13.8017 15.96 13.4301 16.3316 13.4301 16.79C13.4301 17.2484 13.8017 17.62 14.2601 17.62Z" fill="#EF3C23"/>
<path d="M17.94 9.7C18.3984 9.7 18.77 9.3284 18.77 8.87C18.77 8.4116 18.3984 8.04 17.94 8.04C17.4816 8.04 17.11 8.4116 17.11 8.87C17.11 9.3284 17.4816 9.7 17.94 9.7Z" fill="#EF3C23"/>
<path d="M30.84 5.93C31.2984 5.93 31.67 5.5584 31.67 5.1C31.67 4.6416 31.2984 4.27 30.84 4.27C30.3816 4.27 30.01 4.6416 30.01 5.1C30.01 5.5584 30.3816 5.93 30.84 5.93Z" fill="#EF3C23"/>
<path d="M38.54 14.73C38.9984 14.73 39.37 14.3584 39.37 13.9C39.37 13.4416 38.9984 13.07 38.54 13.07C38.0816 13.07 37.71 13.4416 37.71 13.9C37.71 14.3584 38.0816 14.73 38.54 14.73Z" fill="#EF3C23"/>
<path d="M52.55 19.14C53.0084 19.14 53.38 18.7684 53.38 18.31C53.38 17.8516 53.0084 17.48 52.55 17.48C52.0916 17.48 51.72 17.8516 51.72 18.31C51.72 18.7684 52.0916 19.14 52.55 19.14Z" fill="#EF3C23"/>
<path d="M49.82 58.58C50.2784 58.58 50.65 58.2084 50.65 57.75C50.65 57.2916 50.2784 56.92 49.82 56.92C49.3616 56.92 48.99 57.2916 48.99 57.75C48.99 58.2084 49.3616 58.58 49.82 58.58Z" fill="#EF3C23"/>
<path d="M47.41 49.16C47.8684 49.16 48.24 48.7884 48.24 48.33C48.24 47.8716 47.8684 47.5 47.41 47.5C46.9516 47.5 46.58 47.8716 46.58 48.33C46.58 48.7884 46.9516 49.16 47.41 49.16Z" fill="#EF3C23"/>
<path d="M47.32 39.01C47.7784 39.01 48.15 38.6384 48.15 38.18C48.15 37.7216 47.7784 37.35 47.32 37.35C46.8616 37.35 46.49 37.7216 46.49 38.18C46.49 38.6384 46.8616 39.01 47.32 39.01Z" fill="#EF3C23"/>
<path d="M57.8999 39.37C58.3583 39.37 58.7299 38.9984 58.7299 38.54C58.7299 38.0816 58.3583 37.71 57.8999 37.71C57.4416 37.71 57.0699 38.0816 57.0699 38.54C57.0699 38.9984 57.4416 39.37 57.8999 39.37Z" fill="#EF3C23"/>
<path d="M58.2799 28.28C58.7383 28.28 59.11 27.9084 59.11 27.45C59.11 26.9916 58.7383 26.62 58.2799 26.62C57.8216 26.62 57.45 26.9916 57.45 27.45C57.45 27.9084 57.8216 28.28 58.2799 28.28Z" fill="#EF3C23"/>
<path d="M35.85 55.64C36.3084 55.64 36.68 55.2684 36.68 54.81C36.68 54.3516 36.3084 53.98 35.85 53.98C35.3916 53.98 35.02 54.3516 35.02 54.81C35.02 55.2684 35.3916 55.64 35.85 55.64Z" fill="#EF3C23"/>
<path d="M26.3901 45.29C26.8485 45.29 27.2201 44.9184 27.2201 44.46C27.2201 44.0016 26.8485 43.63 26.3901 43.63C25.9317 43.63 25.5601 44.0016 25.5601 44.46C25.5601 44.9184 25.9317 45.29 26.3901 45.29Z" fill="#EF3C23"/>
<path d="M18.0199 57.96C18.4783 57.96 18.8499 57.5884 18.8499 57.13C18.8499 56.6716 18.4783 56.3 18.0199 56.3C17.5615 56.3 17.1899 56.6716 17.1899 57.13C17.1899 57.5884 17.5615 57.96 18.0199 57.96Z" fill="#EF3C23"/>
<path d="M17.2699 39.41C17.7283 39.41 18.0999 39.0384 18.0999 38.58C18.0999 38.1216 17.7283 37.75 17.2699 37.75C16.8115 37.75 16.4399 38.1216 16.4399 38.58C16.4399 39.0384 16.8115 39.41 17.2699 39.41Z" fill="#EF3C23"/>
<path d="M5.73002 32.63C6.18842 32.63 6.56002 32.2584 6.56002 31.8C6.56002 31.3416 6.18842 30.97 5.73002 30.97C5.27163 30.97 4.90002 31.3416 4.90002 31.8C4.90002 32.2584 5.27163 32.63 5.73002 32.63Z" fill="#EF3C23"/>
<path d="M58.8 12.5C59.2584 12.5 59.63 12.1284 59.63 11.67C59.63 11.2116 59.2584 10.84 58.8 10.84C58.3416 10.84 57.97 11.2116 57.97 11.67C57.97 12.1284 58.3416 12.5 58.8 12.5Z" fill="#EF3C23"/>
<path d="M15.45 29.29C15.9084 29.29 16.28 28.9184 16.28 28.46C16.28 28.0016 15.9084 27.63 15.45 27.63C14.9916 27.63 14.62 28.0016 14.62 28.46C14.62 28.9184 14.9916 29.29 15.45 29.29Z" fill="#EF3C23"/>
<path d="M8.80998 7.42C9.26838 7.42 9.63998 7.0484 9.63998 6.59C9.63998 6.13161 9.26838 5.76 8.80998 5.76C8.35158 5.76 7.97998 6.13161 7.97998 6.59C7.97998 7.0484 8.35158 7.42 8.80998 7.42Z" fill="#EF3C23"/>
<path d="M40.2 44.8C40.289 44.819 40.3808 44.8199 40.4701 44.8027C40.5595 44.7855 40.6444 44.7506 40.72 44.7C42.19 43.96 43.78 43.45 45.22 42.64L45.38 42.56C45.63 42.45 45.93 42.27 46.14 42.51C46.35 42.75 46.22 43.15 46.03 43.43C45.8442 43.6751 45.5954 43.8652 45.31 43.98C42.8 45.32 40.26 46.57 37.67 47.72C35.91 48.51 34.2 49.38 32.46 50.2C30.72 51.02 29.08 51.62 27.38 52.29C26.74 52.55 26.53 52.46 26.38 51.97C26.08 51.13 26.16 50.74 26.79 50.53C27.86 50.17 28.92 49.79 29.97 49.37C30.3066 49.2956 30.6067 49.1061 30.8185 48.834C31.0303 48.562 31.1405 48.2246 31.13 47.88C31.13 46.79 31.32 45.7 31.31 44.6C31.31 42.6 31.43 40.69 31.61 38.74C31.6199 38.6804 31.6199 38.6196 31.61 38.56C31.53 35.84 31.86 33.13 31.89 30.41C31.89 27.41 31.83 24.41 32.05 21.41C32.05 21.13 32.05 20.87 31.66 20.99C29.16 21.85 26.49 22.34 24.57 24.39C24.1987 24.8017 23.9222 25.2898 23.76 25.82C23.6598 26.064 23.6407 26.3338 23.7056 26.5894C23.7704 26.8451 23.9157 27.0732 24.12 27.24C24.3505 27.4653 24.6376 27.6242 24.9509 27.6999C25.2642 27.7755 25.5921 27.7652 25.9 27.67C26.55 27.44 26.69 27.48 26.68 28.1C26.6935 29.3241 26.5455 30.5446 26.24 31.73C26.0168 32.515 25.6049 33.2335 25.0401 33.8227C24.4753 34.4119 23.7749 34.8538 23 35.11C21.4374 35.6524 19.7685 35.8169 18.13 35.59C17.035 35.4476 15.9747 35.1089 15 34.59C14.1711 34.2246 13.4484 33.655 12.8993 32.9345C12.3501 32.214 11.9926 31.3661 11.86 30.47C11.5254 28.7857 11.4949 27.0551 11.77 25.36C11.9783 24.1999 12.4221 23.0947 13.0739 22.1127C13.7257 21.1306 14.5718 20.2925 15.56 19.65C18.4644 17.7486 21.7997 16.607 25.26 16.33C27.6526 16.051 30.0619 15.9408 32.47 16C35 16.11 37.53 16.09 40.06 16.27C41.1303 16.3383 42.2045 16.3116 43.27 16.19C43.7863 16.1205 44.2781 15.9268 44.7031 15.6255C45.1281 15.3242 45.4736 14.9242 45.71 14.46C45.9049 14.1433 45.9794 13.7671 45.92 13.4C45.8775 13.1418 45.9235 12.8768 46.0506 12.6481C46.1776 12.4193 46.3783 12.2403 46.62 12.14C46.78 12.05 46.94 11.95 47.1 11.87C47.2605 11.7283 47.4622 11.6419 47.6755 11.6234C47.8887 11.6049 48.1023 11.6553 48.2848 11.7673C48.4673 11.8792 48.609 12.0468 48.6891 12.2453C48.7693 12.4438 48.7836 12.6627 48.73 12.87C48.7188 13.4229 48.5804 13.9659 48.3255 14.4566C48.0705 14.9474 47.706 15.3729 47.26 15.7C46.4895 16.3117 45.5726 16.7115 44.6 16.86C43.4487 17.1733 42.3167 17.554 41.21 18C41.103 18.0218 41.0083 18.0836 40.9451 18.1728C40.882 18.2619 40.8551 18.3718 40.87 18.48C40.87 18.72 40.87 18.97 40.87 19.21C41.01 21.59 40.92 23.97 40.87 26.35C40.78 29.35 40.74 32.35 40.51 35.35C40.37 37.24 40.38 39.14 40.24 41.02C40.16 42.12 40.24 43.22 40.1 44.31C40.0663 44.3924 40.0579 44.4829 40.0757 44.5702C40.0935 44.6574 40.1368 44.7374 40.2 44.8ZM38.78 44.8C39.0614 44.3785 39.1951 43.8756 39.16 43.37C39.8 31.17 40.04 22.43 39.56 19.11C39.56 18.94 39.56 18.71 39.31 18.71C39.06 18.71 39.06 18.9 39.06 19.1C39.06 19.53 39.06 19.95 39.01 20.38C38.88 22.81 38.76 25.25 38.61 27.68C38.47 29.87 38.46 42.39 38.78 44.82V44.8Z" fill="#383529"/>
</g>
<defs>
<clipPath id="clip0">
<rect width="64" height="64" fill="white"/>
</clipPath>
</defs>
</svg>
