<svg width="64" height="64" viewBox="0 0 64 64" fill="none" xmlns="http://www.w3.org/2000/svg">
<g clip-path="url(#clip0)">
<path d="M64.05 64.11H0.0499878V0.110001H64.05V64.11ZM1.40999 62.75H62.68V1.48H1.40999V62.75Z" fill="#383529"/>
<path d="M61.5 2.75H2.59V61.66H61.5V2.75Z" fill="#FBFAF7"/>
<path d="M43.45 12.37C43.46 12.5499 43.46 12.7301 43.45 12.91C43.45 13 43.45 13.08 43.45 13.16C43.45 13.24 43.45 13.25 43.45 13.29V13.35C43.45 13.35 43.45 13.45 43.45 13.35C43.4025 13.6894 43.3256 14.024 43.22 14.35C43.1976 14.4248 43.1709 14.4983 43.14 14.57C43.1276 14.6117 43.1109 14.6519 43.09 14.69V14.69C43.0213 14.844 42.9445 14.9942 42.86 15.14C42.7795 15.2891 42.6893 15.4327 42.59 15.57L42.53 15.65C42.4788 15.7211 42.4219 15.788 42.36 15.85C42.2509 15.9709 42.134 16.0844 42.01 16.19L41.91 16.27C41.85 16.32 41.91 16.27 41.91 16.27L41.68 16.42C41.5367 16.5178 41.3863 16.6047 41.23 16.68H41.12L40.98 16.74L40.03 17.18L39.03 17.66C38.9672 17.6937 38.9151 17.7444 38.8798 17.8063C38.8444 17.8682 38.8271 17.9388 38.83 18.01L38.74 19.82C38.67 21.3 38.61 22.82 38.54 24.26C38.45 26.12 38.37 27.97 38.29 29.83C38.21 31.69 38.13 33.29 38.06 35.02C38.06 36.13 37.96 37.24 37.93 38.35V38.55C37.93 38.6587 37.9732 38.763 38.0501 38.8399C38.127 38.9168 38.2313 38.96 38.34 38.96C38.4472 38.9551 38.5486 38.9104 38.6245 38.8345C38.7004 38.7586 38.7451 38.6572 38.75 38.55C38.75 37.55 38.82 36.55 38.86 35.55C38.93 33.86 39 32.18 39.08 30.55C39.16 28.68 39.24 26.81 39.33 24.95L39.54 20.3C39.54 19.8 39.54 19.3 39.61 18.79C39.61 18.56 39.61 18.32 39.61 18.09L39.4 18.44L41.33 17.53L41.53 17.45C41.6962 17.3754 41.8567 17.2885 42.01 17.19C42.3254 16.9979 42.6174 16.7697 42.88 16.51C43.3889 15.977 43.7807 15.3435 44.03 14.65C44.3154 13.866 44.4445 13.0336 44.41 12.2C44.4075 12.0921 44.3634 11.9892 44.2871 11.9129C44.2107 11.8366 44.1079 11.7925 44 11.79C43.8913 11.79 43.787 11.8332 43.7101 11.9101C43.6332 11.987 43.59 12.0913 43.59 12.2L43.45 12.37Z" fill="#B5B1A4"/>
<path d="M21 34.37C22.2781 34.0687 23.4269 33.3682 24.28 32.37C24.6827 31.876 25.0189 31.3314 25.28 30.75C25.5508 30.1934 25.7523 29.6057 25.88 29C26.0132 28.2376 26.0468 27.4611 25.98 26.69C25.9775 26.5821 25.9335 26.4792 25.8571 26.4029C25.7808 26.3266 25.678 26.2825 25.57 26.28C25.4613 26.28 25.357 26.3232 25.2801 26.4001C25.2032 26.477 25.16 26.5813 25.16 26.69C25.16 27.03 25.16 27.38 25.16 27.69C25.16 27.86 25.16 28.02 25.16 28.18C25.165 28.2499 25.165 28.3201 25.16 28.39C25.16 28.39 25.16 28.47 25.16 28.5C25.16 28.53 25.16 28.42 25.16 28.5V28.58C25.1202 28.8607 25.0601 29.1381 24.98 29.41C24.98 29.55 24.89 29.68 24.85 29.81C24.81 29.94 24.85 29.94 24.78 30C24.7763 30.0299 24.7763 30.0601 24.78 30.09C24.7757 30.1098 24.7757 30.1302 24.78 30.15C24.78 30.15 24.78 30.07 24.78 30.15C24.66 30.41 24.53 30.67 24.39 30.92C24.25 31.17 24.25 31.18 24.17 31.31L24.04 31.49C24.0225 31.5271 23.9989 31.5609 23.97 31.59C23.97 31.59 23.89 31.68 23.9 31.69C23.91 31.7 23.96 31.61 23.9 31.69C23.8822 31.721 23.8584 31.7482 23.83 31.77L23.68 31.95C23.5778 32.0706 23.4675 32.1842 23.35 32.29L23.01 32.59C23.01 32.59 22.95 32.59 23.01 32.59L22.82 32.73C22.5381 32.9216 22.2403 33.0889 21.93 33.23H21.88H21.83H21.88L21.76 33.28L21.52 33.37L21.02 33.51C20.9147 33.5403 20.8254 33.6107 20.7712 33.706C20.717 33.8013 20.7022 33.914 20.73 34.02C20.7624 34.1235 20.8336 34.2104 20.9287 34.2626C21.0237 34.3148 21.1353 34.3282 21.24 34.3L21 34.37Z" fill="#B5B1A4"/>
<path d="M52 24.05C52.1788 24.298 52.3392 24.5587 52.48 24.83C52.55 24.96 52.62 25.1 52.68 25.24V25.34C52.68 25.34 52.68 25.42 52.68 25.34C52.6747 25.3562 52.6747 25.3738 52.68 25.39C52.68 25.46 52.73 25.54 52.76 25.61C52.9742 26.1784 53.1251 26.7686 53.21 27.37C53.21 27.43 53.21 27.28 53.21 27.37V27.42C53.2149 27.4598 53.2149 27.5002 53.21 27.54V27.77C53.21 27.92 53.21 28.07 53.21 28.22C53.21 28.37 53.21 28.83 53.21 29.14C53.2051 29.2066 53.2051 29.2734 53.21 29.34C53.21 29.34 53.21 29.42 53.21 29.46V29.51C53.21 29.61 53.21 29.51 53.21 29.51C53.21 29.51 53.21 29.81 53.13 29.96C53.0732 30.2539 52.9998 30.5444 52.91 30.83C52.86 31 52.8 31.16 52.74 31.32L52.69 31.44C52.69 31.44 52.69 31.44 52.69 31.49C52.69 31.54 52.69 31.49 52.69 31.49C52.69 31.49 52.62 31.65 52.59 31.72C52.4396 32.0307 52.2693 32.3313 52.08 32.62C52.0283 32.7147 52.015 32.8258 52.0429 32.93C52.0708 33.0343 52.1378 33.1238 52.23 33.18C52.323 33.2352 52.434 33.2515 52.5388 33.2253C52.6437 33.199 52.734 33.1325 52.79 33.04C53.493 31.9394 53.9279 30.6892 54.06 29.39C54.2015 28.121 54.0581 26.8365 53.64 25.63C53.3989 24.9398 53.0623 24.2868 52.64 23.69C52.5843 23.5958 52.4935 23.5277 52.3876 23.5005C52.2816 23.4733 52.1692 23.4893 52.075 23.545C51.9809 23.6007 51.9127 23.6915 51.8855 23.7975C51.8583 23.9034 51.8743 24.0158 51.93 24.11L52 24.05Z" fill="#7A913A"/>
<path d="M17.33 53.41C18.1633 53.0887 18.8953 52.55 19.45 51.85C20 51.22 20.45 50.52 21.07 49.93L21.33 49.7L21.47 49.58C21.52 49.58 21.39 49.64 21.47 49.58L21.56 49.52C21.748 49.3785 21.9529 49.2609 22.17 49.17C22.2641 49.1156 22.3328 49.0261 22.361 48.9211C22.3891 48.816 22.3743 48.7042 22.32 48.61C22.2638 48.5178 22.1743 48.4508 22.07 48.4229C21.9658 48.395 21.8547 48.4082 21.76 48.46C20.16 49.17 19.43 50.89 18.17 51.99L18.04 52.09L17.98 52.15C18.07 52.15 17.98 52.15 17.98 52.15C17.8872 52.2191 17.7904 52.2825 17.69 52.34C17.59 52.4026 17.4865 52.4593 17.38 52.51H17.32C17.23 52.51 17.39 52.51 17.32 52.51L17.14 52.57C17.0881 52.5844 17.0396 52.609 16.9972 52.6422C16.9548 52.6754 16.9194 52.7166 16.8929 52.7635C16.8395 52.8582 16.8258 52.9702 16.855 53.075C16.8842 53.1798 16.9538 53.2686 17.0485 53.3221C17.1432 53.3755 17.2552 53.3892 17.36 53.36L17.33 53.41Z" fill="#7A913A"/>
<path d="M47.93 53.96C48.3884 53.96 48.76 53.5884 48.76 53.13C48.76 52.6716 48.3884 52.3 47.93 52.3C47.4716 52.3 47.1 52.6716 47.1 53.13C47.1 53.5884 47.4716 53.96 47.93 53.96Z" fill="#EF3C23"/>
<path d="M37.76 49.12C38.2184 49.12 38.59 48.7484 38.59 48.29C38.59 47.8316 38.2184 47.46 37.76 47.46C37.3016 47.46 36.93 47.8316 36.93 48.29C36.93 48.7484 37.3016 49.12 37.76 49.12Z" fill="#EF3C23"/>
<path d="M32.16 59.51C32.6184 59.51 32.99 59.1384 32.99 58.68C32.99 58.2216 32.6184 57.85 32.16 57.85C31.7016 57.85 31.33 58.2216 31.33 58.68C31.33 59.1384 31.7016 59.51 32.16 59.51Z" fill="#EF3C23"/>
<path d="M26.39 51.69C26.8484 51.69 27.22 51.3184 27.22 50.86C27.22 50.4016 26.8484 50.03 26.39 50.03C25.9316 50.03 25.56 50.4016 25.56 50.86C25.56 51.3184 25.9316 51.69 26.39 51.69Z" fill="#EF3C23"/>
<path d="M18.25 17.31C18.7084 17.31 19.08 16.9384 19.08 16.48C19.08 16.0216 18.7084 15.65 18.25 15.65C17.7916 15.65 17.42 16.0216 17.42 16.48C17.42 16.9384 17.7916 17.31 18.25 17.31Z" fill="#EF3C23"/>
<path d="M15.11 7.84C15.5684 7.84 15.94 7.4684 15.94 7.01C15.94 6.5516 15.5684 6.18 15.11 6.18C14.6516 6.18 14.28 6.5516 14.28 7.01C14.28 7.4684 14.6516 7.84 15.11 7.84Z" fill="#EF3C23"/>
<path d="M30.78 8C31.2384 8 31.61 7.6284 31.61 7.17C31.61 6.7116 31.2384 6.34 30.78 6.34C30.3216 6.34 29.95 6.7116 29.95 7.17C29.95 7.6284 30.3216 8 30.78 8Z" fill="#EF3C23"/>
<path d="M48.65 14.05C49.1084 14.05 49.48 13.6784 49.48 13.22C49.48 12.7616 49.1084 12.39 48.65 12.39C48.1916 12.39 47.82 12.7616 47.82 13.22C47.82 13.6784 48.1916 14.05 48.65 14.05Z" fill="#EF3C23"/>
<path d="M57.32 14.86C57.7784 14.86 58.15 14.4884 58.15 14.03C58.15 13.5716 57.7784 13.2 57.32 13.2C56.8616 13.2 56.49 13.5716 56.49 14.03C56.49 14.4884 56.8616 14.86 57.32 14.86Z" fill="#EF3C23"/>
<path d="M54.95 26.58C55.4084 26.58 55.78 26.2084 55.78 25.75C55.78 25.2916 55.4084 24.92 54.95 24.92C54.4916 24.92 54.12 25.2916 54.12 25.75C54.12 26.2084 54.4916 26.58 54.95 26.58Z" fill="#EF3C23"/>
<path d="M6.49 49.35C6.9484 49.35 7.32 48.9784 7.32 48.52C7.32 48.0616 6.9484 47.69 6.49 47.69C6.03161 47.69 5.66 48.0616 5.66 48.52C5.66 48.9784 6.03161 49.35 6.49 49.35Z" fill="#EF3C23"/>
<path d="M17.01 37.78C17.4684 37.78 17.84 37.4084 17.84 36.95C17.84 36.4916 17.4684 36.12 17.01 36.12C16.5516 36.12 16.18 36.4916 16.18 36.95C16.18 37.4084 16.5516 37.78 17.01 37.78Z" fill="#EF3C23"/>
<path d="M50.55 38.1C51.0084 38.1 51.38 37.7284 51.38 37.27C51.38 36.8116 51.0084 36.44 50.55 36.44C50.0916 36.44 49.72 36.8116 49.72 37.27C49.72 37.7284 50.0916 38.1 50.55 38.1Z" fill="#EF3C23"/>
<path d="M52.08 45.56C52.5384 45.56 52.91 45.1884 52.91 44.73C52.91 44.2716 52.5384 43.9 52.08 43.9C51.6216 43.9 51.25 44.2716 51.25 44.73C51.25 45.1884 51.6216 45.56 52.08 45.56Z" fill="#EF3C23"/>
<path d="M10.8 56.51C10.9827 55.5544 10.9434 54.5695 10.685 53.6315C10.4267 52.6935 9.95622 51.8273 9.31 51.1C10.0987 50.4403 10.7451 49.6271 11.21 48.71C11.571 47.8719 11.6619 46.9421 11.47 46.05C11.4775 45.8065 11.5336 45.567 11.6349 45.3455C11.7362 45.124 11.8808 44.9249 12.06 44.76C12.2272 44.5832 12.4288 44.4423 12.6523 44.346C12.8758 44.2498 13.1166 44.2001 13.36 44.2C13.415 44.2002 13.4682 44.1798 13.5089 44.1428C13.5496 44.1058 13.575 44.0548 13.58 44C13.5814 43.9729 13.5772 43.9458 13.5677 43.9204C13.5583 43.895 13.5438 43.8717 13.5251 43.8521C13.5064 43.8324 13.4839 43.8168 13.4589 43.8061C13.434 43.7955 13.4071 43.79 13.38 43.79C13.0794 43.7873 12.7815 43.8463 12.5046 43.9633C12.2277 44.0802 11.9777 44.2527 11.77 44.47C11.5385 44.6963 11.3519 44.9644 11.22 45.26C11.1501 45.0919 11.07 44.9283 10.98 44.77C10.7939 44.4537 10.5613 44.1671 10.29 43.92C10.6088 43.7574 10.8782 43.5122 11.07 43.21C11.4134 42.636 11.5176 41.9501 11.36 41.3C11.0193 40.2816 10.4115 39.3734 9.6 38.67C9.57378 38.6452 9.54159 38.6275 9.50656 38.6188C9.47152 38.61 9.43482 38.6104 9.4 38.62C9.36479 38.6311 9.33278 38.6506 9.30668 38.6767C9.28057 38.7028 9.26113 38.7348 9.25 38.77C9.0857 39.502 9.00187 40.2498 9 41C8.97592 41.8286 9.12581 42.653 9.44 43.42C9.27794 43.3582 9.11058 43.3114 8.94 43.28C8.4883 43.2074 8.02552 43.2985 7.63501 43.5368C7.24451 43.7751 6.95194 44.1451 6.81 44.58C6.79691 44.6081 6.79018 44.6387 6.7903 44.6696C6.79042 44.7006 6.7974 44.7312 6.81071 44.7591C6.82403 44.7871 6.84337 44.8118 6.86734 44.8314C6.89131 44.851 6.91932 44.865 6.94937 44.8725C6.97941 44.8801 7.01074 44.8808 7.04112 44.8748C7.0715 44.8688 7.10017 44.8561 7.12508 44.8377C7.14999 44.8193 7.17052 44.7956 7.1852 44.7684C7.19988 44.7411 7.20835 44.7109 7.21 44.68C7.32222 44.3408 7.55259 44.0532 7.85914 43.8696C8.16569 43.6861 8.52799 43.6188 8.88 43.68C9.25123 43.7567 9.60079 43.915 9.90343 44.1432C10.2061 44.3715 10.4542 44.6641 10.63 45C10.832 45.3527 10.9803 45.7336 11.07 46.13C11.2474 46.9484 11.1634 47.8018 10.83 48.57C10.308 49.5551 9.58593 50.4203 8.71 51.11C8.43 51.37 8.14 51.64 7.86 51.92C7.15424 52.5769 6.62765 53.4029 6.33 54.32C6.32577 54.3364 6.32577 54.3536 6.33 54.37C6.26217 54.5334 6.16015 54.6805 6.03079 54.8012C5.90143 54.9219 5.74772 55.0136 5.58 55.07C5.41453 55.1202 5.24061 55.1363 5.06874 55.1174C4.89687 55.0985 4.73061 55.0449 4.58 54.96C4.55718 54.9457 4.53168 54.9361 4.50506 54.9318C4.47844 54.9276 4.45123 54.9288 4.42508 54.9353C4.39893 54.9419 4.37436 54.9536 4.35287 54.9699C4.33137 54.9862 4.31339 55.0066 4.3 55.03C4.29107 55.0627 4.29107 55.0973 4.3 55.13C4.30072 55.1659 4.31021 55.2011 4.32764 55.2324C4.34507 55.2638 4.36991 55.2904 4.4 55.31C4.60325 55.4296 4.82952 55.5048 5.06393 55.5307C5.29834 55.5565 5.53557 55.5324 5.76 55.46C5.95329 55.3974 6.13308 55.299 6.29 55.17C6.28508 55.2099 6.28508 55.2502 6.29 55.29C6.28501 55.6073 6.33927 55.9227 6.45 56.22C6.45763 56.246 6.47074 56.2701 6.48846 56.2907C6.50618 56.3112 6.52809 56.3277 6.55272 56.3391C6.57735 56.3505 6.60414 56.3564 6.63126 56.3566C6.65839 56.3568 6.68524 56.3511 6.71 56.34C6.73515 56.3311 6.75827 56.3172 6.77799 56.2993C6.7977 56.2813 6.81362 56.2595 6.8248 56.2353C6.83599 56.2111 6.84221 56.1848 6.8431 56.1582C6.84399 56.1315 6.83954 56.1049 6.83 56.08C6.24 54.41 7.83 52.7 8.26 52.21C8.5 51.97 8.76 51.73 9.01 51.5C9.01 51.86 8.94 52.42 8.94 53C8.93444 53.469 8.97126 53.9376 9.05 54.4C9.12571 54.8716 9.30602 55.3202 9.57768 55.713C9.84935 56.1058 10.2055 56.4328 10.62 56.67C10.6483 56.6827 10.679 56.6893 10.71 56.6893C10.741 56.6893 10.7717 56.6827 10.8 56.67C10.8211 56.6188 10.8211 56.5612 10.8 56.51V56.51Z" fill="#7A913A"/>
<path d="M55 11.36C55.6561 11.3212 56.2873 11.0952 56.8189 10.7089C57.3506 10.3225 57.7604 9.79198 58 9.18C58.1615 8.7023 58.1929 8.19022 58.091 7.69637C57.989 7.20252 57.7574 6.74472 57.42 6.37C57.0716 6.00035 56.6252 5.73734 56.133 5.61163C55.6408 5.48593 55.123 5.5027 54.64 5.66C54.1587 5.83327 53.7427 6.15114 53.4491 6.57006C53.1555 6.98898 52.9986 7.48844 53 8C53.0104 8.04664 53.0363 8.08836 53.0736 8.11826C53.1109 8.14815 53.1572 8.16445 53.205 8.16445C53.2528 8.16445 53.2991 8.14815 53.3364 8.11826C53.3737 8.08836 53.3996 8.04664 53.41 8C53.4021 7.56284 53.5321 7.13431 53.7817 6.77528C54.0312 6.41624 54.3875 6.14497 54.8 6C55.2058 5.86596 55.6414 5.85026 56.0558 5.95475C56.4702 6.05923 56.8463 6.27958 57.14 6.59C57.4242 6.91442 57.6189 7.30735 57.7048 7.72998C57.7907 8.15262 57.7649 8.59037 57.63 9C57.4278 9.57248 57.0567 10.0701 56.5657 10.4272C56.0747 10.7843 55.4869 10.9841 54.88 11C53.9352 11.0254 53.008 10.7409 52.24 10.19C52.0084 10.04 51.7908 9.86932 51.59 9.68C50.7085 8.82021 49.9961 7.80259 49.49 6.68C49.4699 6.63081 49.4319 6.59108 49.3836 6.56881C49.3354 6.54654 49.2805 6.54339 49.23 6.56C49.2023 6.56857 49.1768 6.58304 49.1553 6.60243C49.1338 6.62181 49.1167 6.64565 49.1053 6.67227C49.0939 6.6989 49.0884 6.72769 49.0892 6.75665C49.09 6.78561 49.0971 6.81405 49.11 6.84C49.6008 7.94669 50.2772 8.96131 51.11 9.84C51.11 9.84 51.11 9.84 51.11 9.84C50.4012 9.55445 49.7129 9.22033 49.05 8.84C48.577 8.57919 48.0895 8.34548 47.59 8.14C47.0845 7.90802 46.5495 7.74652 46 7.66C45.4425 7.56882 44.8714 7.61199 44.3339 7.78592C43.7965 7.95984 43.3084 8.2595 42.91 8.66C42.7821 8.77018 42.6866 8.91308 42.6338 9.07339C42.5809 9.2337 42.5727 9.40537 42.61 9.57C42.6835 9.72261 42.7945 9.85405 42.9327 9.952C43.0709 10.05 43.2317 10.1112 43.4 10.13C44.1703 10.2812 44.9671 10.2217 45.7063 9.95765C46.4456 9.69364 47.0998 9.23495 47.6 8.63C48.04 8.82 48.45 9.04 48.81 9.23C49.8278 9.75991 50.8965 10.1854 52 10.5V10.5C52.6842 10.9698 53.4747 11.262 54.3 11.35C54.5323 11.378 54.767 11.3813 55 11.36V11.36Z" fill="#7A913A"/>
<path d="M37 52C37.6484 52.4249 38.1071 53.0843 38.28 53.84C38.2874 53.8868 38.312 53.9292 38.349 53.9588C38.386 53.9884 38.4327 54.0031 38.48 54V54C38.5323 53.988 38.578 53.9564 38.6077 53.9118C38.6375 53.8672 38.649 53.8129 38.64 53.76C38.4516 52.8912 37.9266 52.1325 37.18 51.65C36.3762 51.2692 35.4683 51.1671 34.6 51.36C34.7645 50.6498 34.7229 49.9074 34.48 49.22C34.2591 48.6388 33.8861 48.1277 33.4 47.74V47.74C32.5183 47.0465 31.4408 46.6477 30.32 46.6C29.8259 46.5522 29.3277 46.6278 28.87 46.82C28.6399 46.9311 28.4404 47.0966 28.2888 47.3022C28.1372 47.5078 28.0381 47.7474 28 48C27.9854 48.1811 28.008 48.3632 28.0665 48.5352C28.125 48.7072 28.2181 48.8654 28.34 49C28.51 49.1933 28.7171 49.3505 28.949 49.4621C29.1809 49.5738 29.4329 49.6377 29.69 49.65H29.79C30.5691 49.5844 31.319 49.323 31.97 48.89L32.71 48.47L33.32 48.12C33.7018 48.4443 33.9944 48.8608 34.17 49.33C34.4073 50.0476 34.4073 50.8224 34.17 51.54C33.9535 52.3117 33.616 53.0441 33.17 53.71C32.6875 54.5085 32.0355 55.1912 31.26 55.71C30.8892 55.9572 30.4679 56.1187 30.0268 56.1827C29.5857 56.2467 29.1358 56.2116 28.71 56.08C28.6583 56.0604 28.6009 56.062 28.5503 56.0845C28.4998 56.107 28.4601 56.1485 28.44 56.2C28.424 56.2517 28.4285 56.3077 28.4528 56.3561C28.477 56.4046 28.519 56.4418 28.57 56.46C28.8904 56.5764 29.2292 56.634 29.57 56.63C30.2419 56.5925 30.8912 56.3749 31.45 56C32.256 55.4473 32.9372 54.7319 33.45 53.9C33.8925 53.2285 34.2297 52.4934 34.45 51.72C35.3069 51.5174 36.2075 51.6163 37 52Z" fill="#7A913A"/>
<path d="M49.77 18.38C49.0056 18.2587 48.3177 17.8466 47.85 17.23C47.8222 17.192 47.7825 17.1644 47.7371 17.1517C47.6918 17.139 47.6435 17.142 47.6 17.16C47.5806 17.1778 47.5651 17.1994 47.5545 17.2235C47.5439 17.2476 47.5385 17.2737 47.5385 17.3C47.5385 17.3263 47.5439 17.3524 47.5545 17.3765C47.5651 17.4006 47.5806 17.4222 47.6 17.44C47.8604 17.7931 48.1879 18.0914 48.5637 18.3179C48.9394 18.5444 49.3562 18.6946 49.79 18.76C50.6794 18.7754 51.5485 18.4939 52.26 17.96C52.4032 18.6765 52.7505 19.3363 53.26 19.86C53.7007 20.2959 54.2495 20.6065 54.85 20.76V20.76C55.8963 21.0104 56.9937 20.9407 58 20.56C58.4703 20.3942 58.8951 20.1202 59.24 19.76C59.4224 19.5651 59.5521 19.3269 59.6168 19.068C59.6816 18.809 59.6792 18.5378 59.61 18.28C59.5505 18.1057 59.4547 17.946 59.3288 17.8115C59.203 17.6771 59.05 17.5709 58.88 17.5C58.3989 17.3054 57.8611 17.3054 57.38 17.5H57.29C56.6084 17.881 56.034 18.4279 55.62 19.09L55.12 19.78L54.7 20.35C54.2193 20.2132 53.7819 19.9549 53.43 19.6C52.9099 19.0505 52.5774 18.3503 52.48 17.6C52.3515 16.8018 52.3515 15.9882 52.48 15.19C52.5926 14.2696 52.9067 13.3852 53.4 12.6C53.6357 12.2216 53.9528 11.9006 54.3281 11.6601C54.7035 11.4197 55.1277 11.2659 55.57 11.21C55.6007 11.2168 55.6325 11.2167 55.6632 11.2095C55.6938 11.2024 55.7224 11.1885 55.747 11.1688C55.7715 11.1491 55.7913 11.1242 55.8049 11.0958C55.8185 11.0675 55.8256 11.0364 55.8256 11.005C55.8256 10.9736 55.8185 10.9425 55.8049 10.9142C55.7913 10.8858 55.7715 10.8609 55.747 10.8412C55.7224 10.8215 55.6938 10.8076 55.6632 10.8005C55.6325 10.7933 55.6007 10.7932 55.57 10.8C55.2243 10.8292 54.8861 10.9171 54.57 11.06C53.9529 11.3492 53.4271 11.8023 53.05 12.37C52.5222 13.2038 52.1811 14.1419 52.05 15.12C51.904 15.9184 51.8804 16.7345 51.98 17.54C51.3514 18.0479 50.5772 18.3421 49.77 18.38V18.38Z" fill="#7A913A"/>
<path d="M31.39 13.84C32.0449 12.6219 32.9979 11.5898 34.16 10.84C34.7032 10.4422 35.3344 10.1814 36 10.08C36.0128 10.2678 36.0361 10.4548 36.07 10.64C36.1168 11.0018 36.2544 11.3458 36.47 11.64C36.5926 11.799 36.7602 11.9174 36.9511 11.9799C37.1419 12.0423 37.3471 12.0458 37.54 11.99C37.6948 11.9371 37.8304 11.8397 37.93 11.71C38.0156 11.6009 38.0776 11.4753 38.112 11.341C38.1464 11.2067 38.1526 11.0668 38.13 10.93C38.0968 10.7224 38.0176 10.5249 37.8982 10.3519C37.7789 10.1788 37.6223 10.0347 37.44 9.93C37.1401 9.7397 36.795 9.6327 36.44 9.62C36.4416 8.88537 36.5877 8.15822 36.87 7.48V7.48C37.4221 7.72127 38.0264 7.81847 38.6263 7.76251C39.2262 7.70654 39.8021 7.49923 40.3 7.16C40.3493 7.11176 40.3929 7.05808 40.43 7C40.5009 6.91278 40.5366 6.80219 40.53 6.69C40.53 6.42 40.28 6.23 39.89 6.19C38.8678 6.16828 37.8621 6.45016 37 7C37.1596 6.69739 37.3506 6.41248 37.57 6.15C37.5897 6.13131 37.6053 6.10882 37.616 6.0839C37.6267 6.05897 37.6323 6.03213 37.6323 6.005C37.6323 5.97787 37.6267 5.95103 37.616 5.9261C37.6053 5.90117 37.5897 5.87868 37.57 5.86C37.5309 5.82271 37.479 5.8019 37.425 5.8019C37.371 5.8019 37.3191 5.82271 37.28 5.86C36.3968 6.92443 35.9186 8.26693 35.93 9.65C35.2019 9.77081 34.5148 10.0697 33.93 10.52C32.6976 11.2905 31.6876 12.3694 31 13.65C30.9864 13.674 30.9779 13.7007 30.9751 13.7281C30.9723 13.7556 30.9752 13.7834 30.9837 13.8097C30.9921 13.836 31.0059 13.8603 31.0242 13.881C31.0425 13.9017 31.0649 13.9184 31.09 13.93C31.1147 13.9472 31.143 13.9586 31.1727 13.9633C31.2025 13.9681 31.2329 13.9661 31.2617 13.9574C31.2906 13.9488 31.3171 13.9337 31.3393 13.9134C31.3615 13.893 31.3788 13.868 31.39 13.84V13.84ZM37.68 11C37.7023 11.1228 37.6829 11.2495 37.6249 11.36C37.5669 11.4705 37.4737 11.5585 37.36 11.61C37.244 11.6374 37.1225 11.6302 37.0106 11.5893C36.8986 11.5485 36.8011 11.4757 36.73 11.38C36.5675 11.1523 36.4643 10.8876 36.43 10.61C36.3915 10.439 36.3681 10.265 36.36 10.09C36.6482 10.1056 36.9289 10.1878 37.18 10.33C37.3041 10.4024 37.4122 10.499 37.4982 10.6141C37.5841 10.7293 37.6459 10.8605 37.68 11V11Z" fill="#7A913A"/>
<path d="M18.29 40.48C17.959 40.1551 17.5138 39.9731 17.05 39.9731C16.5862 39.9731 16.1409 40.1551 15.81 40.48C15.7095 40.5796 15.6251 40.6944 15.56 40.82C15.4368 41.058 15.4013 41.3317 15.4598 41.5932C15.5183 41.8547 15.6671 42.0873 15.88 42.25C16.0082 42.3268 16.1521 42.3738 16.3009 42.3876C16.4497 42.4015 16.5998 42.3818 16.74 42.33C16.8635 42.287 16.9745 42.2144 17.0634 42.1185C17.1524 42.0226 17.2164 41.9064 17.25 41.78C17.2631 41.7519 17.2698 41.7213 17.2697 41.6904C17.2696 41.6594 17.2626 41.6288 17.2493 41.6009C17.236 41.5729 17.2166 41.5483 17.1927 41.5286C17.1687 41.509 17.1407 41.495 17.1106 41.4875C17.0806 41.48 17.0493 41.4792 17.0189 41.4852C16.9885 41.4912 16.9598 41.5039 16.9349 41.5223C16.91 41.5407 16.8895 41.5644 16.8748 41.5916C16.8601 41.6189 16.8516 41.6491 16.85 41.68C16.8312 41.7424 16.7979 41.7995 16.7527 41.8465C16.7074 41.8934 16.6517 41.9289 16.59 41.95C16.5156 41.9878 16.4334 42.0075 16.35 42.0075C16.2666 42.0075 16.1844 41.9878 16.11 41.95C15.98 41.8444 15.8909 41.6967 15.858 41.5324C15.8251 41.3681 15.8506 41.1975 15.93 41.05C16.0215 40.8886 16.1498 40.7511 16.3044 40.6486C16.4591 40.5461 16.6357 40.4815 16.82 40.46C17.0304 40.4215 17.247 40.435 17.451 40.4995C17.6549 40.564 17.84 40.6775 17.99 40.83C18.1274 40.9771 18.2134 41.1648 18.2351 41.365C18.2567 41.5652 18.2128 41.7669 18.11 41.94C18.0947 41.9616 18.0839 41.986 18.0782 42.0119C18.0725 42.0377 18.0719 42.0644 18.0765 42.0904C18.0812 42.1165 18.091 42.1413 18.1053 42.1636C18.1196 42.1858 18.1382 42.205 18.16 42.22H18.24C18.2827 42.2302 18.3273 42.2302 18.37 42.22C19.0317 42.1746 19.6843 42.04 20.31 41.82V41.82C21.4066 41.4201 22.3941 40.7684 23.1931 39.9174C23.992 39.0663 24.5801 38.0397 24.91 36.92C24.9384 36.8353 24.9468 36.7453 24.9347 36.6568C24.9225 36.5683 24.8901 36.4839 24.84 36.41C24.75 36.3 24.57 36.2 24.23 36.31C23.3121 36.629 22.4804 37.1561 21.8 37.85C20.7917 38.8106 20.1544 40.0959 20 41.48C19.5343 41.6413 19.0508 41.7454 18.56 41.79C18.6288 41.5666 18.6401 41.3294 18.5929 41.1004C18.5457 40.8714 18.4415 40.658 18.29 40.48Z" fill="#7A913A"/>
<path d="M34.59 57.41C35.3794 56.9383 36.2591 56.6377 37.1721 56.5274C38.085 56.4172 39.011 56.4998 39.89 56.77C39.793 56.2709 39.8524 55.7541 40.06 55.29C40.2776 54.8438 40.6026 54.4585 41.0057 54.1688C41.4089 53.8791 41.8777 53.694 42.37 53.63C42.399 53.6193 42.431 53.6193 42.46 53.63V53.63L42.87 53.58C43.4978 53.5113 44.0817 53.2247 44.52 52.77C44.7521 52.4787 44.9068 52.1334 44.9698 51.7662C45.0327 51.3991 45.0018 51.022 44.88 50.67C44.8705 50.6451 44.866 50.6185 44.8669 50.5918C44.8678 50.5652 44.874 50.5389 44.8852 50.5147C44.8964 50.4905 44.9123 50.4687 44.932 50.4508C44.9517 50.4328 44.9748 50.4189 45 50.41C45.0517 50.3904 45.1091 50.392 45.1597 50.4145C45.2102 50.437 45.2499 50.4785 45.27 50.53C45.4149 50.9492 45.4515 51.3982 45.3763 51.8353C45.3012 52.2724 45.1167 52.6834 44.84 53.03C44.6304 53.2732 44.3757 53.4735 44.09 53.62C44.2784 53.6427 44.4654 53.6761 44.65 53.72C45.16 53.85 46.36 54.25 46.46 55.29C46.4575 55.657 46.3349 56.013 46.111 56.3037C45.8871 56.5945 45.5742 56.8039 45.22 56.9C44.5619 57.0514 43.8781 57.0514 43.22 56.9C43.167 56.892 43.1192 56.8633 43.0874 56.8202C43.0555 56.7771 43.042 56.723 43.05 56.67C43.058 56.617 43.0867 56.5692 43.1298 56.5374C43.1729 56.5055 43.227 56.492 43.28 56.5C43.8758 56.6352 44.4942 56.6352 45.09 56.5C45.3657 56.4457 45.6148 56.2994 45.7965 56.085C45.9782 55.8706 46.0817 55.6009 46.09 55.32C46.02 54.53 44.93 54.2 44.6 54.12C44.0764 53.9955 43.5363 53.955 43 54H42.61C42.1597 54.0408 41.7269 54.1941 41.3513 54.4457C40.9756 54.6973 40.6691 55.0392 40.46 55.44C40.2582 55.9151 40.2299 56.4461 40.38 56.94C40.5167 57.3959 40.7513 57.8164 41.0674 58.1722C41.3835 58.528 41.7734 58.8105 42.21 59C43.6905 59.4798 45.2975 59.3834 46.71 58.73C47.26 58.52 47.81 58.28 48.34 58.04C49.2512 57.6197 50.1941 57.2719 51.16 57C51.8148 56.84 52.4859 56.7561 53.16 56.75C52.8233 56.5684 52.5218 56.328 52.27 56.04H52.22C52.2167 56.0101 52.2167 55.9799 52.22 55.95C52.14 55.8377 52.0665 55.7208 52 55.6C51.674 54.8864 51.442 54.1334 51.31 53.36C51.31 53.14 51.22 52.92 51.17 52.71C51.0162 51.7696 50.5639 50.9036 49.88 50.24C49.8467 50.2131 49.8229 50.1763 49.8121 50.1349C49.8013 50.0935 49.8041 50.0497 49.82 50.01C49.835 49.9697 49.8625 49.9353 49.8985 49.9119C49.9345 49.8885 49.9771 49.8773 50.02 49.88C50.6658 49.916 51.2911 50.1193 51.8346 50.4699C52.3781 50.8205 52.821 51.3065 53.12 51.88C53.3538 52.5366 53.4357 53.2377 53.3595 53.9305C53.2833 54.6234 53.051 55.2899 52.68 55.88C53.2122 56.3887 53.8781 56.7356 54.6 56.88C55.6817 57.0467 56.7248 57.4057 57.68 57.94C56.6125 56.0716 56.2573 53.8799 56.68 51.77C56.8788 50.6375 57.1358 49.516 57.45 48.41C57.6 47.85 57.75 47.27 57.89 46.71C56.4299 44.8902 55.6833 42.6006 55.79 40.27C55.7908 40.2263 55.8059 40.184 55.833 40.1497C55.8601 40.1154 55.8977 40.0909 55.94 40.08C56.4044 39.9974 56.8831 40.0643 57.3072 40.2709C57.7312 40.4776 58.0788 40.8133 58.3 41.23C58.7 42.0309 58.8597 42.9304 58.76 43.82C58.6948 44.7881 58.5442 45.7485 58.31 46.69C58.17 47.3 58 47.92 57.85 48.51C57.5377 49.6023 57.284 50.7106 57.09 51.83C56.63 54.74 57.31 57.31 58.88 58.71C59.02 58.81 59.16 58.92 59.31 59.05V59.23H59.1H59.04C58.88 59.12 58.73 59 58.6 58.89C57.4295 57.9908 56.0558 57.3932 54.6 57.15H54.53C53.4484 56.9759 52.3426 57.0235 51.28 57.29C50.3329 57.5431 49.4094 57.8777 48.52 58.29C47.99 58.53 47.43 58.77 46.87 58.98C45.916 59.366 44.899 59.5728 43.87 59.59C43.2403 59.599 42.6149 59.4834 42.03 59.25C41.5704 59.0478 41.1564 58.755 40.8128 58.389C40.4691 58.023 40.2029 57.5914 40.03 57.12C39.1051 57.7715 38.0013 58.1208 36.87 58.12C36.093 58.1245 35.3247 57.9572 34.62 57.63C34.5856 57.6164 34.556 57.5931 34.5347 57.5629C34.5133 57.5327 34.5013 57.4969 34.5 57.46C34.5254 57.4361 34.5563 57.4189 34.59 57.41V57.41Z" fill="#7A913A"/>
<path d="M7.76999 21.64C7.81633 21.6506 7.86494 21.6443 7.90708 21.6223C7.94923 21.6004 7.98217 21.5641 7.99999 21.52C8.45334 20.3831 8.62729 19.154 8.50722 17.936C8.38716 16.7179 7.97659 15.5465 7.30999 14.52C7.54387 13.6264 7.91856 12.7757 8.41999 12C8.66642 12.2457 8.94176 12.4606 9.23999 12.64C9.45999 12.77 9.68999 12.89 9.91999 13C10.4548 13.2156 10.9286 13.559 11.3 14C11.94 14.91 11.5 16.26 10.78 17.19V17.39H11C12.3342 16.1906 13.4183 14.7395 14.19 13.12C14.56 12.47 14.94 11.79 15.35 11.19C16.0226 10.1796 16.8651 9.29314 17.84 8.57C17.739 9.32801 17.8716 10.0988 18.22 10.7795C18.5684 11.4603 19.1161 12.0186 19.79 12.38C20.0172 12.5458 20.2889 12.6398 20.57 12.65C20.7628 12.6536 20.9493 12.5819 21.09 12.45C21.1884 12.3415 21.2619 12.2128 21.3051 12.0728C21.3483 11.9328 21.3602 11.7851 21.34 11.64C21.2848 10.8175 20.9616 10.0357 20.4197 9.4144C19.8779 8.7931 19.1474 8.36652 18.34 8.2C19.3988 7.50296 20.5741 7.00168 21.81 6.72C22.4648 6.54238 23.1552 6.54238 23.81 6.72C24.1121 6.79984 24.3849 6.96482 24.5958 7.1953C24.8068 7.42578 24.9471 7.71204 25 8.02C25.0012 8.04718 25.008 8.07383 25.0198 8.09831C25.0317 8.1228 25.0485 8.1446 25.0691 8.16239C25.0897 8.18017 25.1137 8.19357 25.1396 8.20175C25.1656 8.20994 25.1929 8.21275 25.22 8.21C25.2507 8.21596 25.2824 8.21499 25.3127 8.20714C25.343 8.1993 25.3711 8.18478 25.3951 8.16465C25.4191 8.14452 25.4382 8.11929 25.4512 8.0908C25.4641 8.06231 25.4706 8.03129 25.47 8C25.4106 7.61457 25.2398 7.25493 24.9786 6.96532C24.7174 6.67572 24.3772 6.46879 24 6.37C23.2826 6.17775 22.5273 6.17775 21.81 6.37C19.0588 6.99986 16.6518 8.65585 15.08 11C14.66 11.62 14.28 12.3 13.91 13C13.3127 14.1415 12.6025 15.2202 11.79 16.22C11.9725 15.8279 12.0535 15.3962 12.0255 14.9646C11.9976 14.5329 11.8616 14.1153 11.63 13.75C11.216 13.2631 10.6913 12.8825 10.1 12.64C9.87999 12.53 9.64999 12.42 9.44999 12.3C9.11547 12.0946 8.81235 11.842 8.54999 11.55V11.55C8.07077 11.0147 7.72925 10.3707 7.55501 9.67374C7.38076 8.97676 7.37904 8.2478 7.54999 7.55C7.71648 6.94021 8.0654 6.39588 8.54999 5.99C8.77932 5.79675 9.05074 5.65991 9.34248 5.59045C9.63422 5.52099 9.93818 5.52083 10.23 5.59C10.4536 5.65824 10.6593 5.77526 10.8322 5.93263C11.0052 6.08999 11.141 6.28377 11.23 6.5C11.3292 6.70587 11.3808 6.93146 11.3808 7.16C11.3808 7.38853 11.3292 7.61413 11.23 7.82C11.1146 8.01678 10.9592 8.18714 10.7739 8.32009C10.5885 8.45303 10.3773 8.54559 10.1539 8.59177C9.93052 8.63796 9.69993 8.63674 9.47704 8.5882C9.25416 8.53967 9.04394 8.44489 8.85999 8.31C8.8226 8.27335 8.77234 8.25283 8.71999 8.25283C8.66764 8.25283 8.61738 8.27335 8.57999 8.31C8.5427 8.34906 8.52189 8.40099 8.52189 8.455C8.52189 8.509 8.5427 8.56093 8.57999 8.6C8.81265 8.77126 9.07872 8.89167 9.36094 8.95341C9.64316 9.01515 9.93521 9.01684 10.2181 8.95838C10.501 8.89991 10.7685 8.78259 11.0031 8.61403C11.2377 8.44547 11.4343 8.22945 11.58 7.98C11.7003 7.71808 11.7626 7.43324 11.7626 7.145C11.7626 6.85676 11.7003 6.57192 11.58 6.31C11.4669 6.03327 11.2932 5.78543 11.0717 5.58468C10.8502 5.38393 10.5865 5.2354 10.3 5.15C9.94475 5.06103 9.57341 5.05817 9.21684 5.14165C8.86028 5.22514 8.5288 5.39257 8.24999 5.63C7.71305 6.08954 7.33216 6.70455 7.15999 7.39C6.97208 8.13457 6.9648 8.91326 7.13874 9.66122C7.31269 10.4092 7.66282 11.1047 8.15999 11.69C7.57677 12.5277 7.14678 13.4621 6.88999 14.45V14.45C6.19072 16.8183 6.45674 19.3671 7.62999 21.54C7.64441 21.566 7.66447 21.5885 7.68869 21.6058C7.71291 21.6231 7.74068 21.6348 7.76999 21.64V21.64Z" fill="#7A913A"/>
<path d="M6.99999 38.67C7.39776 38.5464 7.76079 38.3308 8.05963 38.0406C8.35847 37.7505 8.58471 37.394 8.71999 37C8.99643 35.9696 8.91173 34.8756 8.47999 33.9L8.65999 33.99C9.07409 34.1657 9.50227 34.3062 9.93999 34.41C10.4942 34.5232 11.0273 34.7222 11.52 35C12.0472 35.3673 12.4217 35.915 12.5728 36.5395C12.7238 37.1641 12.641 37.8223 12.34 38.39C12.3145 38.438 12.3087 38.4939 12.3236 38.5461C12.3385 38.5983 12.373 38.6427 12.42 38.67C12.4527 38.6789 12.4873 38.6789 12.52 38.67C12.557 38.6692 12.5932 38.6586 12.6248 38.6392C12.6564 38.6199 12.6824 38.5926 12.7 38.56C13.0423 37.8943 13.1296 37.1264 12.9455 36.4008C12.7613 35.6752 12.3184 35.0419 11.7 34.62C11.1842 34.3317 10.628 34.1227 10.05 34C9.63384 33.9018 9.22595 33.7714 8.82999 33.61C8.56231 33.4835 8.31056 33.3257 8.07999 33.14V33.14C7.34523 32.5226 6.80368 31.7068 6.51999 30.79C6.47024 30.2737 6.52812 29.7528 6.68999 29.26C6.77132 29.0049 6.91141 28.7725 7.099 28.5814C7.28659 28.3903 7.51642 28.246 7.76999 28.16C8.00756 28.0929 8.26156 28.116 8.48311 28.2249C8.70465 28.3339 8.87807 28.5209 8.96999 28.75C8.99715 28.871 8.99305 28.9969 8.95806 29.1159C8.92306 29.2349 8.85834 29.343 8.76999 29.43C8.70401 29.5023 8.62081 29.5567 8.52814 29.5882C8.43547 29.6196 8.33634 29.6271 8.23999 29.61C8.187 29.5978 8.13134 29.6066 8.08471 29.6345C8.03809 29.6625 8.00413 29.7075 7.98999 29.76C7.97776 29.813 7.98656 29.8686 8.01453 29.9153C8.04251 29.9619 8.08748 29.9959 8.13999 30.01C8.30619 30.0419 8.47778 30.0312 8.63869 29.9787C8.7996 29.9262 8.94455 29.8338 9.05999 29.71C9.20046 29.5722 9.30215 29.3998 9.35481 29.2102C9.40748 29.0206 9.40926 28.8205 9.35999 28.63C9.23563 28.3017 8.99411 28.0312 8.68202 27.8705C8.36993 27.7099 8.0094 27.6705 7.66999 27.76C7.35017 27.8597 7.05933 28.0356 6.82244 28.2725C6.58556 28.5093 6.40971 28.8002 6.30999 29.12C6.27071 29.2247 6.23733 29.3316 6.20999 29.44C6.08494 28.2332 6.08494 27.0168 6.20999 25.81C6.21681 25.7793 6.21665 25.7475 6.20952 25.7168C6.20239 25.6862 6.18847 25.6576 6.16879 25.633C6.14912 25.6085 6.12418 25.5887 6.09583 25.5751C6.06748 25.5615 6.03643 25.5544 6.00499 25.5544C5.97354 25.5544 5.94249 25.5615 5.91414 25.5751C5.88579 25.5887 5.86086 25.6085 5.84118 25.633C5.8215 25.6576 5.80758 25.6862 5.80045 25.7168C5.79333 25.7475 5.79317 25.7793 5.79999 25.81C5.63579 27.3147 5.70324 28.8357 5.99999 30.32C6.05332 30.52 6.10332 30.7 6.14999 30.86C6.14999 30.86 6.14999 30.91 6.14999 30.93C6.44988 31.901 7.02263 32.7654 7.79999 33.42C8.41651 34.4469 8.61012 35.6731 8.33999 36.84C8.23146 37.1727 8.04648 37.4754 7.79988 37.7237C7.55329 37.972 7.25193 38.1591 6.91999 38.27C6.60418 38.3596 6.26631 38.3283 5.97232 38.1823C5.67834 38.0362 5.44933 37.7858 5.32999 37.48C5.30033 37.3177 5.31129 37.1506 5.36189 36.9936C5.41249 36.8365 5.50116 36.6945 5.61999 36.58C5.7104 36.484 5.82483 36.414 5.95141 36.377C6.078 36.3401 6.21215 36.3377 6.33999 36.37C6.36555 36.3793 6.39275 36.3833 6.41991 36.3818C6.44708 36.3802 6.47365 36.3732 6.49799 36.361C6.52233 36.3488 6.54393 36.3318 6.56147 36.311C6.579 36.2902 6.59211 36.266 6.59999 36.24C6.61047 36.1911 6.60313 36.14 6.57929 36.096C6.55546 36.052 6.5167 36.018 6.46999 36C6.27227 35.9411 6.06213 35.9379 5.86274 35.9909C5.66334 36.0438 5.48244 36.1508 5.33999 36.3C5.16246 36.463 5.03107 36.6699 4.95909 36.8999C4.8871 37.13 4.87706 37.3749 4.92999 37.61C5.04846 37.9478 5.27111 38.2392 5.56585 38.4422C5.86058 38.6453 6.21219 38.7496 6.56999 38.74C6.71563 38.7342 6.86002 38.7107 6.99999 38.67V38.67Z" fill="#7A913A"/>
<path d="M43.77 42.79C43.8742 42.8526 43.965 42.9351 44.037 43.033C44.1091 43.1308 44.1611 43.242 44.19 43.36C44.2166 43.4604 44.2205 43.5653 44.2015 43.6674C44.1824 43.7694 44.1409 43.866 44.08 43.95C44.0427 43.9891 44.0219 44.041 44.0219 44.095C44.0219 44.149 44.0427 44.2009 44.08 44.24C44.0978 44.2594 44.1194 44.2749 44.1435 44.2855C44.1676 44.2961 44.1937 44.3016 44.22 44.3016C44.2463 44.3016 44.2724 44.2961 44.2965 44.2855C44.3206 44.2749 44.3422 44.2594 44.36 44.24C44.4576 44.1102 44.5253 43.9604 44.5582 43.8013C44.591 43.6422 44.5882 43.4779 44.55 43.32C44.5145 43.1392 44.4384 42.9688 44.3276 42.8216C44.2167 42.6743 44.074 42.5542 43.91 42.47C43.6043 42.33 43.2609 42.2952 42.9334 42.3712C42.6059 42.4472 42.3128 42.6297 42.1 42.89C41.9007 43.1416 41.7626 43.4361 41.6966 43.7502C41.6307 44.0643 41.6387 44.3895 41.72 44.7C41.8721 45.2967 42.1752 45.8442 42.6 46.29C42.924 46.6857 43.3271 47.0092 43.7834 47.24C44.2398 47.4708 44.7393 47.6036 45.25 47.63C45.8625 47.5544 46.448 47.3334 46.9577 46.9855C47.4674 46.6376 47.8865 46.1728 48.18 45.63C48.4885 45.1051 48.7624 44.5606 49 44C49.2379 43.4542 49.5083 42.9233 49.81 42.41C50.0637 41.9161 50.4394 41.4952 50.9014 41.1872C51.3635 40.8791 51.8965 40.6942 52.45 40.65C52.4763 40.65 52.5023 40.6448 52.5265 40.6348C52.5508 40.6247 52.5729 40.61 52.5914 40.5914C52.61 40.5729 52.6247 40.5508 52.6348 40.5265C52.6448 40.5023 52.65 40.4763 52.65 40.45C52.6572 40.4343 52.6609 40.4173 52.6609 40.4C52.6609 40.3827 52.6572 40.3657 52.65 40.35C52.6342 40.3159 52.6087 40.2873 52.5767 40.2677C52.5446 40.2481 52.5075 40.2385 52.47 40.24C51.8396 40.2851 51.2317 40.4931 50.7058 40.8437C50.1799 41.1943 49.7541 41.6754 49.47 42.24C49.1546 42.7678 48.874 43.3156 48.63 43.88C48.4068 44.3947 48.153 44.8956 47.87 45.38C47.6153 45.8703 47.2476 46.2929 46.7972 46.6128C46.3469 46.9328 45.8268 47.1409 45.28 47.22C44.5597 47.1437 43.8783 46.8547 43.3227 46.3899C42.7671 45.9251 42.3624 45.3055 42.16 44.61C42.0944 44.3606 42.0865 44.0995 42.1367 43.8466C42.187 43.5936 42.2941 43.3554 42.45 43.15C42.6004 42.9539 42.8109 42.8125 43.0493 42.7475C43.2877 42.6825 43.5409 42.6974 43.77 42.79V42.79Z" fill="#7A913A"/>
<path d="M20.79 57.69C20.1284 58.3734 19.3219 58.8996 18.43 59.23C16.31 59.55 13.61 58.93 12.33 56.84C12.3166 56.8166 12.2986 56.7962 12.2771 56.7799C12.2556 56.7636 12.2311 56.7519 12.2049 56.7453C12.1788 56.7388 12.1516 56.7376 12.1249 56.7418C12.0983 56.7461 12.0728 56.7557 12.05 56.77C12.0213 56.7886 11.9972 56.8137 11.9799 56.8432C11.9625 56.8727 11.9523 56.9058 11.95 56.94C11.9397 56.9759 11.9397 57.0141 11.95 57.05C13.32 59.29 16.17 59.96 18.42 59.64H18.5L19.05 59.54C20.6197 59.1397 22.0947 58.4328 23.39 57.46C23.4285 57.4756 23.4715 57.4756 23.51 57.46C24.4174 57.2853 25.3573 57.4302 26.17 57.87C26.42 58.01 26.86 58.31 26.9 58.73C26.9032 58.8259 26.8808 58.9209 26.8351 59.0053C26.7894 59.0896 26.7221 59.1603 26.64 59.21C26.5967 59.2376 26.5464 59.2522 26.495 59.2522C26.4436 59.2522 26.3933 59.2376 26.35 59.21C26.3264 59.1954 26.3001 59.1857 26.2728 59.1813C26.2454 59.1769 26.2174 59.1781 26.1904 59.1846C26.1634 59.1911 26.138 59.2029 26.1157 59.2192C26.0933 59.2356 26.0744 59.2563 26.06 59.28C26.036 59.3273 26.0298 59.3816 26.0427 59.4331C26.0555 59.4845 26.0865 59.5296 26.13 59.56C26.2395 59.6283 26.366 59.6644 26.495 59.6644C26.624 59.6644 26.7505 59.6283 26.86 59.56C27.0062 59.4712 27.1253 59.3441 27.2046 59.1926C27.2839 59.041 27.3203 58.8707 27.31 58.7C27.2577 58.4431 27.1452 58.2022 26.9818 57.9971C26.8184 57.7919 26.6088 57.6285 26.37 57.52C25.6596 57.1356 24.8565 56.9556 24.05 57C24.64 56.54 25.22 56.05 25.78 55.56C25.8173 55.5209 25.8381 55.469 25.8381 55.415C25.8381 55.361 25.8173 55.3091 25.78 55.27C25.7613 55.2503 25.7388 55.2347 25.7139 55.224C25.689 55.2133 25.6621 55.2078 25.635 55.2078C25.6079 55.2078 25.581 55.2133 25.5561 55.224C25.5312 55.2347 25.5087 55.2503 25.49 55.27C23.9375 56.7617 22.1285 57.9609 20.15 58.81C20.5766 58.5067 20.963 58.1505 21.3 57.75C21.533 57.4648 21.7249 57.1484 21.87 56.81C22.3481 55.5124 22.6017 54.1428 22.62 52.76C22.67 51.92 22.32 51.69 22.1 51.62C21.9124 51.5731 21.7149 51.5866 21.5354 51.6584C21.3558 51.7302 21.2035 51.8567 21.1 52.02C20.4271 52.7957 20.0242 53.7689 19.9521 54.7932C19.8799 55.8176 20.1424 56.8377 20.7 57.7L20.79 57.69Z" fill="#7A913A"/>
<path d="M25.93 10C25.8909 9.96271 25.839 9.9419 25.785 9.9419C25.731 9.9419 25.6791 9.96271 25.64 10C25.5453 10.1123 25.4862 10.2503 25.4701 10.3963C25.4541 10.5423 25.4819 10.6898 25.55 10.82C25.6252 10.9879 25.7453 11.1319 25.897 11.236C26.0487 11.3401 26.2263 11.4003 26.41 11.41V11.41C26.7096 11.3751 26.9911 11.2489 27.2165 11.0486C27.4419 10.8482 27.6002 10.5834 27.67 10.29C27.7718 9.9812 27.7968 9.65225 27.7427 9.33163C27.6887 9.01101 27.5574 8.7084 27.36 8.45C27.1542 8.19055 26.8768 7.99726 26.5621 7.89415C26.2474 7.79103 25.9094 7.78264 25.59 7.87C25.206 8.03239 24.8731 8.29568 24.6266 8.63195C24.3802 8.96822 24.2293 9.36493 24.19 9.78C23.9443 11.067 24.1224 12.399 24.6975 13.5763C25.2726 14.7535 26.2138 15.7127 27.38 16.31H27.47C27.5144 16.3064 27.5566 16.2887 27.5903 16.2596C27.624 16.2305 27.6476 16.1913 27.6576 16.1479C27.6676 16.1045 27.6636 16.059 27.646 16.018C27.6285 15.977 27.5984 15.9427 27.56 15.92C26.4706 15.3663 25.5897 14.4748 25.0489 13.3789C24.5082 12.283 24.3367 11.0415 24.56 9.84C24.64 9.44 24.92 8.48 25.68 8.24C25.9215 8.17855 26.1756 8.18835 26.4116 8.2682C26.6476 8.34806 26.8555 8.49456 27.01 8.69C27.1631 8.89681 27.2647 9.13711 27.3064 9.391C27.3482 9.64489 27.3288 9.90507 27.25 10.15C27.2042 10.361 27.0956 10.5532 26.9386 10.7013C26.7815 10.8494 26.5833 10.9466 26.37 10.98V10.98C26.2644 10.971 26.1632 10.9338 26.077 10.8722C25.9908 10.8106 25.9227 10.727 25.88 10.63C25.8422 10.5739 25.822 10.5077 25.822 10.44C25.822 10.3723 25.8422 10.3061 25.88 10.25C25.9146 10.2196 25.9383 10.1786 25.9473 10.1335C25.9563 10.0883 25.9503 10.0414 25.93 10V10Z" fill="#7A913A"/>
<path d="M59.74 25.25C59.5243 26.201 59.0543 27.0755 58.38 27.78C58.21 27.99 58.02 28.19 57.84 28.39C57.3893 28.8624 56.978 29.3707 56.61 29.91C56.1087 30.7195 55.8326 31.6481 55.81 32.6C56.5847 33.1611 57.2214 33.8913 57.6719 34.735C58.1223 35.5788 58.3748 36.5141 58.41 37.47C58.4066 37.5051 58.3949 37.5388 58.3757 37.5684C58.3566 37.598 58.3306 37.6225 58.3 37.64C58.2696 37.6576 58.2351 37.6668 58.2 37.6668C58.1649 37.6668 58.1304 37.6576 58.1 37.64C57.4535 37.2318 56.8938 36.7003 56.4529 36.0757C56.0119 35.4511 55.6983 34.7458 55.53 34C55.433 33.5566 55.3861 33.1038 55.39 32.65V32.65C55.3751 32.4169 55.3751 32.1831 55.39 31.95C55.4967 31.1322 55.7799 30.3475 56.22 29.65C56.5931 29.0849 57.0183 28.5559 57.49 28.07C57.67 27.88 57.85 27.68 58.02 27.47C58.6403 26.8235 59.0755 26.0222 59.28 25.15C59.3601 24.7438 59.3184 24.323 59.16 23.9405C59.0017 23.5579 58.7338 23.2307 58.39 23C58.3663 22.9883 58.3451 22.972 58.3277 22.9521C58.3102 22.9321 58.297 22.9089 58.2886 22.8838C58.2802 22.8587 58.2769 22.8322 58.2789 22.8058C58.2808 22.7794 58.288 22.7536 58.3 22.73C58.3256 22.6813 58.3693 22.6446 58.4216 22.6278C58.474 22.611 58.5309 22.6153 58.58 22.64C59.0137 22.9076 59.3566 23.2999 59.5635 23.7657C59.7705 24.2314 59.832 24.7487 59.74 25.25V25.25Z" fill="#7A913A"/>
<path d="M11.25 27.56C12.25 17.25 32.64 18.81 39.9 14.56C39.9045 14.5506 39.9068 14.5404 39.9068 14.53C39.9068 14.5196 39.9045 14.5094 39.9 14.5C40.71 8.74 45.25 12.09 41.7 15.7C40.6172 16.4462 39.3969 16.9697 38.11 17.24C38.11 17.24 38.11 17.24 38.05 17.3C37.43 22.57 37 33.21 37 33.21C36.81 37.92 36.65 40.58 37.32 40.67C37.99 40.76 41.24 38.44 43.68 35.45C44.32 34.66 47.34 30.07 44.41 31.84C44.3989 31.8447 44.387 31.8471 44.375 31.8471C44.363 31.8471 44.3511 31.8447 44.34 31.84C38.13 29.91 47.47 19.65 51.82 25C58.37 36.78 30.82 44.4 22.59 47.37C19.59 48.46 19.36 49.77 17.39 51.78C17.0864 51.9622 16.7328 52.0432 16.3802 52.0114C16.0276 51.9795 15.6942 51.8364 15.4282 51.6027C15.1622 51.369 14.9774 51.0568 14.9005 50.7112C14.8235 50.3656 14.8584 50.0045 15 49.68C18.15 44.83 24.54 46.68 28.2 44.4C28.2 44.4 28.2 43.4 28.2 43.34C28.27 35.94 28.29 19.92 28.27 19.92C24.68 20.01 20.27 24.21 22.32 26.11C23.02 26.74 24.44 25.6 24.32 26.48C25.32 35.1 11.32 36.06 11.17 27.59L11.25 27.56ZM36.13 18.27C35 26.26 35.16 33 35 40.61V40.93C35.16 41.62 35.91 41.11 35.8 40.61C35.9 33.44 36.51 26.67 36.28 18.27C36.2743 18.2547 36.2641 18.2415 36.2507 18.2322C36.2373 18.2228 36.2213 18.2178 36.205 18.2178C36.1887 18.2178 36.1727 18.2228 36.1593 18.2322C36.1459 18.2415 36.1357 18.2547 36.13 18.27V18.27Z" fill="#383529"/>
</g>
<defs>
<clipPath id="clip0">
<rect width="64" height="64" fill="white"/>
</clipPath>
</defs>
</svg>
