<svg width="64" height="64" viewBox="0 0 64 64" fill="none" xmlns="http://www.w3.org/2000/svg">
<g clip-path="url(#clip0)">
<path d="M63.92 64H-0.0800171V0H63.92V64ZM1.28998 62.63H62.56V1.36H1.28998V62.63Z" fill="#383529"/>
<path d="M61.38 2.64H2.46997V61.55H61.38V2.64Z" fill="#FBFAF7"/>
<path d="M38 51.43C38.9609 50.7745 39.6864 49.8282 40.07 48.73C40.5028 47.5496 40.8373 46.3355 41.07 45.1C41.229 44.4072 41.3492 43.7062 41.43 43C41.49 42.3 41.49 41.58 41.5 40.87C41.5 39.39 41.5 37.87 41.57 36.43C41.57 33.49 41.63 30.55 41.67 27.61L41.73 23.18C41.73 22.44 41.73 21.69 41.78 20.95C41.7798 20.4111 41.8199 19.8729 41.9 19.34C41.9796 18.825 42.1707 18.3335 42.46 17.9C42.8038 17.4855 43.2528 17.1712 43.76 16.99C44.3402 16.7926 44.8891 16.513 45.39 16.16C45.8382 15.7871 46.1826 15.3049 46.39 14.76C46.4871 14.5144 46.5413 14.254 46.55 13.99C46.55 13.8813 46.5068 13.777 46.4299 13.7001C46.353 13.6232 46.2487 13.58 46.14 13.58C46.0313 13.58 45.927 13.6232 45.8501 13.7001C45.7732 13.777 45.73 13.8813 45.73 13.99C45.7216 14.1982 45.6706 14.4024 45.58 14.59C45.465 14.8242 45.3205 15.0426 45.15 15.24C44.7649 15.6178 44.3003 15.9048 43.79 16.08C43.214 16.2836 42.674 16.5773 42.19 16.95C41.7726 17.3358 41.4596 17.8208 41.28 18.36C40.9664 19.5089 40.8414 20.7011 40.91 21.89C40.91 23.36 40.91 24.83 40.84 26.3C40.8 29.2 40.7667 32.1033 40.74 35.01L40.68 39.36C40.68 40.1 40.68 40.84 40.68 41.57C40.6757 42.2386 40.6323 42.9064 40.55 43.57C40.3427 44.8774 40.0385 46.1676 39.64 47.43C39.3952 48.4708 38.8932 49.4335 38.18 50.23C38.0007 50.4143 37.7992 50.5756 37.58 50.71C37.13 50.99 37.58 51.71 37.99 51.42L38 51.43Z" fill="#B5B1A4"/>
<path d="M23.66 38.2C24.1184 38.2 24.49 37.8284 24.49 37.37C24.49 36.9116 24.1184 36.54 23.66 36.54C23.2016 36.54 22.83 36.9116 22.83 37.37C22.83 37.8284 23.2016 38.2 23.66 38.2Z" fill="#EF3C23"/>
<path d="M30.51 6.67C30.9684 6.67 31.34 6.2984 31.34 5.84C31.34 5.38161 30.9684 5.01 30.51 5.01C30.0516 5.01 29.68 5.38161 29.68 5.84C29.68 6.2984 30.0516 6.67 30.51 6.67Z" fill="#EF3C23"/>
<path d="M53.28 10.08C53.7384 10.08 54.11 9.70839 54.11 9.25C54.11 8.7916 53.7384 8.42 53.28 8.42C52.8216 8.42 52.45 8.7916 52.45 9.25C52.45 9.70839 52.8216 10.08 53.28 10.08Z" fill="#EF3C23"/>
<path d="M46.79 24.71C47.2484 24.71 47.62 24.3384 47.62 23.88C47.62 23.4216 47.2484 23.05 46.79 23.05C46.3316 23.05 45.96 23.4216 45.96 23.88C45.96 24.3384 46.3316 24.71 46.79 24.71Z" fill="#EF3C23"/>
<path d="M50.28 58.17C50.7384 58.17 51.11 57.7984 51.11 57.34C51.11 56.8816 50.7384 56.51 50.28 56.51C49.8216 56.51 49.45 56.8816 49.45 57.34C49.45 57.7984 49.8216 58.17 50.28 58.17Z" fill="#EF3C23"/>
<path d="M35.29 57.27C35.7484 57.27 36.12 56.8984 36.12 56.44C36.12 55.9816 35.7484 55.61 35.29 55.61C34.8316 55.61 34.46 55.9816 34.46 56.44C34.46 56.8984 34.8316 57.27 35.29 57.27Z" fill="#EF3C23"/>
<path d="M11.26 60.11C11.7184 60.11 12.09 59.7384 12.09 59.28C12.09 58.8216 11.7184 58.45 11.26 58.45C10.8016 58.45 10.43 58.8216 10.43 59.28C10.43 59.7384 10.8016 60.11 11.26 60.11Z" fill="#EF3C23"/>
<path d="M17.07 48.4C17.5284 48.4 17.9 48.0284 17.9 47.57C17.9 47.1116 17.5284 46.74 17.07 46.74C16.6116 46.74 16.24 47.1116 16.24 47.57C16.24 48.0284 16.6116 48.4 17.07 48.4Z" fill="#EF3C23"/>
<path d="M53.38 43.18C53.8384 43.18 54.21 42.8084 54.21 42.35C54.21 41.8916 53.8384 41.52 53.38 41.52C52.9216 41.52 52.55 41.8916 52.55 42.35C52.55 42.8084 52.9216 43.18 53.38 43.18Z" fill="#EF3C23"/>
<path d="M45.02 36.96C45.4784 36.96 45.85 36.5884 45.85 36.13C45.85 35.6716 45.4784 35.3 45.02 35.3C44.5616 35.3 44.19 35.6716 44.19 36.13C44.19 36.5884 44.5616 36.96 45.02 36.96Z" fill="#EF3C23"/>
<path d="M10.11 39.6C10.5684 39.6 10.94 39.2284 10.94 38.77C10.94 38.3116 10.5684 37.94 10.11 37.94C9.65163 37.94 9.28003 38.3116 9.28003 38.77C9.28003 39.2284 9.65163 39.6 10.11 39.6Z" fill="#EF3C23"/>
<path d="M57.77 27.29C58.2284 27.29 58.6 26.9184 58.6 26.46C58.6 26.0016 58.2284 25.63 57.77 25.63C57.3116 25.63 56.94 26.0016 56.94 26.46C56.94 26.9184 57.3116 27.29 57.77 27.29Z" fill="#EF3C23"/>
<path d="M14.23 28.58C14.6884 28.58 15.06 28.2084 15.06 27.75C15.06 27.2916 14.6884 26.92 14.23 26.92C13.7716 26.92 13.4 27.2916 13.4 27.75C13.4 28.2084 13.7716 28.58 14.23 28.58Z" fill="#EF3C23"/>
<path d="M8.93999 7.19C9.39838 7.19 9.76999 6.8184 9.76999 6.36C9.76999 5.9016 9.39838 5.53 8.93999 5.53C8.48159 5.53 8.10999 5.9016 8.10999 6.36C8.10999 6.8184 8.48159 7.19 8.93999 7.19Z" fill="#EF3C23"/>
<path d="M54.73 22.19C55.1311 21.9297 55.5852 21.7623 56.0593 21.7C56.5333 21.6378 57.0153 21.6822 57.47 21.83C57.4995 21.8395 57.526 21.8565 57.5471 21.8792C57.5681 21.902 57.5829 21.9298 57.59 21.96C57.6049 21.9877 57.6127 22.0186 57.6127 22.05C57.6127 22.0814 57.6049 22.1123 57.59 22.14C57.3495 22.4622 57.0782 22.7603 56.78 23.03C55.6267 24.0756 54.1267 24.6563 52.57 24.66C52.6146 25.6839 52.4443 26.7059 52.07 27.66C51.8402 28.2013 51.4995 28.6884 51.07 29.09C50.8396 29.2986 50.5882 29.4829 50.32 29.64C49.9838 29.9914 49.7872 30.4533 49.7669 30.9392C49.7467 31.4252 49.9042 31.9018 50.21 32.28C50.2473 32.3191 50.2681 32.371 50.2681 32.425C50.2681 32.479 50.2473 32.5309 50.21 32.57V32.57C50.1726 32.6066 50.1223 32.6272 50.07 32.6272C50.0176 32.6272 49.9674 32.6066 49.93 32.57C49.7269 32.3488 49.5715 32.0881 49.4735 31.8042C49.3754 31.5204 49.3368 31.2194 49.36 30.92C49.3689 30.595 49.4437 30.2752 49.58 29.98C49.4094 30.0392 49.2359 30.0893 49.06 30.13C48.6949 30.204 48.3209 30.2242 47.95 30.19C48.0601 30.5313 48.0601 30.8987 47.95 31.24C47.8133 31.6867 47.5575 32.0878 47.21 32.4C47.0633 32.531 46.9022 32.645 46.73 32.74C45.7436 33.1598 44.6647 33.3149 43.6 33.19C43.5637 33.1865 43.5289 33.1736 43.4991 33.1525C43.4693 33.1315 43.4455 33.103 43.43 33.07C43.4105 33.0384 43.4002 33.0021 43.4002 32.965C43.4002 32.9279 43.4105 32.8916 43.43 32.86C44.2965 31.5465 45.5364 30.5226 46.99 29.92C46.8372 29.842 46.6931 29.7482 46.56 29.64C46.1911 29.3645 45.9322 28.9668 45.8296 28.5179C45.727 28.0691 45.7874 27.5984 46 27.19C46.0336 27.1473 46.0819 27.1186 46.1354 27.1094C46.1889 27.1001 46.244 27.1111 46.29 27.14C46.3118 27.155 46.3304 27.1742 46.3447 27.1964C46.359 27.2187 46.3688 27.2435 46.3734 27.2696C46.3781 27.2956 46.3775 27.3223 46.3718 27.3481C46.366 27.374 46.3552 27.3984 46.34 27.42C46.1688 27.7331 46.1141 28.0967 46.1855 28.4464C46.2569 28.796 46.4498 29.109 46.73 29.33C47.0343 29.5522 47.384 29.7042 47.754 29.7751C48.124 29.846 48.5051 29.834 48.87 29.74C49.2652 29.6513 49.6457 29.5065 50 29.31C50.7257 28.894 51.3028 28.261 51.65 27.5C52.0291 26.4502 52.189 25.334 52.12 24.22C52.12 23.84 52.12 23.44 52.12 23.05C52.1394 22.0855 52.3971 21.1408 52.87 20.3C52.87 20.3 52.87 20.3 52.87 20.24C52.9377 20.082 52.9726 19.9119 52.9726 19.74C52.9726 19.5681 52.9377 19.398 52.87 19.24C52.7977 19.0782 52.6915 18.9338 52.5587 18.8165C52.4259 18.6992 52.2695 18.6117 52.1 18.56C52.0739 18.5521 52.0498 18.539 52.029 18.5215C52.0082 18.5039 51.9912 18.4823 51.979 18.458C51.9668 18.4337 51.9597 18.4071 51.9582 18.3799C51.9566 18.3528 51.9607 18.3256 51.97 18.3C51.9767 18.2743 51.9887 18.2503 52.0053 18.2296C52.0219 18.2088 52.0426 18.1918 52.0661 18.1795C52.0897 18.1673 52.1156 18.1601 52.1421 18.1585C52.1686 18.1568 52.1951 18.1608 52.22 18.17C52.5456 18.2646 52.8331 18.4595 53.0414 18.7271C53.2497 18.9946 53.3682 19.3211 53.38 19.66C53.6326 19.4085 53.9314 19.2082 54.26 19.07C54.2848 19.0586 54.3117 19.0524 54.339 19.0519C54.3663 19.0513 54.3935 19.0563 54.4188 19.0666C54.4441 19.0769 54.467 19.0923 54.4861 19.1118C54.5053 19.1313 54.5202 19.1545 54.53 19.18C54.5498 19.2291 54.5493 19.284 54.5287 19.3327C54.5081 19.3815 54.469 19.42 54.42 19.44C52.78 20.12 52.54 22.44 52.5 23.1C52.5 23.44 52.5 23.79 52.5 24.1C53.1605 23.3726 53.9097 22.7309 54.73 22.19V22.19Z" fill="#7A913A"/>
<path d="M13.43 36C13.7838 36.417 14.1867 36.7898 14.63 37.11L15.08 37.39C15.4914 37.6262 15.9471 37.7748 16.4187 37.8264C16.8902 37.8781 17.3673 37.8316 17.82 37.69C17.9863 37.6496 18.1381 37.5636 18.2582 37.4418C18.3783 37.3199 18.4621 37.1669 18.5 37C18.507 36.8295 18.4702 36.66 18.3932 36.5077C18.3162 36.3555 18.2015 36.2254 18.06 36.13C17.4485 35.6361 16.7143 35.3175 15.9358 35.2083C15.1574 35.0991 14.3638 35.2034 13.64 35.51V35.51C13.35 35.14 13.08 34.76 12.85 34.42C12.2035 33.4619 11.4668 32.5678 10.65 31.75C10.2599 31.0156 9.69282 30.39 9.00002 29.93C9.00595 29.907 9.00595 29.883 9.00002 29.86C8.5849 29.128 8.39479 28.2898 8.45349 27.4503C8.51218 26.6107 8.81707 25.8072 9.33002 25.14C9.35666 25.128 9.378 25.1066 9.39002 25.08V25C9.5056 24.866 9.62916 24.7391 9.76002 24.62C10.3699 24.1428 11.043 23.7524 11.76 23.46C12.2466 23.2323 12.7206 22.9786 13.18 22.7C14.3586 21.9852 15.2259 20.8538 15.61 19.53C15.7597 18.8886 15.7597 18.2214 15.61 17.58V17.58C16.0687 17.6855 16.5457 17.6817 17.0026 17.5688C17.4594 17.4559 17.8834 17.237 18.24 16.93C18.6463 16.6376 18.9833 16.2594 19.227 15.8221C19.4707 15.3849 19.6151 14.8994 19.65 14.4C19.6544 14.3542 19.6428 14.3084 19.6173 14.2701C19.5918 14.2319 19.5539 14.2036 19.51 14.19C19.053 14.0554 18.5713 14.0272 18.1018 14.1076C17.6322 14.188 17.1873 14.3748 16.8011 14.6538C16.415 14.9328 16.0978 15.2966 15.874 15.7171C15.6502 16.1377 15.5257 16.6039 15.51 17.08C15.33 16.5481 15.0287 16.0654 14.63 15.67C14.1245 15.1807 13.4735 14.8692 12.7753 14.7826C12.0771 14.696 11.3697 14.839 10.76 15.19C10.7377 15.2044 10.7184 15.2231 10.7033 15.245C10.6882 15.2669 10.6776 15.2916 10.672 15.3176C10.6665 15.3436 10.6661 15.3704 10.6709 15.3966C10.6757 15.4227 10.6856 15.4477 10.7 15.47C10.7145 15.4923 10.7332 15.5116 10.7551 15.5267C10.7769 15.5418 10.8016 15.5524 10.8276 15.558C10.8536 15.5636 10.8804 15.564 10.9066 15.5592C10.9327 15.5544 10.9577 15.5444 10.98 15.53C11.5135 15.2305 12.1292 15.1105 12.7361 15.188C13.343 15.2654 13.9089 15.5361 14.35 15.96C14.7798 16.4135 15.0848 16.9705 15.2355 17.5768C15.3862 18.1831 15.3774 18.8181 15.21 19.42C14.8561 20.6453 14.0525 21.6918 12.96 22.35C12.52 22.62 12.04 22.85 11.58 23.08C10.8654 23.3774 10.193 23.7674 9.58002 24.24C9.57922 24.0716 9.55909 23.9038 9.52002 23.74C9.75472 23.3454 9.8957 22.9021 9.93211 22.4444C9.96851 21.9867 9.89938 21.5268 9.73002 21.1C9.56436 20.691 9.29088 20.3345 8.93869 20.0686C8.58649 19.8027 8.16878 19.6373 7.73002 19.59C7.68832 19.5866 7.6466 19.5963 7.61072 19.6178C7.57484 19.6394 7.54662 19.6716 7.53002 19.71C7.40111 20.0382 7.35735 20.3937 7.40281 20.7434C7.44827 21.0931 7.58148 21.4256 7.79002 21.71C7.94947 21.9661 8.12307 22.2132 8.31002 22.45C8.51901 22.7039 8.70633 22.9748 8.87002 23.26C8.95573 23.4043 9.02292 23.5589 9.07002 23.72C9.19127 24.0423 9.19127 24.3977 9.07002 24.72C8.52444 25.3869 8.17098 26.19 8.04764 27.0428C7.92431 27.8955 8.03576 28.7658 8.37002 29.56C7.77048 29.2957 7.10823 29.2071 6.4603 29.3045C5.81238 29.4019 5.20541 29.6812 4.71002 30.11C4.3459 30.459 4.08092 30.8984 3.94212 31.3833C3.80333 31.8682 3.79571 32.3812 3.92002 32.87C4.01885 33.2192 4.18655 33.545 4.41325 33.8284C4.63995 34.1118 4.92105 34.3469 5.24002 34.52C5.49577 34.6482 5.76853 34.7391 6.05002 34.79C6.55618 34.8558 7.07034 34.7645 7.52287 34.5284C7.9754 34.2923 8.34445 33.9228 8.58002 33.47C8.59201 33.4464 8.59919 33.4206 8.60115 33.3942C8.60311 33.3678 8.59981 33.3413 8.59143 33.3162C8.58306 33.2911 8.56979 33.2679 8.55238 33.2479C8.53497 33.228 8.51377 33.2117 8.49002 33.2C8.44086 33.1754 8.38399 33.171 8.33163 33.1878C8.27928 33.2046 8.23561 33.2413 8.21002 33.29C8.0122 33.6635 7.70527 33.968 7.3301 34.1627C6.95494 34.3574 6.52935 34.4332 6.11002 34.38C5.68812 34.3063 5.29551 34.1152 4.97717 33.8287C4.65882 33.5422 4.42761 33.1718 4.31002 32.76C4.21514 32.3482 4.22884 31.9188 4.3498 31.5138C4.47075 31.1089 4.69481 30.7423 5.00002 30.45C5.44409 30.0574 5.99452 29.8051 6.58184 29.725C7.16916 29.6449 7.76704 29.7406 8.30002 30C9.16556 30.4087 9.86956 31.0951 10.3 31.95C10.4372 32.1885 10.5511 32.4397 10.64 32.7C11.0208 33.8839 11.1735 35.1292 11.09 36.37C11.0887 36.3971 11.0928 36.4242 11.1023 36.4496C11.1117 36.475 11.1262 36.4983 11.1449 36.5179C11.1637 36.5376 11.1862 36.5532 11.2111 36.5639C11.236 36.5745 11.2629 36.58 11.29 36.58C11.3166 36.5828 11.3435 36.58 11.3689 36.5717C11.3943 36.5634 11.4177 36.5499 11.4375 36.5319C11.4573 36.514 11.4731 36.4921 11.4839 36.4676C11.4947 36.4432 11.5002 36.4167 11.5 36.39C11.5709 35.18 11.4391 33.9666 11.11 32.8C11.6144 33.3767 12.082 33.9846 12.51 34.62C12.7925 35.0957 13.0996 35.5563 13.43 36V36Z" fill="#7A913A"/>
<path d="M53.34 36.9C52.4341 37.0983 51.4959 37.0983 50.59 36.9C50.1592 36.7975 49.7565 36.6008 49.4107 36.3242C49.0649 36.0475 48.7846 35.6978 48.59 35.3C48.5802 35.2745 48.5653 35.2513 48.5461 35.2318C48.527 35.2123 48.5041 35.1969 48.4788 35.1866C48.4535 35.1763 48.4264 35.1713 48.399 35.1719C48.3717 35.1724 48.3448 35.1786 48.32 35.19C48.2954 35.2008 48.2732 35.2164 48.2547 35.2359C48.2363 35.2555 48.222 35.2786 48.2126 35.3038C48.2033 35.329 48.1992 35.3558 48.2004 35.3826C48.2017 35.4095 48.2083 35.4358 48.22 35.46C48.4422 35.9167 48.7628 36.3186 49.1587 36.6367C49.5547 36.9549 50.0161 37.1814 50.51 37.3C51.4731 37.4997 52.4669 37.4997 53.43 37.3C54.2317 37.1717 55.0101 36.9257 55.74 36.57C56.4554 37.0222 56.9979 37.702 57.28 38.5C57.4225 39.2621 57.257 40.0496 56.82 40.69C56.7897 40.7365 56.7789 40.793 56.7902 40.8474C56.8014 40.9017 56.8337 40.9494 56.88 40.98C56.9016 40.9952 56.926 41.0061 56.9519 41.0118C56.9777 41.0175 57.0044 41.0181 57.0304 41.0135C57.0565 41.0088 57.0813 40.999 57.1036 40.9847C57.1258 40.9704 57.145 40.9518 57.16 40.93C57.6591 40.199 57.8495 39.3006 57.69 38.43C57.5381 37.882 57.2369 37.3869 56.82 37C56.5991 36.7698 56.3618 36.5559 56.11 36.36C56.7385 35.9861 57.2482 35.4417 57.58 34.79C57.8433 34.232 57.957 33.6152 57.91 33V33C57.8032 31.89 57.3521 30.8411 56.62 30L56.43 29.8C56.153 29.4926 55.8115 29.2502 55.43 29.09C55.1852 28.984 54.9177 28.9412 54.6521 28.9657C54.3865 28.9901 54.1313 29.081 53.91 29.23C53.7664 29.3438 53.6479 29.486 53.5618 29.6478C53.4758 29.8095 53.4241 29.9873 53.41 30.17C53.3872 30.427 53.4162 30.686 53.4952 30.9316C53.5742 31.1772 53.7016 31.4045 53.87 31.6C54.4648 32.1582 55.2017 32.5422 56 32.71L56.82 32.96L57.49 33.17C57.5142 33.6666 57.4145 34.1614 57.2 34.61C56.8497 35.2802 56.2968 35.8226 55.62 36.16C54.9051 36.5284 54.135 36.7784 53.34 36.9V36.9Z" fill="#7A913A"/>
<path d="M12.47 46.06C12.4506 46.0778 12.4351 46.0994 12.4245 46.1235C12.4139 46.1476 12.4084 46.1737 12.4084 46.2C12.4084 46.2263 12.4139 46.2524 12.4245 46.2765C12.4351 46.3006 12.4506 46.3222 12.47 46.34C12.5091 46.3773 12.561 46.3981 12.615 46.3981C12.669 46.3981 12.7209 46.3773 12.76 46.34L12.91 46.19C13.8414 45.2709 14.4397 44.0674 14.61 42.77C15.3514 42.7427 16.0752 42.5369 16.72 42.17C17.6018 41.735 18.4167 41.176 19.14 40.51C19.466 40.2098 19.7578 39.8744 20.01 39.51C20.0248 39.4878 20.0349 39.4628 20.0399 39.4366C20.0449 39.4104 20.0446 39.3834 20.039 39.3574C20.0334 39.3313 20.0227 39.3066 20.0074 39.2847C19.9921 39.2628 19.9726 39.2442 19.95 39.23C19.9284 39.2148 19.904 39.2039 19.8781 39.1982C19.8523 39.1925 19.8256 39.1919 19.7996 39.1965C19.7735 39.2012 19.7487 39.211 19.7264 39.2253C19.7042 39.2396 19.685 39.2582 19.67 39.28C18.8556 40.3881 17.7712 41.2694 16.52 41.84C15.9483 42.1671 15.3078 42.3555 14.65 42.39C14.66 42.2001 14.66 42.0099 14.65 41.82C14.6488 41.4701 14.5594 41.1262 14.39 40.82C14.2921 40.6465 14.1446 40.5063 13.9664 40.4172C13.7882 40.3281 13.5875 40.2943 13.39 40.32C13.1718 40.3786 12.9799 40.5093 12.8456 40.6909C12.7112 40.8725 12.6423 41.0942 12.65 41.32C12.6687 41.5164 12.7282 41.7068 12.8246 41.879C12.921 42.0512 13.0523 42.2014 13.21 42.32C13.4979 42.5536 13.8433 42.7055 14.21 42.76C14.1118 43.49 13.8705 44.1934 13.5 44.83V44.83C12.9823 44.4985 12.3867 44.3084 11.7727 44.2785C11.1586 44.2487 10.5474 44.3802 10 44.66C9.90354 44.6934 9.81761 44.7517 9.75089 44.8289C9.68416 44.9062 9.63901 44.9997 9.62 45.1C9.62 45.37 9.80999 45.6 10.19 45.68C11.1893 45.8439 12.2148 45.7118 13.14 45.3C12.9459 45.5776 12.7211 45.8326 12.47 46.06V46.06ZM13 41.28C12.9997 41.1124 13.0642 40.9512 13.18 40.83C13.2427 40.773 13.3181 40.7318 13.4 40.71C13.5172 40.6962 13.636 40.7162 13.7423 40.7675C13.8486 40.8189 13.938 40.8996 14 41C14.1376 41.2474 14.2066 41.527 14.2 41.81C14.21 41.9799 14.21 42.1501 14.2 42.32C13.9157 42.2734 13.6476 42.1565 13.42 41.98C13.3072 41.8969 13.212 41.7922 13.1399 41.6721C13.0678 41.5519 13.0203 41.4186 13 41.28V41.28Z" fill="#7A913A"/>
<path d="M47.63 20.87C47.7357 20.9059 47.8502 20.9067 47.9564 20.8725C48.0627 20.8383 48.1551 20.7708 48.22 20.68C49.0487 19.8406 49.6242 18.7847 49.8806 17.6334C50.1371 16.4821 50.0641 15.2818 49.67 14.17C50.022 13.822 50.411 13.5135 50.83 13.25C50.8776 13.4756 50.9814 13.6855 51.1317 13.8603C51.2821 14.0351 51.4741 14.1691 51.69 14.25C51.957 14.3412 52.2421 14.366 52.5209 14.3225C52.7996 14.2789 53.0636 14.1683 53.29 14C53.4971 13.8594 53.6684 13.6721 53.7899 13.4533C53.9115 13.2345 53.98 12.9901 53.99 12.74C53.9922 12.4725 53.9003 12.2127 53.7303 12.0061C53.5603 11.7995 53.323 11.6593 53.06 11.61C52.9131 11.5936 52.7643 11.6133 52.6267 11.6673C52.489 11.7213 52.3666 11.808 52.27 11.92C52.1799 12.0146 52.113 12.129 52.0748 12.254C52.0366 12.379 52.0281 12.5111 52.05 12.64C52.0642 12.6931 52.0977 12.7389 52.144 12.7685C52.1902 12.7981 52.2459 12.8094 52.3 12.8C52.3263 12.7954 52.3514 12.7854 52.3735 12.7705C52.3957 12.7556 52.4145 12.7361 52.4286 12.7135C52.4428 12.6909 52.452 12.6655 52.4557 12.639C52.4594 12.6126 52.4574 12.5857 52.45 12.56C52.4411 12.4948 52.4473 12.4285 52.4681 12.366C52.489 12.3036 52.5238 12.2468 52.57 12.2C52.6252 12.1383 52.6931 12.0893 52.7691 12.0565C52.8451 12.0237 52.9273 12.0078 53.01 12.01C53.173 12.0503 53.3178 12.1441 53.4211 12.2765C53.5245 12.4089 53.5804 12.5721 53.58 12.74C53.5697 12.9255 53.5164 13.106 53.4244 13.2674C53.3325 13.4288 53.2043 13.5666 53.05 13.67C52.8769 13.7974 52.6761 13.8819 52.464 13.9166C52.252 13.9514 52.0347 13.9354 51.83 13.87C51.6463 13.79 51.4909 13.6566 51.384 13.4872C51.277 13.3179 51.2233 13.1202 51.23 12.92C51.2343 12.8937 51.2332 12.8668 51.2269 12.8409C51.2206 12.815 51.2092 12.7907 51.1934 12.7692C51.1776 12.7478 51.1576 12.7298 51.1347 12.7162C51.1118 12.7025 51.0864 12.6937 51.06 12.69H51C50.9546 12.6748 50.9054 12.6748 50.86 12.69C50.2744 13.0502 49.7424 13.4912 49.28 14V14C48.5266 14.801 47.9567 15.7565 47.61 16.8C47.2087 17.9704 47.1225 19.2258 47.36 20.44C47.3687 20.5277 47.3976 20.6121 47.4445 20.6867C47.4913 20.7613 47.5548 20.8241 47.63 20.87Z" fill="#7A913A"/>
<path d="M5.22998 59.23H5.47998C5.63998 59.11 5.78998 59 5.91998 58.88C7.09351 57.9879 8.4662 57.3942 9.91998 57.15H9.98998C11.0716 56.9759 12.1773 57.0235 13.24 57.29C14.1857 57.5476 15.1087 57.8821 16 58.29C16.53 58.53 17.09 58.78 17.65 58.99C19.1592 59.6819 20.8749 59.7748 22.45 59.25C22.9114 59.0508 23.3271 58.759 23.6711 58.3926C24.0151 58.0262 24.2802 57.5931 24.45 57.12C25.23 57.6671 26.1389 58.0019 27.0875 58.0913C28.036 58.1807 28.9915 58.0217 29.86 57.63C29.8951 57.6147 29.9251 57.5895 29.9464 57.5576C29.9677 57.5257 29.9793 57.4884 29.98 57.45C29.9812 57.4137 29.9725 57.3778 29.9549 57.3461C29.9373 57.3144 29.9114 57.2881 29.88 57.27C28.8602 56.6542 27.6913 56.3291 26.5 56.33C25.8483 56.3294 25.2005 56.4307 24.58 56.63C24.6758 56.1276 24.6165 55.6079 24.41 55.14C24.1874 54.6975 23.8611 54.3154 23.4588 54.0263C23.0566 53.7372 22.5904 53.5498 22.1 53.48H22.01H21.96C21.8235 53.4708 21.6865 53.4708 21.55 53.48C20.972 53.4177 20.4289 53.1724 20 52.78C19.7678 52.4867 19.6132 52.1397 19.5503 51.771C19.4874 51.4023 19.5182 51.0237 19.64 50.67C19.6566 50.6195 19.6534 50.5646 19.6312 50.5164C19.6089 50.4681 19.5692 50.4301 19.52 50.41H19.45C19.4074 50.4088 19.3655 50.4206 19.3297 50.4438C19.294 50.4671 19.2662 50.5006 19.25 50.54C19.1158 50.9553 19.0867 51.3974 19.1652 51.8267C19.2437 52.256 19.4275 52.6591 19.7 53C19.9074 53.2429 20.1627 53.4404 20.45 53.58C20.2614 53.606 20.0744 53.6427 19.89 53.69C19.38 53.82 18.18 54.22 18.08 55.25C18.0808 55.6174 18.2027 55.9743 18.4269 56.2653C18.6511 56.5564 18.965 56.7654 19.32 56.86C19.9775 57.0164 20.6625 57.0164 21.32 56.86C21.3748 56.8502 21.4238 56.82 21.4572 56.7754C21.4906 56.7309 21.5059 56.6754 21.5 56.62C21.4902 56.5659 21.4596 56.5178 21.4147 56.486C21.3698 56.4542 21.3143 56.4413 21.26 56.45C20.6642 56.5848 20.0458 56.5848 19.45 56.45C19.1751 56.3941 18.9269 56.2473 18.7456 56.0332C18.5642 55.8192 18.4601 55.5504 18.45 55.27C18.52 54.48 19.61 54.15 19.94 54.07C20.4922 53.9535 21.06 53.9298 21.62 54H22C22.451 54.0427 22.8841 54.1978 23.2597 54.4511C23.6353 54.7044 23.9414 55.0479 24.15 55.45C24.3527 55.9249 24.381 56.4562 24.23 56.95C24.0925 57.41 23.8543 57.8336 23.5325 58.19C23.2108 58.5463 22.8136 58.8265 22.37 59.01C20.8902 59.489 19.2847 59.3962 17.87 58.75C17.32 58.54 16.77 58.3 16.24 58.06C15.3345 57.629 14.3945 57.2744 13.43 57C12.776 56.8353 12.1044 56.7514 11.43 56.75C11.765 56.5617 12.0659 56.3183 12.32 56.03H12.37C12.3946 56.0052 12.4119 55.974 12.42 55.94C12.5022 55.8292 12.5758 55.7122 12.64 55.59C12.9673 54.8804 13.1993 54.1305 13.33 53.36C13.33 53.14 13.42 52.92 13.47 52.7C13.6245 51.7627 14.0768 50.9001 14.76 50.24C14.7929 50.2106 14.8162 50.172 14.8269 50.1292C14.8376 50.0864 14.8352 50.0414 14.82 50C14.8044 49.9622 14.7781 49.9297 14.7444 49.9066C14.7106 49.8835 14.6709 49.8708 14.63 49.87V49.87C13.9842 49.906 13.3589 50.1093 12.8154 50.4599C12.2719 50.8105 11.829 51.2965 11.53 51.87C11.2976 52.5269 11.2165 53.2277 11.2927 53.9203C11.3689 54.6129 11.6004 55.2793 11.97 55.87C11.4385 56.3796 10.7723 56.7266 10.05 56.87C8.97062 57.0461 7.92909 57.4045 6.96998 57.93C8.03674 56.065 8.39198 53.8767 7.96998 51.77C7.77009 50.6344 7.51309 49.5097 7.19998 48.4C7.04998 47.84 6.89998 47.27 6.75998 46.7C8.22252 44.8816 8.96944 42.591 8.85998 40.26C8.85708 40.218 8.84103 40.178 8.8141 40.1457C8.78717 40.1134 8.75074 40.0904 8.70998 40.08C8.55458 40.0307 8.39296 40.0038 8.22998 40C7.83478 40.0221 7.45158 40.1437 7.11593 40.3535C6.78028 40.5633 6.50306 40.8545 6.30998 41.2C5.90974 42.0044 5.75002 42.9071 5.84998 43.8C5.91339 44.7781 6.06399 45.7487 6.29998 46.7C6.43998 47.31 6.60998 47.92 6.75998 48.52C7.07447 49.6118 7.3282 50.7201 7.51998 51.84C7.97998 54.75 7.29998 57.32 5.72998 58.72C5.57904 58.8234 5.43537 58.937 5.29998 59.06V59.06V59.18L5.22998 59.23Z" fill="#7A913A"/>
<path d="M54.69 47V46.9H54.46C53.1313 48.1004 52.0479 49.5471 51.27 51.16C50.91 51.82 50.52 52.49 50.12 53.1C49.4447 54.1083 48.6027 54.9943 47.63 55.72C47.7244 54.9555 47.5835 54.1803 47.2262 53.4979C46.8689 52.8154 46.3121 52.258 45.63 51.9C45.452 51.7454 45.2275 51.6546 44.992 51.6419C44.7566 51.6292 44.5236 51.6954 44.33 51.83C44.2315 51.9385 44.1581 52.0672 44.1149 52.2072C44.0717 52.3472 44.0598 52.4949 44.08 52.64C44.1456 53.438 44.4641 54.1942 44.9893 54.7986C45.5145 55.4029 46.219 55.8238 47 56C45.9434 56.7011 44.7674 57.2028 43.53 57.48C42.8745 57.6525 42.1855 57.6525 41.53 57.48C41.229 57.398 40.9575 57.2323 40.7469 57.0022C40.5363 56.7721 40.3952 56.487 40.34 56.18C40.3388 56.1528 40.332 56.1262 40.3201 56.1017C40.3083 56.0772 40.2915 56.0554 40.2709 56.0376C40.2503 56.0198 40.2263 56.0064 40.2004 55.9982C40.1744 55.9901 40.1471 55.9873 40.12 55.99C40.0937 55.9925 40.0681 56.0002 40.0448 56.0126C40.0215 56.0251 40.0009 56.042 39.9841 56.0625C39.9674 56.0829 39.9549 56.1065 39.9473 56.1318C39.9397 56.1571 39.9372 56.1837 39.94 56.21C39.9703 56.6266 40.1303 57.0232 40.3976 57.3443C40.6648 57.6653 41.0258 57.8946 41.43 58C41.7345 58.0929 42.0518 58.1368 42.37 58.13C42.7882 58.1254 43.2044 58.0717 43.61 57.97C46.3698 57.3476 48.7836 55.6858 50.35 53.33C50.76 52.71 51.15 52.03 51.52 51.33C52.1149 50.1871 52.8253 49.1081 53.64 48.11C53.4575 48.5004 53.3764 48.9305 53.4044 49.3605C53.4324 49.7906 53.5684 50.2066 53.8 50.57C54.2072 51.0643 54.7338 51.4463 55.33 51.68C55.5591 51.7742 55.7827 51.8811 56 52C56.3389 52.1992 56.643 52.4525 56.9 52.75V52.75C57.3822 53.2834 57.7257 53.9274 57.9001 54.625C58.0745 55.3226 58.0745 56.0524 57.9 56.75C57.7359 57.3609 57.3866 57.9059 56.9 58.31C56.6707 58.5033 56.3993 58.6401 56.1075 58.7095C55.8158 58.779 55.5118 58.7792 55.22 58.71C54.9961 58.6454 54.7897 58.5309 54.6165 58.375C54.4433 58.2191 54.3077 58.0259 54.22 57.81C54.1208 57.6041 54.0692 57.3785 54.0692 57.15C54.0692 56.9215 54.1208 56.6959 54.22 56.49C54.3308 56.2909 54.4841 56.1187 54.6691 55.9856C54.854 55.8525 55.066 55.7618 55.29 55.72C55.5133 55.668 55.7452 55.6652 55.9697 55.7118C56.1942 55.7584 56.4059 55.8534 56.59 55.99C56.6274 56.0267 56.6776 56.0472 56.73 56.0472C56.7824 56.0472 56.8326 56.0267 56.87 55.99C56.8894 55.9722 56.9049 55.9506 56.9155 55.9265C56.9261 55.9024 56.9315 55.8763 56.9315 55.85C56.9315 55.8237 56.9261 55.7976 56.9155 55.7735C56.9049 55.7494 56.8894 55.7278 56.87 55.71C56.6436 55.5299 56.3791 55.4038 56.0967 55.3414C55.8142 55.279 55.5212 55.282 55.24 55.35C54.9521 55.4021 54.6799 55.5192 54.4442 55.6925C54.2085 55.8658 54.0155 56.0907 53.88 56.35C53.7599 56.6127 53.6964 56.8978 53.6936 57.1867C53.6909 57.4756 53.7489 57.7618 53.8639 58.0268C53.979 58.2918 54.1485 58.5296 54.3614 58.7249C54.5744 58.9201 54.826 59.0684 55.1 59.16C55.4477 59.2415 55.8097 59.2405 56.1569 59.1572C56.5042 59.0738 56.8271 58.9104 57.1 58.68C57.6377 58.217 58.0185 57.5985 58.19 56.91C58.3779 56.167 58.3851 55.3899 58.2112 54.6435C58.0372 53.8972 57.687 53.2033 57.19 52.62C57.7732 51.7823 58.2032 50.8479 58.46 49.86V49.86C59.1618 47.4896 58.8994 44.938 57.73 42.76C57.7089 42.7291 57.6805 42.7039 57.6474 42.6865C57.6143 42.669 57.5774 42.66 57.54 42.66C57.5008 42.6627 57.4632 42.6763 57.4314 42.6993C57.3996 42.7222 57.3749 42.7537 57.36 42.79C56.9052 43.9261 56.7296 45.1548 56.8479 46.3728C56.9662 47.5908 57.375 48.7627 58.04 49.79C57.8336 50.6844 57.4823 51.539 57 52.32C56.7562 52.0713 56.4805 51.8561 56.18 51.68C55.96 51.54 55.73 51.43 55.5 51.31C54.9632 51.0981 54.4885 50.7541 54.12 50.31C53.48 49.4 53.92 48.06 54.64 47.12V47.04L54.69 47Z" fill="#7A913A"/>
<path d="M24.67 15.57C24.6458 15.5575 24.6244 15.5401 24.6071 15.519C24.5898 15.4979 24.577 15.4735 24.5695 15.4473C24.562 15.4211 24.56 15.3936 24.5635 15.3665C24.567 15.3395 24.576 15.3134 24.59 15.29C24.6173 15.2431 24.6617 15.2085 24.7139 15.1936C24.7661 15.1787 24.822 15.1846 24.87 15.21C25.0462 15.3195 25.1889 15.4754 25.2824 15.6606C25.3759 15.8458 25.4166 16.0532 25.4 16.26C25.3976 16.4996 25.3316 16.7342 25.2086 16.9399C25.0855 17.1455 24.91 17.3146 24.7 17.43C24.2952 17.596 23.8424 17.6016 23.4337 17.4455C23.025 17.2895 22.6911 16.9835 22.5 16.59C22.3304 16.2121 22.2529 15.7993 22.2738 15.3856C22.2946 14.9719 22.4133 14.569 22.62 14.21C23.1989 13.3123 24.0722 12.6441 25.09 12.32L24.9 12.24C24.4894 12.0509 24.0976 11.8232 23.73 11.56C23.2786 11.2238 22.7753 10.9637 22.24 10.79C21.6151 10.6429 20.9579 10.7295 20.3924 11.0335C19.827 11.3374 19.3922 11.8377 19.17 12.44C19.1621 12.466 19.149 12.4902 19.1315 12.511C19.1139 12.5318 19.0923 12.5488 19.068 12.561C19.0437 12.5732 19.0171 12.5802 18.9899 12.5818C18.9628 12.5833 18.9356 12.5793 18.91 12.57C18.884 12.5621 18.8598 12.549 18.839 12.5315C18.8182 12.5139 18.8012 12.4923 18.789 12.468C18.7768 12.4437 18.7698 12.4171 18.7682 12.3899C18.7667 12.3628 18.7707 12.3356 18.78 12.31C19.0402 11.6109 19.5461 11.0304 20.2031 10.677C20.8601 10.3237 21.6233 10.2217 22.35 10.39C22.9282 10.5773 23.472 10.8576 23.96 11.22C24.3069 11.4656 24.6751 11.6797 25.06 11.86C25.331 11.9806 25.6168 12.0647 25.91 12.11V12.11C26.8601 12.2439 27.8286 12.1015 28.7 11.7C29.1133 11.3902 29.4545 10.9945 29.7 10.54C29.8425 10.3119 29.9279 10.0528 29.9488 9.78471C29.9696 9.51659 29.9255 9.24739 29.82 9C29.7117 8.78061 29.5266 8.60856 29.3 8.51641C29.0733 8.42427 28.8207 8.41843 28.59 8.5C28.4808 8.55939 28.3886 8.64568 28.3221 8.75068C28.2556 8.85568 28.217 8.97591 28.21 9.1C28.2003 9.19816 28.2153 9.29719 28.2538 9.38803C28.2922 9.47887 28.3528 9.55863 28.43 9.62C28.4736 9.65042 28.504 9.69623 28.5151 9.74819C28.5263 9.80015 28.5173 9.8544 28.49 9.9C28.4594 9.94629 28.4117 9.97858 28.3574 9.98982C28.303 10.0011 28.2465 9.99034 28.2 9.96C28.0647 9.85704 27.9579 9.72129 27.8896 9.56556C27.8214 9.40983 27.794 9.23927 27.81 9.07C27.8192 8.87456 27.8794 8.68494 27.9847 8.52002C28.09 8.3551 28.2366 8.22063 28.41 8.13C28.683 8.01792 28.9847 7.99629 29.2708 8.06828C29.557 8.14027 29.8126 8.3021 30 8.53C30.0788 8.61999 30.1491 8.71707 30.21 8.82C30.3482 9.12467 30.4113 9.45808 30.3939 9.79218C30.3765 10.1263 30.2791 10.4513 30.11 10.74L29.94 11.02C30.9097 10.3021 31.8013 9.48428 32.6 8.58C32.6391 8.54271 32.691 8.52191 32.745 8.52191C32.799 8.52191 32.8509 8.54271 32.89 8.58V8.58C32.9266 8.61739 32.9472 8.66765 32.9472 8.72C32.9472 8.77235 32.9266 8.82262 32.89 8.86C31.8872 10.0123 30.7136 11.0038 29.41 11.8C29.2475 11.8885 29.0806 11.9686 28.91 12.04C28.8873 12.0476 28.8627 12.0476 28.84 12.04C27.9019 12.468 26.8615 12.6206 25.84 12.48C24.6796 12.7263 23.6609 13.415 23 14.4C22.8269 14.7014 22.7259 15.0389 22.7051 15.3859C22.6843 15.7329 22.7441 16.08 22.88 16.4C23.0269 16.6923 23.2765 16.9202 23.5809 17.0401C23.8853 17.1601 24.2232 17.1636 24.53 17.05C24.6763 16.9691 24.7982 16.8502 24.8826 16.7059C24.9671 16.5616 25.0111 16.3972 25.01 16.23C25.0186 16.0995 24.9915 15.9691 24.9316 15.8528C24.8717 15.7365 24.7813 15.6388 24.67 15.57V15.57Z" fill="#7A913A"/>
<path d="M18 30.56C18.1228 30.5731 18.2415 30.612 18.3483 30.674C18.4551 30.736 18.5477 30.8198 18.62 30.92C18.6823 31.0017 18.7269 31.0954 18.7511 31.1953C18.7752 31.2951 18.7782 31.3989 18.76 31.5C18.7525 31.525 18.7502 31.5512 18.7533 31.5771C18.7564 31.6029 18.7647 31.6279 18.7778 31.6504C18.791 31.6729 18.8086 31.6925 18.8296 31.7079C18.8506 31.7233 18.8746 31.7342 18.9 31.74C18.9256 31.7476 18.9525 31.75 18.979 31.747C19.0056 31.744 19.0312 31.7358 19.0545 31.7227C19.0778 31.7097 19.0983 31.6921 19.1147 31.671C19.1311 31.6499 19.1431 31.6258 19.15 31.6C19.1868 31.4414 19.188 31.2766 19.1534 31.1175C19.1188 30.9584 19.0494 30.809 18.95 30.68C18.8429 30.5293 18.7042 30.4038 18.5436 30.3122C18.3829 30.2207 18.2043 30.1653 18.02 30.15C17.6847 30.1487 17.3582 30.2576 17.0908 30.46C16.8234 30.6623 16.6299 30.9469 16.54 31.27C16.4581 31.5798 16.4488 31.9044 16.513 32.2183C16.5772 32.5323 16.7131 32.8272 16.91 33.08C17.0739 33.2974 17.2655 33.4924 17.48 33.66C17.7543 33.8637 18.0492 34.038 18.36 34.18C18.8199 34.4186 19.3254 34.5563 19.8427 34.5839C20.3601 34.6115 20.8774 34.5284 21.36 34.34C21.8846 34.022 22.3266 33.5845 22.6499 33.0631C22.9731 32.5417 23.1685 31.9513 23.22 31.34C23.2893 30.7661 23.3194 30.188 23.31 29.61C23.3084 29.0119 23.3418 28.4142 23.41 27.82C23.446 27.2679 23.6207 26.7338 23.9178 26.2671C24.215 25.8004 24.625 25.4162 25.11 25.15C25.1355 25.1402 25.1587 25.1253 25.1782 25.1061C25.1977 25.087 25.2131 25.0641 25.2234 25.0388C25.2337 25.0135 25.2387 24.9864 25.2381 24.959C25.2376 24.9317 25.2314 24.9048 25.22 24.88C25.198 24.8303 25.1576 24.791 25.1072 24.7705C25.0568 24.75 25.0005 24.7498 24.95 24.77C24.3997 25.0656 23.9332 25.4958 23.5939 26.0203C23.2547 26.5449 23.0538 27.1468 23.01 27.77C22.9338 28.377 22.8971 28.9883 22.9 29.6C22.9085 30.1611 22.8818 30.7222 22.82 31.28C22.7732 31.8358 22.5945 32.3725 22.2989 32.8455C22.0032 33.3186 21.5991 33.7143 21.12 34C20.6958 34.1552 20.2441 34.221 19.7933 34.1935C19.3425 34.166 18.9022 34.0456 18.5 33.84C17.9939 33.6185 17.5507 33.2749 17.21 32.84C17.0522 32.6374 16.9423 32.4017 16.8886 32.1506C16.8349 31.8994 16.8388 31.6394 16.9 31.39C16.9662 31.1497 17.1099 30.938 17.3088 30.7879C17.5078 30.6378 17.7508 30.5577 18 30.56V30.56Z" fill="#7A913A"/>
<path d="M43 8.89C43 8.94304 43.021 8.99392 43.0586 9.03142C43.0961 9.06893 43.1469 9.09 43.2 9.09C43.3296 9.08455 43.455 9.0421 43.5613 8.96768C43.6677 8.89326 43.7505 8.78996 43.8 8.67C43.8719 8.52913 43.9095 8.37319 43.9095 8.215C43.9095 8.05681 43.8719 7.90087 43.8 7.76V7.7C43.6165 7.51275 43.3912 7.37163 43.1426 7.2882C42.8941 7.20476 42.6293 7.18139 42.37 7.22C41.5414 7.25448 40.7399 7.52512 40.06 8C40.32 7.29 40.54 6.56 40.74 5.85C40.7525 5.8234 40.7589 5.79438 40.7589 5.765C40.7589 5.73562 40.7525 5.7066 40.74 5.68C40.7093 5.63927 40.6677 5.60806 40.62 5.59C40.5683 5.57734 40.5138 5.58476 40.4674 5.61074C40.421 5.63673 40.3862 5.67935 40.37 5.73C39.8694 7.82434 38.9918 9.81005 37.78 11.59C37.9769 11.1057 38.1114 10.5983 38.18 10.08C38.2306 9.71508 38.2306 9.34492 38.18 8.98C37.8807 7.63363 37.3603 6.34618 36.64 5.17L36.56 5.04C36.17 4.43 35.78 4.43 35.56 4.48C35.3902 4.55376 35.2441 4.67321 35.1382 4.82505C35.0323 4.97689 34.9706 5.15516 34.96 5.34C34.8133 6.35654 35 7.39323 35.4922 8.29468C35.9844 9.19612 36.7555 9.91376 37.69 10.34V10.34C37.5196 11.3043 37.1258 12.2153 36.54 13C34.92 14.41 32.32 15.34 30.11 14.27C30.0622 14.2461 30.007 14.2422 29.9563 14.2591C29.9057 14.276 29.8638 14.3123 29.84 14.36C29.8161 14.4077 29.8122 14.463 29.8291 14.5136C29.8459 14.5643 29.8822 14.6061 29.93 14.63C32.29 15.79 35.06 14.82 36.77 13.34H36.82C36.96 13.22 37.09 13.1 37.23 12.96C38.3376 11.779 39.1978 10.3884 39.76 8.87C39.7955 8.883 39.8345 8.883 39.87 8.87C40.5357 8.22781 41.4071 7.84172 42.33 7.78C42.5198 7.7328 42.7177 7.72804 42.9095 7.76606C43.1014 7.80409 43.2825 7.88397 43.44 8C43.4874 8.08209 43.5123 8.17521 43.5123 8.27C43.5123 8.36479 43.4874 8.45791 43.44 8.54C43.4229 8.5889 43.3922 8.63187 43.3514 8.66378C43.3106 8.6957 43.2615 8.71521 43.21 8.72C43.1601 8.71695 43.1108 8.73271 43.0719 8.76418C43.0331 8.79565 43.0074 8.84054 43 8.89Z" fill="#7A913A"/>
<path d="M6.50001 14.51C6.64875 14.5104 6.79682 14.4902 6.94001 14.45C7.32402 14.2876 7.65691 14.0243 7.90339 13.6881C8.14987 13.3518 8.30074 12.9551 8.34001 12.54C8.58719 11.2527 8.411 9.91994 7.8378 8.74108C7.26459 7.56222 6.32516 6.60059 5.16001 6C5.11085 5.97535 5.05398 5.97097 5.00163 5.9878C4.94927 6.00463 4.90561 6.04132 4.88001 6.09C4.8667 6.11467 4.85872 6.14187 4.85659 6.16982C4.85446 6.19778 4.85823 6.22587 4.86766 6.25227C4.87709 6.27867 4.89197 6.3028 4.91132 6.32308C4.93068 6.34336 4.95408 6.35935 4.98001 6.37C6.06861 6.92198 6.94919 7.81164 7.48998 8.90584C8.03077 10 8.20269 11.2399 7.98001 12.44C7.90001 12.85 7.63001 13.81 6.86001 14.05C6.61855 14.1115 6.36445 14.1017 6.12843 14.0218C5.89241 13.9419 5.68456 13.7954 5.53001 13.6C5.37768 13.3928 5.27652 13.1525 5.23481 12.8988C5.1931 12.6451 5.21202 12.385 5.29001 12.14C5.33584 11.929 5.44441 11.7368 5.60147 11.5887C5.75852 11.4406 5.95672 11.3434 6.17001 11.31V11.31C6.27622 11.3168 6.3784 11.3532 6.465 11.415C6.5516 11.4769 6.61915 11.5617 6.66001 11.66C6.69661 11.7166 6.71607 11.7826 6.71607 11.85C6.71607 11.9174 6.69661 11.9834 6.66001 12.04C6.64035 12.0587 6.62469 12.0812 6.61398 12.1061C6.60328 12.131 6.59776 12.1579 6.59776 12.185C6.59776 12.2121 6.60328 12.239 6.61398 12.2639C6.62469 12.2888 6.64035 12.3113 6.66001 12.33C6.6974 12.3666 6.74766 12.3872 6.80001 12.3872C6.85236 12.3872 6.90263 12.3666 6.94001 12.33C7.03208 12.2136 7.08704 12.0722 7.09774 11.9242C7.10844 11.7762 7.07439 11.6284 7.00001 11.5C6.92483 11.3321 6.80475 11.1881 6.65302 11.084C6.50128 10.9799 6.32377 10.9197 6.14001 10.91V10.91C5.8408 10.939 5.55768 11.0591 5.32881 11.254C5.09994 11.4489 4.93632 11.7092 4.86001 12C4.75995 12.3074 4.73588 12.6344 4.78987 12.9531C4.84386 13.2719 4.9743 13.5727 5.17001 13.83C5.32632 14.036 5.52707 14.2042 5.75734 14.3219C5.98761 14.4396 6.24146 14.5039 6.50001 14.51V14.51Z" fill="#7A913A"/>
<path d="M47.12 47.85C47.2687 47.8497 47.4167 47.8295 47.56 47.79C47.9498 47.628 48.289 47.3644 48.5423 47.0267C48.7956 46.689 48.9536 46.2896 49 45.87C49.2401 44.5847 49.0594 43.2562 48.4847 42.0817C47.9101 40.9072 46.9721 39.9493 45.81 39.35C45.7864 39.338 45.7607 39.3308 45.7343 39.3289C45.7079 39.3269 45.6813 39.3302 45.6562 39.3386C45.6311 39.347 45.6079 39.3602 45.5879 39.3776C45.568 39.3951 45.5517 39.4162 45.54 39.44C45.5154 39.4892 45.511 39.546 45.5278 39.5984C45.5446 39.6507 45.5813 39.6944 45.63 39.72C46.7175 40.2732 47.5971 41.1631 48.1378 42.2569C48.6784 43.3508 48.851 44.59 48.63 45.79C48.54 46.19 48.27 47.16 47.51 47.39C47.2648 47.476 46.9991 47.4848 46.7487 47.415C46.4984 47.3453 46.2754 47.2004 46.11 47C45.9553 46.792 45.8528 46.55 45.8111 46.2942C45.7693 46.0384 45.7895 45.7764 45.87 45.53C45.99 45.13 46.33 44.71 46.74 44.71C46.8445 44.7186 46.9445 44.7558 47.0292 44.8175C47.1139 44.8793 47.1799 44.9632 47.22 45.06C47.2566 45.1166 47.2761 45.1826 47.2761 45.25C47.2761 45.3174 47.2566 45.3834 47.22 45.44C47.2006 45.4578 47.1851 45.4794 47.1745 45.5035C47.1639 45.5276 47.1585 45.5537 47.1585 45.58C47.1585 45.6063 47.1639 45.6324 47.1745 45.6565C47.1851 45.6806 47.2006 45.7022 47.22 45.72C47.2387 45.7397 47.2612 45.7553 47.2861 45.766C47.3111 45.7767 47.3379 45.7822 47.365 45.7822C47.3922 45.7822 47.419 45.7767 47.4439 45.766C47.4688 45.7553 47.4913 45.7397 47.51 45.72C47.6027 45.6086 47.6606 45.4725 47.6766 45.3285C47.6926 45.1845 47.666 45.039 47.6 44.91C47.5248 44.7421 47.4048 44.5981 47.253 44.494C47.1013 44.3899 46.9238 44.3297 46.74 44.32C46.4392 44.3544 46.1561 44.4802 45.929 44.6804C45.7019 44.8807 45.5417 45.1458 45.47 45.44C45.3713 45.7482 45.3489 46.0757 45.4046 46.3944C45.4604 46.7131 45.5926 47.0136 45.79 47.27C45.9561 47.4577 46.1611 47.6069 46.3909 47.7071C46.6206 47.8073 46.8695 47.8561 47.12 47.85V47.85Z" fill="#7A913A"/>
<path d="M9.50002 9.42C9.47708 9.43401 9.45737 9.45274 9.4422 9.47493C9.42703 9.49712 9.41674 9.52229 9.41202 9.54875C9.40729 9.57522 9.40823 9.60238 9.41479 9.62845C9.42134 9.65453 9.43335 9.67891 9.45002 9.7C9.77329 10.0811 10.2029 10.3569 10.684 10.4923C11.165 10.6277 11.6754 10.6165 12.15 10.46H12.21C13.1168 10.0932 13.9079 9.48861 14.5 8.71C14.68 8.5 14.85 8.28 15.01 8.07C15.4065 7.55186 15.8447 7.06692 16.32 6.62C17.0433 6.00083 17.9152 5.58041 18.85 5.4C19.525 6.07909 20.346 6.59514 21.2507 6.90881C22.1553 7.22248 23.1196 7.32549 24.07 7.21V7.21C24.1035 7.20082 24.134 7.18309 24.1586 7.15854C24.1831 7.13399 24.2008 7.10348 24.21 7.07C24.2267 7.03929 24.2354 7.00492 24.2354 6.97C24.2354 6.93508 24.2267 6.90071 24.21 6.87C23.2089 5.70812 21.7891 4.9892 20.26 4.87C19.7964 4.85571 19.3328 4.89938 18.88 5C17.8321 5.1739 16.8527 5.6342 16.05 6.33C15.5553 6.79441 15.1003 7.29951 14.69 7.84C14.53 8.04 14.36 8.26 14.19 8.46C13.6473 9.17552 12.9219 9.73166 12.09 10.07C11.6904 10.216 11.2559 10.2378 10.8437 10.1325C10.4315 10.0272 10.0607 9.79978 9.78002 9.48C9.76687 9.45627 9.74879 9.43564 9.72699 9.41948C9.70519 9.40333 9.68019 9.39203 9.65366 9.38635C9.62714 9.38066 9.5997 9.38072 9.5732 9.38653C9.5467 9.39233 9.52175 9.40375 9.50002 9.42V9.42Z" fill="#7A913A"/>
<path d="M58.61 6.17C58.5706 6.16064 58.5295 6.16064 58.49 6.17C58.4588 6.15494 58.4247 6.14712 58.39 6.14712C58.3554 6.14712 58.3212 6.15494 58.29 6.17C55.9048 6.81981 53.3905 6.83016 51 6.2L50.77 6.14C50.2838 5.98563 49.7796 5.89488 49.27 5.87C49.0331 5.86888 48.7972 5.90257 48.57 5.97C48.2595 6.05656 47.9791 6.2277 47.7602 6.4643C47.5412 6.70091 47.3923 6.9937 47.33 7.31C47.2907 7.66699 47.391 8.02536 47.61 8.31C47.705 8.43393 47.8239 8.53759 47.9595 8.61487C48.0952 8.69216 48.245 8.7415 48.4 8.76C48.5934 8.78956 48.7913 8.76173 48.969 8.67997C49.1468 8.5982 49.2966 8.46609 49.4 8.3C49.5006 8.16951 49.5647 8.01464 49.5858 7.85123C49.6069 7.68782 49.5842 7.52175 49.52 7.37C49.5093 7.34538 49.4936 7.32318 49.4741 7.30474C49.4545 7.28629 49.4315 7.27198 49.4063 7.26264C49.3811 7.25331 49.3542 7.24915 49.3274 7.25041C49.3006 7.25168 49.2742 7.25834 49.25 7.27C49.2244 7.27953 49.2012 7.29448 49.1819 7.31382C49.1625 7.33316 49.1476 7.35645 49.1381 7.38208C49.1286 7.40771 49.1248 7.43508 49.1268 7.46234C49.1289 7.48959 49.1368 7.51608 49.15 7.54C49.1839 7.62664 49.1934 7.72089 49.1775 7.81255C49.1617 7.9042 49.121 7.98977 49.06 8.06C48.9993 8.15522 48.9148 8.23296 48.8148 8.28557C48.7149 8.33818 48.6029 8.36383 48.49 8.36C48.3907 8.34646 48.2952 8.31289 48.2092 8.26132C48.1233 8.20975 48.0487 8.14126 47.99 8.06C47.9103 7.96337 47.8514 7.85132 47.817 7.73087C47.7826 7.61042 47.7734 7.48416 47.79 7.36C47.8397 7.12146 47.9549 6.9015 48.1228 6.72484C48.2906 6.54819 48.5044 6.42184 48.74 6.36C49.4101 6.24026 50.0998 6.29889 50.74 6.53L50.97 6.59C53.2898 7.18005 55.7203 7.18005 58.04 6.59C57.5019 7.19402 57.0952 7.90324 56.8456 8.67272C56.596 9.44219 56.509 10.2551 56.59 11.06C56.7226 11.7806 56.9513 12.4802 57.27 13.14C56.7565 13.7232 56.4035 14.43 56.2457 15.1909C56.0879 15.9518 56.1308 16.7407 56.37 17.48C56.4286 17.7155 56.5708 17.9216 56.77 18.06C56.996 18.1447 57.2451 18.1447 57.4711 18.0602C57.6972 17.9756 57.885 17.8122 58 17.6C58.2824 17.0716 58.4376 16.4846 58.4533 15.8856C58.4689 15.2867 58.3445 14.6924 58.09 14.15C57.96 13.8 57.81 13.46 57.67 13.15C57.3223 12.4722 57.0731 11.7482 56.93 11C56.8582 10.1654 56.9725 9.32516 57.2648 8.54006C57.557 7.75495 58.0199 7.04451 58.62 6.46C58.6391 6.44065 58.654 6.41762 58.6638 6.39232C58.6737 6.36702 58.6783 6.33998 58.6773 6.31285C58.6764 6.28572 58.67 6.25906 58.6584 6.2345C58.6468 6.20994 58.6304 6.188 58.61 6.17V6.17Z" fill="#7A913A"/>
<path d="M29.75 52.76C28.3219 53.0003 26.866 53.0273 25.43 52.84C22.25 51.95 20.59 49.78 19.93 46.7C19.8199 45.6495 19.8199 44.5905 19.93 43.54C20.1364 42.3887 20.7682 41.3571 21.7 40.65C21.89 40.46 22.14 40.28 22.43 40.47C22.5661 40.5538 22.6758 40.6742 22.7465 40.8175C22.8173 40.9607 22.8462 41.121 22.83 41.28C22.77 42.45 23.01 42.74 24.22 43.04C24.6505 43.1642 25.1114 43.1271 25.5165 42.9356C25.9215 42.7441 26.2428 42.4115 26.42 42C26.6482 41.4055 26.7733 40.7765 26.79 40.14C27.13 35.78 27.51 31.43 27.84 27.08C27.96 25.58 28.02 24.08 28.05 22.59C28.05 21.36 27.93 21.27 26.83 21.68C24.91 22.4 22.99 23.12 21.09 23.89C20.0358 24.1888 19.0034 24.5597 18 25C17.9348 25.0488 17.86 25.083 17.7805 25.1004C17.701 25.1178 17.6187 25.118 17.5391 25.101C17.4595 25.0839 17.3845 25.05 17.3191 25.0015C17.2537 24.9531 17.1995 24.8912 17.16 24.82C16.98 24.48 17.16 24.19 17.46 24C17.797 23.7695 18.1514 23.5656 18.52 23.39C20.87 22.21 23.4 21.45 25.83 20.48C29.08 19.18 32.42 18.13 35.59 16.63C37.03 15.95 38.5 15.33 39.97 14.73C40.4555 14.5948 40.8864 14.3108 41.2022 13.918C41.5179 13.5252 41.7025 13.0432 41.73 12.54C41.7395 12.2167 41.8538 11.9053 42.0559 11.6527C42.2579 11.4001 42.5367 11.2202 42.85 11.14C43.1637 11.0647 43.4923 11.0791 43.7983 11.1817C44.1042 11.2843 44.3751 11.4708 44.58 11.72C44.8481 12.1191 44.9733 12.5973 44.9352 13.0766C44.8971 13.5559 44.6979 14.0083 44.37 14.36C43.8847 14.9763 43.21 15.4156 42.45 15.61C40.37 15.97 39.79 17.27 39.88 19.18C39.45 25.54 39.88 38.82 39.1 43.42C38.44 47.1 37.43 50.42 33.4 51.86C32.2293 52.3227 31.0016 52.6255 29.75 52.76V52.76ZM37 43.26C37.07 43.14 37.19 43.03 37.2 42.92C38.2 34.83 37.8 26.68 38.33 18.58C38.3942 18.2655 38.3665 17.9391 38.25 17.64C38.25 17.64 38.25 17.56 38.16 17.54C38.0935 17.5333 38.0265 17.5333 37.96 17.54C37.57 17.82 37.61 18.31 37.57 18.73C37.48 19.54 37.44 20.36 37.39 21.18C37 28.3 37 35.49 36.53 42.66C36.52 42.86 36.76 43.1 37 43.26Z" fill="#383529"/>
</g>
<defs>
<clipPath id="clip0">
<rect width="64" height="64" fill="white"/>
</clipPath>
</defs>
</svg>
