<svg width="64" height="64" viewBox="0 0 64 64" fill="none" xmlns="http://www.w3.org/2000/svg">
<g clip-path="url(#clip0)">
<path d="M63.94 64H-0.0599976V0H63.94V64ZM1.3 62.62H62.57V1.35H1.3V62.62Z" fill="#383529"/>
<path d="M61.39 2.63H2.48V61.54H61.39V2.63Z" fill="#FBFAF7"/>
<path d="M42.05 31.56C41.9765 31.5615 41.904 31.5426 41.8405 31.5056C41.777 31.4685 41.7249 31.4147 41.69 31.35C41.2778 30.496 41.069 29.5582 41.08 28.61C40.95 25.95 41.08 17.61 41.08 17.24C41.0807 17.1731 41.0975 17.1073 41.1288 17.0482C41.1601 16.989 41.2051 16.9382 41.26 16.9C41.26 16.9 42.87 15.81 43.86 14.97C44.85 14.13 45.97 12.55 45.74 11.32C45.7201 11.2126 45.7437 11.1017 45.8056 11.0117C45.8675 10.9216 45.9626 10.8599 46.07 10.84C46.1774 10.8201 46.2883 10.8437 46.3783 10.9056C46.4684 10.9675 46.5301 11.0626 46.55 11.17C46.85 12.83 45.55 14.59 44.39 15.6C43.55 16.31 42.34 17.15 41.89 17.46C41.89 18.81 41.75 26.17 41.89 28.57C41.876 29.408 42.0503 30.2384 42.4 31C42.4267 31.0459 42.444 31.0966 42.4509 31.1492C42.4578 31.2018 42.4541 31.2552 42.4402 31.3064C42.4262 31.3576 42.4022 31.4055 42.3696 31.4473C42.3369 31.4891 42.2963 31.524 42.25 31.55C42.1852 31.5698 42.1165 31.5733 42.05 31.56V31.56Z" fill="#B5B1A4" fill-opacity="0.96"/>
<path d="M30 51.6C29.92 51.6029 29.841 51.5818 29.7731 51.5393C29.7053 51.4968 29.6517 51.435 29.6194 51.3617C29.5871 51.2885 29.5775 51.2072 29.5919 51.1285C29.6062 51.0497 29.6439 50.9771 29.7 50.92C32.02 48.29 33.29 46.33 33.81 42.92C34.41 38.92 34.18 31.03 34.09 27.64C34.0887 27.5862 34.098 27.5326 34.1173 27.4823C34.1367 27.4321 34.1658 27.3861 34.203 27.3471C34.2401 27.3081 34.2846 27.2768 34.3338 27.255C34.3831 27.2332 34.4361 27.2213 34.49 27.22C34.598 27.2199 34.7019 27.2614 34.7801 27.3359C34.8583 27.4104 34.9048 27.5121 34.91 27.62C35 31 35.21 39 34.6 43C34.05 46.62 32.72 48.68 30.29 51.44C30.2559 51.4858 30.2124 51.5238 30.1623 51.5514C30.1123 51.579 30.057 51.5956 30 51.6V51.6Z" fill="#B5B1A4"/>
<path d="M33.9 24.31C33.7985 24.3083 33.701 24.2699 33.6256 24.2019C33.5503 24.1338 33.5021 24.0408 33.49 23.94C33.49 23.58 33.19 19.34 33.2 19.06C33.2015 18.9808 33.2258 18.9036 33.2702 18.838C33.3146 18.7723 33.377 18.7209 33.45 18.69C34.1379 18.4153 34.8427 18.1849 35.56 18C36 17.89 36.45 17.78 36.89 17.64C36.942 17.6206 36.9973 17.6119 37.0527 17.6145C37.1081 17.6172 37.1625 17.631 37.2124 17.6552C37.2623 17.6794 37.3068 17.7135 37.3431 17.7554C37.3795 17.7973 37.4069 17.8461 37.4239 17.899C37.4408 17.9518 37.4468 18.0075 37.4416 18.0627C37.4364 18.1179 37.42 18.1715 37.3935 18.2202C37.3669 18.269 37.3308 18.3118 37.2872 18.3461C37.2436 18.3804 37.1936 18.4056 37.14 18.42C36.67 18.57 36.21 18.69 35.76 18.8C35.1736 18.9349 34.5958 19.1052 34.03 19.31C34.03 20.26 34.27 23.4 34.31 23.82C34.3185 23.9283 34.2847 24.0357 34.2157 24.1196C34.1467 24.2035 34.0479 24.2574 33.94 24.27L33.9 24.31Z" fill="#B5B1A4" fill-opacity="0.96"/>
<path d="M48.47 22.83H48.55C49.1306 22.8091 49.6799 22.5614 50.08 22.14C50.3115 21.9137 50.4981 21.6456 50.63 21.35C50.6958 21.5199 50.7761 21.6839 50.87 21.84C51.0554 22.1598 51.288 22.4497 51.56 22.7C51.2339 22.8519 50.9618 23.0996 50.78 23.41C50.4372 23.9841 50.3297 24.6685 50.48 25.32C50.832 26.3325 51.4421 27.2355 52.25 27.94C52.2869 27.9777 52.3372 27.9992 52.39 28H52.45C52.4852 27.991 52.5172 27.9721 52.542 27.9455C52.5668 27.9189 52.5835 27.8858 52.59 27.85C52.9895 26.3256 52.9233 24.7165 52.4 23.23C52.5575 23.295 52.7219 23.342 52.89 23.37H53.17C53.5755 23.3783 53.9729 23.2552 54.3027 23.0191C54.6325 22.783 54.8771 22.4465 55 22.06C55.0122 22.007 55.0034 21.9514 54.9755 21.9047C54.9475 21.8581 54.9025 21.8241 54.85 21.81C54.797 21.7978 54.7414 21.8066 54.6947 21.8345C54.6481 21.8625 54.6141 21.9075 54.6 21.96C54.4971 22.2932 54.2807 22.5797 53.9883 22.7697C53.696 22.9598 53.3462 23.0413 53 23C52.6306 22.9219 52.283 22.7631 51.9822 22.5349C51.6814 22.3067 51.4347 22.0147 51.26 21.68C51.0538 21.3293 50.9052 20.9478 50.82 20.55C50.6063 19.726 50.6696 18.8545 51 18.07C51.5223 17.0822 52.2442 16.2139 53.12 15.52C53.4 15.26 53.69 14.99 53.97 14.71C54.5524 14.1366 55.0207 13.458 55.35 12.71C55.41 12.57 55.45 12.43 55.5 12.29V12.23C55.5678 12.0666 55.6699 11.9195 55.7992 11.7988C55.9286 11.6781 56.0823 11.5864 56.25 11.53C56.4161 11.4813 56.5904 11.4669 56.7623 11.4875C56.9342 11.5081 57.1001 11.5634 57.25 11.65C57.2973 11.674 57.3516 11.6802 57.4031 11.6673C57.4545 11.6545 57.4996 11.6235 57.53 11.58C57.5547 11.5312 57.5612 11.4753 57.5484 11.4221C57.5356 11.369 57.5042 11.3221 57.46 11.29C57.2559 11.1727 57.0297 11.0989 56.7957 11.073C56.5616 11.0472 56.3248 11.07 56.1 11.14C55.9106 11.2045 55.7344 11.3028 55.58 11.43C55.5922 11.0731 55.538 10.7171 55.42 10.38C55.4111 10.3548 55.3972 10.3317 55.3793 10.312C55.3613 10.2923 55.3395 10.2764 55.3153 10.2652C55.2911 10.254 55.2648 10.2478 55.2382 10.2469C55.2115 10.246 55.1849 10.2505 55.16 10.26C55.1349 10.2689 55.1117 10.2828 55.092 10.3007C55.0723 10.3187 55.0564 10.3405 55.0452 10.3647C55.034 10.3889 55.0278 10.4152 55.0269 10.4418C55.026 10.4685 55.0305 10.4951 55.04 10.52C55.63 12.19 54.04 13.91 53.61 14.39L52.86 15.11C52.9787 14.147 52.9787 13.173 52.86 12.21C52.7816 11.7536 52.6052 11.3196 52.3427 10.9381C52.0803 10.5565 51.7382 10.2364 51.34 10C51.3123 9.98512 51.2814 9.97733 51.25 9.97733C51.2186 9.97733 51.1877 9.98512 51.16 10C51.1311 10.0118 51.1058 10.0309 51.0865 10.0554C51.0672 10.08 51.0546 10.1091 51.05 10.14C50.8634 11.0971 50.9008 12.0845 51.1593 13.0248C51.4178 13.9651 51.8903 14.8328 52.54 15.56C51.7493 16.2138 51.1025 17.0241 50.64 17.94C50.2743 18.7769 50.1833 19.7081 50.38 20.6C50.3465 21.0874 50.1358 21.5456 49.7876 21.8883C49.4394 22.2309 48.9778 22.4343 48.49 22.46C48.4359 22.4572 48.3828 22.4754 48.3418 22.5108C48.3008 22.5462 48.2751 22.5961 48.27 22.65C48.2787 22.6979 48.3031 22.7416 48.3393 22.7741C48.3755 22.8067 48.4214 22.8264 48.47 22.83Z" fill="#7A913A"/>
<path d="M28.39 12.71C28.5146 13.1615 28.7432 13.5776 29.0575 13.9249C29.3718 14.2722 29.7631 14.5411 30.2 14.71C30.6646 14.9455 31.1791 15.0656 31.7 15.06C32.1796 15.0619 32.6539 14.9595 33.09 14.76C33.1321 14.7425 33.1669 14.7111 33.1887 14.6711C33.2105 14.6311 33.2181 14.5849 33.21 14.54C33.1208 14.0659 32.9225 13.6191 32.6308 13.2349C32.3391 12.8506 31.9621 12.5395 31.5295 12.3261C31.0968 12.1127 30.6205 12.0028 30.1381 12.0053C29.6557 12.0077 29.1805 12.1223 28.75 12.34C29.1367 11.9324 29.4212 11.4389 29.58 10.9C29.7733 10.221 29.7402 9.49756 29.4858 8.83903C29.2315 8.1805 28.7696 7.62271 28.17 7.25C28.1231 7.22752 28.0695 7.22326 28.0196 7.23804C27.9697 7.25282 27.9271 7.28559 27.9 7.33C27.886 7.35344 27.877 7.37948 27.8735 7.40652C27.87 7.43357 27.872 7.46105 27.8795 7.48728C27.887 7.5135 27.8998 7.53792 27.9171 7.55902C27.9344 7.58013 27.9558 7.59748 27.98 7.61C28.5006 7.93861 28.9008 8.42698 29.1208 9.00201C29.3407 9.57705 29.3685 10.2078 29.2 10.8C29.0038 11.3935 28.6577 11.9263 28.1952 12.3467C27.7327 12.7672 27.1694 13.0611 26.56 13.2C25.3111 13.4618 24.0094 13.2479 22.91 12.6C22.464 12.3309 22.0333 12.0371 21.62 11.72C21.0024 11.2434 20.3312 10.8406 19.62 10.52C19.7695 10.4429 19.9075 10.3452 20.03 10.23C20.1164 10.2404 20.2036 10.2404 20.29 10.23C20.7041 10.1996 21.1081 10.0877 21.4788 9.90065C21.8495 9.71359 22.1796 9.45508 22.45 9.14C22.7318 8.80788 22.9179 8.40532 22.9884 7.97548C23.0589 7.54564 23.011 7.10472 22.85 6.7C22.8383 6.65766 22.8115 6.62106 22.7746 6.59712C22.7378 6.57317 22.6935 6.56353 22.65 6.57C22.3002 6.61104 21.9664 6.73981 21.6797 6.94436C21.393 7.14891 21.1626 7.42259 21.01 7.74C20.8606 8.00521 20.727 8.27902 20.61 8.56C20.4802 8.86 20.3298 9.15069 20.16 9.43C20.0664 9.57018 19.9592 9.70081 19.84 9.82C19.6032 10.0765 19.2781 10.2337 18.93 10.26C18.0805 10.1031 17.2041 10.1824 16.3966 10.4892C15.589 10.796 14.8811 11.3186 14.35 12C14.3099 11.3402 14.08 10.706 13.6879 10.1737C13.2958 9.64151 12.7583 9.23391 12.14 9C11.6604 8.84216 11.1476 8.81454 10.6538 8.91996C10.1601 9.02539 9.70326 9.26007 9.33 9.6C8.96552 9.95176 8.70819 10.3996 8.58784 10.8916C8.46749 11.3837 8.48904 11.8997 8.65 12.38C8.82837 12.8584 9.14949 13.2704 9.56984 13.5601C9.99019 13.8499 10.4895 14.0035 11 14C11.0539 13.9974 11.1048 13.9742 11.1421 13.9351C11.1793 13.896 11.2001 13.844 11.2 13.79C11.195 13.7352 11.1696 13.6842 11.1289 13.6472C11.0882 13.6102 11.035 13.5898 10.98 13.59C10.5485 13.6031 10.1238 13.4809 9.76517 13.2406C9.40655 13.0004 9.13203 12.654 8.98 12.25C8.84351 11.846 8.82463 11.4116 8.92555 10.9973C9.02646 10.583 9.24302 10.2059 9.55 9.91C9.8764 9.61527 10.2758 9.41343 10.7067 9.3255C11.1376 9.23756 11.5842 9.26674 12 9.41C12.5694 9.61093 13.0649 9.979 13.4217 10.4661C13.7785 10.9531 13.9801 11.5365 14 12.14C14.0319 13.0857 13.7546 14.0161 13.21 14.79C13.0617 15.0202 12.8945 15.2377 12.71 15.44C11.8503 16.332 10.8332 17.0575 9.71 17.58C9.68538 17.5908 9.66318 17.6064 9.64474 17.6259C9.62629 17.6455 9.61197 17.6686 9.60264 17.6938C9.5933 17.719 9.58915 17.7458 9.59041 17.7726C9.59167 17.7995 9.59834 17.8258 9.61 17.85C9.62796 17.8852 9.65508 17.915 9.68852 17.9361C9.72195 17.9572 9.76047 17.9689 9.8 17.97H9.89C10.9955 17.477 12.0097 16.8008 12.89 15.97C12.6182 16.6878 12.3043 17.3891 11.95 18.07C11.73 18.5 11.47 19 11.26 19.53C11.0275 19.9961 10.8561 20.4901 10.75 21C10.6596 21.5559 10.7032 22.1254 10.8772 22.661C11.0511 23.1967 11.3503 23.6832 11.75 24.08C11.9325 24.2684 12.1783 24.3824 12.44 24.4C12.513 24.4104 12.587 24.4104 12.66 24.4C12.8165 24.3302 12.9506 24.2186 13.0477 24.0775C13.1447 23.9363 13.2009 23.7711 13.21 23.6C13.3536 22.8277 13.2864 22.0309 13.0154 21.2935C12.7444 20.5562 12.2796 19.9055 11.67 19.41V19.41C11.85 18.98 12.06 18.56 12.25 18.2C12.7831 17.1791 13.2119 16.107 13.53 15C13.9943 14.3109 14.2796 13.517 14.36 12.69V12.64C14.8085 11.9292 15.4565 11.3661 16.2229 11.0211C16.9894 10.6761 17.8405 10.5644 18.67 10.7C18.6994 10.7086 18.7306 10.7086 18.76 10.7H18.87C19.0449 10.7314 19.2159 10.7817 19.38 10.85C20.0954 11.1541 20.7679 11.5508 21.38 12.03C21.801 12.3618 22.2455 12.6626 22.71 12.93C23.5747 13.4265 24.5529 13.6917 25.55 13.7C25.9239 13.7023 26.2967 13.6587 26.66 13.57C27.2973 13.4263 27.8907 13.1314 28.39 12.71V12.71Z" fill="#7A913A"/>
<path d="M11.2 36.91C11.3146 37.3923 11.5406 37.8409 11.86 38.22C12.0111 38.3838 12.1932 38.5158 12.3958 38.6085C12.5983 38.7012 12.8173 38.7527 13.04 38.76C13.1264 38.7698 13.2136 38.7698 13.3 38.76C13.479 38.7199 13.6475 38.6421 13.7941 38.5317C13.9406 38.4214 14.062 38.281 14.15 38.12C14.2791 37.8967 14.3624 37.65 14.3951 37.3941C14.4277 37.1383 14.409 36.8785 14.34 36.63C14.0403 35.87 13.539 35.2062 12.89 34.71L12.26 34.14L11.7 33.65C11.8909 33.1621 12.2043 32.7316 12.61 32.4C13.2006 31.9326 13.927 31.6694 14.68 31.65C15.4902 31.6215 16.2999 31.7194 17.08 31.94C17.9819 32.1504 18.8278 32.5529 19.56 33.12C19.912 33.3932 20.1988 33.7413 20.3994 34.1392C20.6001 34.537 20.7096 34.9745 20.72 35.42C20.7186 35.4471 20.7228 35.4742 20.7323 35.4996C20.7417 35.525 20.7562 35.5483 20.7749 35.5679C20.7936 35.5876 20.8161 35.6032 20.8411 35.6139C20.866 35.6245 20.8929 35.63 20.92 35.63V35.63C20.973 35.63 21.0239 35.6089 21.0614 35.5714C21.0989 35.5339 21.12 35.483 21.12 35.43C21.1106 34.9229 20.9892 34.4241 20.7644 33.9695C20.5397 33.5148 20.2172 33.1154 19.82 32.8C19.0357 32.2056 18.1368 31.78 17.18 31.55C16.3999 31.328 15.591 31.2235 14.78 31.24C14.3157 30.5265 14.1044 29.6779 14.18 28.83C14.3724 28.0665 14.8573 27.4092 15.53 27C15.5534 26.9866 15.5738 26.9686 15.5901 26.9471C15.6064 26.9256 15.6182 26.9011 15.6247 26.8749C15.6312 26.8488 15.6324 26.8216 15.6282 26.7949C15.6239 26.7683 15.6143 26.7428 15.6 26.72C15.5866 26.6966 15.5686 26.6762 15.5471 26.6599C15.5256 26.6436 15.5011 26.6318 15.4749 26.6253C15.4488 26.6188 15.4216 26.6176 15.3949 26.6218C15.3683 26.6261 15.3428 26.6357 15.32 26.65C14.5604 27.1057 14.0108 27.8421 13.79 28.7C13.6878 29.581 13.8813 30.471 14.34 31.23C13.6091 31.3011 12.9144 31.5824 12.34 32.04C11.8591 32.4323 11.4929 32.947 11.28 33.53C11.2697 33.5659 11.2697 33.6041 11.28 33.64C10.9099 34.6944 10.8819 35.8387 11.2 36.91V36.91Z" fill="#7A913A"/>
<path d="M10 21.06C10.0398 20.9649 10.056 20.8616 10.0473 20.7589C10.0386 20.6561 10.0052 20.557 9.95 20.47C9.77 20.26 9.46 20.26 9.13 20.47C8.31531 21.0731 7.69343 21.9 7.34 22.85C7.2913 22.519 7.27123 22.1844 7.28 21.85C7.28135 21.8224 7.27724 21.7948 7.26791 21.7688C7.25858 21.7428 7.24422 21.7189 7.22564 21.6985C7.20706 21.6781 7.18464 21.6615 7.15965 21.6498C7.13466 21.638 7.10759 21.6313 7.08 21.63C7.05291 21.6286 7.02582 21.6328 7.00039 21.6423C6.97496 21.6517 6.95172 21.6662 6.93207 21.6849C6.91243 21.7036 6.8968 21.7261 6.88613 21.7511C6.87546 21.776 6.86997 21.8029 6.87 21.83C6.82961 23.2102 7.27957 24.5601 8.14 25.64C7.65531 26.1929 7.31214 26.8552 7.14 27.57C6.65693 28.9286 6.52955 30.3882 6.77 31.81C6.77201 31.8506 6.78522 31.8898 6.80817 31.9234C6.83111 31.9569 6.8629 31.9834 6.9 32V32C6.95228 31.988 6.99798 31.9564 7.02773 31.9118C7.05748 31.8672 7.06903 31.8129 7.06 31.76C6.83793 30.4177 6.96183 29.041 7.42 27.76C7.58541 27.1014 7.91579 26.4957 8.38 26C8.50568 26.1408 8.63923 26.2743 8.78 26.4C9.03009 26.646 9.34047 26.8219 9.68 26.91H9.93C10.1242 26.9277 10.3189 26.8819 10.4848 26.7794C10.6507 26.6769 10.7788 26.5233 10.8498 26.3417C10.9209 26.1601 10.9311 25.9603 10.8788 25.7725C10.8265 25.5846 10.7146 25.4188 10.56 25.3C10.4037 25.1727 10.2221 25.08 10.0273 25.0283C9.83248 24.9766 9.62886 24.9669 9.43 25C9.06813 25.0463 8.724 25.184 8.43 25.4C7.96831 24.8243 7.62813 24.1609 7.43 23.45V23.45C8.02918 23.3094 8.58135 23.015 9.03203 22.5959C9.48272 22.1768 9.81635 21.6474 10 21.06V21.06ZM9.5 25.36C9.6429 25.3358 9.78934 25.3429 9.9292 25.3809C10.0691 25.4189 10.199 25.4868 10.31 25.58C10.4031 25.6636 10.4655 25.776 10.4873 25.8993C10.509 26.0226 10.4889 26.1495 10.43 26.26C10.3561 26.3514 10.257 26.419 10.145 26.4546C10.033 26.4901 9.91306 26.492 9.8 26.46C9.51545 26.3718 9.25757 26.2137 9.05 26C8.91935 25.8878 8.79578 25.7675 8.68 25.64C8.91659 25.4837 9.18779 25.3876 9.47 25.36H9.5Z" fill="#7A913A"/>
<path d="M41.7 45.91C41.8835 45.9944 42.083 46.0381 42.285 46.0381C42.487 46.0381 42.6865 45.9944 42.87 45.91C43.2111 45.7671 43.508 45.5358 43.73 45.24C44.328 45.6691 44.8345 46.213 45.22 46.84V46.84C44.6958 47.1483 44.2595 47.5861 43.9531 48.1114C43.6466 48.6367 43.4803 49.2319 43.47 49.84C43.4575 49.9404 43.4701 50.0423 43.5068 50.1365C43.5434 50.2308 43.603 50.3145 43.68 50.38C43.91 50.54 44.21 50.45 44.47 50.15C45.083 49.3452 45.4479 48.3791 45.52 47.37C45.6685 47.6913 45.7857 48.0262 45.87 48.37C45.8746 48.3963 45.8846 48.4214 45.8995 48.4435C45.9144 48.4657 45.9338 48.4844 45.9565 48.4986C45.9791 48.5128 46.0045 48.522 46.031 48.5257C46.0574 48.5293 46.0843 48.5274 46.11 48.52C46.1367 48.5142 46.1619 48.503 46.1841 48.4871C46.2063 48.4712 46.225 48.4509 46.2391 48.4274C46.2531 48.404 46.2622 48.378 46.2658 48.3509C46.2694 48.3238 46.2674 48.2963 46.26 48.27C45.9359 46.909 45.1339 45.7096 44 44.89L44.12 44.65C44.12 44.65 43.78 44.5 43.67 44.65C43.5088 44.5502 43.3418 44.4601 43.17 44.38C42.8619 44.218 42.5181 44.1355 42.17 44.14H41.93C41.7753 44.1813 41.6328 44.2592 41.5144 44.3671C41.3961 44.475 41.3054 44.6098 41.25 44.76C41.1854 44.9744 41.1947 45.2042 41.2763 45.4128C41.3579 45.6213 41.5071 45.7964 41.7 45.91ZM41.58 44.91C41.6252 44.8011 41.7014 44.7079 41.7993 44.6421C41.8971 44.5763 42.0121 44.5408 42.13 44.54C42.4119 44.5423 42.6894 44.6108 42.94 44.74C43.0941 44.8156 43.2443 44.8991 43.39 44.99C43.2172 45.2201 42.9858 45.3997 42.72 45.51C42.5872 45.5667 42.4444 45.5959 42.3 45.5959C42.1556 45.5959 42.0128 45.5667 41.88 45.51C41.7766 45.4557 41.6924 45.3709 41.6387 45.2672C41.5851 45.1635 41.5646 45.0458 41.58 44.93V44.91Z" fill="#7A913A"/>
<path d="M39.69 39.82H39.75C40.0215 39.8115 40.2874 39.7403 40.5268 39.6119C40.7662 39.4835 40.9727 39.3015 41.13 39.08C41.284 38.8815 41.3888 38.6493 41.4357 38.4025C41.4826 38.1556 41.4704 37.9012 41.4 37.66C41.3179 37.405 41.1486 37.1871 40.9219 37.0445C40.6951 36.9018 40.4254 36.8436 40.16 36.88C40.016 36.9169 39.8821 36.9854 39.7679 37.0805C39.6538 37.1757 39.5622 37.295 39.5 37.43C39.4403 37.546 39.4092 37.6746 39.4092 37.805C39.4092 37.9354 39.4403 38.064 39.5 38.18C39.5138 38.203 39.532 38.223 39.5535 38.239C39.575 38.2549 39.5995 38.2665 39.6255 38.273C39.6515 38.2795 39.6785 38.2808 39.705 38.2769C39.7315 38.2729 39.757 38.2638 39.78 38.25C39.803 38.2362 39.823 38.218 39.839 38.1965C39.8549 38.175 39.8665 38.1505 39.873 38.1245C39.8795 38.0985 39.8808 38.0715 39.8769 38.045C39.8729 38.0185 39.8638 37.993 39.85 37.97C39.8201 37.9111 39.8046 37.846 39.8046 37.78C39.8046 37.714 39.8201 37.6489 39.85 37.59C39.8817 37.5139 39.9308 37.4462 39.9933 37.3924C40.0558 37.3386 40.13 37.3001 40.21 37.28C40.3772 37.2651 40.5444 37.3075 40.6843 37.4001C40.8242 37.4928 40.9285 37.6303 40.98 37.79C41.025 37.9696 41.0294 38.157 40.9931 38.3386C40.9568 38.5202 40.8806 38.6915 40.77 38.84C40.647 39.0151 40.4839 39.1583 40.2943 39.2575C40.1046 39.3566 39.894 39.4089 39.68 39.41C39.4788 39.4032 39.2851 39.3313 39.1282 39.2051C38.9714 39.0789 38.8597 38.9051 38.81 38.71C38.8002 38.6559 38.7696 38.6078 38.7247 38.576C38.6798 38.5442 38.6243 38.5313 38.57 38.54H38.49C38.4426 38.5474 38.3997 38.5724 38.37 38.61C37.9266 39.1027 37.5592 39.6588 37.28 40.26V40.26C36.7848 41.3222 36.5475 42.4863 36.5875 43.6576C36.6274 44.8288 36.9435 45.9741 37.51 47C37.5493 47.0811 37.6068 47.1521 37.6778 47.2076C37.7489 47.2631 37.8317 47.3015 37.92 47.32V47.32C38.05 47.32 38.23 47.25 38.38 46.95C38.8991 45.8921 39.1105 44.7097 38.9903 43.5375C38.8701 42.3653 38.423 41.2505 37.7 40.32C37.9178 39.8718 38.1899 39.452 38.51 39.07C38.6195 39.2908 38.7873 39.4775 38.9953 39.6097C39.2034 39.7419 39.4436 39.8146 39.69 39.82Z" fill="#7A913A"/>
<path d="M56.33 50.47C56.5993 49.5213 56.9506 48.5978 57.38 47.71C57.62 47.18 57.86 46.62 58.07 46.06C58.7642 44.5518 58.8606 42.8365 58.34 41.26C58.1378 40.8004 57.845 40.3864 57.479 40.0428C57.113 39.6991 56.6814 39.4329 56.21 39.26C56.7555 38.4791 57.0885 37.5697 57.1761 36.6212C57.2638 35.6727 57.1032 34.7176 56.71 33.85C56.6964 33.8156 56.6731 33.786 56.6429 33.7647C56.6127 33.7433 56.5769 33.7313 56.54 33.73C56.5023 33.728 56.4647 33.7363 56.4312 33.7539C56.3978 33.7715 56.3697 33.7978 56.35 33.83C55.876 34.6185 55.5739 35.4982 55.4636 36.4116C55.3533 37.325 55.4373 38.2513 55.71 39.13C55.2076 39.0341 54.6879 39.0934 54.22 39.3C53.7756 39.5189 53.3924 39.8444 53.1045 40.2475C52.8166 40.6506 52.6329 41.1187 52.57 41.61C52.5583 41.6389 52.5583 41.6711 52.57 41.7V41.7C52.57 41.84 52.57 41.98 52.57 42.11C52.4972 42.7366 52.2112 43.3192 51.76 43.76C51.4687 43.9921 51.1234 44.1468 50.7562 44.2098C50.3891 44.2727 50.012 44.2418 49.66 44.12C49.6351 44.1105 49.6085 44.106 49.5818 44.1069C49.5551 44.1078 49.5289 44.114 49.5047 44.1252C49.4805 44.1364 49.4587 44.1523 49.4407 44.172C49.4228 44.1917 49.4089 44.2148 49.4 44.24C49.3804 44.2917 49.382 44.3491 49.4045 44.3997C49.4269 44.4502 49.4685 44.4899 49.52 44.51C49.794 44.6019 50.081 44.6491 50.37 44.65C50.9687 44.6526 51.5505 44.4516 52.02 44.08C52.2632 43.8704 52.4635 43.6157 52.61 43.33C52.6327 43.5184 52.6661 43.7054 52.71 43.89C52.84 44.4 53.24 45.6 54.28 45.7C54.6461 45.6987 55.0015 45.5764 55.2909 45.3521C55.5802 45.1278 55.7874 44.8142 55.88 44.46C56.0364 43.8025 56.0364 43.1175 55.88 42.46C55.8725 42.406 55.8443 42.3571 55.8014 42.3235C55.7585 42.2899 55.7042 42.2743 55.65 42.28C55.5959 42.2898 55.5478 42.3204 55.516 42.3653C55.4842 42.4101 55.4713 42.4657 55.48 42.52C55.6152 43.1158 55.6152 43.7342 55.48 44.33C55.4257 44.6057 55.2794 44.8548 55.065 45.0365C54.8506 45.2182 54.5809 45.3217 54.3 45.33C53.51 45.26 53.18 44.17 53.1 43.84C52.9682 43.304 52.9243 42.7501 52.97 42.2C52.9788 42.0702 52.9788 41.9399 52.97 41.81C53.0127 41.359 53.1678 40.9259 53.4211 40.5503C53.6744 40.1747 54.0179 39.8686 54.42 39.66C54.8951 39.4582 55.4261 39.4299 55.92 39.58C56.3792 39.7148 56.8034 39.9485 57.1627 40.2646C57.522 40.5807 57.8078 40.9717 58 41.41C58.4804 42.8938 58.384 44.5041 57.73 45.92C57.52 46.47 57.28 47.01 57.04 47.55C56.6094 48.4603 56.2516 49.4032 55.97 50.37C55.8047 51.0238 55.7208 51.6956 55.72 52.37C55.5384 52.0333 55.298 51.7318 55.01 51.48V51.43H54.92C54.8077 51.3499 54.6908 51.2765 54.57 51.21C53.8563 50.884 53.1034 50.652 52.33 50.52L51.68 50.38C50.7396 50.2262 49.8736 49.7739 49.21 49.09C49.1831 49.0567 49.1463 49.0329 49.1049 49.0221C49.0635 49.0113 49.0197 49.0141 48.98 49.03C48.9376 49.0417 48.901 49.0685 48.8771 49.1054C48.8532 49.1422 48.8435 49.1865 48.85 49.23C48.886 49.8758 49.0893 50.5011 49.4399 51.0446C49.7905 51.5881 50.2765 52.031 50.85 52.33C51.2734 52.5232 51.7347 52.6188 52.2 52.61C53.1173 52.5973 54.0159 52.3494 54.81 51.89C55.3187 52.4222 55.6656 53.0881 55.81 53.81C55.9767 54.8917 56.3357 55.9348 56.87 56.89C55.0034 55.8173 52.8098 55.4618 50.7 55.89C49.5675 56.0888 48.446 56.3458 47.34 56.66L45.63 57.1C43.8094 55.6343 41.5145 54.8871 39.18 55C39.1358 54.999 39.0927 55.0134 39.058 55.0408C39.0233 55.0682 38.9993 55.1068 38.99 55.15C38.9074 55.6144 38.9743 56.0931 39.1809 56.5172C39.3875 56.9412 39.7233 57.2888 40.14 57.51C40.9409 57.91 41.8404 58.0697 42.73 57.97C43.698 57.9048 44.6584 57.7542 45.6 57.52C46.21 57.38 46.83 57.21 47.42 57.06C48.5118 56.7455 49.6201 56.4918 50.74 56.3C53.65 55.84 56.22 56.51 57.62 58.09C57.72 58.23 57.83 58.37 57.96 58.52H58.17V58.34C58.0665 58.186 57.9529 58.039 57.83 57.9C56.9308 56.7295 56.3332 55.3558 56.09 53.9C56.0947 53.8803 56.0947 53.8597 56.09 53.84V53.84C55.9316 52.7123 56.0134 51.5639 56.33 50.47V50.47Z" fill="#7A913A"/>
<path d="M21.59 56.76C20.4531 56.3066 19.224 56.1327 18.006 56.2528C16.7879 56.3728 15.6165 56.7834 14.59 57.45C13.7079 57.1997 12.8709 56.8116 12.11 56.3C12.3557 56.0536 12.5706 55.7782 12.75 55.48C12.88 55.26 13 55.03 13.11 54.8C13.3294 54.2673 13.6722 53.7944 14.11 53.42C15.02 52.78 16.37 53.22 17.31 53.94H17.43V53.84C16.2278 52.5089 14.7774 51.4253 13.16 50.65C12.51 50.29 11.84 49.91 11.23 49.5C10.2195 48.8274 9.33313 47.9849 8.60999 47.01C8.81964 47.0606 9.03433 47.0875 9.24999 47.09C9.90129 47.035 10.5299 46.8247 11.0832 46.4767C11.6365 46.1287 12.0983 45.6532 12.43 45.09C12.5935 44.9161 12.6894 44.6895 12.7004 44.4511C12.7114 44.2127 12.6368 43.9782 12.49 43.79C12.3827 43.6929 12.2556 43.6203 12.1174 43.5771C11.9793 43.534 11.8335 43.5213 11.69 43.54C10.8662 43.5947 10.083 43.9176 9.46003 44.4593C8.83704 45.001 8.40854 45.7318 8.23999 46.54C7.54197 45.4829 7.04373 44.3068 6.76999 43.07C6.59752 42.4145 6.59752 41.7255 6.76999 41.07C6.84983 40.7679 7.01481 40.4951 7.24529 40.2842C7.47577 40.0732 7.76204 39.9329 8.06999 39.88C8.09718 39.8788 8.12383 39.872 8.14831 39.8601C8.17279 39.8483 8.19459 39.8315 8.21238 39.8109C8.23017 39.7903 8.24356 39.7663 8.25175 39.7404C8.25994 39.7144 8.26274 39.6871 8.25999 39.66C8.25749 39.6337 8.2498 39.6081 8.23737 39.5848C8.22493 39.5615 8.20799 39.5409 8.18754 39.5241C8.16708 39.5074 8.14351 39.4949 8.11818 39.4873C8.09286 39.4797 8.06628 39.4772 8.03999 39.48C7.64915 39.534 7.28301 39.7023 6.98763 39.9639C6.69225 40.2255 6.48084 40.5686 6.37999 40.95C6.19234 41.6679 6.19234 42.4221 6.37999 43.14C7.00226 45.8945 8.66002 48.3041 11.01 49.87C11.63 50.28 12.31 50.67 13.01 51.04C14.1529 51.6349 15.2319 52.3453 16.23 53.16C15.8396 52.9775 15.4095 52.8964 14.9795 52.9244C14.5494 52.9524 14.1334 53.0884 13.77 53.32C13.2757 53.7272 12.8937 54.2538 12.66 54.85C12.55 55.07 12.43 55.3 12.31 55.5C12.1078 55.8368 11.8548 56.1403 11.56 56.4V56.4C11.0256 56.8807 10.3817 57.2232 9.68437 57.3975C8.98708 57.5719 8.25769 57.5727 7.55999 57.4C6.94914 57.2359 6.40414 56.8866 5.99999 56.4C5.80464 56.1719 5.66645 55.9005 5.59689 55.6084C5.52733 55.3162 5.52839 55.0117 5.59999 54.72C5.66457 54.4961 5.77912 54.2897 5.93502 54.1165C6.09091 53.9433 6.28409 53.8077 6.49999 53.72C6.70586 53.6208 6.93146 53.5692 7.15999 53.5692C7.38853 53.5692 7.61412 53.6208 7.81999 53.72C8.01781 53.8324 8.18902 53.9862 8.32192 54.1709C8.45481 54.3555 8.54625 54.5667 8.58999 54.79C8.64342 55.0138 8.646 55.2468 8.59754 55.4718C8.54909 55.6967 8.45083 55.908 8.30999 56.09C8.27335 56.1274 8.25282 56.1776 8.25282 56.23C8.25282 56.2824 8.27335 56.3326 8.30999 56.37C8.32868 56.3897 8.35117 56.4053 8.37609 56.416C8.40102 56.4267 8.42786 56.4323 8.45499 56.4323C8.48212 56.4323 8.50896 56.4267 8.53389 56.416C8.55882 56.4053 8.58131 56.3897 8.59999 56.37C8.81568 56.1276 8.96568 55.8339 9.0357 55.5171C9.10572 55.2002 9.09343 54.8707 8.99999 54.56C8.94253 54.2741 8.82325 54.0043 8.65051 53.7693C8.47777 53.5344 8.25574 53.3401 7.99999 53.2C7.73725 53.0799 7.45218 53.0164 7.1633 53.0136C6.87441 53.0109 6.58818 53.0689 6.32318 53.1839C6.05819 53.299 5.82035 53.4685 5.62513 53.6814C5.4299 53.8944 5.28164 54.146 5.18999 54.42C5.11162 54.7679 5.11415 55.1291 5.19736 55.4758C5.28058 55.8226 5.44228 56.1456 5.66999 56.42C6.13304 56.9577 6.75145 57.3385 7.43999 57.51C7.82046 57.6184 8.21439 57.6723 8.60999 57.67C9.74947 57.666 10.8522 57.2666 11.73 56.54C12.5676 57.1232 13.5021 57.5532 14.49 57.81V57.81C15.3856 58.0588 16.3105 58.1866 17.24 58.19C18.7626 58.2112 20.2637 57.8282 21.59 57.08C21.6234 57.062 21.6514 57.0354 21.6709 57.0028C21.6903 56.9702 21.7006 56.933 21.7006 56.895C21.7006 56.857 21.6903 56.8198 21.6709 56.7872C21.6514 56.7546 21.6234 56.728 21.59 56.71V56.76Z" fill="#7A913A"/>
<path d="M37.05 56C36.0196 55.7236 34.9256 55.8083 33.95 56.24C33.984 56.1821 34.014 56.1219 34.04 56.06C34.2157 55.6459 34.3562 55.2177 34.46 54.78C34.5732 54.2258 34.7722 53.6927 35.05 53.2C35.4173 52.6728 35.965 52.2983 36.5895 52.1472C37.2141 51.9962 37.8723 52.079 38.44 52.38C38.4871 52.4001 38.5399 52.4024 38.5885 52.3863C38.6371 52.3702 38.6782 52.3369 38.704 52.2927C38.7297 52.2485 38.7385 52.1964 38.7286 52.1462C38.7186 52.0959 38.6907 52.0511 38.65 52.02C37.9828 51.677 37.2133 51.5894 36.486 51.7735C35.7587 51.9576 35.1237 52.4008 34.7 53.02C34.401 53.5471 34.1851 54.1171 34.06 54.71C33.971 55.1286 33.8403 55.5373 33.67 55.93C33.5471 56.1974 33.3927 56.4492 33.21 56.68V56.68C32.5926 57.4148 31.7768 57.9563 30.86 58.24C30.3353 58.2737 29.8096 58.1918 29.32 58C29.0722 57.9289 28.8441 57.8017 28.6534 57.6283C28.4626 57.4549 28.3143 57.2399 28.22 57C28.1529 56.7624 28.176 56.5084 28.2849 56.2869C28.3939 56.0653 28.5809 55.8919 28.81 55.8C28.931 55.7719 29.0572 55.7755 29.1763 55.8105C29.2955 55.8456 29.4035 55.9108 29.49 56C29.5639 56.0648 29.6194 56.1479 29.651 56.2409C29.6826 56.3339 29.6891 56.4336 29.67 56.53C29.6578 56.583 29.6666 56.6386 29.6945 56.6853C29.7225 56.7319 29.7675 56.7659 29.82 56.78C29.873 56.7922 29.9286 56.7834 29.9753 56.7554C30.0219 56.7275 30.0559 56.6825 30.07 56.63C30.1019 56.4638 30.0912 56.2922 30.0387 56.1313C29.9862 55.9704 29.8938 55.8254 29.77 55.71C29.6328 55.5687 29.4604 55.4664 29.2706 55.4137C29.0809 55.3609 28.8804 55.3597 28.69 55.41C28.3622 55.5344 28.0925 55.7764 27.9335 56.0888C27.7745 56.4013 27.7376 56.7618 27.83 57.1C27.928 57.4191 28.1021 57.7096 28.3372 57.9465C28.5724 58.1834 28.8616 58.3597 29.18 58.46L29.49 58.56C28.2866 58.685 27.0734 58.685 25.87 58.56C25.8234 58.5704 25.7816 58.5963 25.7517 58.6336C25.7218 58.6709 25.7056 58.7172 25.7056 58.765C25.7056 58.8128 25.7218 58.8591 25.7517 58.8964C25.7816 58.9337 25.8234 58.9596 25.87 58.97C26.6 59.02 27.34 59.08 28.08 59.08C28.8705 59.0909 29.6595 59.007 30.43 58.83L30.96 58.68C30.96 58.68 31.01 58.68 31.03 58.68C32.0039 58.375 32.871 57.7992 33.53 57.02C34.5534 56.4041 35.7763 56.2104 36.94 56.48C37.2727 56.5885 37.5754 56.7735 37.8237 57.0201C38.072 57.2667 38.2591 57.5681 38.37 57.9C38.4579 58.2146 38.427 58.5505 38.2831 58.8437C38.1393 59.1369 37.8926 59.367 37.59 59.49C37.4262 59.5214 37.2571 59.5113 37.0981 59.4607C36.9392 59.41 36.7955 59.3204 36.68 59.2C36.584 59.1096 36.5139 58.9952 36.477 58.8686C36.4401 58.742 36.4377 58.6078 36.47 58.48C36.4756 58.4321 36.4645 58.3837 36.4386 58.343C36.4127 58.3024 36.3736 58.2718 36.3278 58.2566C36.2821 58.2413 36.2324 58.2423 36.1873 58.2593C36.1422 58.2763 36.1043 58.3083 36.08 58.35C36.0233 58.5479 36.0213 58.7574 36.0741 58.9564C36.1269 59.1553 36.2326 59.3363 36.38 59.48C36.5085 59.6175 36.6631 59.7282 36.8348 59.8054C37.0065 59.8827 37.1918 59.925 37.38 59.93C37.4831 59.9397 37.5869 59.9397 37.69 59.93C38.0979 59.7761 38.4336 59.4755 38.6315 59.0871C38.8294 58.6987 38.8752 58.2504 38.76 57.83C38.6479 57.4076 38.4332 57.0195 38.1348 56.7002C37.8365 56.3809 37.4638 56.1404 37.05 56V56Z" fill="#7A913A"/>
<path d="M21.59 14.23C21.0987 14.0873 20.5828 14.0501 20.0762 14.1207C19.5695 14.1914 19.0835 14.3684 18.65 14.64C18.1854 15.0572 17.829 15.5809 17.6113 16.1661C17.3936 16.7513 17.3211 17.3806 17.4 18C17.4443 18.5777 17.5245 19.1522 17.64 19.72C17.755 20.3047 17.8351 20.8958 17.88 21.49C17.9509 22.0381 17.8816 22.5953 17.6788 23.1095C17.4759 23.6236 17.1461 24.0779 16.72 24.43C16.6827 24.4691 16.6619 24.521 16.6619 24.575C16.6619 24.629 16.6827 24.6809 16.72 24.72C16.7385 24.7481 16.7638 24.771 16.7935 24.7868C16.8232 24.8025 16.8564 24.8105 16.89 24.81C16.9253 24.8239 16.9647 24.8239 17 24.81C17.4866 24.4202 17.8653 23.9122 18.0998 23.3345C18.3344 22.7569 18.4171 22.1287 18.34 21.51C18.2704 20.8729 18.1568 20.2414 18 19.62C17.9035 19.0844 17.84 18.5434 17.81 18C17.7379 17.4501 17.7983 16.8909 17.9862 16.369C18.1741 15.8472 18.4839 15.3778 18.89 15C19.275 14.7635 19.7057 14.611 20.1537 14.5524C20.6017 14.4938 21.0571 14.5305 21.49 14.66C22.0255 14.7647 22.525 15.0058 22.94 15.36C23.1366 15.528 23.292 15.7389 23.3943 15.9764C23.4966 16.2139 23.543 16.4717 23.53 16.73C23.5085 16.9717 23.4092 17.1998 23.2469 17.3802C23.0846 17.5605 22.8681 17.6833 22.63 17.73C22.5085 17.7402 22.3862 17.725 22.2708 17.6854C22.1555 17.6458 22.0497 17.5827 21.96 17.5C21.8836 17.4325 21.8226 17.3493 21.7812 17.2562C21.7397 17.163 21.7189 17.062 21.72 16.96C21.7202 16.905 21.6998 16.8518 21.6628 16.8111C21.6258 16.7704 21.5748 16.745 21.52 16.74C21.4929 16.7386 21.4658 16.7428 21.4404 16.7523C21.415 16.7617 21.3917 16.7762 21.3721 16.7949C21.3524 16.8136 21.3368 16.8361 21.3261 16.8611C21.3155 16.886 21.31 16.9129 21.31 16.94C21.3046 17.1017 21.335 17.2627 21.3989 17.4113C21.4629 17.56 21.5589 17.6927 21.68 17.8C21.8122 17.9257 21.97 18.0211 22.1427 18.0798C22.3153 18.1385 22.4986 18.1591 22.68 18.14C23.0127 18.0791 23.3158 17.9096 23.542 17.6581C23.7681 17.4066 23.9046 17.0873 23.93 16.75C23.9497 16.4302 23.895 16.1103 23.77 15.8153C23.6451 15.5203 23.4534 15.2583 23.21 15.05C22.75 14.6412 22.1918 14.3587 21.59 14.23V14.23Z" fill="#7A913A"/>
<path d="M33.54 7.2C34.1788 7.55645 34.8985 7.74242 35.63 7.74H35.89C35.29 8.2 34.71 8.69 34.16 9.19C34.1403 9.20868 34.1247 9.23118 34.114 9.2561C34.1033 9.28103 34.0978 9.30787 34.0978 9.335C34.0978 9.36213 34.1033 9.38897 34.114 9.4139C34.1247 9.43883 34.1403 9.46132 34.16 9.48C34.179 9.50122 34.202 9.51837 34.2278 9.5304C34.2536 9.54244 34.2816 9.5491 34.31 9.55C34.3556 9.56391 34.4044 9.56391 34.45 9.55C35.9896 8.0492 37.7932 6.84568 39.77 6C39.3407 6.27653 38.9535 6.6133 38.62 7C38.3588 7.2963 38.1493 7.63433 38 8C37.5349 9.28388 37.2816 10.6348 37.25 12C37.25 12.84 37.56 13.08 37.78 13.15C37.8429 13.1604 37.9071 13.1604 37.97 13.15C38.12 13.1364 38.2653 13.091 38.3963 13.0169C38.5274 12.9428 38.6411 12.8415 38.73 12.72C39.4038 11.9428 39.807 10.9678 39.8792 9.94173C39.9513 8.91564 39.6884 7.89386 39.13 7.03V7.03C39.7915 6.34411 40.6026 5.82047 41.5 5.5C43.62 5.18 46.32 5.79 47.59 7.89C47.6204 7.93346 47.6655 7.96447 47.7169 7.97733C47.7684 7.9902 47.8227 7.98404 47.87 7.96C47.9002 7.95165 47.9282 7.93663 47.9519 7.91605C47.9755 7.89548 47.9943 7.86986 48.0067 7.84109C48.0192 7.81232 48.0251 7.78112 48.0239 7.74978C48.0227 7.71844 48.0146 7.68777 48 7.66C46.64 5.42 43.78 4.75 41.54 5.08H41.47C41.2846 5.10047 41.1008 5.13388 40.92 5.18C39.3534 5.58027 37.8816 6.28724 36.59 7.26C36.5513 7.24541 36.5087 7.24541 36.47 7.26C35.5639 7.44546 34.6215 7.30373 33.81 6.86C33.48 6.7 33.05 6.4 33 6C32.9988 5.90446 33.022 5.81019 33.0676 5.72617C33.1131 5.64216 33.1793 5.57118 33.26 5.52C33.3053 5.49265 33.3571 5.47819 33.41 5.47819C33.4629 5.47819 33.5147 5.49265 33.56 5.52C33.6056 5.54728 33.6599 5.55626 33.7118 5.54513C33.7638 5.53399 33.8096 5.50357 33.84 5.46C33.8546 5.4364 33.8643 5.41014 33.8687 5.38275C33.8731 5.35536 33.872 5.32737 33.8654 5.30041C33.8589 5.27345 33.8472 5.24804 33.8308 5.22566C33.8144 5.20327 33.7937 5.18436 33.77 5.17C33.6624 5.10147 33.5375 5.06507 33.41 5.06507C33.2825 5.06507 33.1576 5.10147 33.05 5.17C32.9085 5.25637 32.7923 5.37864 32.7132 5.52441C32.6342 5.67018 32.5951 5.83426 32.6 6C32.6462 6.26179 32.7561 6.50819 32.92 6.71747C33.084 6.92674 33.2969 7.09246 33.54 7.2V7.2Z" fill="#7A913A"/>
<path d="M52.06 8C52.4314 8.07941 52.8102 8.11963 53.19 8.12C54.3064 8.11329 55.3997 7.80133 56.3515 7.21789C57.3033 6.63446 58.0774 5.80178 58.59 4.81C58.602 4.7864 58.6092 4.76064 58.6111 4.73424C58.6131 4.70784 58.6098 4.68131 58.6014 4.6562C58.593 4.63108 58.5798 4.60788 58.5624 4.58793C58.545 4.56798 58.5238 4.55169 58.5 4.54C58.4508 4.51535 58.394 4.51097 58.3416 4.5278C58.2893 4.54463 58.2456 4.58132 58.22 4.63C57.668 5.7186 56.7784 6.59918 55.6842 7.13997C54.59 7.68076 53.3501 7.85268 52.15 7.63C51.74 7.55 50.78 7.27 50.54 6.51C50.4733 6.26324 50.4814 6.00223 50.5633 5.7601C50.6452 5.51796 50.7972 5.30561 51 5.15C51.2061 4.99542 51.4464 4.89288 51.7006 4.8511C51.9548 4.80931 52.2153 4.82952 52.46 4.91C52.671 4.95582 52.8632 5.0644 53.0113 5.22145C53.1594 5.37851 53.2566 5.57671 53.29 5.79C53.281 5.89558 53.2438 5.99679 53.1822 6.08301C53.1206 6.16923 53.037 6.23728 52.94 6.28C52.8839 6.31783 52.8177 6.33804 52.75 6.33804C52.6823 6.33804 52.6161 6.31783 52.56 6.28C52.5179 6.25645 52.469 6.24809 52.4215 6.25635C52.374 6.2646 52.3308 6.28896 52.2991 6.32533C52.2674 6.36169 52.2492 6.40785 52.2476 6.45605C52.2459 6.50425 52.2609 6.55155 52.29 6.59C52.4035 6.68235 52.5413 6.73997 52.6867 6.75594C52.8322 6.7719 52.9792 6.74553 53.11 6.68C53.2794 6.60405 53.4243 6.48243 53.5285 6.32878C53.6327 6.17512 53.6921 5.99549 53.7 5.81C53.6651 5.51046 53.5389 5.22889 53.3386 5.0035C53.1382 4.7781 52.8734 4.61978 52.58 4.55C52.2726 4.44994 51.9456 4.42587 51.6269 4.47986C51.3081 4.53385 51.0073 4.66429 50.75 4.86C50.4877 5.06369 50.2917 5.34054 50.1867 5.65557C50.0817 5.9706 50.0724 6.30969 50.16 6.63C50.3258 7.007 50.5894 7.33281 50.9235 7.57369C51.2575 7.81457 51.6499 7.96175 52.06 8V8Z" fill="#7A913A"/>
<path d="M58.27 23.26C57.9678 22.6567 57.6131 22.0811 57.21 21.54C57.06 21.32 56.9 21.1 56.76 20.87C56.2272 20.1469 55.8991 19.2937 55.81 18.4C55.7894 17.984 55.8937 17.5714 56.1092 17.215C56.3248 16.8587 56.642 16.5749 57.02 16.4C57.051 16.3964 57.0808 16.3859 57.1073 16.3694C57.1338 16.3528 57.1562 16.3305 57.173 16.3042C57.1897 16.2778 57.2004 16.2481 57.2042 16.2171C57.208 16.1861 57.2049 16.1546 57.195 16.125C57.1851 16.0954 57.1688 16.0683 57.1471 16.0458C57.1255 16.0233 57.0991 16.0059 57.0699 15.9949C57.0407 15.9839 57.0093 15.9795 56.9782 15.9821C56.9471 15.9847 56.917 15.9943 56.89 16.01C56.4237 16.2179 56.0316 16.5625 55.7655 16.9983C55.4994 17.434 55.372 17.9402 55.4 18.45C55.4831 19.4208 55.8288 20.3507 56.4 21.14L56.86 21.81C57.2399 22.3339 57.5745 22.8892 57.86 23.47C58.2526 24.3409 58.4111 25.2991 58.32 26.25C57.4774 26.7045 56.7495 27.3452 56.1915 28.1232C55.6336 28.9012 55.2603 29.7961 55.1 30.74C55.0987 30.7751 55.1063 30.81 55.122 30.8415C55.1377 30.8729 55.1611 30.8999 55.19 30.92C55.2289 30.933 55.271 30.933 55.31 30.92H55.39C56.2891 30.5114 57.0677 29.8781 57.651 29.0812C58.2342 28.2843 58.6024 27.3505 58.72 26.37V26.37C58.857 25.3117 58.7013 24.2361 58.27 23.26V23.26Z" fill="#7A913A"/>
<path d="M47.58 35.72C47.0938 36.1943 46.5649 36.6228 46 37L45.34 37.47C44.5943 37.9693 43.9967 38.6602 43.61 39.47C43.31 40.21 43.37 43.98 44.05 44.54C44.0873 44.5791 44.1081 44.631 44.1081 44.685C44.1081 44.739 44.0873 44.7909 44.05 44.83C44.0322 44.8494 44.0106 44.8649 43.9865 44.8755C43.9624 44.8861 43.9363 44.8915 43.91 44.8915C43.8837 44.8915 43.8576 44.8861 43.8335 44.8755C43.8094 44.8649 43.7878 44.8494 43.77 44.83C42.94 44.16 42.86 40.18 43.2 39.3C43.6174 38.4163 44.2673 37.6628 45.08 37.12C45.29 36.96 45.52 36.8 45.74 36.65C46.282 36.2889 46.7937 35.8842 47.27 35.44C47.9385 34.762 48.4178 33.9208 48.66 33C48.0276 32.2846 47.5659 31.435 47.3095 30.5152C47.0531 29.5954 47.0089 28.6294 47.18 27.69C47.1911 27.6548 47.2106 27.6228 47.2367 27.5967C47.2628 27.5706 47.2948 27.5511 47.33 27.54C47.3687 27.5254 47.4113 27.5254 47.45 27.54H47.52C48.6061 28.6178 49.224 30.08 49.24 31.61C49.2443 32.0776 49.194 32.5441 49.09 33V33C48.8462 34.0282 48.3237 34.9693 47.58 35.72V35.72Z" fill="#7A913A"/>
<path d="M22.81 23.92C22.5078 23.3167 22.1531 22.7411 21.75 22.2L21.29 21.53C20.7608 20.8059 20.4361 19.9527 20.35 19.06C20.3295 18.644 20.4337 18.2314 20.6493 17.875C20.8649 17.5187 21.182 17.2349 21.56 17.06C21.6118 17.0397 21.654 17.0006 21.6781 16.9506C21.7022 16.9005 21.7065 16.8431 21.69 16.79C21.6699 16.7408 21.6319 16.7011 21.5836 16.6788C21.5354 16.6565 21.4805 16.6534 21.43 16.67C20.962 16.8756 20.5682 17.2197 20.3018 17.656C20.0354 18.0923 19.9091 18.5997 19.94 19.11C20.0229 20.0778 20.3687 21.0045 20.94 21.79L21.4 22.47C21.7799 22.9939 22.1145 23.5492 22.4 24.13C22.7942 25.0003 22.9495 25.9598 22.85 26.91C22.01 27.3641 21.2844 28.0035 20.7282 28.7797C20.172 29.5559 19.7999 30.4486 19.64 31.39C19.638 31.4267 19.6451 31.4633 19.6608 31.4964C19.6766 31.5296 19.7003 31.5584 19.73 31.58C19.7694 31.5897 19.8106 31.5897 19.85 31.58H19.93C20.8415 31.1782 21.6311 30.5432 22.2192 29.7392C22.8073 28.9352 23.1732 27.9904 23.28 27V27C23.4103 25.9496 23.2476 24.8837 22.81 23.92V23.92Z" fill="#7A913A"/>
<path d="M5.73 13.15C5.4782 13.8553 5.4229 14.6157 5.57 15.35C5.65447 15.6616 5.82493 15.9432 6.0619 16.1625C6.29887 16.3818 6.59278 16.5299 6.91 16.59H7.08C7.38458 16.5901 7.68038 16.488 7.92 16.3C8.04477 16.2058 8.14902 16.0872 8.22639 15.9514C8.30376 15.8155 8.35263 15.6654 8.37 15.51C8.38763 15.3261 8.35398 15.1409 8.27278 14.975C8.19159 14.8091 8.06602 14.6689 7.91 14.57C7.78123 14.4739 7.62996 14.4124 7.47065 14.3914C7.31133 14.3704 7.1493 14.3906 7 14.45C6.97503 14.4618 6.95263 14.4784 6.93408 14.4989C6.91554 14.5193 6.90121 14.5432 6.89192 14.5693C6.88263 14.5953 6.87857 14.6229 6.87995 14.6504C6.88134 14.678 6.88815 14.7051 6.9 14.73C6.9238 14.7779 6.96499 14.815 7.01517 14.8336C7.06535 14.8521 7.12073 14.8509 7.17 14.83C7.25614 14.7969 7.34943 14.7869 7.44063 14.8009C7.53183 14.815 7.61779 14.8526 7.69 14.91C7.78454 14.9715 7.86174 15.0561 7.91426 15.1559C7.96678 15.2557 7.99286 15.3673 7.99 15.48C7.96087 15.6828 7.85311 15.866 7.69 15.99C7.59259 16.068 7.48017 16.1251 7.35975 16.1578C7.23933 16.1904 7.11348 16.198 6.99 16.18C6.75146 16.1303 6.5315 16.0151 6.35485 15.8473C6.17819 15.6794 6.05185 15.4657 5.99 15.23C5.87026 14.56 5.92889 13.8702 6.16 13.23L6.19 13C6.76825 10.7025 6.76825 8.29751 6.19 6C6.7981 6.52924 7.50919 6.92685 8.27849 7.16779C9.04779 7.40874 9.85865 7.4878 10.66 7.4C11.3802 7.27082 12.0798 7.04547 12.74 6.73C13.5693 7.45656 14.6375 7.85178 15.74 7.84C16.2088 7.84099 16.6747 7.76671 17.12 7.62C17.354 7.56399 17.5599 7.42553 17.7 7.23C17.7816 6.99931 17.7757 6.74672 17.6836 6.52004C17.5915 6.29337 17.4194 6.10835 17.2 6C16.6706 5.72057 16.0839 5.56707 15.4855 5.55146C14.8871 5.53585 14.2932 5.65855 13.75 5.91C13.4 6.04 13.06 6.19 12.75 6.33C12.0668 6.64928 11.3436 6.87466 10.6 7C9.76465 7.06986 8.9242 6.95363 8.13916 6.65967C7.35412 6.36572 6.64403 5.90135 6.06 5.3C6.02094 5.26271 5.96901 5.24191 5.915 5.24191C5.861 5.24191 5.80907 5.26271 5.77 5.3C5.76065 5.33945 5.76065 5.38055 5.77 5.42C5.75495 5.45119 5.74713 5.48537 5.74713 5.52C5.74713 5.55463 5.75495 5.58881 5.77 5.62C6.44938 7.99731 6.49077 10.5116 5.89 12.91C5.84252 12.9937 5.78904 13.074 5.73 13.15V13.15Z" fill="#7A913A"/>
<path d="M48.52 16.46C48.9784 16.46 49.35 16.0884 49.35 15.63C49.35 15.1716 48.9784 14.8 48.52 14.8C48.0616 14.8 47.69 15.1716 47.69 15.63C47.69 16.0884 48.0616 16.46 48.52 16.46Z" fill="#EF3C23"/>
<path d="M58.41 33.39C58.8684 33.39 59.24 33.0184 59.24 32.56C59.24 32.1016 58.8684 31.73 58.41 31.73C57.9516 31.73 57.58 32.1016 57.58 32.56C57.58 33.0184 57.9516 33.39 58.41 33.39Z" fill="#EF3C23"/>
<path d="M50.58 39.15C51.0384 39.15 51.41 38.7784 51.41 38.32C51.41 37.8616 51.0384 37.49 50.58 37.49C50.1216 37.49 49.75 37.8616 49.75 38.32C49.75 38.7784 50.1216 39.15 50.58 39.15Z" fill="#EF3C23"/>
<path d="M45.14 25.24C45.5984 25.24 45.97 24.8684 45.97 24.41C45.97 23.9516 45.5984 23.58 45.14 23.58C44.6816 23.58 44.31 23.9516 44.31 24.41C44.31 24.8684 44.6816 25.24 45.14 25.24Z" fill="#EF3C23"/>
<path d="M46.18 53.17C46.6384 53.17 47.01 52.7984 47.01 52.34C47.01 51.8816 46.6384 51.51 46.18 51.51C45.7216 51.51 45.35 51.8816 45.35 52.34C45.35 52.7984 45.7216 53.17 46.18 53.17Z" fill="#EF3C23"/>
<path d="M24.47 55.91C24.9284 55.91 25.3 55.5384 25.3 55.08C25.3 54.6216 24.9284 54.25 24.47 54.25C24.0116 54.25 23.64 54.6216 23.64 55.08C23.64 55.5384 24.0116 55.91 24.47 55.91Z" fill="#EF3C23"/>
<path d="M6.72999 50.44C7.18839 50.44 7.55999 50.0684 7.55999 49.61C7.55999 49.1516 7.18839 48.78 6.72999 48.78C6.2716 48.78 5.89999 49.1516 5.89999 49.61C5.89999 50.0684 6.2716 50.44 6.72999 50.44Z" fill="#EF3C23"/>
<path d="M6.72999 36.77C7.18839 36.77 7.55999 36.3984 7.55999 35.94C7.55999 35.4816 7.18839 35.11 6.72999 35.11C6.2716 35.11 5.89999 35.4816 5.89999 35.94C5.89999 36.3984 6.2716 36.77 6.72999 36.77Z" fill="#EF3C23"/>
<path d="M15.32 20.36C15.7784 20.36 16.15 19.9884 16.15 19.53C16.15 19.0716 15.7784 18.7 15.32 18.7C14.8616 18.7 14.49 19.0716 14.49 19.53C14.49 19.9884 14.8616 20.36 15.32 20.36Z" fill="#EF3C23"/>
<path d="M6.33999 19.97C6.79839 19.97 7.16999 19.5984 7.16999 19.14C7.16999 18.6816 6.79839 18.31 6.33999 18.31C5.8816 18.31 5.50999 18.6816 5.50999 19.14C5.50999 19.5984 5.8816 19.97 6.33999 19.97Z" fill="#EF3C23"/>
<path d="M25.48 10.6C25.9384 10.6 26.31 10.2284 26.31 9.77C26.31 9.3116 25.9384 8.94 25.48 8.94C25.0216 8.94 24.65 9.3116 24.65 9.77C24.65 10.2284 25.0216 10.6 25.48 10.6Z" fill="#EF3C23"/>
<path d="M52.82 59.42C53.2784 59.42 53.65 59.0484 53.65 58.59C53.65 58.1316 53.2784 57.76 52.82 57.76C52.3616 57.76 51.99 58.1316 51.99 58.59C51.99 59.0484 52.3616 59.42 52.82 59.42Z" fill="#EF3C23"/>
<path d="M34.66 12.79C35.1184 12.79 35.49 12.4184 35.49 11.96C35.49 11.5016 35.1184 11.13 34.66 11.13C34.2016 11.13 33.83 11.5016 33.83 11.96C33.83 12.4184 34.2016 12.79 34.66 12.79Z" fill="#EF3C23"/>
<path d="M57.89 9.43C58.3484 9.43 58.72 9.0584 58.72 8.6C58.72 8.1416 58.3484 7.77 57.89 7.77C57.4316 7.77 57.06 8.1416 57.06 8.6C57.06 9.0584 57.4316 9.43 57.89 9.43Z" fill="#EF3C23"/>
<path d="M45.08 30.88C44.63 30.75 44.42 31.01 44.26 31.39C43.49 33.04 41.93 33.82 41.07 31.77C40.583 30.7394 40.3141 29.6194 40.28 28.48C40.28 25.2 40.18 21.93 40.15 18.66C40.06 14.8 43.06 15.87 45.15 12.21C45.3215 11.9354 45.3996 11.6127 45.3726 11.2901C45.3455 10.9674 45.2148 10.6622 45 10.42C44.6 9.9 44 10.05 43.48 10.15C43.0965 10.2299 42.757 10.4511 42.5291 10.7698C42.3012 11.0885 42.2016 11.4812 42.25 11.87C42.32 12.78 41 14.29 38.79 14.97C34.19 16.38 29.59 17.82 24.9 18.88C24.82 21.99 23.07 39.88 22.71 40.76C22.4634 41.4977 21.9399 42.1108 21.25 42.47C20.9935 42.6146 20.6929 42.6598 20.4052 42.5971C20.1176 42.5344 19.863 42.3682 19.69 42.13C19.5411 41.9095 19.4448 41.6579 19.4084 41.3944C19.372 41.1309 19.3965 40.8626 19.48 40.61C19.5431 40.3885 19.6905 40.2006 19.8905 40.0866C20.0905 39.9726 20.3273 39.9415 20.55 40C20.534 39.8615 20.5072 39.7244 20.47 39.59C20.4233 39.3027 20.3081 39.0309 20.134 38.7976C19.9599 38.5643 19.7321 38.3765 19.47 38.25C18.9802 38.0649 18.4398 38.0649 17.95 38.25C16.9478 38.576 16.0899 39.2397 15.5227 40.1279C14.9555 41.0161 14.7142 42.0737 14.84 43.12C14.8878 44.0521 15.0731 44.9721 15.39 45.85C16.0499 47.6859 17.1565 49.3287 18.61 50.63C19.6871 51.4824 20.9409 52.0837 22.28 52.39C22.9008 52.5448 23.5446 52.5855 24.18 52.51C25.4222 52.4209 26.6222 52.0218 27.6704 51.3493C28.7186 50.6767 29.5814 49.7521 30.18 48.66C31.9557 45.7736 32.8908 42.4489 32.88 39.06C32.88 35.15 32.96 31.24 33.01 27.33C32.9839 27.1499 33.0177 26.9662 33.1063 26.8072C33.1948 26.6482 33.3331 26.5227 33.5 26.45L38 24.66C38.2712 25.121 38.377 25.6607 38.3 26.19C38.2897 27.9204 38.3798 29.65 38.57 31.37C38.6137 31.9816 38.8146 32.5716 39.1533 33.0827C39.492 33.5939 39.957 34.0089 40.5032 34.2875C41.0494 34.5661 41.6583 34.699 42.271 34.6731C42.8836 34.6473 43.4792 34.4636 44 34.14C44.7968 33.5997 45.372 32.7902 45.62 31.86C45.6604 31.7607 45.6781 31.6536 45.6718 31.5465C45.6655 31.4395 45.6354 31.3352 45.5837 31.2412C45.5319 31.1473 45.4598 31.0661 45.3727 31.0036C45.2856 30.9411 45.1856 30.8989 45.08 30.88ZM31 40.3C31.0291 42.0338 30.7861 43.7614 30.28 45.42C30.2421 45.6391 30.1595 45.8481 30.0374 46.0339C29.9152 46.2197 29.7561 46.3783 29.57 46.5C29.8767 43.8441 30.0403 41.1735 30.06 38.5C30.18 35.5 30.39 32.42 30.23 29.37C30.09 26.83 30.23 24.28 30.23 21.73C30.23 21.23 30.23 20.73 30.23 20.24C30.1915 20.003 30.2027 19.7606 30.2629 19.5282C30.3232 19.2957 30.4312 19.0784 30.58 18.89C30.9074 19.3137 31.058 19.8477 31 20.38C31.39 27 30.94 33.65 31 40.3ZM37.83 23.41L32.83 25.41C32.6046 23.9305 32.4876 22.4365 32.48 20.94C32.31 18.15 31.79 18.73 34.69 17.71C35.55 17.4 36.43 17.16 37.3 16.91C37.85 16.76 38.19 16.96 38.2 17.57C38.2 19.29 38.28 21.02 38.31 22.74C38.3157 22.8863 38.274 23.0306 38.1911 23.1513C38.1082 23.272 37.9886 23.3627 37.85 23.41H37.83Z" fill="#383529"/>
<path d="M48.12 40.74C48.0444 40.3379 47.8902 39.9546 47.6662 39.6122C47.4422 39.2698 47.1528 38.975 46.8147 38.7446C46.4765 38.5142 46.0963 38.3528 45.6956 38.2697C45.295 38.1865 44.8819 38.1832 44.48 38.26C44.1396 38.5886 43.7601 38.8741 43.35 39.11C43.4995 39.5174 43.7336 39.8884 44.037 40.1987C44.3404 40.509 44.7061 40.7514 45.11 40.91C45.5746 41.1455 46.0891 41.2656 46.61 41.26C47.0867 41.2745 47.5608 41.1858 48 41C48.026 40.9924 48.0501 40.9793 48.0707 40.9615C48.0912 40.9438 48.1077 40.9219 48.1191 40.8973C48.1305 40.8727 48.1364 40.8459 48.1366 40.8187C48.1368 40.7916 48.1311 40.7648 48.12 40.74V40.74Z" fill="#7A913A"/>
</g>
<defs>
<clipPath id="clip0">
<rect width="64" height="64" fill="white"/>
</clipPath>
</defs>
</svg>
