<svg width="64" height="64" viewBox="0 0 64 64" fill="none" xmlns="http://www.w3.org/2000/svg">
<g clip-path="url(#clip0)">
<path d="M64.07 64H0.0700073V0H64.07V64ZM1.43001 62.61H62.7V1.34H1.43001V62.61Z" fill="#383529"/>
<path d="M61.52 2.61H2.60999V61.52H61.52V2.61Z" fill="#FBFAF7"/>
<path d="M48.9 16.24C48.9 16.31 48.9 16.41 48.79 16.45C48.68 16.49 48.55 16.45 48.48 16.35C48.465 16.3333 48.455 16.3128 48.451 16.2907C48.4471 16.2686 48.4494 16.2459 48.4577 16.2251C48.4661 16.2043 48.4801 16.1862 48.4981 16.1729C48.5162 16.1596 48.5377 16.1517 48.56 16.15C48.69 16.11 48.81 16.1 48.9 16.24Z" fill="#FBFAF7"/>
<path d="M37.2 13.67L37.35 13.82C37.35 13.82 37.35 13.77 37.35 13.82L37.42 13.93V14.02V14.08C37.42 14.08 37.42 14.01 37.42 14.08C37.4479 14.1552 37.4713 14.232 37.49 14.31V14.42C37.49 14.42 37.49 14.52 37.49 14.42C37.495 14.5066 37.495 14.5934 37.49 14.68C37.495 14.7532 37.495 14.8268 37.49 14.9V15C37.49 15.07 37.49 14.94 37.49 15C37.4852 15.0399 37.4852 15.0801 37.49 15.12C37.454 15.2764 37.4072 15.4301 37.35 15.58C37.35 15.51 37.35 15.58 37.35 15.58C37.3382 15.6236 37.3178 15.6644 37.29 15.7C37.2476 15.7908 37.1974 15.8778 37.14 15.96C37.0967 16.0346 37.0465 16.1049 36.99 16.17C36.99 16.17 36.99 16.17 36.99 16.17L36.89 16.29L36.5 16.7C35.96 17.21 35.35 17.64 34.82 18.16C34.2365 18.7012 33.8142 19.3935 33.6 20.16C33.4417 20.9971 33.368 21.8481 33.38 22.7L33.27 25.4L33.05 30.74L32.83 36.08V36.76C32.8311 36.8487 32.8609 36.9347 32.915 37.005C32.9691 37.0753 33.0445 37.1262 33.13 37.15L36.26 38.06C36.3648 38.0892 36.4768 38.0755 36.5715 38.0221C36.6662 37.9686 36.7358 37.8798 36.765 37.775C36.7942 37.6702 36.7806 37.5582 36.7271 37.4635C36.6737 37.3688 36.5848 37.2992 36.48 37.27L33.35 36.36L33.65 36.76L33.87 31.34L34.13 26L34.24 23.31C34.24 22.85 34.24 22.4 34.24 21.95C34.24 21.74 34.24 21.54 34.24 21.33C34.2351 21.2367 34.2351 21.1433 34.24 21.05V21C34.24 21 34.24 20.93 34.24 21C34.24 21.07 34.24 21 34.24 21C34.2344 20.9635 34.2344 20.9264 34.24 20.89C34.2669 20.6966 34.3103 20.5059 34.37 20.32C34.3657 20.2701 34.3657 20.2199 34.37 20.17V20.09L34.49 19.83L34.64 19.59L34.71 19.5C34.7081 19.4767 34.7081 19.4533 34.71 19.43C34.71 19.43 34.71 19.38 34.71 19.43C34.8254 19.2832 34.9489 19.143 35.08 19.01C35.61 18.47 36.22 18.01 36.77 17.53C37.3615 17.033 37.8044 16.3825 38.05 15.65C38.1536 15.32 38.1884 14.9722 38.1523 14.6282C38.1161 14.2842 38.0099 13.9513 37.84 13.65C37.7465 13.498 37.632 13.36 37.5 13.24C37.4619 13.2019 37.4167 13.1717 37.367 13.1511C37.3172 13.1305 37.2639 13.1199 37.21 13.1199C37.1562 13.1199 37.1028 13.1305 37.0531 13.1511C37.0033 13.1717 36.9581 13.2019 36.92 13.24C36.8819 13.2781 36.8517 13.3233 36.8311 13.3731C36.8105 13.4228 36.7999 13.4761 36.7999 13.53C36.7999 13.5839 36.8105 13.6372 36.8311 13.6869C36.8517 13.7367 36.8819 13.7819 36.92 13.82L37.2 13.67Z" fill="#B5B1A4"/>
<path d="M44 53.24C46.5865 52.3938 48.7785 50.6387 50.17 48.3C50.8757 47.1221 51.3445 45.8177 51.55 44.46C51.7588 43.0204 51.691 41.5542 51.35 40.14C51.0123 38.7471 50.4078 37.4329 49.57 36.27L49.21 35.8C49.1319 35.7254 49.028 35.6838 48.92 35.6838C48.812 35.6838 48.7081 35.7254 48.63 35.8C48.5919 35.8381 48.5617 35.8833 48.5411 35.933C48.5204 35.9828 48.5098 36.0361 48.5098 36.09C48.5098 36.1439 48.5204 36.1972 48.5411 36.247C48.5617 36.2967 48.5919 36.3419 48.63 36.38L48.71 36.49C48.77 36.56 48.71 36.44 48.71 36.49L48.86 36.7L49.15 37.12C49.3388 37.4108 49.5124 37.7112 49.67 38.02C49.75 38.17 49.83 38.32 49.9 38.48C49.97 38.64 49.97 38.64 50 38.71C50.03 38.78 50 38.79 50 38.71V38.76L50.06 38.9C50.18 39.22 50.3 39.55 50.39 39.9C50.49 40.2282 50.5701 40.5622 50.63 40.9L50.72 41.4V41.46C50.72 41.35 50.72 41.4 50.72 41.46C50.72 41.52 50.72 41.55 50.72 41.59V41.86C50.7819 42.5252 50.7819 43.1948 50.72 43.86V44.1V44.17C50.72 44.17 50.72 44.23 50.72 44.17C50.7152 44.2132 50.7152 44.2568 50.72 44.3L50.63 44.81C50.56 45.14 50.48 45.47 50.38 45.81C50.38 45.97 50.28 46.12 50.22 46.27C50.16 46.42 50.1 46.56 50.05 46.71C50.05 46.59 50.05 46.71 50.05 46.71C50.05 46.71 50.05 46.78 50.05 46.82C50.05 46.86 49.98 46.97 49.94 47.05C49.9 47.13 49.8 47.33 49.72 47.47C49.5723 47.7524 49.4087 48.0261 49.23 48.29L48.96 48.69L48.82 48.88C48.77 48.94 48.82 48.88 48.82 48.88C48.7876 48.9182 48.7576 48.9582 48.73 49C48.3291 49.4959 47.8876 49.9575 47.41 50.38L47.04 50.69L46.95 50.76C46.95 50.76 46.83 50.85 46.95 50.76L46.75 50.91C46.49 51.1 46.22 51.28 45.95 51.44C45.6458 51.647 45.3284 51.834 45 52L44.56 52.19C44.48 52.19 44.63 52.19 44.56 52.19H44.5H44.41L44.17 52.28L43.72 52.44C43.6154 52.4681 43.5262 52.5365 43.4719 52.6302C43.4176 52.7239 43.4025 52.8353 43.43 52.94C43.4625 53.0439 43.5332 53.1317 43.6279 53.1855C43.7225 53.2393 43.8341 53.2552 43.94 53.23L44 53.24Z" fill="#B5B1A4"/>
<path d="M19.24 42.34C18.8216 42.4719 18.4341 42.6869 18.1007 42.9722C17.7674 43.2574 17.495 43.607 17.3 44C17.0964 44.4347 16.9938 44.91 17 45.39C17.0112 45.8638 17.1201 46.3302 17.32 46.76C17.5512 47.2324 17.8945 47.6409 18.32 47.95C18.3686 47.9724 18.4215 47.984 18.475 47.984C18.5285 47.984 18.5814 47.9724 18.63 47.95C18.6819 47.9391 18.731 47.9175 18.7741 47.8865C18.8171 47.8555 18.8532 47.8158 18.88 47.77C18.9192 47.6669 18.9192 47.5531 18.88 47.45C18.8459 47.3507 18.7789 47.266 18.69 47.21C18.78 47.28 18.69 47.21 18.69 47.21H18.63L18.54 47.12L18.33 46.9L18.25 46.78C18.1909 46.697 18.1374 46.6102 18.09 46.52L18 46.34C18 46.34 18 46.25 18 46.34V46.27L17.9 46L17.84 45.73C17.8457 45.7036 17.8457 45.6764 17.84 45.65V45.65C17.8351 45.6001 17.8351 45.5499 17.84 45.5C17.83 45.4069 17.83 45.3131 17.84 45.22V45.09C17.8449 45.0636 17.8449 45.0364 17.84 45.01C17.84 45.08 17.84 45.09 17.84 45.01C17.87 44.8283 17.9203 44.6505 17.99 44.48C17.99 44.4 17.99 44.57 17.99 44.48V44.41L18.05 44.3L18.2 44.05L18.3 44C18.3 44 18.36 43.95 18.3 44L18.5 43.78L18.73 43.58C18.79 43.52 18.65 43.64 18.73 43.58H18.81L18.93 43.5L19.22 43.34H19.27H19.32L19.48 43.28C19.5848 43.2508 19.6737 43.1812 19.7271 43.0865C19.7806 42.9918 19.7942 42.8798 19.765 42.775C19.7358 42.6702 19.6663 42.5814 19.5715 42.5279C19.4768 42.4745 19.3648 42.4608 19.26 42.49L19.24 42.34Z" fill="#B5B1A4"/>
<path d="M24.6 52.18C26.3427 51.8171 27.901 50.8502 29 49.45C29.0381 49.4119 29.0684 49.3667 29.089 49.317C29.1096 49.2672 29.1202 49.2139 29.1202 49.16C29.1202 49.1061 29.1096 49.0528 29.089 49.003C29.0684 48.9533 29.0381 48.9081 29 48.87C28.9219 48.7954 28.818 48.7538 28.71 48.7538C28.602 48.7538 28.4982 48.7954 28.42 48.87C28.2132 49.1281 27.9929 49.3751 27.76 49.61L27.4 49.93L27.22 50.08C27.3 50.08 27.22 50.08 27.22 50.08L27.11 50.16C26.847 50.3542 26.5695 50.528 26.28 50.68L25.84 50.9H25.74L25.5 50.99C25.1547 51.1189 24.8004 51.2225 24.44 51.3C24.3355 51.3282 24.2463 51.3965 24.1919 51.4902C24.1376 51.5839 24.1225 51.6953 24.15 51.8C24.1825 51.9039 24.2532 51.9917 24.3479 52.0455C24.4425 52.0993 24.5541 52.1152 24.66 52.09L24.6 52.18Z" fill="#B5B1A4"/>
<path d="M46.46 11.82C46.9184 11.82 47.29 11.4484 47.29 10.99C47.29 10.5316 46.9184 10.16 46.46 10.16C46.0016 10.16 45.63 10.5316 45.63 10.99C45.63 11.4484 46.0016 11.82 46.46 11.82Z" fill="#EF3C23"/>
<path d="M50.96 34.9C51.4184 34.9 51.79 34.5284 51.79 34.07C51.79 33.6116 51.4184 33.24 50.96 33.24C50.5016 33.24 50.13 33.6116 50.13 34.07C50.13 34.5284 50.5016 34.9 50.96 34.9Z" fill="#EF3C23"/>
<path d="M49.2 22.09C49.6584 22.09 50.03 21.7184 50.03 21.26C50.03 20.8016 49.6584 20.43 49.2 20.43C48.7416 20.43 48.37 20.8016 48.37 21.26C48.37 21.7184 48.7416 22.09 49.2 22.09Z" fill="#EF3C23"/>
<path d="M39.33 21.22C39.7884 21.22 40.16 20.8484 40.16 20.39C40.16 19.9316 39.7884 19.56 39.33 19.56C38.8716 19.56 38.5 19.9316 38.5 20.39C38.5 20.8484 38.8716 21.22 39.33 21.22Z" fill="#EF3C23"/>
<path d="M37.46 34.71C37.9184 34.71 38.29 34.3384 38.29 33.88C38.29 33.4216 37.9184 33.05 37.46 33.05C37.0016 33.05 36.63 33.4216 36.63 33.88C36.63 34.3384 37.0016 34.71 37.46 34.71Z" fill="#EF3C23"/>
<path d="M18.33 55.15C18.7884 55.15 19.16 54.7784 19.16 54.32C19.16 53.8616 18.7884 53.49 18.33 53.49C17.8716 53.49 17.5 53.8616 17.5 54.32C17.5 54.7784 17.8716 55.15 18.33 55.15Z" fill="#EF3C23"/>
<path d="M23.77 16.46C24.2284 16.46 24.6 16.0884 24.6 15.63C24.6 15.1716 24.2284 14.8 23.77 14.8C23.3116 14.8 22.94 15.1716 22.94 15.63C22.94 16.0884 23.3116 16.46 23.77 16.46Z" fill="#EF3C23"/>
<path d="M6.16002 31.77C6.61841 31.77 6.99002 31.3984 6.99002 30.94C6.99002 30.4816 6.61841 30.11 6.16002 30.11C5.70162 30.11 5.33002 30.4816 5.33002 30.94C5.33002 31.3984 5.70162 31.77 6.16002 31.77Z" fill="#EF3C23"/>
<path d="M14.08 23.56C14.5384 23.56 14.91 23.1884 14.91 22.73C14.91 22.2716 14.5384 21.9 14.08 21.9C13.6216 21.9 13.25 22.2716 13.25 22.73C13.25 23.1884 13.6216 23.56 14.08 23.56Z" fill="#EF3C23"/>
<path d="M5.77 9.08C6.2284 9.08 6.6 8.70839 6.6 8.25C6.6 7.7916 6.2284 7.42 5.77 7.42C5.31161 7.42 4.94 7.7916 4.94 8.25C4.94 8.70839 5.31161 9.08 5.77 9.08Z" fill="#EF3C23"/>
<path d="M24.94 8.05C25.3984 8.05 25.77 7.6784 25.77 7.22C25.77 6.7616 25.3984 6.39 24.94 6.39C24.4816 6.39 24.11 6.7616 24.11 7.22C24.11 7.6784 24.4816 8.05 24.94 8.05Z" fill="#EF3C23"/>
<path d="M54.78 55.94C55.2384 55.94 55.61 55.5684 55.61 55.11C55.61 54.6516 55.2384 54.28 54.78 54.28C54.3216 54.28 53.95 54.6516 53.95 55.11C53.95 55.5684 54.3216 55.94 54.78 55.94Z" fill="#EF3C23"/>
<path d="M58.1 44.2C58.5584 44.2 58.93 43.8284 58.93 43.37C58.93 42.9116 58.5584 42.54 58.1 42.54C57.6416 42.54 57.27 42.9116 57.27 43.37C57.27 43.8284 57.6416 44.2 58.1 44.2Z" fill="#EF3C23"/>
<path d="M41.53 56.46C41.9884 56.46 42.36 56.0884 42.36 55.63C42.36 55.1716 41.9884 54.8 41.53 54.8C41.0716 54.8 40.7 55.1716 40.7 55.63C40.7 56.0884 41.0716 56.46 41.53 56.46Z" fill="#EF3C23"/>
<path d="M36.15 16.19C36.6084 16.19 36.98 15.8184 36.98 15.36C36.98 14.9016 36.6084 14.53 36.15 14.53C35.6916 14.53 35.32 14.9016 35.32 15.36C35.32 15.8184 35.6916 16.19 36.15 16.19Z" fill="#EF3C23"/>
<path d="M57.71 12.21C58.1684 12.21 58.54 11.8384 58.54 11.38C58.54 10.9216 58.1684 10.55 57.71 10.55C57.2516 10.55 56.88 10.9216 56.88 11.38C56.88 11.8384 57.2516 12.21 57.71 12.21Z" fill="#EF3C23"/>
<path d="M22.29 8.9C22.03 8.61 21.76 8.32 21.48 8.04C20.9065 7.46028 20.2277 6.9953 19.48 6.67L19.06 6.52H19C18.8368 6.45052 18.6902 6.34709 18.5701 6.21661C18.4499 6.08612 18.3589 5.93156 18.3031 5.76319C18.2473 5.59483 18.228 5.41651 18.2464 5.2401C18.2648 5.06368 18.3206 4.89321 18.41 4.74C18.4243 4.71717 18.4339 4.69168 18.4381 4.66506C18.4424 4.63844 18.4412 4.61123 18.4347 4.58508C18.4281 4.55892 18.4164 4.53436 18.4001 4.51287C18.3838 4.49137 18.3634 4.47339 18.34 4.46C18.3171 4.44566 18.2917 4.43608 18.265 4.43183C18.2384 4.42759 18.2112 4.42877 18.1851 4.43531C18.1589 4.44185 18.1343 4.45361 18.1128 4.46988C18.0913 4.48615 18.0734 4.5066 18.06 4.53C17.9398 4.73301 17.8642 4.95932 17.8383 5.19383C17.8125 5.42834 17.8369 5.66567 17.91 5.89C17.9726 6.08024 18.071 6.25675 18.2 6.41C17.8435 6.38955 17.4865 6.44055 17.15 6.56C17.1248 6.56891 17.1017 6.58277 17.082 6.60075C17.0623 6.61873 17.0464 6.64048 17.0352 6.66471C17.024 6.68894 17.0178 6.71516 17.0169 6.74183C17.016 6.7685 17.0204 6.79508 17.03 6.82C17.0482 6.87102 17.0854 6.91303 17.1338 6.93726C17.1823 6.96148 17.2382 6.96605 17.29 6.95C18.96 6.35 20.67 7.89 21.16 8.37C21.4 8.61 21.64 8.87 21.87 9.12C20.9103 9.00118 19.9396 9.00118 18.98 9.12C18.5071 9.19568 18.0571 9.37588 17.6626 9.64748C17.2682 9.91908 16.9394 10.2752 16.7 10.69C16.6851 10.7177 16.6773 10.7486 16.6773 10.78C16.6773 10.8114 16.6851 10.8423 16.7 10.87C16.7118 10.8989 16.7309 10.9242 16.7554 10.9435C16.78 10.9628 16.8091 10.9754 16.84 10.98C17.7994 11.1712 18.7902 11.137 19.7341 10.8802C20.6781 10.6234 21.5496 10.1509 22.28 9.5C22.9399 10.2859 23.7531 10.929 24.67 11.39C25.5058 11.759 26.4371 11.8535 27.33 11.66C27.573 11.6646 27.8126 11.7183 28.0343 11.818C28.256 11.9177 28.4553 12.0612 28.62 12.24C28.7995 12.4073 28.942 12.6102 29.0385 12.8358C29.1349 13.0614 29.1831 13.3047 29.18 13.55C29.1799 13.604 29.2007 13.656 29.2379 13.6951C29.2752 13.7342 29.326 13.7574 29.38 13.76C29.4066 13.7628 29.4334 13.76 29.4588 13.7517C29.4843 13.7434 29.5076 13.7299 29.5275 13.7119C29.5473 13.694 29.5631 13.6721 29.5739 13.6476C29.5846 13.6232 29.5901 13.5967 29.59 13.57C29.59 13.57 29.59 13.51 29.59 13.48C29.557 12.9188 29.3143 12.3905 28.91 12C28.6834 11.7714 28.4153 11.5881 28.12 11.46C28.2881 11.3901 28.4517 11.31 28.61 11.22C28.9278 11.0277 29.2172 10.7921 29.47 10.52C29.6208 10.8437 29.8644 11.1152 30.17 11.3C30.7479 11.6424 31.4352 11.7498 32.09 11.6C33.0999 11.248 34.0022 10.6418 34.71 9.84C34.7483 9.79942 34.7697 9.7458 34.77 9.69C34.7747 9.67027 34.7747 9.64973 34.77 9.63C34.761 9.59476 34.7421 9.56283 34.7155 9.53801C34.6889 9.5132 34.6558 9.49653 34.62 9.49C33.1005 9.07443 31.4915 9.12319 30 9.63C30.0617 9.47135 30.1086 9.30732 30.14 9.14C30.1453 9.04674 30.1453 8.95326 30.14 8.86C30.1516 8.45013 30.0302 8.0475 29.7941 7.71226C29.558 7.37703 29.2198 7.12717 28.83 7C28.777 6.98777 28.7213 6.99657 28.6747 7.02455C28.6281 7.05252 28.5941 7.0975 28.58 7.15C28.5677 7.20298 28.5765 7.25865 28.6045 7.30527C28.6325 7.3519 28.6775 7.38586 28.73 7.4C29.07 7.51421 29.3578 7.74648 29.5413 8.0547C29.7247 8.36291 29.7917 8.72667 29.73 9.08C29.6512 9.44788 29.492 9.79377 29.2638 10.0929C29.0356 10.392 28.744 10.6369 28.41 10.81C28.0593 11.0162 27.6778 11.1648 27.28 11.25C26.4605 11.4242 25.6071 11.3368 24.84 11C23.8583 10.4773 22.9913 9.76321 22.29 8.9V8.9Z" fill="#7A913A"/>
<path d="M51.06 25H50.96L50.87 25.05C50.7039 25.1074 50.5333 25.1508 50.36 25.18C49.5969 25.2848 48.8231 25.2848 48.06 25.18C47.5288 25.1195 46.9946 25.0894 46.46 25.09C45.4653 25.1021 44.4905 25.3708 43.63 25.87C42.7277 26.3923 42.0402 27.218 41.69 28.2V28.2C41.3525 27.8742 40.9432 27.6321 40.4951 27.4932C40.0471 27.3543 39.5727 27.3223 39.11 27.4C38.5904 27.4416 38.0874 27.6024 37.64 27.87C37.2185 28.1192 36.8594 28.4612 36.59 28.87C36.5638 28.9083 36.5497 28.9536 36.5497 29C36.5497 29.0464 36.5638 29.0917 36.59 29.13C36.9318 29.5031 37.3581 29.7886 37.8332 29.9626C38.3082 30.1366 38.8181 30.194 39.32 30.13C39.7702 30.0658 40.2017 29.9069 40.5861 29.6639C40.9704 29.4209 41.2989 29.0992 41.55 28.72C41.4199 29.2657 41.4199 29.8343 41.55 30.38C41.7303 31.0608 42.1275 31.6643 42.6814 32.0991C43.2354 32.534 43.9159 32.7765 44.62 32.79C44.6467 32.7901 44.6732 32.7847 44.6977 32.7739C44.7221 32.7631 44.744 32.7473 44.762 32.7275C44.7799 32.7077 44.7934 32.6843 44.8017 32.6589C44.81 32.6335 44.8128 32.6066 44.81 32.58C44.81 32.5529 44.8046 32.526 44.7939 32.5011C44.7832 32.4761 44.7676 32.4536 44.7479 32.4349C44.7283 32.4162 44.7051 32.4017 44.6796 32.3923C44.6542 32.3828 44.6271 32.3786 44.6 32.38C43.9998 32.3566 43.423 32.1408 42.9548 31.7645C42.4866 31.3881 42.1519 30.8712 42 30.29C41.8594 29.6836 41.8776 29.0512 42.0528 28.4538C42.228 27.8565 42.5542 27.3144 43 26.88C43.9427 26.0188 45.1732 25.5409 46.45 25.54C46.968 25.5401 47.4855 25.5701 48 25.63C48.764 25.72 49.536 25.72 50.3 25.63C50.2155 25.7749 50.1483 25.9293 50.1 26.09L49.86 26.2C49.1813 26.6724 48.7119 27.3891 48.55 28.2C48.4822 28.6312 48.5307 29.0727 48.6907 29.4788C48.8507 29.8849 49.1163 30.2409 49.46 30.51C49.4942 30.5324 49.5342 30.5443 49.575 30.5443C49.6159 30.5443 49.6558 30.5324 49.69 30.51C49.9694 30.2938 50.1906 30.0115 50.3337 29.6886C50.4769 29.3657 50.5374 29.0122 50.51 28.66C50.5024 28.3557 50.479 28.0519 50.44 27.75C50.3947 27.4187 50.3747 27.0844 50.38 26.75C50.3865 26.5814 50.4099 26.4139 50.45 26.25V26.25C50.5225 25.9061 50.7226 25.6023 51.01 25.4C51.8233 25.1125 52.5427 24.6086 53.0907 23.9425C53.6387 23.2764 53.9946 22.4734 54.12 21.62C54.4921 22.1566 55.0099 22.5754 55.6124 22.827C56.2149 23.0787 56.8769 23.1526 57.52 23.04C58.0152 22.9335 58.4728 22.6966 58.8456 22.3537C59.2183 22.0108 59.4926 21.5745 59.64 21.09C59.7713 20.6005 59.7621 20.0839 59.6135 19.5994C59.465 19.1148 59.1831 18.6818 58.8 18.35C58.3972 18.0543 57.9148 17.8867 57.4154 17.8688C56.916 17.851 56.4229 17.9838 56 18.25C55.9564 18.2804 55.926 18.3262 55.9149 18.3782C55.9037 18.4301 55.9127 18.4844 55.94 18.53C55.9704 18.5736 56.0162 18.604 56.0682 18.6151C56.1202 18.6263 56.1744 18.6173 56.22 18.59C56.585 18.3743 57.0068 18.2741 57.4298 18.3027C57.8528 18.3313 58.2573 18.4872 58.59 18.75C58.9151 19.028 59.1537 19.3933 59.2778 19.8027C59.4018 20.212 59.4061 20.6483 59.29 21.06C59.1629 21.4708 58.9294 21.8406 58.6133 22.1321C58.2972 22.4236 57.9097 22.6264 57.49 22.72C56.9025 22.8232 56.2976 22.7489 55.7526 22.5067C55.2075 22.2644 54.7471 21.8652 54.43 21.36C53.9152 20.5656 53.6762 19.6238 53.75 18.68C53.7642 18.4047 53.7976 18.1307 53.85 17.86C54.141 16.65 54.6529 15.5041 55.36 14.48C55.3763 14.4583 55.3877 14.4333 55.3935 14.4068C55.3993 14.3803 55.3993 14.3529 55.3937 14.3264C55.388 14.2998 55.3767 14.2748 55.3605 14.253C55.3444 14.2312 55.3237 14.2132 55.3 14.2C55.2694 14.178 55.2327 14.1662 55.195 14.1662C55.1573 14.1662 55.1206 14.178 55.09 14.2L55.02 14.27C54.3343 15.2675 53.8206 16.3728 53.5 17.54C53.3722 16.7853 53.2854 16.0241 53.24 15.26C53.2211 14.7209 53.171 14.1833 53.09 13.65C53.0102 13.109 52.8589 12.5811 52.64 12.08C52.4343 11.5547 52.1067 11.0859 51.6842 10.7121C51.2617 10.3383 50.7564 10.0702 50.21 9.93C49.9552 9.86587 49.6859 9.89422 49.45 10.01C49.3922 10.0512 49.3386 10.0981 49.29 10.15C49.1805 10.291 49.1154 10.4613 49.1029 10.6394C49.0904 10.8174 49.1312 10.9952 49.22 11.15C49.4868 11.8887 49.95 12.5406 50.5596 13.0357C51.1693 13.5308 51.9023 13.8504 52.68 13.96V13.96C52.74 14.42 52.77 14.89 52.8 15.3C52.8522 16.4571 53.0197 17.6061 53.3 18.73C53.2492 19.5602 53.4109 20.3897 53.77 21.14C53.7641 21.163 53.7641 21.187 53.77 21.21C53.7339 22.0363 53.4586 22.8344 52.9775 23.5072C52.4964 24.18 51.8303 24.6986 51.06 25V25Z" fill="#7A913A"/>
<path d="M18.09 33.86C18.8649 34.0062 19.5511 34.4517 20 35.1C20.0374 35.1366 20.0877 35.1572 20.14 35.1572C20.1924 35.1572 20.2426 35.1366 20.28 35.1C20.3236 35.0696 20.354 35.0238 20.3651 34.9718C20.3763 34.9199 20.3673 34.8656 20.34 34.82C19.8441 34.0871 19.0784 33.5802 18.21 33.41C17.321 33.3508 16.4376 33.5901 15.7 34.09C15.5997 33.3484 15.2832 32.6528 14.79 32.09C14.3745 31.6259 13.843 31.2808 13.25 31.09V31.09C12.1753 30.7725 11.028 30.8005 9.97002 31.17C9.47151 31.3403 9.01955 31.6245 8.65002 32C8.46043 32.1869 8.32149 32.419 8.24627 32.6744C8.17105 32.9298 8.16202 33.2001 8.22002 33.46C8.21436 33.5031 8.21436 33.5469 8.22002 33.59C8.34291 33.8898 8.57028 34.1349 8.86002 34.28C9.32799 34.5071 9.86604 34.543 10.36 34.38C11.102 34.0435 11.7381 33.5111 12.2 32.84L12.73 32.17L13.17 31.62C13.6426 31.7862 14.068 32.0641 14.41 32.43C14.899 32.9892 15.1968 33.6899 15.26 34.43C15.3365 35.2367 15.2825 36.0505 15.1 36.84C14.9514 37.7482 14.6105 38.6142 14.1 39.38C13.8429 39.745 13.5093 40.0494 13.1224 40.2722C12.7355 40.495 12.3047 40.6308 11.86 40.67C11.8061 40.6726 11.7552 40.6958 11.718 40.7349C11.6807 40.774 11.66 40.826 11.66 40.88C11.6557 40.9031 11.6557 40.9269 11.66 40.95C11.6744 40.9886 11.7004 41.0218 11.7344 41.0451C11.7685 41.0683 11.8088 41.0805 11.85 41.08C12.3558 41.0419 12.8469 40.8921 13.2878 40.6414C13.7288 40.3906 14.1086 40.0452 14.4 39.63C14.9605 38.8431 15.3489 37.947 15.54 37C15.7237 36.2073 15.7844 35.3911 15.72 34.58C16.4074 34.082 17.2418 33.8286 18.09 33.86Z" fill="#7A913A"/>
<path d="M56.29 29.11H56.35C56.5815 28.9697 56.777 28.7773 56.9211 28.5482C57.0652 28.319 57.1538 28.0594 57.18 27.79C57.2162 27.5416 57.1934 27.2881 57.1135 27.0501C57.0336 26.8121 56.8988 26.5963 56.72 26.42C56.5209 26.2401 56.2655 26.1348 55.9975 26.122C55.7295 26.1093 55.4653 26.1898 55.25 26.35C55.1426 26.454 55.0599 26.5808 55.008 26.7209C54.9561 26.8611 54.9363 27.0111 54.95 27.16C54.9613 27.2907 55.0035 27.4168 55.073 27.5281C55.1426 27.6393 55.2375 27.7325 55.35 27.8C55.3979 27.8254 55.4539 27.8313 55.5061 27.8164C55.5583 27.8015 55.6027 27.7669 55.63 27.72C55.6554 27.672 55.6613 27.6161 55.6464 27.5639C55.6315 27.5117 55.5969 27.4673 55.55 27.44C55.4956 27.4027 55.4503 27.3537 55.4174 27.2966C55.3846 27.2395 55.3649 27.1757 55.36 27.11C55.3511 27.0278 55.3609 26.9446 55.3886 26.8667C55.4163 26.7888 55.4612 26.7182 55.52 26.66C55.658 26.564 55.8248 26.5185 55.9925 26.5312C56.1601 26.544 56.3181 26.6142 56.44 26.73C56.5692 26.8597 56.667 27.0173 56.7259 27.1906C56.7849 27.3639 56.8033 27.5484 56.78 27.73C56.7533 27.9372 56.6789 28.1353 56.5626 28.3088C56.4464 28.4823 56.2914 28.6265 56.11 28.73C55.9316 28.825 55.7266 28.8579 55.5274 28.8235C55.3283 28.7891 55.1462 28.6893 55.01 28.54C54.9699 28.5048 54.9183 28.4855 54.865 28.4855C54.8116 28.4855 54.7601 28.5048 54.72 28.54C54.7153 28.5597 54.7153 28.5803 54.72 28.6C54.6793 28.6287 54.6508 28.6714 54.64 28.72C54.4984 29.3766 54.4546 30.0506 54.51 30.72V30.72C54.5992 31.8825 54.9618 33.0075 55.5683 34.0032C56.1748 34.999 57.008 35.8374 58 36.45C58.0734 36.5011 58.1574 36.5349 58.2458 36.5487C58.3341 36.5626 58.4245 36.5562 58.51 36.53V36.53C58.63 36.47 58.76 36.32 58.74 35.98C58.6663 34.8038 58.2648 33.6718 57.5808 32.7121C56.8968 31.7524 55.9578 31.0034 54.87 30.55C54.8565 30.0467 54.9001 29.5435 55 29.05C55.1932 29.1661 55.4122 29.2324 55.6374 29.2429C55.8626 29.2534 56.0868 29.2077 56.29 29.11Z" fill="#7A913A"/>
<path d="M6.42997 52.17C6.17234 51.2243 5.83789 50.3012 5.42997 49.41C5.18997 48.87 4.93997 48.32 4.72997 47.75C4.0379 46.2603 3.93083 44.5649 4.42997 43C4.63065 42.5395 4.923 42.1247 5.28919 41.7808C5.65539 41.437 6.08776 41.1713 6.55997 41C6.01284 40.22 5.67811 39.3111 5.58869 38.3625C5.49927 37.414 5.65824 36.4585 6.04997 35.59C6.0671 35.5562 6.09267 35.5274 6.1242 35.5063C6.15574 35.4853 6.19217 35.4728 6.22997 35.47C6.26585 35.4707 6.30102 35.4802 6.33239 35.4976C6.36377 35.5151 6.3904 35.5399 6.40997 35.57C6.88339 36.3587 7.1851 37.2385 7.29538 38.1517C7.40566 39.065 7.32204 39.9913 7.04997 40.87C7.54865 40.7665 8.06676 40.8117 8.53997 41C8.9825 41.2226 9.3646 41.5489 9.65366 41.9511C9.94272 42.3534 10.1302 42.8196 10.2 43.31C10.2047 43.3398 10.2047 43.3702 10.2 43.4V43.46C10.2152 43.5962 10.2152 43.7338 10.2 43.87C10.2734 44.4935 10.5594 45.0727 11.01 45.51C11.301 45.7464 11.6481 45.9037 12.0177 45.9668C12.3874 46.0299 12.767 45.9965 13.12 45.87C13.1455 45.8607 13.1727 45.8567 13.1999 45.8582C13.2271 45.8598 13.2536 45.8668 13.278 45.879C13.3023 45.8912 13.3239 45.9082 13.3414 45.929C13.359 45.9498 13.3721 45.974 13.38 46C13.3966 46.0505 13.3934 46.1054 13.3712 46.1536C13.3489 46.2019 13.3092 46.2399 13.26 46.26C12.9841 46.3591 12.6931 46.4098 12.4 46.41C11.7996 46.4122 11.2169 46.2073 10.75 45.83C10.5098 45.62 10.3128 45.3652 10.17 45.08C10.143 45.2717 10.1063 45.462 10.06 45.65C9.93997 46.16 9.52997 47.35 8.49997 47.45C8.14596 47.425 7.80928 47.2872 7.53932 47.0569C7.26936 46.8265 7.08033 46.5157 6.99997 46.17C6.84857 45.5119 6.84857 44.8281 6.99997 44.17C7.00861 44.1247 7.03189 44.0836 7.06622 44.0529C7.10055 44.0221 7.14404 44.0036 7.18997 44C7.21636 44.0037 7.24176 44.0125 7.26466 44.0262C7.28757 44.0398 7.30753 44.0578 7.32336 44.0792C7.3392 44.1007 7.3506 44.125 7.35688 44.1509C7.36317 44.1768 7.36422 44.2037 7.35997 44.23C7.22513 44.8258 7.22513 45.4442 7.35997 46.04C7.4191 46.3134 7.56681 46.5595 7.78018 46.7404C7.99354 46.9212 8.26062 47.0265 8.53997 47.04C9.32997 46.96 9.65997 45.87 9.73997 45.54C9.87565 45.0046 9.92294 44.4506 9.87997 43.9C9.87084 43.7702 9.87084 43.6398 9.87997 43.51C9.83743 43.0602 9.68229 42.6284 9.42887 42.2544C9.17545 41.8804 8.83192 41.5762 8.42997 41.37C7.95751 41.1588 7.4243 41.1268 6.92997 41.28C6.47058 41.4187 6.04761 41.6574 5.69143 41.979C5.33526 42.3006 5.05472 42.6971 4.86997 43.14C4.39096 44.6197 4.48373 46.2253 5.12997 47.64C5.33997 48.19 5.57997 48.74 5.81997 49.27C6.2549 50.1784 6.61283 51.1217 6.88997 52.09C7.05463 52.744 7.13859 53.4156 7.13997 54.09C7.3284 53.758 7.57186 53.4604 7.85997 53.21C7.85997 53.21 7.85997 53.21 7.85997 53.21C7.87078 53.196 7.88433 53.1843 7.89981 53.1757C7.91529 53.1671 7.93235 53.1618 7.94997 53.16C8.06041 53.0743 8.17744 52.9973 8.29997 52.93C9.01298 52.6045 9.76633 52.3758 10.54 52.25L11.19 52.1C12.1265 51.9496 12.9894 51.5007 13.65 50.82C13.6736 50.7803 13.7102 50.7499 13.7536 50.7342C13.7971 50.7184 13.8446 50.7181 13.8882 50.7335C13.9318 50.7488 13.9688 50.7787 13.9928 50.8182C14.0168 50.8577 14.0264 50.9042 14.02 50.95C13.9745 51.5893 13.7647 52.2061 13.4108 52.7405C13.0569 53.2748 12.5709 53.7087 12 54C11.5748 54.1984 11.109 54.2943 10.64 54.28C9.7129 54.2792 8.80238 54.0343 7.99997 53.57C7.49258 54.1031 7.14596 54.7686 6.99997 55.49C6.82405 56.5726 6.46563 57.6174 5.93997 58.58C7.805 57.5132 9.99326 57.158 12.1 57.58C13.236 57.7776 14.3609 58.0346 15.47 58.35L17.17 58.79C18.9906 57.3316 21.2796 56.5852 23.61 56.69C23.6533 56.6935 23.6943 56.711 23.7268 56.7399C23.7592 56.7687 23.7814 56.8074 23.79 56.85C23.8766 57.3135 23.8127 57.7926 23.6076 58.2172C23.4025 58.6418 23.0669 58.9897 22.65 59.21C21.844 59.6054 20.9427 59.7649 20.05 59.67C19.0823 59.5961 18.1223 59.4422 17.18 59.21C16.57 59.07 15.96 58.91 15.36 58.75C14.2549 58.4374 13.1331 58.187 12 58C9.08997 57.55 6.51997 58.22 5.11997 59.8C5.01392 59.9457 4.90044 60.0859 4.77997 60.22V60.22H4.50997V60.1V60C4.6167 59.8489 4.73364 59.7052 4.85997 59.57C5.74955 58.3939 6.34603 57.0226 6.59997 55.57C6.59997 55.57 6.59997 55.57 6.59997 55.57C6.78789 54.4376 6.72991 53.278 6.42997 52.17V52.17Z" fill="#7A913A"/>
<path d="M8.17998 5.2C8.66052 6.33426 9.40787 7.3357 10.3585 8.11917C11.3091 8.90263 12.4348 9.44495 13.64 9.7C14.0912 10.4962 14.4087 11.361 14.58 12.26C14.2432 12.2627 13.9078 12.303 13.58 12.38L12.84 12.61C12.3152 12.8406 11.7413 12.9368 11.17 12.89C10.07 12.71 9.42998 11.44 9.27998 10.27H9.21998H8.89998C8.80649 12.0595 9.06469 13.8499 9.65998 15.54C9.85998 16.26 10.07 17.01 10.22 17.72C10.4547 18.9095 10.4851 20.1303 10.31 21.33C10.1934 21.1506 10.0594 20.9831 9.90998 20.83C9.40084 20.3984 8.79424 20.0972 8.1426 19.9526C7.49097 19.808 6.81392 19.8243 6.16998 20C5.70998 20.1 5.16998 20.38 5.16998 20.88C5.1789 21.025 5.21931 21.1663 5.28839 21.2941C5.35747 21.4219 5.45356 21.5331 5.56998 21.62C6.18226 22.1676 6.95816 22.4977 7.77725 22.5592C8.59635 22.6206 9.41283 22.41 10.1 21.96C9.84205 23.2013 9.36456 24.3866 8.68998 25.46C8.37332 26.0463 7.91206 26.542 7.34998 26.9C7.07904 27.0543 6.76991 27.1287 6.45841 27.1146C6.14692 27.1004 5.84581 26.9983 5.58998 26.82C5.57218 26.8006 5.55055 26.7851 5.52645 26.7745C5.50235 26.7639 5.47631 26.7585 5.44998 26.7585C5.42366 26.7585 5.39762 26.7639 5.37352 26.7745C5.34942 26.7851 5.32778 26.8006 5.30998 26.82C5.29032 26.8387 5.27465 26.8612 5.26395 26.8861C5.25325 26.911 5.24773 26.9379 5.24773 26.965C5.24773 26.9921 5.25325 27.019 5.26395 27.0439C5.27465 27.0688 5.29032 27.0913 5.30998 27.11C5.62463 27.3469 6.0022 27.4855 6.39536 27.5087C6.78851 27.5318 7.17974 27.4383 7.51998 27.24C8.15953 26.8673 8.6931 26.3371 9.06998 25.7C10.5596 23.3174 11.0919 20.4591 10.56 17.7C10.41 16.97 10.2 16.22 9.99998 15.49C9.61118 14.2635 9.3498 13.0001 9.21998 11.72C9.3678 12.1245 9.61452 12.4856 9.93766 12.7703C10.2608 13.055 10.6501 13.2543 11.07 13.35C11.7085 13.4064 12.3511 13.3033 12.94 13.05C13.17 12.97 13.41 12.89 13.65 12.83C14.0329 12.7386 14.4268 12.7015 14.82 12.72V12.72C15.5427 12.7595 16.2446 12.9763 16.8637 13.3513C17.4828 13.7262 18.0001 14.2478 18.37 14.87C18.6911 15.4058 18.8411 16.0267 18.8 16.65C18.7746 16.9493 18.6789 17.2384 18.5208 17.4939C18.3627 17.7493 18.1466 17.9638 17.89 18.12C17.6872 18.2251 17.4638 18.284 17.2356 18.2927C17.0074 18.3013 16.7801 18.2594 16.57 18.17C16.3542 18.0935 16.1584 17.9692 15.9974 17.8064C15.8364 17.6437 15.7142 17.4466 15.64 17.23C15.5781 17.0105 15.5658 16.7801 15.6038 16.5553C15.6419 16.3305 15.7294 16.1169 15.86 15.93C15.9778 15.7353 16.1377 15.5695 16.3281 15.4449C16.5185 15.3203 16.7344 15.24 16.96 15.21C16.9876 15.2075 17.0145 15.1995 17.039 15.1866C17.0635 15.1737 17.0853 15.156 17.1029 15.1346C17.1206 15.1132 17.1338 15.0885 17.1419 15.062C17.15 15.0355 17.1527 15.0076 17.15 14.98C17.1425 14.926 17.1143 14.8771 17.0714 14.8435C17.0285 14.8099 16.9742 14.7943 16.92 14.8C16.6311 14.8357 16.3536 14.9341 16.1067 15.0882C15.8597 15.2423 15.6494 15.4484 15.4904 15.6921C15.3314 15.9359 15.2275 16.2114 15.186 16.4995C15.1444 16.7876 15.1663 17.0812 15.25 17.36C15.3502 17.6301 15.5061 17.876 15.7077 18.0817C15.9093 18.2875 16.152 18.4484 16.4199 18.5541C16.6879 18.6598 16.9751 18.7078 17.2628 18.695C17.5506 18.6822 17.8324 18.609 18.09 18.48C18.4037 18.2925 18.6686 18.0335 18.8633 17.7242C19.0579 17.4149 19.1767 17.0639 19.21 16.7C19.2508 16.0006 19.0838 15.3047 18.73 14.7C18.5339 14.3553 18.2917 14.0391 18.01 13.76C17.2027 12.9594 16.1421 12.4645 15.01 12.36C14.8554 11.3266 14.5131 10.3302 14 9.42V9.42C13.5462 8.61132 12.9806 7.87069 12.32 7.22C11.2633 6.12557 9.93453 5.33178 8.46998 4.92C8.42377 4.90395 8.37364 4.90306 8.32689 4.91744C8.28013 4.93183 8.23918 4.96075 8.20998 5C8.18766 5.02766 8.17311 5.06078 8.16784 5.09593C8.16257 5.13108 8.16676 5.16701 8.17998 5.2V5.2Z" fill="#7A913A"/>
<path d="M28.66 55.89C29.4713 56.5807 30.4948 56.9724 31.56 57L31.4 57.12C31.0582 57.4254 30.7437 57.76 30.46 58.12C30.1206 58.5654 29.7121 58.9536 29.25 59.27C28.6885 59.5843 28.0318 59.6835 27.4025 59.5492C26.7732 59.4149 26.2142 59.0562 25.83 58.54C25.8158 58.5174 25.7972 58.4979 25.7753 58.4826C25.7534 58.4673 25.7287 58.4566 25.7026 58.451C25.6765 58.4454 25.6496 58.4451 25.6234 58.4501C25.5972 58.455 25.5722 58.4652 25.55 58.48C25.5037 58.5106 25.4714 58.5583 25.4602 58.6126C25.4489 58.667 25.4596 58.7235 25.49 58.77C25.9373 59.3765 26.5914 59.798 27.3286 59.9546C28.0657 60.1113 28.8347 59.9922 29.49 59.62C29.9925 59.2787 30.438 58.8602 30.81 58.38C31.0748 58.0472 31.3693 57.7393 31.69 57.46C31.9084 57.2802 32.1466 57.1258 32.4 57V57C33.2731 56.6042 34.2428 56.4721 35.19 56.62C35.6828 56.7961 36.1302 57.0796 36.5 57.45C36.693 57.6321 36.8392 57.8581 36.9262 58.1088C37.0133 58.3595 37.0386 58.6275 37 58.89C36.9563 59.1318 36.8251 59.3491 36.6314 59.5003C36.4378 59.6516 36.1952 59.7262 35.95 59.71C35.8296 59.6843 35.7182 59.6273 35.6269 59.5448C35.5356 59.4623 35.4677 59.3571 35.43 59.24C35.3915 59.151 35.3768 59.0535 35.3873 58.9571C35.3978 58.8607 35.4332 58.7686 35.49 58.69C35.5149 58.6711 35.5353 58.647 35.5496 58.6193C35.564 58.5915 35.572 58.561 35.5731 58.5298C35.5742 58.4985 35.5683 58.4675 35.5558 58.4389C35.5434 58.4102 35.5247 58.3847 35.5012 58.3642C35.4776 58.3437 35.4498 58.3287 35.4197 58.3203C35.3896 58.3119 35.3581 58.3103 35.3273 58.3157C35.2965 58.321 35.2673 58.3331 35.2419 58.3512C35.2164 58.3692 35.1952 58.3927 35.18 58.42C35.07 58.5593 34.9991 58.7253 34.9745 58.901C34.9499 59.0768 34.9725 59.2559 35.04 59.42C35.1054 59.6047 35.2169 59.7696 35.3639 59.8991C35.5109 60.0286 35.6885 60.1184 35.88 60.16C36.2355 60.1959 36.5916 60.0964 36.877 59.8814C37.1625 59.6664 37.3564 59.3517 37.42 59C37.4761 58.6705 37.4488 58.3322 37.3405 58.016C37.2322 57.6999 37.0463 57.4159 36.8 57.19L36.56 56.96C37.6939 57.3837 38.7827 57.9197 39.81 58.56C39.8568 58.5863 39.9118 58.5937 39.9639 58.5807C40.016 58.5677 40.0611 58.5352 40.09 58.49C40.1043 58.4672 40.1139 58.4417 40.1182 58.4151C40.1224 58.3884 40.1212 58.3612 40.1147 58.3351C40.1081 58.3089 40.0964 58.2844 40.0801 58.2629C40.0638 58.2414 40.0434 58.2234 40.02 58.21C39.39 57.84 38.74 57.47 38.08 57.15C37.374 56.7946 36.6289 56.5228 35.86 56.34L35.31 56.25H35.23C34.2123 56.0969 33.172 56.2356 32.23 56.65C31.0382 56.7641 29.8493 56.4049 28.92 55.65C28.667 55.4081 28.4746 55.11 28.3582 54.78C28.2418 54.4499 28.2047 54.0971 28.25 53.75C28.3083 53.4279 28.4834 53.1385 28.7417 52.9374C29 52.7363 29.3234 52.6375 29.65 52.66C29.8109 52.7037 29.9583 52.7871 30.0788 52.9023C30.1994 53.0176 30.2891 53.1612 30.34 53.32C30.3864 53.4437 30.3987 53.5776 30.3759 53.7077C30.353 53.8379 30.2957 53.9595 30.21 54.06C30.1855 54.1012 30.1758 54.1495 30.1826 54.197C30.1894 54.2444 30.2122 54.2881 30.2472 54.3208C30.2823 54.3535 30.3274 54.3733 30.3752 54.3767C30.423 54.3802 30.4706 54.3673 30.51 54.34C30.6482 54.1867 30.7418 53.9984 30.7805 53.7957C30.8193 53.593 30.8018 53.3835 30.73 53.19C30.6733 53.0111 30.5812 52.8455 30.4593 52.7029C30.3373 52.5603 30.1879 52.4437 30.02 52.36C29.9259 52.311 29.8247 52.2772 29.72 52.26C29.2864 52.2157 28.8521 52.3377 28.505 52.6013C28.1579 52.8649 27.9238 53.2504 27.85 53.68C27.8017 54.0861 27.8498 54.4979 27.9906 54.8819C28.1313 55.2659 28.3607 55.6113 28.66 55.89V55.89Z" fill="#7A913A"/>
<path d="M47.33 7.8C47.3534 7.81396 47.3795 7.82297 47.4065 7.82649C47.4336 7.83001 47.461 7.82796 47.4873 7.82047C47.5135 7.81298 47.5379 7.8002 47.559 7.78292C47.5801 7.76564 47.5975 7.74423 47.61 7.72C47.6239 7.69657 47.633 7.67053 47.6365 7.64348C47.64 7.61643 47.6379 7.58895 47.6305 7.56273C47.623 7.5365 47.6102 7.51208 47.5929 7.49098C47.5756 7.46987 47.5542 7.45253 47.53 7.44C46.9631 7.1904 46.3423 7.08795 45.7252 7.14214C45.1081 7.19633 44.5147 7.40541 44 7.75C43.4688 8.06809 42.9578 8.41876 42.47 8.8C42.0321 9.16278 41.5711 9.49681 41.09 9.8C40.6313 10.1095 40.1059 10.3061 39.5568 10.3739C39.0076 10.4417 38.4502 10.3787 37.93 10.19C37.5441 9.94854 37.213 9.62892 36.9581 9.25173C36.7032 8.87454 36.5301 8.44814 36.45 8C36.3106 7.469 36.3106 6.91101 36.45 6.38C36.5119 6.13053 36.6295 5.89833 36.794 5.70087C36.9586 5.50342 37.1658 5.34584 37.4 5.24C37.6255 5.14601 37.8756 5.12837 38.1121 5.18975C38.3487 5.25114 38.5586 5.38819 38.71 5.58C38.7759 5.68267 38.819 5.79832 38.8362 5.91911C38.8535 6.0399 38.8445 6.16298 38.81 6.28C38.7856 6.38028 38.7399 6.47415 38.6761 6.55524C38.6123 6.63633 38.5317 6.70276 38.44 6.75C38.4142 6.75691 38.39 6.76892 38.369 6.78532C38.3479 6.80171 38.3303 6.82217 38.3172 6.84547C38.3042 6.86877 38.2959 6.89445 38.293 6.92099C38.29 6.94753 38.2924 6.9744 38.3 7C38.3108 7.02462 38.3264 7.04682 38.3459 7.06526C38.3655 7.08371 38.3885 7.09803 38.4137 7.10736C38.4389 7.11669 38.4658 7.12085 38.4926 7.11959C38.5195 7.11832 38.5458 7.11166 38.57 7.1C38.7184 7.03114 38.8493 6.92977 38.9532 6.8034C39.0571 6.67703 39.1312 6.5289 39.17 6.37C39.2139 6.20132 39.2224 6.02535 39.1949 5.85322C39.1673 5.68109 39.1044 5.51655 39.01 5.37C38.806 5.10129 38.5188 4.90755 38.1933 4.81894C37.8678 4.73032 37.5221 4.75179 37.21 4.88C36.9151 5.00316 36.6525 5.19262 36.4426 5.43368C36.2328 5.67475 36.0813 5.96092 36 6.27C35.8459 6.86688 35.8459 7.49312 36 8.09C36.0963 8.59189 36.2976 9.06778 36.5905 9.48653C36.8835 9.90528 37.2615 10.2575 37.7 10.52C38.0907 10.7162 38.5228 10.8156 38.96 10.81C39.7692 10.7765 40.5569 10.5391 41.25 10.12C41.7415 9.81321 42.2155 9.47936 42.67 9.12C43.132 8.75207 43.62 8.41788 44.13 8.12C44.591 7.79639 45.1276 7.59695 45.6881 7.5409C46.2485 7.48486 46.814 7.57409 47.33 7.8V7.8Z" fill="#7A913A"/>
<path d="M37.32 23.74C37.2721 23.7344 37.2237 23.7455 37.1831 23.7714C37.1424 23.7973 37.1118 23.8364 37.0966 23.8822C37.0813 23.9279 37.0823 23.9776 37.0993 24.0227C37.1163 24.0678 37.1484 24.1057 37.19 24.13C39.67 24.99 42.29 23.68 43.82 22L43.87 21.94C43.9969 21.8053 44.1139 21.6616 44.22 21.51C45.1719 20.2052 45.852 18.7226 46.22 17.15C46.2609 17.1399 46.2965 17.1149 46.32 17.08C46.9036 16.3625 47.7216 15.8739 48.63 15.7C48.8193 15.6484 49.0175 15.6386 49.211 15.6715C49.4044 15.7043 49.5883 15.7789 49.75 15.89C49.8108 15.9643 49.8518 16.0528 49.8693 16.1472C49.8868 16.2416 49.8802 16.3389 49.85 16.43C49.8362 16.4802 49.8096 16.526 49.7728 16.5628C49.736 16.5996 49.6902 16.6262 49.64 16.64C49.587 16.64 49.5361 16.6611 49.4986 16.6986C49.4611 16.7361 49.44 16.787 49.44 16.84C49.44 16.893 49.4611 16.9439 49.4986 16.9814C49.5361 17.0189 49.587 17.04 49.64 17.04C49.7678 17.0206 49.8875 16.9651 49.9849 16.8801C50.0823 16.795 50.1535 16.684 50.19 16.56C50.2482 16.3898 50.2593 16.2071 50.2224 16.0312C50.1854 15.8552 50.1017 15.6924 49.98 15.56C49.7769 15.3959 49.5374 15.283 49.2816 15.2308C49.0258 15.1786 48.7612 15.1886 48.51 15.26C47.7752 15.3892 47.0863 15.7062 46.51 16.18C46.4421 16.2313 46.3785 16.2882 46.32 16.35C46.48 15.61 46.62 14.87 46.73 14.13C46.7387 14.0757 46.7258 14.0201 46.694 13.9753C46.6623 13.9304 46.6141 13.8998 46.56 13.89C46.5073 13.884 46.4543 13.8983 46.4116 13.9298C46.3689 13.9613 46.3398 14.0079 46.33 14.06C46.084 16.2018 45.4539 18.2817 44.47 20.2C44.6058 19.6944 44.6764 19.1735 44.68 18.65C44.6818 18.2807 44.6279 17.9132 44.52 17.56C44.0608 16.256 43.3846 15.0389 42.52 13.96C42.02 13.28 41.6 13.33 41.39 13.41C41.3302 13.4377 41.2732 13.4711 41.22 13.51C41.1136 13.6176 41.0303 13.7459 40.9753 13.8869C40.9202 14.0279 40.8946 14.1787 40.9 14.33C40.8771 15.3791 41.2021 16.4062 41.8244 17.251C42.4468 18.0959 43.3313 18.7109 44.34 19V19C44.2695 19.9491 43.9821 20.8694 43.5 21.69C42.11 23.3 39.63 24.54 37.32 23.74Z" fill="#7A913A"/>
<path d="M58.62 4.66C58.5958 4.64834 58.5695 4.64168 58.5427 4.64041C58.5158 4.63915 58.489 4.64331 58.4638 4.65264C58.4386 4.66198 58.4155 4.67629 58.396 4.69474C58.3764 4.71319 58.3608 4.73538 58.35 4.76C57.7968 5.84751 56.9069 6.72713 55.8131 7.26774C54.7192 7.80836 53.48 7.98102 52.28 7.76C51.87 7.68 50.91 7.41 50.67 6.64C50.6086 6.39853 50.6184 6.14444 50.6982 5.90842C50.7781 5.67239 50.9246 5.46455 51.12 5.31C51.3207 5.14506 51.5581 5.0308 51.8122 4.97684C52.0663 4.92289 52.3296 4.93083 52.58 5C52.791 5.04582 52.9832 5.1544 53.1313 5.31145C53.2795 5.46851 53.3766 5.66671 53.41 5.88C53.4011 5.98558 53.3638 6.08679 53.3022 6.17301C53.2407 6.25924 53.157 6.32728 53.06 6.37C53.0034 6.4066 52.9374 6.42606 52.87 6.42606C52.8026 6.42606 52.7366 6.4066 52.68 6.37C52.6613 6.35033 52.6389 6.33467 52.6139 6.32397C52.589 6.31327 52.5622 6.30775 52.535 6.30775C52.5079 6.30775 52.4811 6.31327 52.4561 6.32397C52.4312 6.33467 52.4087 6.35033 52.39 6.37C52.3534 6.40739 52.3329 6.45765 52.3329 6.51C52.3329 6.56235 52.3534 6.61262 52.39 6.65C52.5023 6.7447 52.6403 6.80383 52.7863 6.81986C52.9324 6.83589 53.0798 6.80809 53.21 6.74C53.378 6.66481 53.5219 6.54474 53.626 6.39301C53.7301 6.24127 53.7903 6.06376 53.8 5.88C53.7627 5.58665 53.6377 5.31139 53.4415 5.09017C53.2452 4.86895 52.9868 4.71206 52.7 4.64C52.3887 4.54682 52.0594 4.5309 51.7405 4.59363C51.4216 4.65635 51.1229 4.79583 50.87 5C50.6078 5.20369 50.4117 5.48054 50.3067 5.79557C50.2017 6.1106 50.1924 6.44969 50.28 6.77C50.4424 7.154 50.7057 7.4869 51.042 7.73338C51.3782 7.97986 51.775 8.13073 52.19 8.17C52.5615 8.24941 52.9402 8.28963 53.32 8.29C54.4356 8.28534 55.5286 7.97534 56.4806 7.39361C57.4325 6.81188 58.207 5.98063 58.72 4.99C58.741 4.96343 58.7553 4.93217 58.7616 4.89888C58.7679 4.8656 58.7661 4.83129 58.7563 4.79887C58.7464 4.76645 58.7289 4.73689 58.7052 4.71271C58.6815 4.68853 58.6522 4.67044 58.62 4.66V4.66Z" fill="#7A913A"/>
<path d="M55.65 46.44C55.5714 45.7627 55.4342 45.0936 55.24 44.44C55.17 44.19 55.09 43.92 55.03 43.66C54.78 42.7923 54.7696 41.8731 55 41C55.1174 40.5905 55.356 40.2262 55.6844 39.9549C56.0128 39.6835 56.4157 39.518 56.84 39.48C56.893 39.48 56.9439 39.4589 56.9814 39.4214C57.0189 39.3839 57.04 39.333 57.04 39.28C57.0378 39.2267 57.0163 39.176 56.9795 39.1374C56.9427 39.0988 56.8931 39.0748 56.84 39.07C56.3299 39.1094 55.8437 39.3025 55.4455 39.6238C55.0474 39.9452 54.7561 40.3797 54.61 40.87C54.3679 41.8137 54.3852 42.8053 54.66 43.74L54.87 44.53C55.0577 45.154 55.1916 45.7931 55.27 46.44C55.3462 47.3889 55.1703 48.341 54.76 49.2C53.8143 49.3437 52.9138 49.7012 52.1271 50.2454C51.3404 50.7895 50.6881 51.5059 50.22 52.34C50.2025 52.3722 50.1933 52.4083 50.1933 52.445C50.1933 52.4817 50.2025 52.5178 50.22 52.55C50.2441 52.5843 50.2795 52.609 50.32 52.62C50.3457 52.63 50.3743 52.63 50.4 52.62C51.9202 52.4995 53.3302 51.7801 54.32 50.62C54.6132 50.276 54.8619 49.8963 55.06 49.49V49.49C55.5294 48.5456 55.7333 47.4913 55.65 46.44V46.44Z" fill="#7A913A"/>
<path d="M59.09 51.54C59.3485 50.8362 59.4039 50.0738 59.25 49.34C59.1642 49.0308 58.9946 48.7513 58.7599 48.5324C58.5252 48.3136 58.2345 48.1639 57.92 48.1H57.74C57.4366 48.1064 57.1428 48.2078 56.9 48.39C56.7761 48.485 56.6724 48.6038 56.5952 48.7395C56.5179 48.8752 56.4685 49.025 56.45 49.18C56.4411 49.3653 56.4795 49.5497 56.5618 49.716C56.644 49.8822 56.7673 50.0247 56.92 50.13C57.0505 50.2306 57.2054 50.2947 57.3688 50.3158C57.5322 50.3369 57.6983 50.3142 57.85 50.25C57.9025 50.2359 57.9475 50.2019 57.9755 50.1553C58.0035 50.1086 58.0123 50.053 58 50C57.9892 49.9754 57.9736 49.9532 57.9541 49.9347C57.9345 49.9163 57.9115 49.902 57.8863 49.8926C57.8611 49.8833 57.8342 49.8791 57.8074 49.8804C57.7806 49.8817 57.7542 49.8883 57.73 49.9C57.6434 49.9338 57.5491 49.9433 57.4575 49.9275C57.3658 49.9116 57.2802 49.871 57.21 49.81C57.1148 49.7492 57.0371 49.6647 56.9845 49.5648C56.9318 49.4648 56.9062 49.3529 56.91 49.24C56.9212 49.14 56.9537 49.0436 57.0055 48.9573C57.0573 48.871 57.127 48.7969 57.21 48.74C57.3067 48.6603 57.4187 48.6014 57.5392 48.5669C57.6596 48.5325 57.7859 48.5234 57.91 48.54C58.1554 48.5924 58.3805 48.7147 58.5579 48.8921C58.7353 49.0696 58.8576 49.2946 58.91 49.54C59.0403 50.2095 58.9814 50.9021 58.74 51.54L58.68 51.77C58.09 54.0897 58.09 56.5203 58.68 58.84C58.075 58.3034 57.3657 57.8977 56.5965 57.6482C55.8273 57.3987 55.0148 57.3108 54.21 57.39C53.4862 57.5226 52.7833 57.7512 52.12 58.07C51.3085 57.3456 50.2578 56.9467 49.17 56.95C48.7011 56.9474 48.2349 57.0217 47.79 57.17C47.5538 57.2327 47.3458 57.3737 47.2 57.57C46.92 58.01 47.2 58.57 47.67 58.84C48.1984 59.1224 48.7854 59.2776 49.3844 59.2932C49.9833 59.3089 50.5776 59.1845 51.12 58.93C51.46 58.8 51.8 58.65 52.12 58.51C52.7931 58.1744 53.5102 57.9354 54.25 57.8C55.0848 57.7267 55.9254 57.8404 56.7107 58.1327C57.496 58.4251 58.2064 58.8887 58.79 59.49C58.8087 59.5097 58.8312 59.5253 58.8561 59.536C58.8811 59.5467 58.9079 59.5522 58.935 59.5522C58.9622 59.5522 58.989 59.5467 59.0139 59.536C59.0388 59.5253 59.0613 59.5097 59.08 59.49C59.1111 59.4576 59.1289 59.4148 59.13 59.37C59.1476 59.3396 59.1568 59.3051 59.1568 59.27C59.1568 59.2349 59.1476 59.2004 59.13 59.17C58.4171 56.7641 58.3721 54.2095 59 51.78L59.09 51.54Z" fill="#7A913A"/>
<path d="M24.58 20.75C22.411 21.7847 20.1558 22.6279 17.84 23.27C15.72 22.74 18.36 21.43 19.35 21.33C23.6489 20.0356 27.7832 18.247 31.67 16C33.31 15.3 33.34 10.71 35.67 12.81C38.44 16.14 33.22 16.57 32.78 18.71C32.0433 24.1105 31.6292 29.5502 31.54 35C31.66 36 30.89 37.72 32.11 38.22C34.79 38.84 37.44 40.65 40.24 40.17C41.89 39.77 41.1 38.17 39.75 38.52C39.42 38.6 39.06 38.94 38.75 38.52C38.66 30.78 54.93 35.66 47.42 48.28C44.53 53.13 35.42 52.2 30.15 48.83C29.42 48.65 28.15 46.91 27.66 48.14C22.16 55.88 8.30999 47.04 18.16 40.05C19.35 38.5 23 38.3 23.16 36.7C23.64 31.43 24.6 26.06 24.58 20.75ZM16.06 45.55C15.8 48.39 19.69 49.63 20.75 47.6C21.423 46.277 21.9623 44.8901 22.36 43.46C22.36 43.46 20.36 41.7 19 41.83C18.1835 42.0665 17.4612 42.5522 16.9341 43.2191C16.407 43.886 16.1014 44.7009 16.06 45.55V45.55ZM29.22 34.12C29.22 44.83 30.69 26.27 30.8 24.23C30.8 23.54 32.17 16.62 30.59 19.23C29.8253 24.1602 29.3678 29.1331 29.22 34.12V34.12Z" fill="#383529"/>
</g>
<defs>
<clipPath id="clip0">
<rect width="64" height="64" fill="white"/>
</clipPath>
</defs>
</svg>
