<svg width="64" height="64" viewBox="0 0 64 64" fill="none" xmlns="http://www.w3.org/2000/svg">
<g clip-path="url(#clip0)">
<path d="M64 64.09H0V0.0900002H64V64.09ZM1.41 62.73H62.67V1.46H1.41V62.73Z" fill="#383529"/>
<path d="M61.5 2.73H2.59003V61.64H61.5V2.73Z" fill="#FBFAF7"/>
<path d="M48.54 16.36C48.54 16.43 48.54 16.53 48.43 16.57C48.32 16.61 48.19 16.57 48.11 16.47C48.098 16.4517 48.0908 16.4307 48.089 16.4089C48.0873 16.3871 48.0911 16.3652 48.1001 16.3453C48.109 16.3254 48.1229 16.308 48.1404 16.2948C48.1578 16.2817 48.1783 16.2731 48.2 16.27C48.33 16.23 48.45 16.22 48.54 16.36Z" fill="#FBFAF7"/>
<path d="M34.61 26C34.6061 26.0399 34.6061 26.0801 34.61 26.12C34.61 26.12 34.67 26.22 34.61 26.12V26.19C34.61 26.28 34.68 26.37 34.72 26.46C34.76 26.55 34.85 26.83 34.91 27.01C35.0266 27.3745 35.1234 27.7451 35.2 28.12C35.2 28.3 35.27 28.49 35.3 28.68C35.3048 28.7232 35.3048 28.7668 35.3 28.81V28.89C35.3 28.89 35.3 28.95 35.3 28.89C35.2945 28.9899 35.2945 29.0901 35.3 29.19C35.34 29.572 35.36 29.9559 35.36 30.34C35.38 30.7264 35.38 31.1136 35.36 31.5V31.77C35.3648 31.8132 35.3648 31.8568 35.36 31.9V31.97C35.36 32.08 35.36 31.9 35.36 31.97C35.3398 32.1614 35.3098 32.3517 35.27 32.54C35.127 33.2963 34.9092 34.0366 34.62 34.75C34.6138 34.7936 34.5966 34.8349 34.57 34.87C34.62 34.8 34.57 34.87 34.57 34.87V34.95L34.45 35.22C34.37 35.39 34.28 35.56 34.19 35.73C34.01 36.06 33.82 36.39 33.61 36.73C33.5 36.89 33.4 37.04 33.29 37.18V37.25C33.23 37.32 33.29 37.19 33.29 37.25C33.258 37.2787 33.231 37.3125 33.21 37.35C33.15 37.42 33.09 37.5 33.02 37.57C32.79 37.85 32.53 38.12 32.27 38.38C32.01 38.64 31.73 38.88 31.45 39.11L31.34 39.19C31.34 39.19 31.25 39.26 31.34 39.19H31.29L31.06 39.36C30.91 39.47 30.76 39.58 30.6 39.68C30.29 39.89 29.97 40.07 29.6 40.25L29.11 40.49L28.88 40.6H28.76H28.68H28.73H28.68C27.9972 40.8904 27.287 41.1115 26.56 41.26C26.39 41.26 26.21 41.33 26.03 41.35H25.9H25.84C25.75 41.35 25.94 41.35 25.84 41.35H25.55C25.1881 41.3902 24.8242 41.4102 24.46 41.41H24C23.8913 41.41 23.787 41.4532 23.7101 41.5301C23.6332 41.607 23.59 41.7113 23.59 41.82C23.59 41.9287 23.6332 42.033 23.7101 42.1099C23.787 42.1868 23.8913 42.23 24 42.23C25.5379 42.2937 27.0734 42.0559 28.52 41.53C29.9881 40.9935 31.3443 40.19 32.52 39.16C33.6791 38.1268 34.6149 36.8677 35.27 35.46C35.9499 33.9897 36.3306 32.3988 36.39 30.78C36.4514 29.1841 36.1895 27.5922 35.62 26.1C35.55 25.9 35.46 25.7 35.37 25.5C35.3432 25.4532 35.3073 25.4123 35.2643 25.3798C35.2213 25.3472 35.1722 25.3237 35.1199 25.3106C35.0676 25.2975 35.0131 25.2952 34.9599 25.3037C34.9067 25.3121 34.8557 25.3313 34.81 25.36C34.7195 25.4178 34.6546 25.508 34.6286 25.6121C34.6025 25.7163 34.6174 25.8264 34.67 25.92L34.61 26Z" fill="#B5B1A4"/>
<path d="M44.49 49.11C46.2475 47.8166 47.7725 46.2341 49 44.43C50.2296 42.6371 51.1553 40.6539 51.74 38.56C52.3214 36.449 52.5278 34.2524 52.35 32.07C52.159 29.834 51.591 27.6464 50.67 25.6C49.768 23.5805 48.5267 21.7304 47 20.13C46.81 19.93 46.61 19.74 46.41 19.55C46.372 19.5119 46.3267 19.4817 46.277 19.4611C46.2272 19.4405 46.1739 19.4299 46.12 19.4299C46.0662 19.4299 46.0129 19.4405 45.9631 19.4611C45.9133 19.4817 45.8681 19.5119 45.83 19.55C45.792 19.5881 45.7617 19.6333 45.7411 19.6831C45.7205 19.7328 45.7099 19.7861 45.7099 19.84C45.7099 19.8939 45.7205 19.9472 45.7411 19.9969C45.7617 20.0467 45.792 20.0919 45.83 20.13C47.3946 21.6041 48.6846 23.3445 49.64 25.27C50.5831 27.1544 51.2082 29.1817 51.49 31.27C51.625 32.3444 51.6652 33.4286 51.61 34.51C51.61 34.77 51.61 35.03 51.55 35.3C51.49 35.57 51.55 35.82 51.47 36.01C51.39 36.54 51.29 37.01 51.17 37.58C50.2307 41.6879 47.9337 45.359 44.65 48C44.46 48.15 44.3 48.28 44.07 48.44C43.9814 48.4993 43.918 48.5895 43.8921 48.693C43.8662 48.7965 43.8798 48.9059 43.93 49C43.9861 49.0925 44.0764 49.159 44.1812 49.1852C44.2861 49.2115 44.3971 49.1952 44.49 49.14V49.11Z" fill="#B5B1A4"/>
<path d="M23.42 42C23.761 43.1207 24.3565 44.1475 25.16 45C25.9528 45.8621 26.9212 46.5441 28 47C28.6118 47.2484 29.2542 47.4132 29.91 47.49C29.9641 47.4918 30.0179 47.482 30.0679 47.4613C30.118 47.4406 30.163 47.4095 30.2 47.37C30.2385 47.3322 30.269 47.2871 30.2896 47.2373C30.3102 47.1874 30.3206 47.1339 30.32 47.08C30.3218 47.0259 30.312 46.972 30.2913 46.922C30.2706 46.872 30.2395 46.827 30.2 46.79C30.1195 46.7186 30.0174 46.6764 29.91 46.67V46.67H29.81H29.59L29.21 46.58C28.95 46.5133 28.69 46.4333 28.43 46.34L28.25 46.26L28.14 46.21L27.79 46C27.55 45.87 27.31 45.74 27.08 45.59L26.74 45.35L26.66 45.29L26.49 45.16C26.2805 44.9837 26.0803 44.7968 25.89 44.6C25.6976 44.4109 25.5204 44.2069 25.36 43.99V43.99C25.36 43.99 25.41 44.06 25.36 43.99L25.3 43.91L25.17 43.74C25.1 43.63 25.02 43.52 24.95 43.4C24.793 43.1409 24.6495 42.8739 24.52 42.6L24.47 42.5C24.47 42.42 24.47 42.59 24.47 42.5C24.439 42.4317 24.4122 42.3616 24.39 42.29C24.3296 42.1471 24.2794 42 24.24 41.85C24.2096 41.7447 24.1393 41.6554 24.044 41.6012C23.9487 41.547 23.836 41.5322 23.73 41.56C23.6265 41.5924 23.5396 41.6636 23.4874 41.7587C23.4352 41.8537 23.4218 41.9653 23.45 42.07L23.42 42Z" fill="#7A913A"/>
<path d="M55.78 32.84C55.9632 33.0413 56.0967 33.2828 56.1696 33.545C56.2426 33.8073 56.253 34.083 56.2 34.35C56.1622 34.5962 56.0675 34.8301 55.9234 35.0332C55.7794 35.2363 55.5898 35.403 55.37 35.52C55.1408 35.6298 54.8816 35.6599 54.6334 35.6056C54.3852 35.5512 54.1622 35.4155 54 35.22C53.9265 35.0902 53.8829 34.9456 53.8725 34.7968C53.8622 34.648 53.8852 34.4987 53.94 34.36C53.9868 34.2381 54.062 34.1291 54.1594 34.0421C54.2568 33.9552 54.3736 33.8927 54.5 33.86C54.5263 33.8525 54.5538 33.8506 54.5809 33.8542C54.6079 33.8578 54.634 33.8669 54.6574 33.8809C54.6808 33.895 54.7011 33.9137 54.7171 33.9359C54.733 33.9581 54.7442 33.9833 54.75 34.01C54.7622 34.063 54.7534 34.1186 54.7254 34.1653C54.6975 34.2119 54.6525 34.2459 54.6 34.26C54.5368 34.2764 54.4784 34.3076 54.4297 34.3511C54.381 34.3946 54.3434 34.449 54.32 34.51C54.2844 34.585 54.2659 34.667 54.2659 34.75C54.2659 34.833 54.2844 34.915 54.32 34.99C54.4229 35.1234 54.5693 35.2164 54.7338 35.2529C54.8982 35.2895 55.0703 35.2672 55.22 35.19C55.3807 35.1004 55.519 34.9756 55.6247 34.8249C55.7303 34.6742 55.8005 34.5016 55.83 34.32C55.8694 34.1081 55.8582 33.8899 55.7974 33.6831C55.7366 33.4763 55.6278 33.2868 55.48 33.13C55.3348 32.9969 55.1515 32.9127 54.9559 32.8894C54.7603 32.866 54.5624 32.9047 54.39 33C54.3684 33.0152 54.3439 33.0261 54.3181 33.0318C54.2923 33.0375 54.2656 33.0381 54.2395 33.0334C54.2135 33.0288 54.1886 33.019 54.1664 33.0047C54.1442 32.9904 54.125 32.9718 54.11 32.95C54.1016 32.924 54.1016 32.896 54.11 32.87C54.0955 32.8279 54.0955 32.7821 54.11 32.74C54.1623 32.0787 54.3105 31.4286 54.55 30.81V30.81C54.9673 29.7164 55.6381 28.7374 56.5073 27.9534C57.3765 27.1693 58.4193 26.6027 59.55 26.3C59.6346 26.2716 59.7247 26.2632 59.8132 26.2753C59.9016 26.2875 59.9861 26.3199 60.06 26.37V26.37C60.1265 26.4518 60.1676 26.5512 60.1782 26.656C60.1889 26.7609 60.1686 26.8665 60.12 26.96C59.7139 28.0657 59.0074 29.0362 58.08 29.7622C57.1525 30.4883 56.0408 30.9412 54.87 31.07C54.6977 31.5341 54.5835 32.0178 54.53 32.51C54.7493 32.456 54.9787 32.458 55.197 32.5156C55.4154 32.5733 55.6159 32.6848 55.78 32.84V32.84Z" fill="#7A913A"/>
<path d="M47.62 12.83C47.31 13.06 46.99 13.3 46.62 13.52C45.8503 14.0909 44.9493 14.4588 44 14.59H43.94C43.7659 14.6262 43.6017 14.6997 43.4588 14.8054C43.3158 14.9112 43.1975 15.0466 43.1119 15.2025C43.0264 15.3584 42.9756 15.531 42.9632 15.7084C42.9508 15.8858 42.977 16.0637 43.04 16.23C43.0495 16.2549 43.054 16.2815 43.0531 16.3082C43.0522 16.3348 43.046 16.3611 43.0348 16.3853C43.0236 16.4095 43.0077 16.4313 42.988 16.4493C42.9683 16.4672 42.9451 16.4811 42.92 16.49C42.8682 16.5096 42.8109 16.508 42.7603 16.4855C42.7098 16.463 42.6701 16.4215 42.65 16.37C42.532 16.0542 42.5148 15.7097 42.6007 15.3837C42.6867 15.0578 42.8716 14.7665 43.13 14.55C42.778 14.5014 42.4386 14.386 42.13 14.21C42.093 14.1786 42.0681 14.1353 42.0594 14.0875C42.0507 14.0398 42.0589 13.9905 42.0825 13.948C42.106 13.9056 42.1436 13.8727 42.1887 13.8548C42.2338 13.8369 42.2838 13.8352 42.33 13.85C43.87 14.74 45.84 13.55 46.4 13.16C46.69 12.97 46.97 12.76 47.24 12.55C46.2845 12.4811 45.3409 12.2964 44.43 12C43.966 11.8415 43.5445 11.5788 43.1978 11.2322C42.8511 10.8855 42.5885 10.464 42.43 10C42.4151 9.97416 42.4072 9.94484 42.4072 9.915C42.4072 9.88516 42.4151 9.85584 42.43 9.83C42.4469 9.8027 42.4704 9.78013 42.4984 9.76439C42.5264 9.74866 42.5579 9.74026 42.59 9.74C43.5562 9.73915 44.5098 9.96057 45.3768 10.3871C46.2438 10.8137 47.001 11.434 47.59 12.2C48.3826 11.5457 49.3018 11.0623 50.29 10.78C51.1785 10.5711 52.1105 10.6517 52.95 11.01C53.4349 11.065 53.9231 10.9408 54.3228 10.6608C54.7224 10.3809 55.006 9.96447 55.12 9.49C55.1275 9.43602 55.1557 9.38706 55.1986 9.35347C55.2415 9.31988 55.2958 9.30429 55.35 9.31C55.4029 9.31968 55.4505 9.34844 55.4837 9.39082C55.5168 9.43321 55.5333 9.48628 55.53 9.54C55.53 9.54 55.53 9.6 55.53 9.63C55.4617 9.91296 55.3383 10.1796 55.1667 10.4148C54.995 10.6499 54.7787 10.8487 54.53 11C54.2657 11.1898 53.9667 11.3257 53.65 11.4C53.8014 11.4953 53.9452 11.6023 54.08 11.72C54.363 11.9601 54.606 12.2436 54.8 12.56C55.0605 12.2658 55.413 12.0684 55.8 12C56.426 11.7641 57.1199 11.7856 57.73 12.06C58.6649 12.5748 59.4478 13.3267 60 14.24C60.0201 14.2914 60.0201 14.3486 60 14.4V14.4C59.986 14.4333 59.9622 14.4616 59.9319 14.4812C59.9016 14.5008 59.8661 14.5108 59.83 14.51C58.2602 14.6391 56.6881 14.2905 55.32 13.51C55.3397 13.6794 55.3397 13.8506 55.32 14.02C55.3248 14.1133 55.3248 14.2067 55.32 14.3C55.2592 14.7057 55.0667 15.0801 54.7722 15.3656C54.4776 15.6511 54.0974 15.8319 53.69 15.88C53.6629 15.8827 53.6356 15.8799 53.6096 15.8718C53.5837 15.8636 53.5597 15.8502 53.5391 15.8324C53.5185 15.8146 53.5017 15.7928 53.4898 15.7683C53.478 15.7438 53.4712 15.7172 53.47 15.69C53.4672 15.6634 53.47 15.6365 53.4783 15.6111C53.4866 15.5857 53.5001 15.5623 53.518 15.5425C53.536 15.5227 53.5579 15.5069 53.5823 15.4961C53.6068 15.4853 53.6333 15.4799 53.66 15.48C54.0252 15.4387 54.3628 15.2655 54.6095 14.9931C54.8562 14.7206 54.995 14.3675 55 14C54.988 13.6212 54.8921 13.2498 54.7192 12.9126C54.5463 12.5754 54.3006 12.2808 54 12.05C53.703 11.7846 53.3654 11.5686 53 11.41C52.2297 11.0833 51.3763 11.0063 50.56 11.19C49.4781 11.5298 48.4775 12.088 47.62 12.83Z" fill="#7A913A"/>
<path d="M15.08 8.12H15.17H15.28C15.4526 8.16075 15.6228 8.21083 15.79 8.27C16.5069 8.57541 17.1796 8.97565 17.79 9.46C18.2158 9.78508 18.6599 10.0856 19.12 10.36C19.9847 10.8565 20.9629 11.1217 21.96 11.13C22.3105 11.1268 22.6595 11.0832 23 11C23.6361 10.842 24.2277 10.5411 24.73 10.12V10.12C24.8546 10.5715 25.0832 10.9876 25.3975 11.3349C25.7118 11.6822 26.1031 11.9511 26.54 12.12C27.0063 12.3509 27.5197 12.4707 28.04 12.47C28.5196 12.4719 28.9939 12.3695 29.43 12.17C29.4721 12.1525 29.5069 12.1211 29.5287 12.0811C29.5506 12.0411 29.5581 11.9949 29.55 11.95C29.4508 11.4868 29.2474 11.0523 28.9553 10.6794C28.6631 10.3065 28.2899 10.005 27.864 9.79783C27.438 9.59062 26.9704 9.48313 26.4967 9.48351C26.023 9.48389 25.5556 9.59212 25.13 9.8C25.533 9.40198 25.8318 8.91086 26 8.37C26.1926 7.69203 26.1602 6.96991 25.9078 6.31187C25.6554 5.65383 25.1966 5.0953 24.6 4.72C24.552 4.69455 24.4961 4.68867 24.4439 4.70358C24.3917 4.7185 24.3473 4.75305 24.32 4.8C24.306 4.82343 24.297 4.84947 24.2935 4.87652C24.29 4.90357 24.292 4.93105 24.2995 4.95728C24.307 4.9835 24.3198 5.00792 24.3371 5.02902C24.3544 5.05013 24.3758 5.06747 24.4 5.08C24.9172 5.40664 25.3146 5.89206 25.5328 6.46355C25.7509 7.03504 25.778 7.66182 25.61 8.25C25.415 8.8431 25.0691 9.37528 24.6062 9.79429C24.1434 10.2133 23.5795 10.5047 22.97 10.64C21.7211 10.9018 20.4194 10.6879 19.32 10.04C18.8638 9.77533 18.4231 9.48486 18 9.17C17.3858 8.69655 16.7137 8.30338 16 8C16.1473 7.91937 16.2849 7.82207 16.41 7.71H16.67C17.0837 7.68254 17.4879 7.5729 17.8587 7.38746C18.2296 7.20202 18.5598 6.94452 18.83 6.63C19.1105 6.29524 19.2964 5.89158 19.3685 5.46081C19.4406 5.03005 19.3962 4.58785 19.24 4.18C19.2217 4.14212 19.1934 4.10997 19.1582 4.08705C19.1229 4.06412 19.082 4.05131 19.04 4.05C18.6883 4.09311 18.3529 4.22371 18.0647 4.42984C17.7765 4.63598 17.5445 4.91108 17.39 5.23C17.2473 5.48005 17.1172 5.73703 17 6C16.8742 6.3051 16.7237 6.59941 16.55 6.88C16.4596 7.0225 16.3521 7.15346 16.23 7.27V7.27C15.9932 7.52647 15.6681 7.6837 15.32 7.71C14.4739 7.5436 13.5984 7.61117 12.7878 7.90544C11.9772 8.19972 11.2623 8.70954 10.72 9.38C10.6783 8.722 10.4489 8.08974 10.059 7.55806C9.66911 7.02638 9.13503 6.61756 8.52 6.38C8.03893 6.22131 7.52434 6.19324 7.02886 6.29866C6.53339 6.40408 6.0748 6.63921 5.7 6.98C5.31688 7.33634 5.04644 7.79703 4.92205 8.30526C4.79766 8.81348 4.82476 9.347 5 9.84C5.18059 10.3181 5.50393 10.7291 5.92614 11.0171C6.34834 11.3052 6.84895 11.4563 7.36 11.45C7.41395 11.4474 7.46483 11.4242 7.50207 11.3851C7.53932 11.346 7.56006 11.294 7.56 11.24C7.55293 11.186 7.52695 11.1363 7.48666 11.0997C7.44638 11.063 7.39441 11.0419 7.34 11.04C6.92007 11.04 6.51017 10.9116 6.16523 10.6721C5.82028 10.4326 5.55677 10.0934 5.41 9.7C5.27348 9.29446 5.25651 8.85821 5.36112 8.44329C5.46574 8.02838 5.68752 7.65232 6 7.36C6.32042 7.07239 6.71072 6.87392 7.13188 6.78443C7.55304 6.69493 7.99032 6.71754 8.4 6.85C8.95629 7.06217 9.43686 7.43507 9.78055 7.92122C10.1242 8.40738 10.3155 8.9848 10.33 9.58C10.3619 10.5257 10.0846 11.4561 9.54 12.23C9.39427 12.462 9.22686 12.6796 9.04 12.88C8.16626 13.7683 7.13554 14.4871 6 15C5.97625 15.0117 5.95505 15.028 5.93764 15.0479C5.92024 15.0679 5.90696 15.0911 5.89859 15.1162C5.89022 15.1413 5.88691 15.1678 5.88887 15.1942C5.89083 15.2206 5.89801 15.2464 5.91 15.27C5.92796 15.3052 5.95509 15.335 5.98852 15.3561C6.02196 15.3772 6.06047 15.3889 6.1 15.39H6.19C7.29775 14.8795 8.31186 14.1865 9.19 13.34C8.91817 14.0578 8.60429 14.7591 8.25 15.44C7.99265 15.9133 7.76228 16.4007 7.56 16.9C7.35436 17.407 7.21326 17.9378 7.14 18.48C7.05212 19.0359 7.0969 19.6046 7.27069 20.1399C7.44448 20.6752 7.74235 21.1618 8.14 21.56C8.31888 21.7534 8.56683 21.8684 8.83 21.88C8.89966 21.8897 8.97034 21.8897 9.04 21.88C9.24 21.81 9.49 21.62 9.6 21.08C9.744 20.299 9.67096 19.4935 9.38885 18.7512C9.10673 18.0089 8.62634 17.3582 8 16.87C8.19 16.44 8.4 16.02 8.59 15.66C9.13654 14.6417 9.57558 13.5692 9.9 12.46C10.3694 11.769 10.6582 10.9714 10.74 10.14C11.1818 9.41108 11.8302 8.82988 12.6029 8.47022C13.3757 8.11056 14.2378 7.98866 15.08 8.12V8.12Z" fill="#7A913A"/>
<path d="M55.52 26C55.2329 26.7033 54.6897 27.2716 54 27.59C53.9503 27.612 53.911 27.6524 53.8905 27.7028C53.87 27.7532 53.8698 27.8095 53.89 27.86C53.9138 27.9081 53.9544 27.9459 54.0042 27.9661C54.0539 27.9864 54.1093 27.9878 54.16 27.97C54.5613 27.791 54.9233 27.5345 55.2253 27.2154C55.5273 26.8962 55.7634 26.5206 55.92 26.11C56.1285 25.2472 56.044 24.3396 55.68 23.53C56.4034 23.5559 57.1189 23.3718 57.74 23C58.2821 22.664 58.7187 22.1823 59 21.61V21.61C59.4962 20.6036 59.6641 19.4669 59.48 18.36C59.4258 17.8667 59.2544 17.3935 58.98 16.98C58.8259 16.7619 58.6201 16.5856 58.3809 16.4669C58.1418 16.3482 57.8768 16.2909 57.61 16.3H57.48C57.165 16.378 56.8862 16.5615 56.69 16.82C56.5361 17.0254 56.425 17.2595 56.3632 17.5085C56.3013 17.7576 56.2901 18.0165 56.33 18.27C56.5347 19.0613 56.9533 19.7809 57.54 20.35L58.1 20.99L58.57 21.52C58.3285 21.9553 57.9855 22.3258 57.57 22.6C56.9227 22.9855 56.1704 23.157 55.42 23.09C54.5889 23.0385 53.7717 22.8528 53 22.54C52.1314 22.2243 51.3404 21.7265 50.68 21.08C50.3615 20.7661 50.1172 20.3851 49.9649 19.9646C49.8127 19.5442 49.7563 19.095 49.8 18.65C49.8033 18.5963 49.7868 18.5432 49.7537 18.5008C49.7205 18.4584 49.6729 18.4297 49.62 18.42H49.55C49.5095 18.4293 49.4727 18.4505 49.4442 18.4807C49.4157 18.511 49.3969 18.549 49.39 18.59C49.3427 19.0968 49.4077 19.6079 49.5806 20.0867C49.7534 20.5655 50.0298 21.0003 50.39 21.36C51.0956 22.0465 51.9369 22.5779 52.86 22.92C53.607 23.2299 54.3954 23.4287 55.2 23.51C55.5904 24.2783 55.7034 25.1579 55.52 26Z" fill="#7A913A"/>
<path d="M8.37 29.92C8.44115 30.0957 8.52469 30.2661 8.62 30.43C8.77008 30.7476 9.00117 31.0201 9.29 31.22C9.35911 31.2646 9.43288 31.3014 9.51 31.33C9.65869 31.387 9.81884 31.4076 9.97712 31.3902C10.1354 31.3729 10.2872 31.3179 10.42 31.23C10.5856 31.0835 10.698 30.8863 10.7396 30.6692C10.7812 30.4521 10.7497 30.2273 10.65 30.03C10.5431 29.8495 10.3984 29.6943 10.2258 29.5752C10.0531 29.4561 9.85667 29.3758 9.65 29.34C9.29282 29.2455 8.91719 29.2455 8.56 29.34C8.32958 28.6412 8.24118 27.9034 8.3 27.17V27.17C8.8972 27.228 9.49935 27.1337 10.0502 26.8958C10.6011 26.658 11.0827 26.2844 11.45 25.81C11.5196 25.7344 11.5696 25.643 11.5958 25.5436C11.6219 25.4443 11.6234 25.34 11.6 25.24C11.51 24.98 11.22 24.88 10.83 24.97C9.8604 25.2623 8.99578 25.8283 8.34 26.6C8.40349 26.2579 8.50063 25.923 8.63 25.6C8.65019 25.5495 8.65001 25.4932 8.62949 25.4428C8.60898 25.3924 8.56973 25.352 8.52 25.33C8.49517 25.3186 8.46827 25.3124 8.44096 25.3119C8.41365 25.3113 8.3865 25.3163 8.36121 25.3266C8.33591 25.3369 8.31299 25.3523 8.29386 25.3718C8.27474 25.3913 8.25981 25.4145 8.25 25.44C7.74755 26.7201 7.71214 28.1364 8.15 29.44C7.50939 29.8235 6.9735 30.3594 6.59 31C5.67389 32.1053 5.05748 33.4277 4.8 34.84C4.79384 34.8872 4.80319 34.9352 4.82663 34.9767C4.85008 35.0182 4.88635 35.0509 4.93 35.07H5C5.02762 35.0742 5.0558 35.0729 5.0829 35.0661C5.11 35.0593 5.13547 35.0472 5.15782 35.0304C5.18017 35.0137 5.19895 34.9926 5.21306 34.9685C5.22718 34.9444 5.23633 34.9177 5.24 34.89C5.48588 33.5403 6.07474 32.2765 6.95 31.22C7.3163 30.6826 7.8024 30.2375 8.37 29.92V29.92ZM9.6 29.74C9.74146 29.7693 9.87552 29.8269 9.99411 29.9094C10.1127 29.9919 10.2133 30.0976 10.29 30.22C10.3507 30.33 10.3718 30.4575 10.35 30.5812C10.3282 30.7049 10.2647 30.8174 10.17 30.9C10.0725 30.9658 9.9576 31.0009 9.84 31.0009C9.7224 31.0009 9.60749 30.9658 9.51 30.9C9.28459 30.7249 9.10879 30.4939 9 30.23C8.91875 30.0806 8.84532 29.927 8.78 29.77C9.04559 29.686 9.32899 29.6757 9.6 29.74V29.74Z" fill="#7A913A"/>
<path d="M57.41 51.4C57.6793 50.4513 58.0306 49.5278 58.46 48.64C58.69 48.1 58.94 47.55 59.15 46.98C59.8469 45.472 59.9399 43.7544 59.41 42.18C59.2094 41.7195 58.917 41.3047 58.5508 40.9608C58.1846 40.617 57.7522 40.3513 57.28 40.18C57.8272 39.4 58.1619 38.4911 58.2513 37.5425C58.3407 36.594 58.1818 35.6385 57.79 34.77C57.7729 34.7362 57.7473 34.7074 57.7158 34.6863C57.6843 34.6653 57.6478 34.6528 57.61 34.65C57.5742 34.6507 57.539 34.6602 57.5076 34.6776C57.4762 34.6951 57.4496 34.7199 57.43 34.75C56.956 35.5385 56.654 36.4182 56.5437 37.3316C56.4334 38.245 56.5173 39.1713 56.79 40.05C56.2875 39.9591 55.7692 40.0182 55.3 40.22C54.8557 40.4389 54.4724 40.7644 54.1845 41.1675C53.8966 41.5706 53.713 42.0387 53.65 42.53C53.6414 42.5594 53.6414 42.5906 53.65 42.62V42.69C53.6403 42.8232 53.6403 42.9568 53.65 43.09C53.5767 43.7135 53.2906 44.2927 52.84 44.73C52.549 44.9664 52.2019 45.1237 51.8323 45.1868C51.4626 45.2499 51.083 45.2165 50.73 45.09C50.6783 45.074 50.6224 45.0785 50.5739 45.1027C50.5255 45.127 50.4882 45.169 50.47 45.22C50.4534 45.2705 50.4566 45.3254 50.4789 45.3736C50.5011 45.4219 50.5409 45.4599 50.59 45.48C50.866 45.5791 51.1569 45.6298 51.45 45.63C52.0218 45.5958 52.5665 45.3744 53 45C53.2427 44.7963 53.4402 44.5443 53.58 44.26C53.58 44.44 53.64 44.63 53.69 44.82C53.82 45.33 54.22 46.52 55.25 46.62C55.6179 46.6209 55.9756 46.4996 56.267 46.2752C56.5584 46.0507 56.767 45.7359 56.86 45.38C57.0165 44.7225 57.0165 44.0375 56.86 43.38C56.8449 43.3326 56.8134 43.2921 56.7712 43.2658C56.729 43.2394 56.6788 43.2289 56.6296 43.2361C56.5804 43.2433 56.5353 43.2678 56.5024 43.3051C56.4695 43.3425 56.451 43.3903 56.45 43.44C56.5849 44.0358 56.5849 44.6542 56.45 45.25C56.3925 45.5241 56.2452 45.7713 56.0315 45.9524C55.8178 46.1335 55.5499 46.2382 55.27 46.25C54.48 46.17 54.15 45.08 54.07 44.75C53.9565 44.2075 53.9329 43.6501 54 43.1C54 42.97 54 42.84 54 42.71C54.0426 42.2602 54.1977 41.8284 54.4511 41.4544C54.7046 41.0804 55.0481 40.7762 55.45 40.57C55.9225 40.3588 56.4557 40.3268 56.95 40.48C57.4076 40.62 57.8286 40.8593 58.183 41.1808C58.5373 41.5024 58.8163 41.8982 59 42.34C59.489 43.8185 59.3961 45.4277 58.74 46.84C58.53 47.39 58.29 47.94 58.05 48.47C57.622 49.3825 57.2708 50.3291 57 51.3C56.834 51.9537 56.75 52.6255 56.75 53.3C56.5683 52.9635 56.3239 52.6648 56.03 52.42C56.0344 52.4124 56.0367 52.4038 56.0367 52.395C56.0367 52.3862 56.0344 52.3776 56.03 52.37C56.001 52.3593 55.9691 52.3593 55.94 52.37C55.8296 52.2843 55.7126 52.2073 55.59 52.14C54.88 51.8159 54.1301 51.5872 53.36 51.46C53.14 51.46 52.92 51.37 52.7 51.31C51.7526 51.1556 50.8817 50.6955 50.22 50C50.1919 49.9654 50.1538 49.9401 50.1109 49.9276C50.0681 49.9151 50.0224 49.9159 49.98 49.93C49.9422 49.9483 49.91 49.9766 49.8871 50.0118C49.8642 50.0471 49.8514 50.088 49.85 50.13C49.887 50.7755 50.0907 51.4004 50.4412 51.9438C50.7917 52.4871 51.2771 52.9302 51.85 53.23C52.2752 53.4284 52.741 53.5243 53.21 53.51C54.1278 53.5009 55.0274 53.2528 55.82 52.79C56.3274 53.3231 56.6741 53.9886 56.82 54.71C56.996 55.7926 57.3544 56.8374 57.88 57.8C56.0166 56.7289 53.8267 56.3734 51.72 56.8C50.5837 56.9918 49.4587 57.2455 48.35 57.56C47.79 57.71 47.22 57.87 46.65 58C44.8325 56.5431 42.5472 55.7967 40.22 55.9C40.1755 55.903 40.133 55.9201 40.0988 55.9489C40.0647 55.9777 40.0406 56.0166 40.03 56.06C39.9434 56.5235 40.0073 57.0026 40.2124 57.4272C40.4176 57.8518 40.7531 58.1997 41.17 58.42C41.976 58.8154 42.8773 58.9749 43.77 58.88C44.7383 58.811 45.6987 58.6571 46.64 58.42C47.25 58.28 47.86 58.12 48.46 57.96C49.5518 57.6455 50.6602 57.3918 51.78 57.2C54.69 56.75 57.26 57.42 58.66 59C58.7661 59.1457 58.8796 59.2859 59 59.42V59.42H59.06H59.13H59.2V59.34V59.2C59.0933 59.0489 58.9764 58.9052 58.85 58.77C57.9593 57.5957 57.3657 56.2233 57.12 54.77C57.1239 54.7536 57.1239 54.7364 57.12 54.72V54.72C56.9826 53.6052 57.0814 52.474 57.41 51.4V51.4Z" fill="#7A913A"/>
<path d="M21.71 57C20.5731 56.5466 19.344 56.3727 18.126 56.4928C16.9079 56.6128 15.7365 57.0234 14.71 57.69C13.8263 57.444 12.9887 57.0555 12.23 56.54C12.4781 56.2957 12.6933 56.02 12.87 55.72C13 55.5 13.12 55.27 13.23 55.04C13.4494 54.5073 13.7922 54.0344 14.23 53.66C15.14 53.02 16.49 53.46 17.43 54.18H17.55H17.6V53.9C16.4003 52.5688 14.9491 51.4881 13.33 50.72C12.68 50.35 12.01 49.97 11.4 49.56C10.3896 48.8874 9.50314 48.0449 8.78 47.07C8.98965 47.1206 9.20434 47.1475 9.42 47.15C10.0713 47.095 10.6999 46.8847 11.2532 46.5367C11.8065 46.1887 12.2683 45.7132 12.6 45.15C12.7635 44.9761 12.8594 44.7495 12.8704 44.5111C12.8814 44.2727 12.8068 44.0382 12.66 43.85C12.5527 43.7529 12.4256 43.6803 12.2875 43.6371C12.1493 43.594 12.0035 43.5813 11.86 43.6C11.0362 43.6547 10.253 43.9776 9.63003 44.5193C9.00705 45.061 8.57854 45.7918 8.41 46.6C7.72599 45.5169 7.24797 44.3168 7 43.06C6.83064 42.4041 6.83064 41.7159 7 41.06C7.07924 40.7586 7.24424 40.4867 7.475 40.2772C7.70576 40.0677 7.99235 39.9298 8.3 39.88C8.32762 39.8775 8.35448 39.8695 8.37901 39.8566C8.40355 39.8437 8.42527 39.826 8.44294 39.8046C8.46061 39.7832 8.47386 39.7585 8.48194 39.732C8.49001 39.7055 8.49275 39.6776 8.49 39.65C8.4875 39.6237 8.47981 39.5981 8.46737 39.5748C8.45494 39.5515 8.438 39.5308 8.41754 39.5141C8.39709 39.4974 8.37351 39.4849 8.34819 39.4773C8.32286 39.4697 8.29629 39.4672 8.27 39.47C7.86241 39.5187 7.47968 39.6917 7.17376 39.9654C6.86785 40.2391 6.65356 40.6003 6.56 41C6.37234 41.7179 6.37234 42.4721 6.56 43.19C7.18227 45.9445 8.84003 48.3541 11.19 49.92C11.81 50.34 12.49 50.72 13.19 51.09C14.3329 51.6849 15.4119 52.3953 16.41 53.21C16.0196 53.0275 15.5895 52.9464 15.1595 52.9744C14.7294 53.0024 14.3134 53.1384 13.95 53.37C13.4558 53.7772 13.0737 54.3038 12.84 54.9C12.73 55.12 12.61 55.35 12.49 55.55C12.288 55.8899 12.035 56.1968 11.74 56.46V56.46C11.2057 56.9407 10.5617 57.2832 9.86438 57.4575C9.16709 57.6319 8.4377 57.6327 7.74 57.46C7.12915 57.2959 6.58415 56.9465 6.18 56.46C5.98464 56.2319 5.84646 55.9605 5.7769 55.6684C5.70734 55.3762 5.7084 55.0717 5.78 54.78C5.84458 54.5561 5.95913 54.3497 6.11502 54.1765C6.27092 54.0033 6.4641 53.8677 6.68 53.78C6.88587 53.6808 7.11146 53.6292 7.34 53.6292C7.56854 53.6292 7.79413 53.6808 8 53.78C8.19782 53.8924 8.36903 54.0462 8.50192 54.2309C8.63482 54.4155 8.72626 54.6267 8.77 54.85C8.82343 55.0738 8.82601 55.3068 8.77755 55.5318C8.7291 55.7567 8.63084 55.968 8.49 56.15C8.46625 56.1699 8.44719 56.1948 8.43419 56.2229C8.42118 56.251 8.41456 56.2816 8.41478 56.3126C8.41501 56.3435 8.42208 56.3741 8.43549 56.402C8.4489 56.4299 8.46832 56.4545 8.49235 56.474C8.51639 56.4936 8.54444 56.5075 8.57451 56.5149C8.60458 56.5223 8.63591 56.523 8.66627 56.5169C8.69663 56.5108 8.72526 56.498 8.75011 56.4795C8.77495 56.4611 8.79541 56.4373 8.81 56.41C8.98966 56.1814 9.11535 55.9152 9.17769 55.6312C9.24002 55.3472 9.2374 55.0528 9.17 54.77C9.11796 54.4834 9.00071 54.2126 8.82732 53.9785C8.65392 53.7444 8.42902 53.5533 8.17 53.42C7.90808 53.2997 7.62324 53.2374 7.335 53.2374C7.04676 53.2374 6.76192 53.2997 6.5 53.42C6.23123 53.5313 5.98999 53.7 5.79309 53.9141C5.5962 54.1283 5.4484 54.3828 5.36 54.66C5.27348 55.0154 5.27185 55.3862 5.35524 55.7423C5.43863 56.0984 5.6047 56.43 5.84 56.71C6.29775 57.2442 6.90869 57.6247 7.59 57.8C7.9685 57.922 8.36247 57.9893 8.76 58C9.89948 57.996 11.0022 57.5966 11.88 56.87C12.7194 57.4524 13.6531 57.8855 14.64 58.15V58.15C15.537 58.3907 16.4613 58.5151 17.39 58.52C18.9126 58.5412 20.4137 58.1582 21.74 57.41C21.7709 57.3888 21.7961 57.3605 21.8135 57.3274C21.831 57.2943 21.84 57.2574 21.84 57.22C21.8413 57.1748 21.8297 57.1302 21.8067 57.0913C21.7837 57.0523 21.7502 57.0207 21.71 57V57Z" fill="#7A913A"/>
<path d="M37.18 56.24C36.1463 55.9628 35.0489 56.0475 34.07 56.48C34.1039 56.4221 34.134 56.3619 34.16 56.3C34.3384 55.88 34.479 55.445 34.58 55C34.6916 54.4485 34.8908 53.9185 35.17 53.43C35.5358 52.9011 36.0828 52.5246 36.7075 52.3716C37.3321 52.2187 37.9912 52.2999 38.56 52.6C38.6071 52.6201 38.6599 52.6224 38.7085 52.6063C38.7571 52.5902 38.7981 52.5569 38.8239 52.5127C38.8497 52.4685 38.8585 52.4164 38.8485 52.3661C38.8386 52.3159 38.8107 52.2711 38.77 52.24C38.0966 51.8873 37.3171 51.7942 36.5796 51.9786C35.8422 52.163 35.1981 52.6119 34.77 53.24C34.471 53.7671 34.2551 54.3371 34.13 54.93C34.041 55.3486 33.9103 55.7573 33.74 56.15C33.6171 56.4174 33.4627 56.6692 33.28 56.9V56.9C32.6789 57.6164 31.889 58.15 31 58.44C30.4837 58.4949 29.9616 58.4369 29.47 58.27C29.2149 58.1887 28.9824 58.0486 28.7914 57.861C28.6003 57.6734 28.456 57.4436 28.37 57.19C28.3029 56.9524 28.326 56.6984 28.4349 56.4769C28.5438 56.2553 28.7309 56.0819 28.96 55.99C29.081 55.9647 29.2065 55.9697 29.3251 56.0046C29.4437 56.0395 29.5519 56.1032 29.64 56.19C29.7147 56.2541 29.7708 56.3372 29.8024 56.4304C29.8341 56.5236 29.8402 56.6236 29.82 56.72C29.8077 56.773 29.8165 56.8286 29.8445 56.8753C29.8725 56.9219 29.9175 56.9559 29.97 56.97C30.023 56.9822 30.0786 56.9734 30.1252 56.9454C30.1719 56.9175 30.2058 56.8725 30.22 56.82C30.2519 56.6538 30.2411 56.4822 30.1887 56.3213C30.1362 56.1604 30.0437 56.0154 29.92 55.9C29.7843 55.7595 29.6137 55.6577 29.4256 55.6049C29.2376 55.5522 29.0389 55.5505 28.85 55.6C28.524 55.7262 28.2566 55.969 28.0995 56.2813C27.9424 56.5936 27.907 56.953 28 57.29C28.098 57.6091 28.272 57.8996 28.5072 58.1365C28.7424 58.3734 29.0316 58.5497 29.35 58.65L29.67 58.75C28.4632 58.875 27.2467 58.875 26.04 58.75C26.0093 58.7432 25.9774 58.7433 25.9468 58.7505C25.9162 58.7576 25.8875 58.7715 25.863 58.7912C25.8385 58.8109 25.8187 58.8358 25.8051 58.8641C25.7915 58.8925 25.7844 58.9235 25.7844 58.955C25.7844 58.9864 25.7915 59.0175 25.8051 59.0458C25.8187 59.0742 25.8385 59.0991 25.863 59.1188C25.8875 59.1385 25.9162 59.1524 25.9468 59.1595C25.9774 59.1667 26.0093 59.1668 26.04 59.16C26.77 59.16 27.51 59.27 28.25 59.27C29.0145 59.268 29.7763 59.1774 30.52 59L31.05 58.85C31.0611 58.8547 31.073 58.8571 31.085 58.8571C31.097 58.8571 31.1089 58.8547 31.12 58.85C32.0939 58.545 32.961 57.9692 33.62 57.19C34.6311 56.5716 35.8419 56.3675 37 56.62C37.3347 56.719 37.6413 56.8956 37.895 57.1354C38.1487 57.3752 38.3422 57.6714 38.46 58C38.5479 58.3146 38.517 58.6505 38.3731 58.9437C38.2293 59.2369 37.9825 59.467 37.68 59.59C37.5161 59.6214 37.3471 59.6113 37.1881 59.5607C37.0292 59.51 36.8854 59.4204 36.77 59.3C36.6731 59.2102 36.6024 59.0958 36.5654 58.969C36.5285 58.8422 36.5266 58.7078 36.56 58.58C36.5693 58.5544 36.5733 58.5272 36.5718 58.5001C36.5702 58.4729 36.5631 58.4463 36.551 58.422C36.5388 58.3977 36.5218 58.3761 36.501 58.3585C36.4802 58.341 36.456 58.3279 36.43 58.32C36.3782 58.3039 36.3223 58.3085 36.2738 58.3327C36.2254 58.357 36.1882 58.399 36.17 58.45C36.1134 58.6487 36.1124 58.8591 36.1671 59.0583C36.2217 59.2575 36.3299 59.438 36.48 59.58C36.6074 59.7189 36.7618 59.8304 36.9337 59.9078C37.1056 59.9851 37.2915 60.0267 37.48 60.03C37.5828 60.0446 37.6872 60.0446 37.79 60.03C38.1993 59.878 38.5365 59.5778 38.7347 59.1887C38.9329 58.7997 38.9776 58.3504 38.86 57.93C38.7306 57.5371 38.5114 57.1797 38.2198 56.8863C37.9282 56.593 37.5721 56.3717 37.18 56.24V56.24Z" fill="#7A913A"/>
<path d="M24.79 13.4C24.8379 13.4254 24.8939 13.4313 24.9461 13.4164C24.9983 13.4015 25.0427 13.3669 25.07 13.32C25.0897 13.2955 25.1037 13.2669 25.111 13.2364C25.1182 13.2058 25.1185 13.1739 25.1117 13.1432C25.105 13.1125 25.0915 13.0837 25.0721 13.0589C25.0528 13.0341 25.0281 13.014 25 13C24.4293 12.7441 23.8028 12.6382 23.1797 12.6924C22.5566 12.7467 21.9578 12.9593 21.44 13.31C20.9127 13.6242 20.4081 13.9751 19.93 14.36C19.4931 14.7196 19.0356 15.0535 18.56 15.36C18.1033 15.674 17.5777 15.8734 17.0277 15.9413C16.4776 16.0092 15.9193 15.9436 15.4 15.75C15.0143 15.5143 14.6824 15.2002 14.4258 14.8281C14.1691 14.4561 13.9934 14.0343 13.91 13.59C13.7807 13.0611 13.7807 12.5089 13.91 11.98C13.9771 11.7255 14.1023 11.4901 14.2758 11.2923C14.4494 11.0945 14.6664 10.9397 14.91 10.84C15.1348 10.7466 15.3837 10.7282 15.6197 10.7877C15.8558 10.8471 16.0663 10.9812 16.22 11.17C16.2861 11.2744 16.3293 11.3918 16.3465 11.5142C16.3638 11.6366 16.3547 11.7613 16.32 11.88C16.2975 11.9798 16.2525 12.0732 16.1884 12.1529C16.1242 12.2327 16.0427 12.2967 15.95 12.34C15.9067 12.3667 15.8746 12.4083 15.8597 12.4569C15.8447 12.5055 15.8479 12.5579 15.8687 12.6044C15.8895 12.6508 15.9264 12.6881 15.9726 12.7094C16.0188 12.7307 16.0712 12.7344 16.12 12.72C16.2675 12.65 16.3978 12.5482 16.5015 12.422C16.6053 12.2958 16.6798 12.1483 16.72 11.99C16.77 11.8137 16.7816 11.6288 16.754 11.4476C16.7264 11.2665 16.6603 11.0934 16.56 10.94C16.3557 10.6716 16.068 10.4788 15.7421 10.3919C15.4163 10.305 15.0707 10.329 14.76 10.46C14.4665 10.5876 14.2065 10.7813 14.0001 11.0258C13.7937 11.2704 13.6465 11.5593 13.57 11.87C13.415 12.4668 13.415 13.0932 13.57 13.69C13.6699 14.1906 13.8725 14.665 14.1651 15.0833C14.4577 15.5016 14.834 15.8546 15.27 16.12C15.6615 16.314 16.0931 16.4133 16.53 16.41C17.3398 16.38 18.1284 16.1424 18.82 15.72C19.3129 15.4155 19.7871 15.0815 20.24 14.72C20.7102 14.3585 21.2011 14.0247 21.71 13.72C22.1573 13.4172 22.6725 13.2295 23.2098 13.1737C23.7472 13.1178 24.2899 13.1956 24.79 13.4V13.4Z" fill="#7A913A"/>
<path d="M47.72 8.12C47.7489 8.16524 47.794 8.1977 47.846 8.21072C47.8981 8.22374 47.9532 8.21632 48 8.19C48.0234 8.17661 48.0438 8.15863 48.0601 8.13713C48.0764 8.11564 48.0881 8.09108 48.0947 8.06492C48.1012 8.03877 48.1024 8.01156 48.0981 7.98494C48.0939 7.95832 48.0843 7.93282 48.07 7.91C46.71 5.66 43.85 5 41.61 5.32H41.54C41.37 5.32 41.18 5.38 40.99 5.42C39.4233 5.82027 37.9516 6.52724 36.66 7.5C36.6206 7.49026 36.5794 7.49026 36.54 7.5C35.6339 7.68545 34.6914 7.54373 33.88 7.1C33.62 6.95 33.19 6.65 33.14 6.24C33.1388 6.14445 33.162 6.05019 33.2075 5.96617C33.253 5.88215 33.3193 5.81118 33.4 5.76C33.4444 5.73033 33.4966 5.7145 33.55 5.7145C33.6034 5.7145 33.6556 5.73033 33.7 5.76C33.7261 5.77363 33.7548 5.78185 33.7842 5.78419C33.8136 5.78652 33.8432 5.78292 33.8712 5.77359C33.8992 5.76426 33.925 5.7494 33.9471 5.72988C33.9692 5.71037 33.9872 5.6866 34 5.66C34.0143 5.63717 34.0239 5.61168 34.0281 5.58506C34.0324 5.55844 34.0312 5.53123 34.0247 5.50508C34.0181 5.47892 34.0064 5.45436 33.9901 5.43287C33.9738 5.41137 33.9534 5.39339 33.93 5.38C33.8233 5.30905 33.6981 5.2712 33.57 5.2712C33.4419 5.2712 33.3166 5.30905 33.21 5.38C33.0623 5.46964 32.9421 5.59827 32.8627 5.75176C32.7833 5.90524 32.7478 6.07763 32.76 6.25C32.8107 6.50638 32.9226 6.74669 33.0863 6.95042C33.25 7.15415 33.4605 7.31526 33.7 7.42C34.3232 7.78384 35.0286 7.98341 35.75 8H36C35.4 8.47 34.82 9 34.27 9.45C34.2503 9.46868 34.2346 9.49117 34.2239 9.5161C34.2132 9.54103 34.2077 9.56787 34.2077 9.595C34.2077 9.62213 34.2132 9.64897 34.2239 9.6739C34.2346 9.69883 34.2503 9.72131 34.27 9.74C34.2876 9.76282 34.3104 9.78108 34.3365 9.79326C34.3626 9.80545 34.3912 9.81118 34.42 9.81C34.4656 9.82391 34.5144 9.82391 34.56 9.81C36.1064 8.31073 37.9169 7.11052 39.9 6.27C39.4666 6.56486 39.0791 6.92204 38.75 7.33C38.5085 7.61096 38.3128 7.92817 38.17 8.27C37.7057 9.55412 37.4525 10.9049 37.42 12.27C37.42 12.9 37.58 13.27 37.95 13.42C38.0129 13.4304 38.0771 13.4304 38.14 13.42C38.2887 13.4058 38.4329 13.3612 38.5636 13.2889C38.6943 13.2167 38.8088 13.1183 38.9 13C39.5699 12.2225 39.97 11.2488 40.0403 10.2249C40.1106 9.20097 39.8473 8.18181 39.29 7.32V7.32C39.9542 6.63741 40.7645 6.1143 41.66 5.79C43.75 5.41 46.45 6 47.72 8.12Z" fill="#7A913A"/>
<path d="M58.62 4.78C58.5708 4.75535 58.5139 4.75097 58.4616 4.7678C58.4092 4.78463 58.3655 4.82132 58.34 4.87C57.7892 5.95969 56.8998 6.84124 55.8052 7.38221C54.7107 7.92317 53.4701 8.09434 52.27 7.87C51.86 7.79 50.9 7.51 50.66 6.75C50.5985 6.50853 50.6083 6.25443 50.6882 6.01841C50.768 5.78239 50.9145 5.57455 51.11 5.42C51.3171 5.26766 51.5574 5.16651 51.8112 5.1248C52.0649 5.08309 52.3249 5.102 52.57 5.18C52.7728 5.22169 52.9592 5.32136 53.1066 5.46692C53.2539 5.61247 53.3558 5.79766 53.4 6C53.391 6.10558 53.3538 6.20679 53.2922 6.29301C53.2306 6.37923 53.1469 6.44728 53.05 6.49C52.9938 6.52783 52.9277 6.54804 52.86 6.54804C52.7923 6.54804 52.7261 6.52783 52.67 6.49C52.6279 6.46644 52.579 6.45809 52.5314 6.46635C52.4839 6.4746 52.4407 6.49896 52.409 6.53532C52.3774 6.57169 52.3592 6.61785 52.3575 6.66605C52.3559 6.71425 52.3708 6.76155 52.4 6.8C52.5123 6.8947 52.6502 6.95383 52.7962 6.96986C52.9423 6.98589 53.0898 6.95809 53.22 6.89C53.3923 6.81256 53.5393 6.68786 53.6437 6.53034C53.7481 6.37282 53.8058 6.18894 53.81 6C53.7751 5.70045 53.6489 5.41889 53.4485 5.19349C53.2482 4.9681 52.9833 4.80978 52.69 4.74C52.3826 4.63994 52.0555 4.61587 51.7368 4.66986C51.4181 4.72385 51.1172 4.85429 50.86 5.05C50.5977 5.25369 50.4017 5.53054 50.2967 5.84557C50.1917 6.1606 50.1824 6.49969 50.27 6.82C50.4323 7.204 50.6956 7.5369 51.0319 7.78337C51.3682 8.02985 51.7649 8.18073 52.18 8.22C52.5514 8.29941 52.9301 8.33963 53.31 8.34C54.4251 8.33314 55.5172 8.02222 56.4687 7.44073C57.4203 6.85924 58.1952 6.0292 58.71 5.04C58.7287 4.99309 58.73 4.94097 58.7135 4.89321C58.6969 4.84545 58.6637 4.80525 58.62 4.78V4.78Z" fill="#7A913A"/>
<path d="M15.24 45.45C15.2516 44.779 15.3185 44.11 15.44 43.45C15.44 43.19 15.53 42.92 15.56 42.66C15.7236 41.7695 15.6477 40.8515 15.34 40C15.1794 39.6041 14.902 39.2667 14.5446 39.0326C14.1873 38.7985 13.767 38.679 13.34 38.69C13.3137 38.6928 13.2871 38.6903 13.2618 38.6827C13.2365 38.6751 13.2129 38.6626 13.1925 38.6459C13.172 38.6291 13.1551 38.6085 13.1426 38.5852C13.1302 38.5619 13.1225 38.5363 13.12 38.51C13.1158 38.4829 13.1172 38.4553 13.1241 38.4288C13.131 38.4023 13.1432 38.3775 13.1601 38.356C13.177 38.3344 13.1981 38.3165 13.2222 38.3035C13.2462 38.2904 13.2727 38.2824 13.3 38.28C13.8099 38.2651 14.3123 38.4053 14.7409 38.682C15.1694 38.9588 15.5039 39.3591 15.7 39.83C16.0595 40.7415 16.1632 41.7339 16 42.7L15.88 43.51C15.7531 44.149 15.6861 44.7985 15.68 45.45C15.7049 46.4015 15.9809 47.3295 16.48 48.14C17.4355 48.1843 18.3685 48.445 19.2086 48.9023C20.0487 49.3596 20.7741 50.0016 21.33 50.78C21.3495 50.8116 21.3598 50.8479 21.3598 50.885C21.3598 50.9221 21.3495 50.9584 21.33 50.99C21.3073 51.0239 21.2763 51.0514 21.24 51.07H21.16C20.3964 51.0962 19.6352 50.97 18.921 50.6987C18.2067 50.4274 17.5536 50.0165 17 49.49C16.6732 49.1934 16.3843 48.8575 16.14 48.49V48.49C15.562 47.5806 15.2503 46.5275 15.24 45.45V45.45Z" fill="#7A913A"/>
<path d="M50.0299 16.47C50.4883 16.47 50.86 16.0984 50.86 15.64C50.86 15.1816 50.4883 14.81 50.0299 14.81C49.5716 14.81 49.2 15.1816 49.2 15.64C49.2 16.0984 49.5716 16.47 50.0299 16.47Z" fill="#EF3C23"/>
<path d="M59.11 33.41C59.5684 33.41 59.94 33.0384 59.94 32.58C59.94 32.1216 59.5684 31.75 59.11 31.75C58.6516 31.75 58.28 32.1216 58.28 32.58C58.28 33.0384 58.6516 33.41 59.11 33.41Z" fill="#EF3C23"/>
<path d="M23.9 55.05C24.3584 55.05 24.73 54.6784 24.73 54.22C24.73 53.7616 24.3584 53.39 23.9 53.39C23.4416 53.39 23.07 53.7616 23.07 54.22C23.07 54.6784 23.4416 55.05 23.9 55.05Z" fill="#EF3C23"/>
<path d="M46.3 53.41C46.7584 53.41 47.13 53.0384 47.13 52.58C47.13 52.1216 46.7584 51.75 46.3 51.75C45.8416 51.75 45.47 52.1216 45.47 52.58C45.47 53.0384 45.8416 53.41 46.3 53.41Z" fill="#EF3C23"/>
<path d="M6.04002 50.46C6.49842 50.46 6.87002 50.0884 6.87002 49.63C6.87002 49.1716 6.49842 48.8 6.04002 48.8C5.58163 48.8 5.21002 49.1716 5.21002 49.63C5.21002 50.0884 5.58163 50.46 6.04002 50.46Z" fill="#EF3C23"/>
<path d="M8.90001 36.37C9.3584 36.37 9.73001 35.9984 9.73001 35.54C9.73001 35.0816 9.3584 34.71 8.90001 34.71C8.44161 34.71 8.07001 35.0816 8.07001 35.54C8.07001 35.9984 8.44161 36.37 8.90001 36.37Z" fill="#EF3C23"/>
<path d="M13.75 20.18C14.2084 20.18 14.58 19.8084 14.58 19.35C14.58 18.8916 14.2084 18.52 13.75 18.52C13.2916 18.52 12.92 18.8916 12.92 19.35C12.92 19.8084 13.2916 20.18 13.75 20.18Z" fill="#EF3C23"/>
<path d="M5.96 24.42C6.4184 24.42 6.79 24.0484 6.79 23.59C6.79 23.1316 6.4184 22.76 5.96 22.76C5.50161 22.76 5.13 23.1316 5.13 23.59C5.13 24.0484 5.50161 24.42 5.96 24.42Z" fill="#EF3C23"/>
<path d="M29.43 7.97C29.8884 7.97 30.26 7.5984 30.26 7.14C30.26 6.6816 29.8884 6.31 29.43 6.31C28.9716 6.31 28.6 6.6816 28.6 7.14C28.6 7.5984 28.9716 7.97 29.43 7.97Z" fill="#EF3C23"/>
<path d="M11.82 6.56C12.2784 6.56 12.65 6.1884 12.65 5.73C12.65 5.27161 12.2784 4.9 11.82 4.9C11.3616 4.9 10.99 5.27161 10.99 5.73C10.99 6.1884 11.3616 6.56 11.82 6.56Z" fill="#EF3C23"/>
<path d="M53.6 60.15C54.0584 60.15 54.43 59.7784 54.43 59.32C54.43 58.8616 54.0584 58.49 53.6 58.49C53.1416 58.49 52.77 58.8616 52.77 59.32C52.77 59.7784 53.1416 60.15 53.6 60.15Z" fill="#EF3C23"/>
<path d="M35.43 13.41C35.8884 13.41 36.26 13.0384 36.26 12.58C36.26 12.1216 35.8884 11.75 35.43 11.75C34.9716 11.75 34.6 12.1216 34.6 12.58C34.6 13.0384 34.9716 13.41 35.43 13.41Z" fill="#EF3C23"/>
<path d="M58.3901 10.45C58.8485 10.45 59.2201 10.0784 59.2201 9.62C59.2201 9.1616 58.8485 8.79 58.3901 8.79C57.9317 8.79 57.5601 9.1616 57.5601 9.62C57.5601 10.0784 57.9317 10.45 58.3901 10.45Z" fill="#EF3C23"/>
<path d="M28.85 15.69C42.3 14.2 50.78 23.12 49.51 36.48C48.83 41.98 44.44 48.15 40.14 49.41C34.75 51 28.35 52.41 23.7 48.79C21.14 46.91 19.83 44.09 19.06 41.04C18.9157 40.4685 18.8751 39.8758 18.94 39.29C18.94 39.29 14.24 35.84 13.43 33.29C10.21 23.15 19.61 15.48 28.85 15.69ZM39.85 32.23C40.64 14.52 21 22.76 26.28 28.3C29.61 31.77 31.77 28.3 31.92 25.59C31.92 24.7 34.23 27.82 33.7 31.16C32.81 36.81 27.94 41.84 22.38 40.16C18.3 38.91 27.17 57.76 37.27 42.89C39.44 39.66 39.86 35.94 39.81 32.23H39.85ZM35 47.67C45.22 46.78 42.86 28.93 42 34.48C41.58 39.71 39.8 44.86 35 47.67Z" fill="#383529"/>
</g>
<defs>
<clipPath id="clip0">
<rect width="64" height="64" fill="white"/>
</clipPath>
</defs>
</svg>
