<svg width="64" height="64" viewBox="0 0 64 64" fill="none" xmlns="http://www.w3.org/2000/svg">
<g clip-path="url(#clip0)">
<path d="M64 64.07H0V0.0699997H64V64.07ZM1.37 62.7H62.64V1.44H1.37V62.7ZM19.76 46.41C19.5995 46.4084 19.4431 46.3597 19.31 46.27L18.98 46.07C18.617 45.9147 18.2946 45.6779 18.038 45.3778C17.7813 45.0778 17.5972 44.7227 17.5 44.34C17.3872 43.8203 17.4682 43.2772 17.7279 42.8131C17.9876 42.3489 18.408 41.9957 18.91 41.82C19.0486 41.7829 19.1947 41.7847 19.3323 41.8253C19.47 41.8659 19.5937 41.9436 19.69 42.05C19.7919 42.1553 19.864 42.2858 19.8992 42.428C19.9343 42.5703 19.9311 42.7193 19.89 42.86C19.8457 42.9938 19.7684 43.1143 19.6653 43.2104C19.5622 43.3066 19.4366 43.3752 19.3 43.41C19.3 43.41 19.3 43.41 19.22 43.5C19.1179 43.6787 19.0825 43.8877 19.12 44.09C19.18 44.29 19.43 44.44 19.81 44.66L20.2 44.89C20.3719 45.0114 20.4913 45.1935 20.534 45.3996C20.5767 45.6057 20.5395 45.8203 20.43 46C20.363 46.1202 20.2662 46.2211 20.1488 46.2929C20.0314 46.3647 19.8975 46.405 19.76 46.41Z" fill="#383529"/>
<path d="M2.54999 2.71V61.62H61.46V2.71H2.54999Z" fill="#FBFAF7"/>
<path d="M18 28.88C17.8413 29.0713 17.7223 29.2922 17.65 29.53C17.5885 29.7444 17.5615 29.9671 17.57 30.19C17.596 30.6605 17.7872 31.1067 18.11 31.45C18.1474 31.4893 18.1924 31.5207 18.2422 31.5421C18.2921 31.5635 18.3458 31.5745 18.4 31.5745C18.4543 31.5745 18.508 31.5635 18.5578 31.5421C18.6077 31.5207 18.6527 31.4893 18.69 31.45C18.7646 31.3719 18.8062 31.268 18.8062 31.16C18.8062 31.052 18.7646 30.9481 18.69 30.87L18.6 30.78C18.6 30.78 18.66 30.85 18.6 30.78V30.72C18.5749 30.69 18.5546 30.6563 18.54 30.62V30.55C18.54 30.55 18.54 30.47 18.54 30.55C18.5387 30.5267 18.5387 30.5033 18.54 30.48V30.37V30.24C18.54 30.19 18.54 30.34 18.54 30.24C18.54 30.14 18.54 30.19 18.54 30.17C18.535 30.0867 18.535 30.0033 18.54 29.92C18.54 29.85 18.54 29.92 18.54 29.92C18.5449 29.8969 18.5449 29.8731 18.54 29.85V29.73C18.54 29.73 18.54 29.65 18.54 29.61C18.54 29.57 18.54 29.61 18.54 29.61V29.55L18.6 29.45C18.5972 29.4301 18.5972 29.4099 18.6 29.39C18.6 29.39 18.66 29.3 18.6 29.39C18.6381 29.3519 18.6683 29.3067 18.689 29.257C18.7096 29.2072 18.7202 29.1539 18.7202 29.1C18.7202 29.0461 18.7096 28.9928 18.689 28.943C18.6683 28.8933 18.6381 28.8481 18.6 28.81C18.5219 28.7354 18.418 28.6938 18.31 28.6938C18.202 28.6938 18.0982 28.7354 18.02 28.81L18 28.88Z" fill="#7A913A"/>
<path d="M25.22 45.24L28.1 42C28.1769 41.9231 28.2201 41.8188 28.2201 41.71C28.2201 41.6012 28.1769 41.4969 28.1 41.42C28.0231 41.3431 27.9188 41.2999 27.81 41.2999C27.7012 41.2999 27.5969 41.3431 27.52 41.42L24.64 44.68C24.6019 44.7181 24.5717 44.7633 24.5511 44.8131C24.5305 44.8628 24.5199 44.9161 24.5199 44.97C24.5199 45.0788 24.5631 45.1831 24.64 45.26C24.7169 45.3369 24.8212 45.3801 24.93 45.3801C25.0388 45.3801 25.1431 45.3369 25.22 45.26V45.24Z" fill="#B5B1A4"/>
<path d="M45.35 22C45.35 22.12 45.35 22.24 45.35 22.36C45.3603 22.4128 45.3603 22.4672 45.35 22.52V22.52C45.35 22.52 45.35 22.57 45.35 22.6C45.35 22.63 45.35 22.79 45.28 22.89C45.21 22.99 45.28 22.97 45.28 23.02V23.08C45.28 22.97 45.28 23.08 45.28 23.08C45.2479 23.1574 45.2076 23.2311 45.16 23.3L45.1 23.39V23.45C45.1 23.51 45.17 23.37 45.1 23.45C45.03 23.53 44.88 23.68 44.76 23.79C44.64 23.9 44.68 23.79 44.67 23.86C44.66 23.93 44.75 23.81 44.67 23.86L44.47 24L44.06 24.24C43.79 24.39 43.52 24.53 43.26 24.71C42.9681 24.9022 42.7139 25.1462 42.51 25.43C42.1736 25.8455 41.9932 26.3655 42 26.9C42.1933 28.0419 42.6869 29.1118 43.43 30C44.43 31.56 45.5 33.15 46.52 34.74L50 40.19C51 41.77 52 43.36 53.09 44.93L53.42 45.41C53.4805 45.4921 53.5695 45.5488 53.6696 45.5688C53.7696 45.5888 53.8735 45.5709 53.961 45.5184C54.0485 45.4659 54.1133 45.3826 54.1427 45.2849C54.1721 45.1872 54.164 45.0821 54.12 44.99C53.12 43.49 52.12 41.99 51.12 40.43C49.97 38.64 48.83 36.84 47.69 35.05C46.64 33.41 45.59 31.77 44.52 30.15L43.86 29.15C43.69 28.9 43.52 28.65 43.37 28.38C43.22 28.11 43.22 28.12 43.15 27.99C43.08 27.86 43.08 27.84 43.05 27.76C43.02 27.68 43.05 27.84 43.05 27.71C43.0444 27.6736 43.0444 27.6365 43.05 27.6C42.9962 27.4669 42.9528 27.3298 42.92 27.19C42.92 27.19 42.92 27.11 42.92 27.07C42.92 27.03 42.92 26.94 42.92 27.07C42.92 26.99 42.92 26.92 42.92 26.84C42.915 26.7634 42.915 26.6866 42.92 26.61C42.92 26.61 42.92 26.48 42.92 26.61C42.9249 26.5836 42.9249 26.5564 42.92 26.53C42.92 26.41 43 26.29 43.03 26.17C43.03 26.28 43.03 26.23 43.03 26.17V26.12C43.014 26.0818 43.0039 26.0413 43 26C43.0165 25.9678 43.0366 25.9376 43.06 25.91V25.91C43.11 25.83 43 25.98 43.06 25.91C43.12 25.84 43.26 25.7 43.37 25.6H43.42C43.35 25.67 43.36 25.6 43.42 25.6L43.49 25.55L43.69 25.42C43.82 25.33 43.96 25.26 44.09 25.18C44.369 25.0356 44.6394 24.8754 44.9 24.7C45.222 24.4937 45.4976 24.2227 45.7094 23.9042C45.9211 23.5858 46.0643 23.2268 46.13 22.85C46.1748 22.6026 46.1949 22.3514 46.19 22.1C46.19 21.9913 46.1468 21.887 46.0699 21.8101C45.993 21.7332 45.8887 21.69 45.78 21.69C45.6713 21.69 45.567 21.7332 45.4901 21.8101C45.4132 21.887 45.37 21.9913 45.37 22.1L45.35 22Z" fill="#B5B1A4"/>
<path d="M23.82 17.28C24.7413 17.7498 25.63 18.281 26.48 18.87L27.11 19.32L27.41 19.55H27.46L27.61 19.68C28.02 20 28.41 20.33 28.8 20.68C29.5876 21.4 30.3228 22.1753 31 23C31.17 23.19 31.34 23.39 31.5 23.59L31.61 23.74L31.67 23.81C31.6 23.72 31.67 23.81 31.67 23.81C31.7523 23.9091 31.829 24.0126 31.9 24.12C32.21 24.53 32.51 24.96 32.79 25.39C33.3449 26.2567 33.8426 27.1586 34.28 28.09L34.45 28.44C34.5044 28.5341 34.594 28.6028 34.699 28.631C34.804 28.6591 34.9159 28.6444 35.01 28.59C35.1005 28.5322 35.1654 28.442 35.1915 28.3379C35.2175 28.2337 35.2027 28.1236 35.15 28.03C34.7292 27.0799 34.2413 26.1609 33.69 25.28C33.12 24.3794 32.4955 23.5144 31.82 22.69C31.1599 21.888 30.4484 21.1298 29.69 20.42C28.9095 19.7022 28.0845 19.0342 27.22 18.42C26.3753 17.8185 25.4936 17.2708 24.58 16.78L24.23 16.6C24.1348 16.5507 24.0246 16.5387 23.9209 16.5664C23.8173 16.5942 23.7278 16.6597 23.67 16.75C23.6157 16.8442 23.6009 16.956 23.6291 17.0611C23.6572 17.1661 23.7259 17.2556 23.82 17.31V17.28Z" fill="#B5B1A4"/>
<path d="M39.36 29.44C38.66 30.1 38.03 30.82 37.36 31.51C37.18 31.69 37.01 31.87 36.83 32.04C36.7657 32.1045 36.7241 32.1881 36.7115 32.2783C36.6988 32.3685 36.7159 32.4603 36.76 32.54C37.48 33.54 38.15 34.47 38.82 35.46C39.49 36.45 40.26 37.62 41.01 38.69C41.43 39.29 41.85 39.88 42.29 40.46C42.3491 40.5501 42.4373 40.6172 42.54 40.65C42.6395 40.6895 42.7504 40.6895 42.85 40.65C42.9102 40.625 42.9636 40.5859 43.0057 40.5361C43.0478 40.4863 43.0775 40.4271 43.0921 40.3636C43.1068 40.3 43.1061 40.2339 43.0901 40.1706C43.074 40.1074 43.0431 40.0489 43 40C42.21 39 41.47 37.9 40.75 36.82C40.03 35.74 39.34 34.71 38.61 33.66C38.24 33.13 37.86 32.6 37.47 32.08L37.41 32.58C38.1 31.92 38.73 31.19 39.41 30.51C39.58 30.33 39.75 30.15 39.94 29.98C40.0145 29.9019 40.0562 29.798 40.0562 29.69C40.0562 29.582 40.0145 29.4781 39.94 29.4C39.9019 29.3619 39.8567 29.3317 39.8069 29.3111C39.7572 29.2904 39.7038 29.2798 39.65 29.2798C39.5961 29.2798 39.5428 29.2904 39.493 29.3111C39.4433 29.3317 39.398 29.3619 39.36 29.4V29.44Z" fill="#B5B1A4"/>
<path d="M48.96 16.54C49.4184 16.54 49.79 16.1684 49.79 15.71C49.79 15.2516 49.4184 14.88 48.96 14.88C48.5016 14.88 48.13 15.2516 48.13 15.71C48.13 16.1684 48.5016 16.54 48.96 16.54Z" fill="#EF3C23"/>
<path d="M58.84 33.47C59.2984 33.47 59.67 33.0984 59.67 32.64C59.67 32.1816 59.2984 31.81 58.84 31.81C58.3816 31.81 58.01 32.1816 58.01 32.64C58.01 33.0984 58.3816 33.47 58.84 33.47Z" fill="#EF3C23"/>
<path d="M26.94 35.29C27.3984 35.29 27.77 34.9184 27.77 34.46C27.77 34.0016 27.3984 33.63 26.94 33.63C26.4816 33.63 26.11 34.0016 26.11 34.46C26.11 34.9184 26.4816 35.29 26.94 35.29Z" fill="#EF3C23"/>
<path d="M13.75 40.67C14.2084 40.67 14.58 40.2984 14.58 39.84C14.58 39.3816 14.2084 39.01 13.75 39.01C13.2916 39.01 12.92 39.3816 12.92 39.84C12.92 40.2984 13.2916 40.67 13.75 40.67Z" fill="#EF3C23"/>
<path d="M42.96 53.12C43.4184 53.12 43.79 52.7484 43.79 52.29C43.79 51.8316 43.4184 51.46 42.96 51.46C42.5016 51.46 42.13 51.8316 42.13 52.29C42.13 52.7484 42.5016 53.12 42.96 53.12Z" fill="#EF3C23"/>
<path d="M31.88 43.69C32.3384 43.69 32.71 43.3184 32.71 42.86C32.71 42.4016 32.3384 42.03 31.88 42.03C31.4216 42.03 31.05 42.4016 31.05 42.86C31.05 43.3184 31.4216 43.69 31.88 43.69Z" fill="#EF3C23"/>
<path d="M55.97 42.82C56.4284 42.82 56.8 42.4484 56.8 41.99C56.8 41.5316 56.4284 41.16 55.97 41.16C55.5116 41.16 55.14 41.5316 55.14 41.99C55.14 42.4484 55.5116 42.82 55.97 42.82Z" fill="#EF3C23"/>
<path d="M25.76 53.32C26.2184 53.32 26.59 52.9484 26.59 52.49C26.59 52.0316 26.2184 51.66 25.76 51.66C25.3016 51.66 24.93 52.0316 24.93 52.49C24.93 52.9484 25.3016 53.32 25.76 53.32Z" fill="#EF3C23"/>
<path d="M8.96 50.07C9.4184 50.07 9.79 49.6984 9.79 49.24C9.79 48.7816 9.4184 48.41 8.96 48.41C8.50161 48.41 8.13 48.7816 8.13 49.24C8.13 49.6984 8.50161 50.07 8.96 50.07Z" fill="#EF3C23"/>
<path d="M6.16002 33.08C6.61841 33.08 6.99002 32.7084 6.99002 32.25C6.99002 31.7916 6.61841 31.42 6.16002 31.42C5.70162 31.42 5.33002 31.7916 5.33002 32.25C5.33002 32.7084 5.70162 33.08 6.16002 33.08Z" fill="#EF3C23"/>
<path d="M15.23 9.99C15.6884 9.99 16.06 9.6184 16.06 9.16C16.06 8.70161 15.6884 8.33 15.23 8.33C14.7716 8.33 14.4 8.70161 14.4 9.16C14.4 9.6184 14.7716 9.99 15.23 9.99Z" fill="#EF3C23"/>
<path d="M18.09 14.76C18.5484 14.76 18.92 14.3884 18.92 13.93C18.92 13.4716 18.5484 13.1 18.09 13.1C17.6316 13.1 17.26 13.4716 17.26 13.93C17.26 14.3884 17.6316 14.76 18.09 14.76Z" fill="#EF3C23"/>
<path d="M25.91 10.68C26.3684 10.68 26.74 10.3084 26.74 9.85C26.74 9.3916 26.3684 9.02 25.91 9.02C25.4516 9.02 25.08 9.3916 25.08 9.85C25.08 10.3084 25.4516 10.68 25.91 10.68Z" fill="#EF3C23"/>
<path d="M36.46 16.15C36.9184 16.15 37.29 15.7784 37.29 15.32C37.29 14.8616 36.9184 14.49 36.46 14.49C36.0016 14.49 35.63 14.8616 35.63 15.32C35.63 15.7784 36.0016 16.15 36.46 16.15Z" fill="#EF3C23"/>
<path d="M58.33 9.51C58.7884 9.51 59.16 9.1384 59.16 8.68C59.16 8.2216 58.7884 7.85 58.33 7.85C57.8716 7.85 57.5 8.2216 57.5 8.68C57.5 9.1384 57.8716 9.51 58.33 9.51Z" fill="#EF3C23"/>
<path d="M48.55 22.91H48.64C49.219 22.8907 49.7677 22.6468 50.17 22.23C50.3986 22.0034 50.5819 21.7353 50.71 21.44C50.7799 21.6048 50.8601 21.7652 50.95 21.92C51.1368 22.2416 51.3731 22.5318 51.65 22.78C51.3239 22.9319 51.0518 23.1796 50.87 23.49C50.5232 24.0626 50.4154 24.7486 50.57 25.4C50.9202 26.4052 51.5269 27.3014 52.33 28C52.3706 28.0383 52.4242 28.0597 52.48 28.06H52.54C52.5755 28.0482 52.6071 28.0272 52.6317 27.999C52.6564 27.9709 52.673 27.9367 52.68 27.9C53.0793 26.3789 53.0131 24.7731 52.49 23.29C52.6475 23.3531 52.812 23.3967 52.98 23.42C53.0697 23.4299 53.1603 23.4299 53.25 23.42C53.6632 23.4348 54.0698 23.3137 54.4076 23.0753C54.7453 22.8369 54.9956 22.4943 55.12 22.1C55.1234 22.0583 55.1137 22.0166 55.0922 21.9807C55.0706 21.9448 55.0384 21.9166 55 21.9C54.947 21.8878 54.8914 21.8966 54.8447 21.9245C54.7981 21.9525 54.7641 21.9975 54.75 22.05C54.6232 22.3937 54.3757 22.6796 54.0538 22.8543C53.7318 23.0291 53.3573 23.0809 53 23C52.6309 22.9208 52.2842 22.7603 51.9849 22.5303C51.6856 22.3002 51.4414 22.0063 51.27 21.67C51.0596 21.325 50.9107 20.946 50.83 20.55C50.6495 19.7326 50.7299 18.8792 51.06 18.11C51.5886 17.1265 52.3096 16.2593 53.18 15.56C53.47 15.3 53.76 15.03 54.03 14.76C54.736 14.1014 55.2656 13.2762 55.57 12.36V12.3C55.6405 12.1377 55.7446 11.9921 55.8755 11.873C56.0064 11.7539 56.1611 11.664 56.3294 11.6092C56.4977 11.5543 56.6757 11.5359 56.8516 11.555C57.0275 11.5741 57.1974 11.6303 57.35 11.72C57.3964 11.7478 57.452 11.7561 57.5045 11.743C57.557 11.7299 57.6022 11.6964 57.63 11.65C57.6579 11.6036 57.6661 11.548 57.653 11.4955C57.6399 11.443 57.6064 11.3978 57.56 11.37C57.357 11.2498 57.1307 11.1742 56.8962 11.1484C56.6617 11.1225 56.4243 11.1469 56.2 11.22C56.0088 11.2804 55.8319 11.3791 55.68 11.51C55.6989 11.1536 55.6479 10.7969 55.53 10.46C55.5221 10.434 55.509 10.4098 55.4915 10.389C55.4739 10.3682 55.4523 10.3512 55.428 10.339C55.4037 10.3268 55.3771 10.3198 55.3499 10.3182C55.3228 10.3167 55.2956 10.3207 55.27 10.33C55.219 10.3482 55.177 10.3854 55.1527 10.4339C55.1285 10.4823 55.124 10.5383 55.14 10.59C55.74 12.26 54.2 13.98 53.71 14.47C53.47 14.71 53.22 14.95 52.96 15.18C53.0842 14.2173 53.0842 13.2427 52.96 12.28C52.8875 11.8111 52.7128 11.3639 52.4485 10.9699C52.1841 10.5759 51.8364 10.2448 51.43 10C51.4023 9.98512 51.3714 9.97733 51.34 9.97733C51.3086 9.97733 51.2777 9.98512 51.25 10C51.2216 10.0126 51.1968 10.0319 51.1776 10.0563C51.1584 10.0807 51.1455 10.1095 51.14 10.14C50.9528 11.0964 50.989 12.0831 51.2457 13.0232C51.5024 13.9633 51.9727 14.8315 52.62 15.56C51.8287 16.2345 51.1853 17.0652 50.73 18C50.3603 18.8356 50.2658 19.7671 50.46 20.66C50.4564 20.9018 50.4031 21.1402 50.3033 21.3604C50.2035 21.5806 50.0594 21.7779 49.88 21.94C49.7117 22.1189 49.5088 22.2617 49.2836 22.3597C49.0584 22.4577 48.8156 22.5088 48.57 22.51C48.5434 22.5072 48.5165 22.51 48.4911 22.5183C48.4657 22.5266 48.4423 22.5401 48.4225 22.5581C48.4027 22.576 48.3869 22.5979 48.3761 22.6224C48.3653 22.6468 48.3599 22.6733 48.36 22.7C48.3587 22.7263 48.3625 22.7526 48.3713 22.7773C48.3802 22.8021 48.3938 22.8249 48.4114 22.8444C48.4291 22.8639 48.4504 22.8798 48.4742 22.891C48.498 22.9023 48.5237 22.9087 48.55 22.91V22.91Z" fill="#7A913A"/>
<path d="M43.88 12.38C44.07 11.95 44.28 11.53 44.47 11.17C44.7937 10.5526 45.0841 9.91839 45.34 9.27C45.4162 9.09275 45.4258 8.89392 45.367 8.71016C45.3082 8.5264 45.185 8.37007 45.02 8.27V8.27C44.9816 8.30169 44.9479 8.33873 44.92 8.38C44.0561 9.26446 43.0398 9.986 41.92 10.51C41.8708 10.5301 41.8311 10.5681 41.8088 10.6164C41.7865 10.6646 41.7834 10.7195 41.8 10.77C41.8144 10.8086 41.8404 10.8418 41.8744 10.8651C41.9084 10.8883 41.9488 10.9005 41.99 10.9C42.0191 10.9107 42.051 10.9107 42.08 10.9C43.1878 10.4111 44.2027 9.7345 45.08 8.9C44.8082 9.61785 44.4943 10.3191 44.14 11C43.8807 11.4723 43.6503 11.9598 43.45 12.46C43.2373 12.9529 43.0861 13.4701 43 14C42.9129 14.5559 42.9581 15.1244 43.1319 15.6595C43.3056 16.1947 43.603 16.6813 44 17.08C44.1825 17.2684 44.4283 17.3824 44.69 17.4C44.7596 17.4104 44.8304 17.4104 44.9 17.4C45.1 17.33 45.35 17.14 45.46 16.6C45.6071 15.8194 45.5375 15.0134 45.259 14.2695C44.9805 13.5256 44.5036 12.8721 43.88 12.38V12.38Z" fill="#7A913A"/>
<path d="M33.31 14.64C33.2171 14.168 33.0166 13.7239 32.7241 13.3419C32.4316 12.96 32.0551 12.6506 31.6237 12.4378C31.1923 12.225 30.7176 12.1145 30.2366 12.1149C29.7556 12.1153 29.2811 12.2265 28.85 12.44C29.2296 12.0271 29.513 11.5354 29.68 11C29.8709 10.3224 29.8367 9.60117 29.5824 8.94473C29.3281 8.2883 28.8676 7.73217 28.27 7.36C28.2443 7.34512 28.2156 7.33615 28.186 7.33374C28.1564 7.33134 28.1267 7.33555 28.0989 7.34609C28.0711 7.35662 28.046 7.3732 28.0255 7.39464C28.0049 7.41607 27.9894 7.44182 27.98 7.47C27.9648 7.51678 27.9664 7.56744 27.9847 7.61314C28.003 7.65883 28.0367 7.69665 28.08 7.72C28.5954 8.04806 28.9908 8.5341 29.2071 9.10548C29.4234 9.67685 29.449 10.3029 29.28 10.89C29.085 11.4814 28.7403 12.0122 28.2795 12.431C27.8186 12.8498 27.2573 13.1423 26.65 13.28C25.4011 13.5438 24.0987 13.3297 23 12.68C22.5526 12.4167 22.1218 12.1262 21.71 11.81C21.0955 11.3289 20.4237 10.9258 19.71 10.61C19.8574 10.5294 19.9949 10.4321 20.12 10.32H20.38C20.795 10.2917 21.2003 10.1817 21.5727 9.99634C21.9451 9.811 22.2772 9.55398 22.55 9.24C22.8318 8.91016 23.0218 8.51191 23.1008 8.08533C23.1798 7.65875 23.145 7.21888 23 6.81C22.9838 6.7706 22.956 6.73707 22.9203 6.71385C22.8846 6.69063 22.8426 6.67882 22.8 6.68C22.4501 6.72469 22.1168 6.85602 21.8304 7.06207C21.544 7.26812 21.3136 7.54239 21.16 7.86C21.0056 8.12062 20.8686 8.39122 20.75 8.67C20.6235 8.973 20.4765 9.26701 20.31 9.55C20.2164 9.69018 20.1092 9.82081 19.99 9.94C19.7515 10.1941 19.4273 10.3508 19.08 10.38C18.2339 10.2147 17.3588 10.2828 16.5484 10.577C15.7381 10.8712 15.023 11.3804 14.48 12.05C14.4375 11.3909 14.2066 10.7578 13.8149 10.226C13.4231 9.69419 12.8869 9.28603 12.27 9.05C11.7905 8.89216 11.2776 8.86454 10.7839 8.96996C10.2902 9.07539 9.83329 9.31007 9.46002 9.65C9.09469 10.0033 8.83693 10.4529 8.71658 10.9467C8.59623 11.4404 8.61823 11.9582 8.78002 12.44C8.9588 12.9173 9.28032 13.328 9.70081 13.6161C10.1213 13.9041 10.6203 14.0557 11.13 14.05C11.1767 14.0396 11.2184 14.0137 11.2483 13.9764C11.2782 13.9391 11.2945 13.8928 11.2945 13.845C11.2945 13.7972 11.2782 13.7509 11.2483 13.7136C11.2184 13.6763 11.1767 13.6504 11.13 13.64H11C10.5869 13.6273 10.1866 13.4935 9.84881 13.2553C9.51103 13.0171 9.25066 12.6849 9.10002 12.3C8.97998 11.8984 8.97244 11.4716 9.07824 11.0661C9.18404 10.6605 9.39911 10.2918 9.70002 10C10.0204 9.71239 10.4107 9.51393 10.8319 9.42443C11.2531 9.33493 11.6903 9.35754 12.1 9.49C12.6507 9.70689 13.1249 10.0818 13.463 10.5676C13.8011 11.0534 13.9879 11.6283 14 12.22C14.0319 13.1657 13.7546 14.0961 13.21 14.87L13.12 15C13.1011 15.0281 13.0886 15.06 13.0834 15.0934C13.0782 15.1269 13.0805 15.161 13.09 15.1935C13.0996 15.226 13.1162 15.256 13.1387 15.2813C13.1611 15.3066 13.1889 15.3267 13.22 15.34V15.34C13.2506 15.3543 13.2839 15.3617 13.3176 15.3617C13.3513 15.3617 13.3846 15.3543 13.4152 15.34C13.4457 15.3256 13.4727 15.3048 13.4943 15.2789C13.5159 15.253 13.5315 15.2226 13.54 15.19V15.07C14.0059 14.378 14.2912 13.5805 14.37 12.75C14.3913 12.7387 14.4088 12.7213 14.42 12.7C14.8708 11.9919 15.5195 11.4316 16.2856 11.0886C17.0517 10.7455 17.9016 10.6348 18.73 10.77H18.82H19C19.1733 10.808 19.3437 10.8582 19.51 10.92C20.2282 11.223 20.9011 11.6234 21.51 12.11C21.9409 12.4328 22.3882 12.7332 22.85 13.01C23.7137 13.5004 24.687 13.7652 25.68 13.78C26.054 13.783 26.4269 13.7393 26.79 13.65C27.4322 13.495 28.0285 13.19 28.53 12.76V12.76C28.6546 13.2115 28.8833 13.6276 29.1976 13.9749C29.5119 14.3222 29.9031 14.5911 30.34 14.76C30.7882 14.986 31.2814 15.1087 31.7832 15.1191C32.2851 15.1294 32.7829 15.0273 33.24 14.82C33.264 14.7969 33.2827 14.7688 33.2948 14.7377C33.3069 14.7066 33.3121 14.6733 33.31 14.64Z" fill="#7A913A"/>
<path d="M21.73 40.24C21.5938 41.0033 21.1673 41.6843 20.54 42.14C20.5182 42.155 20.4996 42.1742 20.4853 42.1964C20.471 42.2187 20.4612 42.2435 20.4565 42.2696C20.4519 42.2956 20.4525 42.3223 20.4582 42.3481C20.4639 42.374 20.4747 42.3984 20.49 42.42C20.5274 42.4566 20.5776 42.4772 20.63 42.4772C20.6823 42.4772 20.7326 42.4566 20.77 42.42C21.1288 42.1683 21.4338 41.8477 21.6673 41.4768C21.9008 41.106 22.0581 40.6923 22.13 40.26C22.1672 39.3708 21.9068 38.4946 21.39 37.77C22.1104 37.6297 22.7742 37.2822 23.3 36.77C23.7445 36.339 24.0656 35.7969 24.23 35.2V35.2C24.5101 34.1426 24.4541 33.0242 24.07 32C23.913 31.5296 23.6495 31.1018 23.3 30.75C23.107 30.564 22.8701 30.4298 22.6114 30.3598C22.3526 30.2899 22.0804 30.2865 21.82 30.35H21.7C21.4028 30.4882 21.1625 30.7249 21.02 31.02C20.806 31.4932 20.7845 32.0312 20.96 32.52C21.3169 33.2504 21.8668 33.8694 22.55 34.31L23.24 34.83L23.8 35.25C23.6462 35.7463 23.3713 36.1965 23 36.56C22.4479 37.0696 21.7469 37.3885 21 37.47C20.1966 37.5683 19.3825 37.5346 18.59 37.37C17.6703 37.2293 16.7929 36.8879 16.02 36.37C15.6473 36.1258 15.3336 35.8017 15.1018 35.4211C14.8701 35.0406 14.726 34.6132 14.68 34.17C14.6749 34.1161 14.6492 34.0662 14.6082 34.0308C14.5672 33.9954 14.5141 33.9772 14.46 33.98H14.4C14.3608 33.9984 14.3282 34.0284 14.3067 34.066C14.2852 34.1036 14.2759 34.1469 14.28 34.19C14.3321 34.6935 14.4944 35.1794 14.7554 35.6132C15.0163 36.047 15.3696 36.418 15.79 36.7C16.62 37.2207 17.55 37.5614 18.52 37.7C19.3166 37.8579 20.1324 37.895 20.94 37.81C21.4745 38.5053 21.7534 39.3633 21.73 40.24Z" fill="#7A913A"/>
<path d="M33.93 46.86C33.93 47.05 33.86 47.24 33.84 47.42C33.7941 47.7581 33.8354 48.1024 33.96 48.42C33.99 48.4984 34.0304 48.5724 34.08 48.64C34.1711 48.7679 34.2909 48.8725 34.4299 48.9455C34.5689 49.0185 34.7231 49.0577 34.88 49.06C35.0998 49.0332 35.3044 48.9342 35.4619 48.7785C35.6193 48.6229 35.7207 48.4194 35.75 48.2C35.7674 47.9986 35.7405 47.7958 35.6715 47.6058C35.6024 47.4159 35.4927 47.2432 35.35 47.1C35.1005 46.8281 34.7829 46.6279 34.43 46.52C34.6224 45.8099 34.9632 45.1486 35.43 44.58V44.58C35.8905 44.9652 36.4419 45.2263 37.0318 45.3383C37.6216 45.4503 38.2303 45.4096 38.8 45.22C38.8996 45.1991 38.9922 45.1533 39.0691 45.0869C39.1461 45.0204 39.2049 44.9354 39.24 44.84C39.31 44.57 39.13 44.32 38.76 44.18C37.7821 43.8829 36.738 43.8829 35.76 44.18C35.999 43.9392 36.2601 43.7216 36.54 43.53C36.5624 43.5156 36.5816 43.4969 36.5967 43.475C36.6118 43.4531 36.6224 43.4284 36.628 43.4024C36.6336 43.3764 36.634 43.3496 36.6292 43.3234C36.6244 43.2973 36.6145 43.2723 36.6 43.25C36.5856 43.2277 36.5669 43.2084 36.545 43.1933C36.5231 43.1782 36.4985 43.1676 36.4725 43.162C36.4465 43.1564 36.4196 43.156 36.3935 43.1608C36.3673 43.1656 36.3423 43.1756 36.32 43.19C35.1788 43.9657 34.3552 45.1266 34 46.46C33.2614 46.3713 32.5123 46.4675 31.82 46.74C30.4396 47.1473 29.1865 47.9012 28.18 48.93C28.1508 48.967 28.1349 49.0128 28.1349 49.06C28.1349 49.1072 28.1508 49.153 28.18 49.19V49.19C28.2191 49.2273 28.271 49.2481 28.325 49.2481C28.379 49.2481 28.431 49.2273 28.47 49.19C29.4499 48.2111 30.6657 47.5016 32 47.13C32.6118 46.8843 33.2743 46.7916 33.93 46.86V46.86ZM35.05 47.4C35.1515 47.5016 35.23 47.6238 35.28 47.7584C35.3301 47.893 35.3505 48.0368 35.34 48.18C35.33 48.3043 35.278 48.4214 35.1926 48.5123C35.1072 48.6031 34.9934 48.6623 34.87 48.68C34.7526 48.6719 34.6397 48.6311 34.5443 48.5622C34.4488 48.4933 34.3746 48.399 34.33 48.29C34.2357 48.0241 34.2082 47.739 34.25 47.46C34.2669 47.2886 34.2936 47.1183 34.33 46.95C34.6054 47.0342 34.8537 47.1894 35.05 47.4Z" fill="#7A913A"/>
<path d="M59.42 51.71C59.42 51.58 59.24 51.44 58.91 51.4C57.7397 51.2719 56.5569 51.4749 55.4962 51.9858C54.4354 52.4967 53.5394 53.295 52.91 54.29C52.4149 54.2406 51.9278 54.1297 51.46 53.96C51.46 53.96 51.31 53.96 51.26 54.09V54.16C51.2555 54.1865 51.2555 54.2135 51.26 54.24V54.24C51.8414 54.4619 52.4503 54.6032 53.07 54.66C54.2319 54.7663 55.4024 54.5971 56.4866 54.1662C57.5708 53.7353 58.5381 53.0548 59.31 52.18C59.3604 52.1138 59.3963 52.0378 59.4153 51.9568C59.4342 51.8758 59.4358 51.7917 59.42 51.71V51.71Z" fill="#7A913A"/>
<path d="M6.87002 51.7C6.58343 50.7723 6.22225 49.8694 5.79002 49C5.55002 48.47 5.30002 47.92 5.08002 47.36C4.37793 45.8552 4.27077 44.1405 4.78002 42.56C4.97696 42.1005 5.26571 41.6861 5.62854 41.3422C5.99137 40.9982 6.42064 40.7321 6.89002 40.56C6.33482 39.7846 5.99119 38.8779 5.89299 37.9292C5.7948 36.9806 5.94542 36.0227 6.33002 35.15C6.34715 35.1162 6.37272 35.0874 6.40425 35.0663C6.43579 35.0453 6.47223 35.0328 6.51002 35.03C6.54627 35.0288 6.58218 35.0374 6.61388 35.0551C6.64559 35.0727 6.67191 35.0986 6.69002 35.13C7.16917 35.9142 7.47819 36.7904 7.59705 37.7017C7.71592 38.613 7.64198 39.5391 7.38002 40.42C7.88161 40.3253 8.39997 40.381 8.87002 40.58C9.31429 40.7975 9.69921 41.1195 9.9918 41.5183C10.2844 41.9171 10.4759 42.3809 10.55 42.87C10.5556 42.9031 10.5556 42.9369 10.55 42.97C10.546 42.9898 10.546 43.0102 10.55 43.03V43.03C10.55 43.16 10.55 43.3 10.6 43.43C10.7009 44.0333 11 44.5858 11.45 45C11.7451 45.2288 12.093 45.3798 12.4616 45.4392C12.8303 45.4986 13.208 45.4645 13.56 45.34C13.585 45.3308 13.6115 45.3266 13.6381 45.3277C13.6646 45.3287 13.6907 45.335 13.7149 45.3462C13.739 45.3573 13.7607 45.3731 13.7788 45.3926C13.7968 45.4122 13.8108 45.435 13.82 45.46C13.8292 45.4849 13.8334 45.5115 13.8323 45.538C13.8313 45.5646 13.825 45.5907 13.8139 45.6149C13.8027 45.639 13.7869 45.6607 13.7674 45.6787C13.7479 45.6968 13.725 45.7108 13.7 45.72C13.4297 45.8278 13.141 45.8821 12.85 45.88C12.2498 45.883 11.6657 45.686 11.19 45.32C10.9497 45.1115 10.7498 44.8607 10.6 44.58C10.5813 44.769 10.5478 44.9562 10.5 45.14C10.38 45.65 9.99002 46.85 8.96002 46.96C8.59313 46.9643 8.23516 46.8469 7.94206 46.6261C7.64896 46.4054 7.43725 46.0938 7.34002 45.74C7.19 45.0818 7.19 44.3982 7.34002 43.74C7.35517 43.6926 7.38664 43.6521 7.42885 43.6258C7.47105 43.5994 7.52124 43.5889 7.57047 43.5961C7.6197 43.6033 7.66477 43.6278 7.69765 43.6651C7.73054 43.7025 7.7491 43.7503 7.75002 43.8C7.61173 44.3954 7.61173 45.0146 7.75002 45.61C7.81596 45.8746 7.9673 46.1102 8.18062 46.2801C8.39395 46.45 8.65734 46.5449 8.93002 46.55C9.73002 46.47 10.05 45.38 10.12 45.05C10.2486 44.5134 10.2892 43.9596 10.24 43.41C10.24 43.27 10.24 43.14 10.19 43.02C10.1456 42.5695 9.98857 42.1374 9.73344 41.7635C9.47832 41.3895 9.13327 41.0857 8.73002 40.88C8.24929 40.6856 7.71667 40.6609 7.22002 40.81C6.77127 40.9615 6.36038 41.2078 6.01528 41.5322C5.67018 41.8566 5.39895 42.2515 5.22002 42.69C4.75157 44.1745 4.85866 45.7808 5.52002 47.19C5.74002 47.74 5.98002 48.28 6.23002 48.81C6.64935 49.7102 6.99385 50.6433 7.26002 51.6C7.43264 52.2529 7.52334 52.9247 7.53002 53.6C7.71159 53.2633 7.95206 52.9618 8.24002 52.71V52.66C8.26963 52.6532 8.30041 52.6532 8.33002 52.66C8.44046 52.5743 8.55749 52.4973 8.68002 52.43C9.38758 52.0951 10.138 51.8595 10.91 51.73L11.56 51.58C12.4935 51.4058 13.3478 50.9402 14 50.25C14.0266 50.2162 14.0629 50.1913 14.104 50.1788C14.1451 50.1663 14.1891 50.1667 14.23 50.18C14.2722 50.1932 14.3088 50.22 14.3341 50.2562C14.3594 50.2923 14.372 50.3359 14.37 50.38C14.3365 51.029 14.1344 51.658 13.7836 52.2051C13.4329 52.7522 12.9457 53.1985 12.37 53.5C11.9427 53.6931 11.4789 53.792 11.01 53.79C10.0909 53.7865 9.1884 53.5453 8.39002 53.09C7.88493 53.6287 7.53882 54.2967 7.39002 55.02C7.23419 56.1024 6.89607 57.1506 6.39002 58.12C8.24201 57.0282 10.4281 56.6478 12.54 57.05C13.6786 57.2388 14.8067 57.4858 15.92 57.79C16.47 57.93 17.05 58.08 17.62 58.21C19.4269 56.7347 21.7088 55.9669 24.04 56.05C24.0825 56.0549 24.1228 56.0715 24.1564 56.098C24.1899 56.1245 24.2154 56.1598 24.23 56.2C24.3173 56.6652 24.2549 57.1461 24.0519 57.5737C23.8489 58.0013 23.5157 58.3536 23.1 58.58C22.2994 58.9815 21.4014 59.1479 20.51 59.06C19.5425 59.0025 18.582 58.8586 17.64 58.63C17.03 58.5 16.41 58.34 15.81 58.18C14.7164 57.8835 13.6083 57.6432 12.49 57.46C9.59002 57 7.00002 57.72 5.64002 59.32C5.53759 59.4658 5.42743 59.606 5.31002 59.74V59.74H5.07002H5.00002V59.5C5.10676 59.3489 5.2237 59.2052 5.35002 59.07C6.21982 57.866 6.78588 56.4698 7.00002 55V55C7.17416 53.9022 7.12999 52.7807 6.87002 51.7V51.7Z" fill="#7A913A"/>
<path d="M57.75 59C56.6139 58.5452 55.3853 58.3696 54.1672 58.4879C52.9492 58.6062 51.7773 59.015 50.75 59.68C49.8668 59.4374 49.0292 59.0523 48.27 58.54C48.5157 58.2936 48.7306 58.0182 48.91 57.72C49.04 57.5 49.16 57.27 49.27 57.04C49.4856 56.5052 49.829 56.0314 50.27 55.66C51.18 55.02 52.53 55.46 53.46 56.18H53.61H53.67V56.1V55.96C52.4696 54.6313 51.0229 53.5479 49.41 52.77C48.76 52.41 48.08 52.02 47.48 51.62C46.4674 50.9501 45.5805 50.1072 44.86 49.13C45.0665 49.178 45.278 49.2015 45.49 49.2C46.142 49.1474 46.7716 48.9381 47.3252 48.5899C47.8789 48.2417 48.3403 47.7649 48.67 47.2C48.8246 47.022 48.9154 46.7975 48.9281 46.562C48.9408 46.3266 48.8746 46.0936 48.74 45.9C48.6315 45.8015 48.5028 45.7281 48.3628 45.6849C48.2228 45.6417 48.0751 45.6298 47.93 45.65C47.1075 45.7052 46.3257 46.0284 45.7044 46.5702C45.0831 47.1121 44.6565 47.8426 44.49 48.65C43.7795 47.5646 43.2744 46.3579 43 45.09C42.8224 44.4352 42.8224 43.7448 43 43.09C43.0798 42.7879 43.2448 42.5151 43.4753 42.3041C43.7058 42.0932 43.9921 41.9529 44.3 41.9C44.353 41.8927 44.4015 41.8663 44.4365 41.8258C44.4715 41.7854 44.4905 41.7335 44.49 41.68C44.4826 41.6252 44.4547 41.5753 44.4121 41.5401C44.3695 41.5049 44.3152 41.487 44.26 41.49C43.8622 41.545 43.4902 41.7184 43.1924 41.9877C42.8945 42.257 42.6846 42.6097 42.59 43C42.4023 43.7145 42.4023 44.4655 42.59 45.18C43.22 47.9364 44.88 50.3477 47.23 51.92C47.85 52.33 48.53 52.72 49.23 53.09C50.3715 53.6872 51.4502 54.3975 52.45 55.21C52.0579 55.0275 51.6262 54.9465 51.1946 54.9745C50.763 55.0024 50.3453 55.1384 49.98 55.37C49.4931 55.784 49.1125 56.3086 48.87 56.9C48.76 57.12 48.65 57.34 48.53 57.55C48.3246 57.8845 48.072 58.1876 47.78 58.45V58.45C47.2457 58.9307 46.6017 59.2732 45.9044 59.4475C45.2071 59.6218 44.4777 59.6227 43.78 59.45C43.1702 59.2835 42.6259 58.9346 42.22 58.45C42.0268 58.2207 41.8899 57.9493 41.8205 57.6575C41.751 57.3658 41.7508 57.0618 41.82 56.77C41.8863 56.5454 42.0026 56.3387 42.1602 56.1655C42.3178 55.9923 42.5126 55.8571 42.73 55.77C42.9359 55.6708 43.1615 55.6192 43.39 55.6192C43.6185 55.6192 43.8441 55.6708 44.05 55.77C44.2491 55.8808 44.4213 56.0341 44.5544 56.2191C44.6875 56.404 44.7782 56.616 44.82 56.84C44.868 57.0642 44.8678 57.296 44.8195 57.5201C44.7713 57.7441 44.676 57.9555 44.54 58.14C44.5034 58.1774 44.4828 58.2276 44.4828 58.28C44.4828 58.3323 44.5034 58.3826 44.54 58.42C44.5791 58.4573 44.631 58.4781 44.685 58.4781C44.739 58.4781 44.7909 58.4573 44.83 58.42C45.0377 58.1934 45.1904 57.9219 45.2762 57.6268C45.362 57.3316 45.3786 57.0206 45.3248 56.7179C45.2709 56.4153 45.1479 56.1291 44.9655 55.8817C44.7831 55.6342 44.5461 55.4322 44.2729 55.2912C43.9997 55.1502 43.6977 55.0741 43.3903 55.0688C43.083 55.0635 42.7785 55.1291 42.5006 55.2605C42.2227 55.392 41.9789 55.5857 41.788 55.8267C41.5971 56.0677 41.4643 56.3494 41.4 56.65C41.3203 56.9971 41.3212 57.3579 41.4027 57.7046C41.4841 58.0513 41.644 58.3747 41.87 58.65C42.3348 59.1857 42.9525 59.5661 43.64 59.74C44.0126 59.8806 44.4031 59.9681 44.8 60C45.9392 59.9943 47.0414 59.5951 47.92 58.87C48.7567 59.4549 49.6915 59.885 50.68 60.14V60.14C51.5728 60.3848 52.4943 60.5093 53.42 60.51C54.9421 60.5371 56.4438 60.1574 57.77 59.41C57.8034 59.392 57.8314 59.3653 57.8509 59.3328C57.8703 59.3002 57.8806 59.263 57.8806 59.225C57.8806 59.187 57.8703 59.1498 57.8509 59.1172C57.8314 59.0846 57.8034 59.058 57.77 59.04L57.75 59Z" fill="#7A913A"/>
<path d="M37.14 56.08C36.1084 55.8067 35.0144 55.8949 34.04 56.33L34.13 56.14C34.3043 55.7254 34.4448 55.2973 34.55 54.86C34.6568 54.3072 34.8563 53.7764 35.14 53.29C35.5073 52.7628 36.0542 52.3877 36.6783 52.2349C37.3023 52.0821 37.9607 52.1621 38.53 52.46C38.5534 52.474 38.5795 52.483 38.6065 52.4865C38.6335 52.49 38.661 52.488 38.6873 52.4805C38.7135 52.473 38.7379 52.4602 38.759 52.4429C38.7801 52.4256 38.7975 52.4042 38.81 52.38C38.8354 52.332 38.8413 52.2761 38.8264 52.2239C38.8115 52.1717 38.7769 52.1273 38.73 52.1C38.0638 51.7598 37.2966 51.6737 36.5716 51.8577C35.8466 52.0417 35.2133 52.4833 34.79 53.1C34.4894 53.6263 34.2734 54.1966 34.15 54.79C34.0517 55.2029 33.9213 55.6075 33.76 56C33.6335 56.2677 33.4757 56.5194 33.29 56.75C32.6689 57.4806 31.8544 58.0213 30.94 58.31C30.4197 58.361 29.8945 58.2996 29.4 58.13C29.14 58.0447 28.9048 57.8971 28.7149 57.7002C28.5249 57.5032 28.3859 57.2629 28.31 57C28.2429 56.7624 28.266 56.5084 28.3749 56.2869C28.4838 56.0653 28.6709 55.8919 28.9 55.8C29.0195 55.7746 29.1434 55.7796 29.2605 55.8146C29.3775 55.8495 29.484 55.9133 29.57 56C29.644 56.0649 29.7004 56.1477 29.7336 56.2404C29.7668 56.3331 29.7759 56.4328 29.76 56.53C29.7477 56.583 29.7565 56.6387 29.7845 56.6853C29.8125 56.7319 29.8575 56.7659 29.91 56.78C29.9356 56.7874 29.9626 56.7894 29.989 56.7857C30.0155 56.782 30.0408 56.7728 30.0635 56.7586C30.0861 56.7445 30.1055 56.7257 30.1204 56.7035C30.1353 56.6814 30.1454 56.6563 30.15 56.63C30.1915 56.4648 30.1864 56.2914 30.1352 56.1289C30.084 55.9665 29.9887 55.8215 29.86 55.71C29.721 55.5712 29.5486 55.4707 29.3594 55.4181C29.1702 55.3655 28.9706 55.3628 28.78 55.41C28.451 55.5363 28.1802 55.7797 28.0196 56.0935C27.859 56.4072 27.82 56.7692 27.91 57.11C28.0094 57.4273 28.1841 57.7158 28.4191 57.9508C28.6542 58.1859 28.9427 58.3606 29.26 58.46C29.3641 58.501 29.471 58.5344 29.58 58.56C28.3765 58.685 27.1634 58.685 25.96 58.56C25.9329 58.5573 25.9056 58.5601 25.8796 58.5683C25.8537 58.5764 25.8296 58.5898 25.8091 58.6076C25.7885 58.6254 25.7717 58.6472 25.7598 58.6717C25.748 58.6962 25.7412 58.7228 25.74 58.75C25.7372 58.7771 25.74 58.8044 25.7482 58.8304C25.7564 58.8563 25.7698 58.8803 25.7876 58.9009C25.8054 58.9215 25.8272 58.9383 25.8517 58.9502C25.8761 58.962 25.9028 58.9688 25.93 58.97C26.65 59.03 27.39 59.08 28.14 59.08C28.9272 59.0915 29.7129 59.0075 30.48 58.83C30.6637 58.7946 30.8443 58.7444 31.02 58.68H31.09C32.061 58.3643 32.9237 57.7822 33.58 57C34.6068 56.3828 35.8345 56.1926 37 56.47C37.3327 56.5754 37.6358 56.7581 37.8844 57.0032C38.1329 57.2483 38.3199 57.5488 38.43 57.88C38.52 58.1972 38.4891 58.5365 38.3431 58.8322C38.1971 59.1278 37.9466 59.3587 37.64 59.48C37.4768 59.5084 37.3092 59.4959 37.1521 59.4435C36.9951 59.3912 36.8534 59.3006 36.74 59.18C36.6431 59.0902 36.5724 58.9758 36.5354 58.849C36.4985 58.7222 36.4966 58.5878 36.53 58.46C36.546 58.4083 36.5415 58.3523 36.5172 58.3039C36.493 58.2554 36.451 58.2182 36.4 58.2C36.3469 58.1844 36.2899 58.1904 36.2412 58.2166C36.1925 58.2428 36.1562 58.2871 36.14 58.34C36.0811 58.5377 36.0779 58.7479 36.1308 58.9473C36.1838 59.1467 36.2907 59.3276 36.44 59.47C36.7032 59.7414 37.062 59.8993 37.44 59.91C37.5427 59.9252 37.6472 59.9252 37.75 59.91C38.1614 59.764 38.5014 59.4663 38.7004 59.0777C38.8993 58.6891 38.9421 58.2391 38.82 57.82C38.6996 57.4167 38.4842 57.0482 38.1919 56.7454C37.8995 56.4426 37.5388 56.2145 37.14 56.08V56.08Z" fill="#7A913A"/>
<path d="M43.34 19.7C43.3879 19.7254 43.4439 19.7313 43.4961 19.7164C43.5483 19.7015 43.5927 19.6669 43.62 19.62C43.6431 19.5716 43.6477 19.5164 43.6329 19.4649C43.6182 19.4133 43.5851 19.3689 43.54 19.34C42.9687 19.0869 42.3426 18.9825 41.7201 19.0367C41.0976 19.0909 40.4989 19.3019 39.98 19.65C39.4556 19.9688 38.9514 20.3194 38.47 20.7C38.0295 21.0595 37.5687 21.3934 37.09 21.7C36.6331 22.0094 36.1094 22.206 35.5619 22.2738C35.0143 22.3416 34.4585 22.2786 33.94 22.09C33.5547 21.8538 33.2231 21.5396 32.9665 21.1676C32.7099 20.7956 32.534 20.374 32.45 19.93C32.3106 19.399 32.3106 18.841 32.45 18.31C32.5118 18.0605 32.6295 17.8283 32.794 17.6309C32.9586 17.4334 33.1657 17.2758 33.4 17.17C33.6255 17.076 33.8756 17.0584 34.1121 17.1197C34.3486 17.1811 34.5586 17.3182 34.71 17.51C34.7759 17.6127 34.819 17.7283 34.8362 17.8491C34.8535 17.9699 34.8445 18.093 34.81 18.21C34.7856 18.3103 34.7399 18.4041 34.6761 18.4852C34.6123 18.5663 34.5317 18.6328 34.44 18.68C34.4145 18.6898 34.3913 18.7047 34.3718 18.7239C34.3523 18.743 34.3369 18.7659 34.3266 18.7912C34.3163 18.8165 34.3112 18.8436 34.3118 18.871C34.3124 18.8983 34.3186 18.9252 34.33 18.95C34.3408 18.9746 34.3564 18.9968 34.3759 19.0153C34.3955 19.0337 34.4185 19.048 34.4437 19.0574C34.4689 19.0667 34.4958 19.0709 34.5226 19.0696C34.5494 19.0683 34.5758 19.0617 34.6 19.05C34.7483 18.9811 34.8793 18.8798 34.9832 18.7534C35.0871 18.627 35.1611 18.4789 35.2 18.32C35.2511 18.1366 35.2596 17.944 35.2249 17.7569C35.1903 17.5697 35.1133 17.3929 35 17.24C34.7935 16.9744 34.5058 16.7836 34.1808 16.697C33.8557 16.6103 33.5112 16.6324 33.2 16.76C32.9038 16.8851 32.641 17.0777 32.4326 17.3226C32.2243 17.5674 32.0761 17.8576 32 18.17C31.845 18.7668 31.845 19.3932 32 19.99C32.0963 20.4919 32.2975 20.9678 32.5905 21.3865C32.8835 21.8053 33.2615 22.1574 33.7 22.42C34.0911 22.6151 34.5229 22.7145 34.96 22.71C35.7881 22.6789 36.5942 22.4343 37.3 22C37.793 21.6956 38.2673 21.3617 38.72 21C39.1837 20.6343 39.6715 20.3002 40.18 20C40.6383 19.6867 41.1686 19.4948 41.7213 19.4423C42.274 19.3898 42.8309 19.4785 43.34 19.7V19.7Z" fill="#7A913A"/>
<path d="M33.63 7.29C34.2708 7.64007 34.9898 7.82239 35.72 7.82H36C35.4 8.28 34.82 8.77 34.26 9.26C34.2248 9.30012 34.2054 9.35165 34.2054 9.405C34.2054 9.45835 34.2248 9.50988 34.26 9.55C34.2796 9.57301 34.3042 9.59126 34.3319 9.60338C34.3597 9.61551 34.3898 9.62119 34.42 9.62C34.4622 9.63375 34.5077 9.63375 34.55 9.62C36.084 8.1037 37.8795 6.8773 39.85 6C39.4215 6.31257 39.035 6.6789 38.7 7.09C38.467 7.37516 38.2751 7.69157 38.13 8.03C37.6558 9.3287 37.4023 10.6976 37.38 12.08C37.38 12.7 37.53 13.08 37.9 13.22C37.963 13.2296 38.027 13.2296 38.09 13.22C38.2412 13.2059 38.3878 13.1604 38.5204 13.0864C38.653 13.0123 38.7687 12.9114 38.86 12.79C39.5329 12.0143 39.9358 11.0411 40.0079 10.0168C40.0801 8.9924 39.8176 7.97232 39.26 7.11V7.11C39.915 6.42809 40.7146 5.90183 41.6 5.57C43.72 5.25 46.42 5.87 47.69 7.96C47.7232 7.9835 47.7628 7.99632 47.8035 7.99674C47.8442 7.99716 47.884 7.98515 47.9177 7.96233C47.9514 7.93951 47.9773 7.90696 47.992 7.86902C48.0067 7.83108 48.0095 7.78956 48 7.75C46.63 5.51 43.78 4.83 41.54 5.16H41.45L40.9 5.26C39.3436 5.66822 37.8826 6.37834 36.6 7.35C36.5615 7.33443 36.5185 7.33443 36.48 7.35C35.5726 7.52469 34.6327 7.37982 33.82 6.94C33.57 6.8 33.13 6.5 33.09 6.08C33.0868 5.98411 33.1092 5.88909 33.1549 5.80472C33.2006 5.72036 33.2679 5.64969 33.35 5.6C33.3952 5.57265 33.4471 5.55819 33.5 5.55819C33.5529 5.55819 33.6047 5.57265 33.65 5.6C33.673 5.61379 33.6984 5.62291 33.725 5.62686C33.7515 5.6308 33.7785 5.62949 33.8045 5.62299C33.8305 5.61649 33.855 5.60493 33.8765 5.58898C33.898 5.57302 33.9162 5.55298 33.93 5.53C33.9438 5.50702 33.9529 5.48154 33.9569 5.45504C33.9608 5.42853 33.9595 5.4015 33.953 5.3755C33.9465 5.3495 33.9349 5.32504 33.919 5.3035C33.903 5.28197 33.883 5.26379 33.86 5.25C33.7523 5.17691 33.6251 5.13784 33.495 5.13784C33.3648 5.13784 33.2377 5.17691 33.13 5.25C32.9881 5.34334 32.8724 5.47128 32.7937 5.62174C32.7149 5.7722 32.6758 5.94024 32.68 6.11C32.7341 6.36765 32.8484 6.60884 33.0135 6.81391C33.1786 7.01899 33.3898 7.18212 33.63 7.29V7.29Z" fill="#7A913A"/>
<path d="M52.15 8.09C52.5224 8.16172 52.9008 8.19854 53.28 8.2C54.3954 8.19424 55.488 7.88378 56.4397 7.30217C57.3914 6.72056 58.1661 5.88991 58.68 4.9C58.7014 4.84928 58.703 4.79239 58.6845 4.74055C58.666 4.68872 58.6287 4.6457 58.58 4.62C58.5558 4.60834 58.5295 4.60168 58.5026 4.60041C58.4758 4.59915 58.449 4.60331 58.4238 4.61264C58.3986 4.62198 58.3755 4.63629 58.356 4.65474C58.3364 4.67319 58.3208 4.69538 58.31 4.72C57.7538 5.80724 56.8619 6.68624 55.7667 7.22663C54.6715 7.76703 53.4313 7.94004 52.23 7.72C51.83 7.63 50.87 7.36 50.63 6.59C50.5686 6.34853 50.5784 6.09444 50.6582 5.85841C50.7381 5.62239 50.8846 5.41455 51.08 5.26C51.2862 5.10574 51.5256 5.00188 51.7792 4.95673C52.0327 4.91159 52.2933 4.9264 52.54 5C52.7492 5.04952 52.9393 5.15927 53.0868 5.31567C53.2344 5.47206 53.3328 5.66826 53.37 5.88C53.3611 5.98558 53.3238 6.08679 53.2622 6.17301C53.2007 6.25923 53.117 6.32728 53.02 6.37C52.9634 6.40659 52.8974 6.42606 52.83 6.42606C52.7626 6.42606 52.6966 6.40659 52.64 6.37C52.6213 6.35033 52.5988 6.33467 52.5739 6.32397C52.549 6.31327 52.5221 6.30775 52.495 6.30775C52.4679 6.30775 52.441 6.31327 52.4161 6.32397C52.3912 6.33467 52.3687 6.35033 52.35 6.37C52.3127 6.40907 52.2919 6.461 52.2919 6.515C52.2919 6.56901 52.3127 6.62094 52.35 6.66C52.4628 6.75435 52.6013 6.81246 52.7477 6.82674C52.894 6.84101 53.0412 6.81078 53.17 6.74C53.338 6.66481 53.4819 6.54474 53.586 6.39301C53.6901 6.24127 53.7503 6.06376 53.76 5.88C53.7303 5.5795 53.6088 5.29543 53.412 5.06641C53.2152 4.83739 52.9526 4.67454 52.66 4.6C52.3504 4.50482 52.0228 4.48328 51.7033 4.5371C51.3839 4.59092 51.0814 4.71861 50.82 4.91C50.5616 5.11659 50.3691 5.3941 50.266 5.7085C50.163 6.0229 50.154 6.36053 50.24 6.68C50.4028 7.06464 50.666 7.39845 51.002 7.64651C51.338 7.89456 51.7345 8.04774 52.15 8.09V8.09Z" fill="#7A913A"/>
<path d="M59.09 19.08C59.2618 19.4187 59.3992 19.7738 59.5 20.14C59.7911 21.2158 59.7828 22.3507 59.4762 23.4222C59.1696 24.4936 58.5762 25.4611 57.76 26.22C57.7413 26.2397 57.7188 26.2553 57.6939 26.266C57.669 26.2767 57.6421 26.2823 57.615 26.2823C57.5879 26.2823 57.561 26.2767 57.5361 26.266C57.5112 26.2553 57.4887 26.2397 57.47 26.22C57.4327 26.1809 57.4119 26.129 57.4119 26.075C57.4119 26.021 57.4327 25.9691 57.47 25.93C58.3629 25.1035 58.9658 24.0113 59.1891 22.8153C59.4125 21.6192 59.2445 20.383 58.71 19.29C58.54 18.9 58 18 57.22 18C56.9707 18.0044 56.7282 18.0815 56.5221 18.2218C56.316 18.3622 56.1554 18.5597 56.06 18.79C55.9642 19.0289 55.9278 19.2874 55.9539 19.5435C55.98 19.7995 56.0679 20.0454 56.21 20.26C56.3112 20.4502 56.4675 20.6055 56.6585 20.7054C56.8494 20.8053 57.066 20.8453 57.28 20.82C57.3803 20.7869 57.4691 20.7262 57.5364 20.6448C57.6036 20.5634 57.6465 20.4647 57.66 20.36C57.6755 20.2948 57.6725 20.2265 57.6513 20.1629C57.6301 20.0993 57.5916 20.0429 57.54 20C57.516 19.9858 57.4952 19.9668 57.479 19.9441C57.4628 19.9214 57.4515 19.8956 57.4458 19.8683C57.4402 19.841 57.4403 19.8128 57.4462 19.7855C57.4521 19.7583 57.4636 19.7325 57.48 19.71C57.495 19.6882 57.5142 19.6696 57.5364 19.6553C57.5587 19.641 57.5835 19.6312 57.6096 19.6265C57.6356 19.6219 57.6623 19.6225 57.6881 19.6282C57.714 19.6339 57.7384 19.6448 57.76 19.66C57.8811 19.7414 57.9747 19.8576 58.0283 19.9933C58.0818 20.129 58.0929 20.2778 58.06 20.42C58.0328 20.6021 57.9559 20.7732 57.8376 20.9143C57.7194 21.0555 57.5645 21.1613 57.39 21.22C57.0913 21.2681 56.785 21.2228 56.513 21.0904C56.241 20.9579 56.0164 20.7448 55.87 20.48C55.6909 20.2101 55.58 19.9007 55.5469 19.5784C55.5138 19.2562 55.5595 18.9307 55.68 18.63C55.8127 18.3303 56.0301 18.0759 56.3055 17.8982C56.5809 17.7206 56.9023 17.6273 57.23 17.63C57.641 17.6844 58.0301 17.8474 58.357 18.1023C58.684 18.3572 58.937 18.6947 59.09 19.08V19.08Z" fill="#7A913A"/>
<path d="M52.25 35.84C52.0739 35.1851 51.9568 34.5158 51.9 33.84C51.9 33.58 51.84 33.31 51.8 33.04C51.7215 32.1457 51.4037 31.2891 50.88 30.56C50.6219 30.2233 50.2674 29.9732 49.8637 29.8428C49.4601 29.7124 49.0262 29.7079 48.62 29.83C48.595 29.8395 48.5685 29.844 48.5418 29.8431C48.5151 29.8422 48.4889 29.836 48.4647 29.8248C48.4404 29.8136 48.4187 29.7977 48.4007 29.778C48.3827 29.7583 48.3689 29.7352 48.36 29.71C48.3487 29.6859 48.3426 29.6597 48.3421 29.6331C48.3416 29.6065 48.3467 29.58 48.3571 29.5555C48.3675 29.531 48.3829 29.509 48.4023 29.4908C48.4218 29.4726 48.4448 29.4587 48.47 29.45C48.9574 29.297 49.48 29.2964 49.9678 29.4483C50.4557 29.6002 50.8855 29.8973 51.2 30.3C51.7647 31.089 52.1098 32.0139 52.2 32.98C52.2 33.25 52.27 33.53 52.3 33.79C52.3538 34.4417 52.4642 35.0875 52.63 35.72C52.9098 36.6301 53.4236 37.4507 54.12 38.1C55.0528 37.8868 56.0219 37.8885 56.954 38.1051C57.8861 38.3216 58.7567 38.7474 59.5 39.35C59.5257 39.3757 59.5439 39.4078 59.5527 39.4431C59.5615 39.4783 59.5606 39.5153 59.55 39.55C59.5398 39.5883 59.519 39.623 59.49 39.65C59.4641 39.6592 59.4359 39.6592 59.41 39.65C57.9463 40.1093 56.3603 39.9691 55 39.26C54.6028 39.046 54.2333 38.7841 53.9 38.48V38.48C53.1161 37.7698 52.5448 36.8558 52.25 35.84V35.84Z" fill="#7A913A"/>
<path d="M5.82001 13.24C5.56154 13.9438 5.5061 14.7062 5.66001 15.44C5.74609 15.7498 5.91727 16.0292 6.15412 16.2466C6.39097 16.464 6.68402 16.6107 7.00001 16.67H7.17001C7.47537 16.665 7.77057 16.5596 8.01001 16.37C8.13448 16.2778 8.23866 16.1609 8.31607 16.0268C8.39348 15.8926 8.44248 15.7439 8.46001 15.59C8.46947 15.4086 8.43213 15.2277 8.35158 15.0649C8.27103 14.902 8.14996 14.7626 8.00001 14.66C7.86952 14.5594 7.71465 14.4953 7.55124 14.4742C7.38784 14.4531 7.22176 14.4758 7.07001 14.54C7.03984 14.5477 7.01176 14.5621 6.98781 14.582C6.96387 14.6019 6.94465 14.6269 6.93156 14.6552C6.91847 14.6835 6.91184 14.7143 6.91214 14.7454C6.91244 14.7766 6.91966 14.8073 6.93329 14.8353C6.94692 14.8633 6.96661 14.8879 6.99093 14.9074C7.01525 14.9269 7.0436 14.9407 7.07392 14.9478C7.10424 14.955 7.13577 14.9553 7.16623 14.9487C7.19668 14.9422 7.2253 14.929 7.25001 14.91C7.33445 14.8768 7.42623 14.8666 7.51588 14.8807C7.60553 14.8948 7.68981 14.9325 7.76001 14.99C7.85674 15.0516 7.93544 15.1377 7.98813 15.2396C8.04082 15.3415 8.06562 15.4555 8.06001 15.57C8.04826 15.6687 8.01648 15.7639 7.96661 15.8499C7.91674 15.9359 7.84984 16.0108 7.77001 16.07C7.56748 16.2247 7.31352 16.2962 7.06001 16.27C6.82194 16.2193 6.60254 16.1037 6.42606 15.936C6.24958 15.7683 6.1229 15.5552 6.06001 15.32C5.92919 14.6505 5.98808 13.9578 6.23001 13.32L6.29001 13.08C6.88019 10.7565 6.87675 8.32185 6.28001 6C6.88665 6.53401 7.59621 6.93816 8.36498 7.18753C9.13374 7.43691 9.94542 7.52623 10.75 7.45C11.4703 7.3159 12.1696 7.08726 12.83 6.77C13.6416 7.4944 14.6922 7.89328 15.78 7.89C16.2495 7.88918 16.7157 7.81149 17.16 7.66C17.3976 7.60621 17.6074 7.46753 17.75 7.27C17.8452 7.03794 17.8498 6.77858 17.7627 6.54334C17.6756 6.3081 17.5034 6.11417 17.28 6C16.7446 5.73166 16.1539 5.59193 15.555 5.59193C14.9561 5.59193 14.3654 5.73166 13.83 6C13.49 6.12 13.15 6.27 12.83 6.42C12.1553 6.75159 11.4388 6.99042 10.7 7.13C9.85978 7.19846 9.01488 7.07769 8.22747 6.77657C7.44006 6.47545 6.73017 6.00164 6.15001 5.39C6.11095 5.35271 6.05902 5.33191 6.00501 5.33191C5.95101 5.33191 5.89908 5.35271 5.86001 5.39C5.82904 5.42638 5.81141 5.47224 5.81001 5.52C5.79334 5.54888 5.78456 5.58165 5.78456 5.615C5.78456 5.64835 5.79334 5.68112 5.81001 5.71C6.48298 8.09029 6.50715 10.6072 5.88001 13L5.82001 13.24Z" fill="#7A913A"/>
<path d="M57.79 46.7C57.7717 46.5633 57.7084 46.4366 57.61 46.34C57.5813 46.308 57.5475 46.281 57.51 46.26H53.51C53.3019 46.2553 53.099 46.1942 52.9229 46.0833C52.7468 45.9723 52.6041 45.8157 52.51 45.63C51.63 44.28 50.69 42.97 49.78 41.63C49.04 40.54 48.22 39.51 47.55 38.37L41.55 28.14C40.81 26.91 40.55 25.71 41.84 24.73C42.54 24.14 43.48 23.88 44.17 23.29C44.373 23.1993 44.54 23.0436 44.6446 22.8474C44.7491 22.6512 44.7854 22.4258 44.7475 22.2067C44.7097 21.9876 44.5999 21.7874 44.4356 21.6377C44.2712 21.488 44.0617 21.3973 43.84 21.38C43.5412 21.2359 43.2103 21.1712 42.8793 21.1922C42.5482 21.2133 42.2282 21.3193 41.95 21.5C41.2851 21.8949 40.7137 22.4293 40.2752 23.0663C39.8367 23.7034 39.5415 24.4279 39.41 25.19C39.33 25.58 39.41 26 39.05 26.31L34.7 30.65C33.19 28.59 31.89 26.45 30.43 24.37C28.5341 21.6151 25.9801 19.3774 23 17.86C17 14.93 7.57001 15 6.18001 22.69C4.00001 34.93 16.06 34 18.55 32.51C18.3746 32.372 18.1625 32.2886 17.94 32.27C17.5047 32.1983 17.1102 31.9708 16.83 31.63C16.565 31.2988 16.3825 30.9095 16.2973 30.494C16.2121 30.0785 16.2267 29.6487 16.34 29.24C16.63 27.81 19.34 27.68 19.34 27.68C19.54 27.68 19.75 27.68 19.95 27.68C21.5469 27.7264 23.1017 28.2031 24.45 29.06C25.8355 29.9612 27.105 31.0292 28.23 32.24C28.99 33.02 29.72 33.82 30.45 34.62C28.26 37.11 22.73 43.15 20.86 45.09C20.4 45.56 17.92 45.84 17.24 45.79C16.81 45.79 16.42 45.79 16.35 46.23V46.52C16.337 46.5951 16.3404 46.6721 16.3599 46.7457C16.3794 46.8194 16.4146 46.888 16.463 46.9468C16.5114 47.0057 16.5719 47.0534 16.6404 47.0867C16.7089 47.1201 16.7838 47.1382 16.86 47.14C17.59 47.14 23.58 47.2 25.86 47.14C26.0422 47.1615 26.227 47.141 26.4 47.08C26.5686 47.0283 26.7169 46.9254 26.8244 46.7857C26.9319 46.6459 26.9932 46.4762 27 46.3C27 45.99 26.64 45.96 26.41 45.89C25.7483 45.7904 25.0776 45.7636 24.41 45.81C23.91 45.76 23.41 45.87 22.91 45.41C24.42 43.69 29.51 38.01 31.66 35.87L31.82 36.04C32.932 37.2499 34.1919 38.315 35.57 39.21C36.15 39.56 38.49 40.4 39.11 40.63C39.9314 40.8776 40.7757 41.0418 41.63 41.12C40.73 39.94 39.95 38.79 39.36 37.92C38.2 36.2 37 34.46 35.85 32.75C35.7618 32.6597 35.6948 32.5508 35.6539 32.4313C35.613 32.3119 35.5992 32.1848 35.6136 32.0593C35.6279 31.9339 35.6701 31.8132 35.7369 31.7061C35.8038 31.5989 35.8936 31.508 36 31.44C37.14 30.32 38.22 29.12 39.33 27.96C39.3868 27.8764 39.4627 27.8074 39.5513 27.7587C39.64 27.71 39.7389 27.6831 39.84 27.68C43.3741 34.0491 47.236 40.2307 51.41 46.2C50.9727 46.2693 50.5321 46.316 50.09 46.34C49.9913 46.3418 49.8957 46.3747 49.8167 46.4339C49.7377 46.4931 49.6794 46.5757 49.65 46.67V46.67C49.6358 46.7862 49.6358 46.9038 49.65 47.02C49.6748 47.2152 49.7716 47.3942 49.9214 47.5218C50.0712 47.6494 50.2633 47.7165 50.46 47.71C52.71 47.71 57.46 47.53 57.59 47.53C57.7475 47.2834 57.8179 46.9912 57.79 46.7V46.7ZM38.14 39.32C36.91 38.714 35.8717 37.7796 35.14 36.62L32.26 32.11C31.722 30.9642 31.2869 29.7729 30.96 28.55C31.7146 29.4885 32.3839 30.4925 32.96 31.55C33.26 32 35.61 35.86 38.14 39.32Z" fill="#383529"/>
<path d="M37.44 56.44C37.5643 56.5323 37.7152 56.5814 37.87 56.58C39.4811 56.0624 40.8288 54.9405 41.63 53.45C41.6492 53.4176 41.6589 53.3804 41.6579 53.3427C41.6569 53.3051 41.6453 53.2685 41.6244 53.2371C41.6035 53.2057 41.5741 53.1809 41.5397 53.1655C41.5054 53.1501 41.4673 53.1447 41.43 53.15C40.5475 53.249 39.7019 53.5598 38.9654 54.0561C38.2289 54.5523 37.6232 55.2192 37.2 56C37.2264 56.1701 37.3113 56.3257 37.44 56.44V56.44Z" fill="#7A913A"/>
<path d="M22.45 51.11C22.3741 50.8647 22.2272 50.6473 22.0279 50.4853C21.8285 50.3234 21.5857 50.2241 21.33 50.2C21.0768 50.1689 20.8199 50.2107 20.5896 50.3205C20.3593 50.4303 20.1652 50.6036 20.03 50.82C19.9683 50.9273 19.9308 51.0467 19.92 51.17C19.9112 51.2217 19.9231 51.2747 19.953 51.3177C19.9829 51.3607 20.0285 51.3903 20.08 51.4C20.1343 51.4087 20.1899 51.3958 20.2347 51.364C20.2796 51.3322 20.3102 51.2841 20.32 51.23C20.32 51.23 20.32 51.23 20.32 51.15C20.3357 51.1016 20.3558 51.0548 20.38 51.01V51.01V50.96H20.45C20.62 50.8413 20.8227 50.7784 21.03 50.78H21.16H21.34H21.41H21.49C21.6576 50.9087 21.7802 51.0873 21.84 51.29C21.8426 51.3333 21.8426 51.3767 21.84 51.42C21.8449 51.4799 21.8449 51.5401 21.84 51.6C21.8547 51.7062 21.8547 51.8138 21.84 51.92C21.8006 52.1402 21.7191 52.3507 21.6 52.54C21.3009 52.9532 20.8652 53.2473 20.37 53.37C19.4273 53.5552 18.4596 53.5755 17.51 53.43C18.0584 52.9065 18.3782 52.1878 18.4 51.43C18.3975 51.4062 18.3899 51.3832 18.3778 51.3625C18.3658 51.3418 18.3495 51.324 18.33 51.31C18.3096 51.3009 18.2874 51.2962 18.265 51.2962C18.2426 51.2962 18.2205 51.3009 18.2 51.31C17.7447 51.4685 17.3486 51.7621 17.0645 52.1516C16.7804 52.5412 16.6219 53.008 16.61 53.49C16.0544 53.5121 15.511 53.659 15.02 53.92C14.5717 54.1628 14.2191 54.5506 14.02 55.02C13.8316 55.4651 13.7719 55.9543 13.848 56.4316C13.924 56.909 14.1326 57.3554 14.45 57.72C14.5258 57.8075 14.6095 57.8879 14.7 57.96C14.7421 57.9836 14.791 57.9919 14.8385 57.9837C14.886 57.9754 14.9293 57.951 14.9609 57.9147C14.9926 57.8783 15.0108 57.8322 15.0125 57.784C15.0141 57.7358 14.9991 57.6885 14.97 57.65C14.7903 57.5156 14.6405 57.3453 14.53 57.15C14.4682 57.0599 14.4178 56.9625 14.38 56.86C14.3407 56.7553 14.3074 56.6485 14.28 56.54V56.4C14.28 56.4 14.28 56.34 14.28 56.31C14.2849 56.2501 14.2849 56.1899 14.28 56.13V55.81C14.2984 55.5882 14.3455 55.3697 14.42 55.16C14.4598 55.052 14.5101 54.9482 14.57 54.85C14.5897 54.8111 14.6132 54.7743 14.64 54.74L15 54.6C15.1639 54.4155 15.3606 54.2629 15.58 54.15C16.0927 53.9094 16.6538 53.7896 17.22 53.8C18.5 53.8 19.8 54.13 21.03 53.65C21.5607 53.4771 22.0138 53.1231 22.31 52.65C22.4377 52.4166 22.516 52.1595 22.5401 51.8946C22.5642 51.6296 22.5335 51.3626 22.45 51.11V51.11Z" fill="#7A913A"/>
</g>
<defs>
<clipPath id="clip0">
<rect width="64" height="64" fill="white"/>
</clipPath>
</defs>
</svg>
