<svg width="64" height="64" viewBox="0 0 64 64" fill="none" xmlns="http://www.w3.org/2000/svg">
<g clip-path="url(#clip0)">
<path d="M64 64.09H0V0.0900002H64V64.09ZM1.4 62.72H62.66V1.45H1.4V62.72Z" fill="#383529"/>
<path d="M61.49 2.72H2.57999V61.63H61.49V2.72Z" fill="#FBFAF7"/>
<path d="M36.05 27.65C35.9412 27.65 35.837 27.6068 35.7601 27.5299C35.6832 27.453 35.64 27.3487 35.64 27.24V18.53C35.6397 18.4465 35.6642 18.3648 35.7105 18.2954C35.7568 18.2259 35.8228 18.1718 35.9 18.14C36.3653 17.9347 36.7916 17.6506 37.16 17.3C37.5153 16.9911 37.7808 16.5923 37.9286 16.1453C38.0764 15.6983 38.1011 15.2198 38 14.76C37.9883 14.7081 37.987 14.6544 37.9963 14.602C38.0056 14.5496 38.0253 14.4996 38.0541 14.4549C38.083 14.4102 38.1205 14.3717 38.1644 14.3417C38.2084 14.3116 38.2579 14.2907 38.31 14.28C38.3625 14.2682 38.4169 14.2668 38.4699 14.276C38.523 14.2852 38.5737 14.3047 38.6192 14.3335C38.6647 14.3623 38.7041 14.3998 38.7351 14.4438C38.7661 14.4878 38.7882 14.5375 38.8 14.59C38.9439 15.4492 38.7931 16.3317 38.3719 17.0943C37.9506 17.8568 37.2839 18.4544 36.48 18.79V27.24C36.4801 27.2956 36.4688 27.3506 36.447 27.4017C36.4251 27.4528 36.3931 27.4989 36.3529 27.5372C36.3127 27.5756 36.2651 27.6053 36.213 27.6247C36.161 27.6441 36.1055 27.6527 36.05 27.65Z" fill="#B5B1A4"/>
<path d="M49.63 36.87H49.56C49.0395 36.7332 48.5872 36.4104 48.2886 35.9626C47.9901 35.5148 47.8661 34.9731 47.94 34.44L48.27 19.21C48.2751 19.1021 48.3216 19.0003 48.3999 18.9259C48.4781 18.8514 48.582 18.8099 48.69 18.81C48.7438 18.8113 48.7969 18.8232 48.8462 18.845C48.8954 18.8668 48.9399 18.8981 48.977 18.9371C49.0142 18.9761 49.0433 19.0221 49.0626 19.0723C49.082 19.1226 49.0913 19.1762 49.09 19.23L48.76 34.47C48.76 34.53 48.7 35.89 49.69 36.05C49.7868 36.0708 49.8727 36.1259 49.932 36.2052C49.9913 36.2844 50.02 36.3824 50.0127 36.4811C50.0054 36.5798 49.9626 36.6726 49.8923 36.7422C49.8219 36.8118 49.7288 36.8537 49.63 36.86V36.87Z" fill="#B5B1A4"/>
<path d="M32 53.88C31.9477 53.8798 31.8959 53.8691 31.8478 53.8485C31.7997 53.8279 31.7562 53.7978 31.72 53.76C31.6819 53.7219 31.6517 53.6767 31.6311 53.627C31.6104 53.5772 31.5998 53.5239 31.5998 53.47C31.5998 53.4161 31.6104 53.3628 31.6311 53.313C31.6517 53.2633 31.6819 53.2181 31.72 53.18C31.72 53.18 34.4 50.37 35.07 48C35.7519 45.4533 36.0882 42.8264 36.07 40.19V32.34C36.0682 32.2534 36.0945 32.1686 36.145 32.0983C36.1955 32.028 36.2674 31.976 36.35 31.95L44.08 29.46C44.1818 29.4326 44.2902 29.4455 44.3827 29.4959C44.4752 29.5463 44.5448 29.6304 44.577 29.7308C44.6092 29.8311 44.6014 29.94 44.5555 30.0348C44.5095 30.1297 44.4287 30.2031 44.33 30.24L36.89 32.64V40.21C36.9144 42.9093 36.5781 45.5998 35.89 48.21C35.17 50.75 32.47 53.59 32.36 53.71C32.3208 53.7681 32.2667 53.8145 32.2033 53.8444C32.14 53.8743 32.0697 53.8866 32 53.88V53.88Z" fill="#B5B1A4"/>
<path d="M49.56 47.98C50.0184 47.98 50.39 47.6084 50.39 47.15C50.39 46.6916 50.0184 46.32 49.56 46.32C49.1016 46.32 48.73 46.6916 48.73 47.15C48.73 47.6084 49.1016 47.98 49.56 47.98Z" fill="#EF3C23"/>
<path d="M39.91 46.63C40.3684 46.63 40.74 46.2584 40.74 45.8C40.74 45.3416 40.3684 44.97 39.91 44.97C39.4516 44.97 39.08 45.3416 39.08 45.8C39.08 46.2584 39.4516 46.63 39.91 46.63Z" fill="#EF3C23"/>
<path d="M26.19 51.34C26.6484 51.34 27.02 50.9684 27.02 50.51C27.02 50.0516 26.6484 49.68 26.19 49.68C25.7316 49.68 25.36 50.0516 25.36 50.51C25.36 50.9684 25.7316 51.34 26.19 51.34Z" fill="#EF3C23"/>
<path d="M10.82 45.28C11.2784 45.28 11.65 44.9084 11.65 44.45C11.65 43.9916 11.2784 43.62 10.82 43.62C10.3616 43.62 9.98999 43.9916 9.98999 44.45C9.98999 44.9084 10.3616 45.28 10.82 45.28Z" fill="#EF3C23"/>
<path d="M14.99 58.91C15.4484 58.91 15.82 58.5384 15.82 58.08C15.82 57.6216 15.4484 57.25 14.99 57.25C14.5316 57.25 14.16 57.6216 14.16 58.08C14.16 58.5384 14.5316 58.91 14.99 58.91Z" fill="#EF3C23"/>
<path d="M46.65 56.51C47.1084 56.51 47.48 56.1384 47.48 55.68C47.48 55.2216 47.1084 54.85 46.65 54.85C46.1916 54.85 45.82 55.2216 45.82 55.68C45.82 56.1384 46.1916 56.51 46.65 56.51Z" fill="#EF3C23"/>
<path d="M14.91 7.49C15.3684 7.49 15.74 7.1184 15.74 6.66C15.74 6.20161 15.3684 5.83 14.91 5.83C14.4516 5.83 14.08 6.20161 14.08 6.66C14.08 7.1184 14.4516 7.49 14.91 7.49Z" fill="#EF3C23"/>
<path d="M18.84 17.68C19.2984 17.68 19.67 17.3084 19.67 16.85C19.67 16.3916 19.2984 16.02 18.84 16.02C18.3816 16.02 18.01 16.3916 18.01 16.85C18.01 17.3084 18.3816 17.68 18.84 17.68Z" fill="#EF3C23"/>
<path d="M15.94 33.25C16.3984 33.25 16.77 32.8784 16.77 32.42C16.77 31.9616 16.3984 31.59 15.94 31.59C15.4816 31.59 15.11 31.9616 15.11 32.42C15.11 32.8784 15.4816 33.25 15.94 33.25Z" fill="#EF3C23"/>
<path d="M51.84 18.51C52.2984 18.51 52.67 18.1384 52.67 17.68C52.67 17.2216 52.2984 16.85 51.84 16.85C51.3816 16.85 51.01 17.2216 51.01 17.68C51.01 18.1384 51.3816 18.51 51.84 18.51Z" fill="#EF3C23"/>
<path d="M41.46 21.73C41.9184 21.73 42.29 21.3584 42.29 20.9C42.29 20.4416 41.9184 20.07 41.46 20.07C41.0016 20.07 40.63 20.4416 40.63 20.9C40.63 21.3584 41.0016 21.73 41.46 21.73Z" fill="#EF3C23"/>
<path d="M45.61 8.97C46.0684 8.97 46.44 8.5984 46.44 8.14C46.44 7.68161 46.0684 7.31 45.61 7.31C45.1516 7.31 44.78 7.68161 44.78 8.14C44.78 8.5984 45.1516 8.97 45.61 8.97Z" fill="#EF3C23"/>
<path d="M56.4 26.39C56.8584 26.39 57.23 26.0184 57.23 25.56C57.23 25.1016 56.8584 24.73 56.4 24.73C55.9416 24.73 55.57 25.1016 55.57 25.56C55.57 26.0184 55.9416 26.39 56.4 26.39Z" fill="#EF3C23"/>
<path d="M5.3 54.97C5.7584 54.97 6.13 54.5984 6.13 54.14C6.13 53.6816 5.7584 53.31 5.3 53.31C4.84161 53.31 4.47 53.6816 4.47 54.14C4.47 54.5984 4.84161 54.97 5.3 54.97Z" fill="#EF3C23"/>
<path d="M35.76 6.69C36.2184 6.69 36.59 6.3184 36.59 5.86C36.59 5.4016 36.2184 5.03 35.76 5.03C35.3016 5.03 34.93 5.4016 34.93 5.86C34.93 6.3184 35.3016 6.69 35.76 6.69Z" fill="#EF3C23"/>
<path d="M55.92 58.65C56.3784 58.65 56.75 58.2784 56.75 57.82C56.75 57.3616 56.3784 56.99 55.92 56.99C55.4616 56.99 55.09 57.3616 55.09 57.82C55.09 58.2784 55.4616 58.65 55.92 58.65Z" fill="#EF3C23"/>
<path d="M52.26 53.81C52.7376 53.7661 53.1993 53.6158 53.6112 53.3701C54.023 53.1243 54.3746 52.7895 54.64 52.39C54.6549 52.3623 54.6627 52.3314 54.6627 52.3C54.6627 52.2686 54.6549 52.2377 54.64 52.21C54.629 52.1814 54.6115 52.1557 54.589 52.1348C54.5665 52.114 54.5394 52.0987 54.51 52.09C53.5657 51.8439 52.5774 51.8187 51.6219 52.0164C50.6663 52.2141 49.7691 52.6294 49 53.23C48.3908 52.4163 47.6217 51.7357 46.74 51.23C45.9279 50.8102 45.0044 50.6563 44.1 50.79C43.8578 50.7706 43.622 50.7021 43.4071 50.5886C43.1922 50.4751 43.0027 50.3191 42.85 50.13C42.6846 49.95 42.5568 49.7387 42.4744 49.5086C42.392 49.2784 42.3565 49.0341 42.37 48.79C42.3733 48.7363 42.3569 48.6832 42.3237 48.6408C42.2905 48.5984 42.243 48.5697 42.19 48.56C42.1358 48.5543 42.0815 48.5699 42.0386 48.6035C41.9957 48.6371 41.9675 48.686 41.96 48.74C41.9385 49.0416 41.9789 49.3444 42.0787 49.6299C42.1784 49.9153 42.3354 50.1774 42.54 50.4C42.7516 50.6411 43.0059 50.8411 43.29 50.99C43.1199 51.0515 42.953 51.1215 42.79 51.2C42.46 51.3676 42.1567 51.5833 41.89 51.84C41.7609 51.5074 41.5344 51.2216 41.24 51.02C40.6902 50.636 40.0108 50.485 39.35 50.6C38.3162 50.8811 37.3746 51.4295 36.62 52.19C36.5925 52.2147 36.5716 52.2461 36.5593 52.281C36.5471 52.316 36.5439 52.3535 36.55 52.39C36.5586 52.4249 36.5759 52.457 36.6004 52.4833C36.625 52.5095 36.6558 52.5291 36.69 52.54C37.3998 52.751 38.1311 52.8818 38.87 52.93C39.6947 53.0106 40.5272 52.9117 41.31 52.64C41.2373 52.7964 41.1836 52.9609 41.15 53.13C41.0461 53.5763 41.1062 54.045 41.3191 54.4507C41.532 54.8564 41.8837 55.172 42.31 55.34C42.3349 55.3492 42.3614 55.3532 42.3879 55.3515C42.4144 55.3499 42.4403 55.3427 42.4639 55.3305C42.4874 55.3182 42.5081 55.3012 42.5247 55.2804C42.5413 55.2597 42.5533 55.2357 42.56 55.21C42.5693 55.1844 42.5734 55.1572 42.5718 55.1301C42.5703 55.1029 42.5632 55.0763 42.551 55.052C42.5388 55.0277 42.5218 55.0061 42.501 54.9885C42.4802 54.971 42.4561 54.9579 42.43 54.95C42.1021 54.8127 41.8337 54.5634 41.6725 54.2465C41.5113 53.9297 41.4679 53.5659 41.55 53.22C41.6461 52.846 41.8268 52.4992 42.0782 52.2061C42.3296 51.9131 42.645 51.6818 43 51.53C43.3616 51.3472 43.7497 51.2224 44.15 51.16C44.9776 51.0294 45.8253 51.166 46.57 51.55C47.5265 52.137 48.3533 52.9128 49 53.83C49.25 54.13 49.5 54.44 49.76 54.73C50.3554 55.4675 51.1253 56.045 52 56.41V56.41C52.1583 56.4905 52.2979 56.6033 52.4098 56.7411C52.5218 56.8789 52.6036 57.0386 52.65 57.21C52.6923 57.3799 52.6982 57.5569 52.6671 57.7293C52.6361 57.9016 52.5689 58.0655 52.47 58.21C52.4397 58.2565 52.4289 58.313 52.4402 58.3674C52.4514 58.4217 52.4837 58.4694 52.53 58.5C52.5626 58.51 52.5974 58.51 52.63 58.5C52.6645 58.5056 52.7 58.501 52.7319 58.4868C52.7639 58.4726 52.791 58.4494 52.81 58.42C52.9439 58.2251 53.0345 58.0038 53.0759 57.7709C53.1173 57.5381 53.1085 57.2991 53.05 57.07C53.0006 56.8743 52.9121 56.6907 52.79 56.53H53C53.316 56.5454 53.6326 56.515 53.94 56.44C53.9914 56.4217 54.0342 56.385 54.0601 56.337C54.086 56.2889 54.0931 56.233 54.08 56.18C54.0731 56.1542 54.0611 56.1301 54.0447 56.109C54.0283 56.0879 54.0078 56.0703 53.9845 56.0573C53.9612 56.0442 53.9356 56.036 53.909 56.033C53.8825 56.03 53.8556 56.0324 53.83 56.04C52.13 56.53 50.51 54.88 50.05 54.37L49.39 53.58C49.75 53.58 50.3 53.71 50.88 53.74C51.3367 53.8075 51.7988 53.831 52.26 53.81V53.81Z" fill="#7A913A"/>
<path d="M56.9 22.2C57.3995 22.4858 57.9842 22.585 58.55 22.48C58.8437 22.4191 59.1246 22.3074 59.38 22.15C59.4137 22.1274 59.4401 22.0956 59.456 22.0583C59.472 22.021 59.4769 21.98 59.47 21.94C59.3622 21.6009 59.1712 21.2942 58.9145 21.0479C58.6577 20.8016 58.3433 20.6235 58 20.53C57.7156 20.4283 57.425 20.3448 57.13 20.28C56.8137 20.2088 56.503 20.1153 56.2 20C56.0438 19.9388 55.896 19.8581 55.76 19.76V19.76C55.465 19.5707 55.2511 19.2784 55.16 18.94C55.1707 18.0785 54.9463 17.2305 54.5111 16.4869C54.0759 15.7434 53.4463 15.1325 52.69 14.72C53.3204 14.5497 53.8893 14.2035 54.3303 13.7218C54.7712 13.2402 55.0659 12.643 55.18 12C55.2492 11.4989 55.1838 10.9884 54.9905 10.5209C54.7972 10.0535 54.4829 9.64586 54.08 9.34C53.6677 9.04508 53.1805 8.87264 52.6745 8.84256C52.1685 8.81249 51.6643 8.92599 51.22 9.17C50.7832 9.43452 50.438 9.82643 50.2306 10.293C50.0232 10.7596 49.9637 11.2786 50.06 11.78C50.072 11.8344 50.105 11.8817 50.1519 11.9117C50.1988 11.9417 50.2556 11.9519 50.31 11.94C50.3625 11.9259 50.4075 11.8919 50.4354 11.8453C50.4634 11.7986 50.4722 11.743 50.46 11.69C50.3871 11.271 50.4438 10.8397 50.6225 10.4537C50.8011 10.0678 51.0933 9.74552 51.46 9.53C51.8331 9.32077 52.2584 9.22276 52.6855 9.24757C53.1125 9.27238 53.5236 9.41897 53.87 9.67C54.2108 9.93325 54.4763 10.2817 54.6396 10.6802C54.8028 11.0787 54.8582 11.5133 54.8 11.94C54.6938 12.5262 54.4155 13.0675 54.0005 13.4949C53.5856 13.9223 53.0528 14.2165 52.47 14.34C51.5453 14.5449 50.5788 14.4394 49.72 14.04C49.4649 13.9374 49.2204 13.8101 48.99 13.66C47.9526 12.9739 47.0536 12.0987 46.34 11.08C46.3242 11.0583 46.3044 11.04 46.2815 11.026C46.2587 11.012 46.2333 11.0027 46.2068 10.9985C46.1803 10.9943 46.1533 10.9954 46.1273 11.0016C46.1012 11.0079 46.0767 11.0192 46.055 11.035C46.0333 11.0508 46.015 11.0706 46.001 11.0935C45.987 11.1163 45.9776 11.1417 45.9735 11.1682C45.9693 11.1946 45.9704 11.2217 45.9766 11.2477C45.9829 11.2738 45.9942 11.2983 46.01 11.32C46.7099 12.3107 47.572 13.1762 48.56 13.88C47.8022 13.7452 47.054 13.5615 46.32 13.33C45.8075 13.1635 45.2868 13.0233 44.76 12.91C44.2269 12.8043 43.6829 12.764 43.14 12.79C42.5751 12.8006 42.021 12.9459 41.5235 13.2137C41.0261 13.4816 40.5998 13.8643 40.28 14.33C40.1697 14.454 40.1002 14.6089 40.0809 14.7738C40.0616 14.9386 40.0933 15.1054 40.1719 15.2515C40.2504 15.3977 40.372 15.5162 40.5201 15.5911C40.6682 15.6659 40.8357 15.6935 41 15.67C41.7854 15.6735 42.557 15.4643 43.2331 15.0647C43.9092 14.665 44.4645 14.0898 44.84 13.4V13.4C45.3 13.5 45.75 13.64 46.14 13.76C47.2436 14.1086 48.3792 14.3465 49.53 14.47C50.2929 14.8076 51.1292 14.9453 51.96 14.87C51.9794 14.8769 52.0006 14.8769 52.02 14.87C52.7976 15.186 53.4658 15.7228 53.942 16.414C54.4182 17.1053 54.6817 17.9208 54.7 18.76C54.6953 18.7898 54.6953 18.8202 54.7 18.85C54.7 18.85 54.7 18.92 54.7 18.96C54.6998 19.135 54.6796 19.3095 54.64 19.48C54.4726 20.2312 54.1999 20.9551 53.83 21.63C53.5843 22.1053 53.3705 22.5964 53.19 23.1C52.7184 24.3969 52.747 25.823 53.27 27.1C53.5405 27.6996 53.944 28.2297 54.45 28.65V28.65C54.0267 28.8528 53.657 29.152 53.3704 29.5237C53.0838 29.8954 52.8885 30.3291 52.8 30.79C52.6634 31.272 52.6348 31.7781 52.716 32.2724C52.7972 32.7667 52.9864 33.2371 53.27 33.65C53.2934 33.6828 53.3254 33.7085 53.3624 33.7244C53.3994 33.7403 53.4401 33.7457 53.48 33.74V33.74C53.9282 33.5714 54.3315 33.3015 54.6582 32.9514C54.985 32.6013 55.2266 32.1805 55.364 31.7217C55.5014 31.2629 55.5311 30.7786 55.4506 30.3065C55.3701 29.8344 55.1817 29.3873 54.9 29C55.3718 29.2987 55.9051 29.4867 56.46 29.55C56.7519 29.5901 57.048 29.5901 57.34 29.55C57.8873 29.4593 58.4015 29.227 58.8313 28.8762C59.261 28.5253 59.5916 28.0681 59.79 27.55C59.8057 27.523 59.8152 27.4929 59.8179 27.4618C59.8205 27.4306 59.8161 27.3993 59.8051 27.3701C59.7941 27.3409 59.7767 27.3145 59.7542 27.2929C59.7317 27.2712 59.7046 27.2548 59.675 27.245C59.6454 27.2351 59.6139 27.232 59.5829 27.2358C59.5519 27.2396 59.5222 27.2503 59.4958 27.267C59.4695 27.2838 59.4472 27.3062 59.4306 27.3327C59.4141 27.3592 59.4036 27.389 59.4 27.42C59.1717 27.9873 58.7657 28.4654 58.2429 28.7827C57.7201 29.1 57.1086 29.2394 56.5 29.18C55.8818 29.0952 55.2962 28.8517 54.8002 28.4731C54.3042 28.0946 53.9148 27.5939 53.67 27.02C53.1884 25.8375 53.167 24.5175 53.61 23.32C53.7852 22.8303 53.9923 22.3526 54.23 21.89C54.594 21.2148 54.8696 20.4956 55.05 19.75C55.1574 19.8789 55.2781 19.9962 55.41 20.1C55.4869 20.5387 55.6605 20.9548 55.9182 21.318C56.176 21.6812 56.5113 21.9825 56.9 22.2V22.2Z" fill="#7A913A"/>
<path d="M26.15 11.64C25.24 11.4737 24.3768 11.112 23.62 10.58C23.2577 10.3182 22.9571 9.98018 22.7394 9.58973C22.5217 9.19928 22.3922 8.76587 22.36 8.32C22.3574 8.26606 22.3342 8.21518 22.2951 8.17793C22.256 8.14069 22.204 8.11994 22.15 8.12C22.0969 8.1248 22.0473 8.14875 22.0105 8.18738C21.9737 8.22601 21.9522 8.2767 21.95 8.33C21.9591 8.6723 22.0268 9.01052 22.15 9.33C22.4029 9.96476 22.8248 10.5181 23.37 10.93C24.1823 11.4702 25.0986 11.8347 26.06 12C26.8483 12.19 27.6612 12.2574 28.47 12.2C28.9659 12.8913 29.2127 13.7303 29.17 14.58C29.0044 15.3361 28.5529 15.999 27.91 16.43C27.8716 16.4575 27.8431 16.4967 27.8286 16.5418C27.8142 16.5868 27.8147 16.6353 27.83 16.68C27.8604 16.7236 27.9062 16.754 27.9582 16.7651C28.0102 16.7763 28.0644 16.7673 28.11 16.74C28.4789 16.5001 28.7963 16.189 29.0435 15.825C29.2908 15.461 29.463 15.0513 29.55 14.62C29.618 13.7344 29.3894 12.8513 28.9 12.11C29.6221 12.0072 30.2992 11.6981 30.85 11.22C31.3137 10.8082 31.659 10.28 31.85 9.69V9.69C32.1948 8.62385 32.1948 7.47615 31.85 6.41C31.7076 5.93321 31.4578 5.49536 31.12 5.13C30.934 4.93844 30.7028 4.7968 30.4476 4.71815C30.1924 4.63951 29.9216 4.62639 29.66 4.68C29.4838 4.73071 29.3201 4.8173 29.179 4.93432C29.0378 5.05134 28.9224 5.19626 28.84 5.36C28.7219 5.5879 28.6505 5.83707 28.6299 6.09291C28.6093 6.34875 28.6399 6.60614 28.72 6.85V6.95C29.0674 7.65128 29.5827 8.25586 30.22 8.71L30.88 9.25L31.42 9.7C31.2686 10.1992 30.9853 10.6483 30.6 11C30.0377 11.4824 29.3382 11.7762 28.6 11.84C27.7779 11.9064 26.9505 11.8388 26.15 11.64V11.64Z" fill="#7A913A"/>
<path d="M27.17 58C27.17 57.87 27.17 57.66 26.86 57.46C26.0406 56.9415 25.1138 56.6166 24.15 56.51C22.772 56.3273 21.3737 56.6353 20.2 57.38C19.7879 57.1078 19.4058 56.7927 19.06 56.44C19.2782 56.3486 19.4696 56.2035 19.6165 56.0182C19.7634 55.8328 19.8609 55.6133 19.9 55.38C19.9358 55.1009 19.9025 54.8173 19.8031 54.554C19.7037 54.2907 19.5413 54.0559 19.33 53.87C19.0696 53.6222 18.7367 53.4645 18.38 53.42C18.2377 53.3952 18.0923 53.3952 17.95 53.42C17.6764 53.466 17.429 53.6102 17.2541 53.8256C17.0792 54.041 16.9889 54.3128 17 54.59C17.0213 54.7356 17.0744 54.8748 17.1557 54.9975C17.2369 55.1203 17.3442 55.2235 17.47 55.3C17.5798 55.3724 17.7062 55.4159 17.8373 55.4264C17.9684 55.4369 18.1001 55.4141 18.22 55.36C18.2697 55.338 18.309 55.2976 18.3295 55.2472C18.35 55.1968 18.3502 55.1405 18.33 55.09C18.3182 55.065 18.3016 55.0426 18.2811 55.0241C18.2607 55.0055 18.2368 54.9912 18.2107 54.9819C18.1847 54.9726 18.1572 54.9686 18.1296 54.9699C18.102 54.9713 18.075 54.9781 18.05 54.99C17.9926 55.019 17.9293 55.0341 17.865 55.0341C17.8007 55.0341 17.7374 55.019 17.68 54.99C17.6076 54.9482 17.5456 54.8905 17.4988 54.8212C17.452 54.7519 17.4216 54.6728 17.41 54.59C17.4142 54.4221 17.4762 54.2608 17.5855 54.1333C17.6948 54.0058 17.8447 53.9199 18.01 53.89C18.1908 53.8654 18.3749 53.8823 18.5481 53.9394C18.7214 53.9966 18.8794 54.0926 19.01 54.22C19.1734 54.3598 19.2992 54.5383 19.3761 54.7391C19.4529 54.94 19.4783 55.1568 19.45 55.37C19.4228 55.569 19.3306 55.7533 19.1877 55.8944C19.0448 56.0355 18.8593 56.1254 18.66 56.15C18.6052 56.155 18.5542 56.1804 18.5172 56.2211C18.4802 56.2618 18.4598 56.315 18.46 56.37V56.45C18.4463 56.4922 18.4463 56.5378 18.46 56.58C18.8997 57.0737 19.4083 57.5014 19.97 57.85V57.85C20.9635 58.465 22.0884 58.8363 23.2528 58.9336C24.4172 59.0309 25.5882 58.8515 26.67 58.41C26.786 58.4032 26.8968 58.3599 26.9866 58.2862C27.0764 58.2126 27.1406 58.1124 27.17 58V58Z" fill="#7A913A"/>
<path d="M11.32 56.85C11.652 56.6616 11.9496 56.4181 12.2 56.13C12.2 56.13 12.2 56.13 12.25 56.13C12.2698 56.1153 12.285 56.0953 12.2939 56.0723C12.3027 56.0492 12.3049 56.0242 12.3 56C12.3857 55.8916 12.4595 55.7742 12.52 55.65C12.8518 54.9421 13.084 54.1916 13.21 53.42C13.21 53.2 13.3 52.98 13.35 52.76C13.5085 51.824 13.9602 50.9626 14.64 50.3C14.673 50.2719 14.6966 50.2344 14.7074 50.1924C14.7182 50.1504 14.7158 50.1062 14.7004 50.0656C14.6851 50.0251 14.6576 49.9903 14.6217 49.966C14.5858 49.9418 14.5433 49.9292 14.5 49.93C13.8557 49.9667 13.2321 50.1704 12.6903 50.521C12.1486 50.8717 11.7073 51.3572 11.41 51.93C11.1776 52.5869 11.0965 53.2877 11.1727 53.9803C11.2489 54.6729 11.4804 55.3393 11.85 55.93C11.3169 56.4374 10.6514 56.784 9.93 56.93C8.84644 57.1075 7.80131 57.4694 6.84 58C7.91113 56.1365 8.26664 53.9466 7.84 51.84C7.64825 50.7037 7.39454 49.5786 7.08 48.47C6.93 47.91 6.77 47.34 6.64 46.77C8.09843 44.9494 8.84483 42.6604 8.74 40.33C8.73651 40.2867 8.719 40.2457 8.69013 40.2132C8.66126 40.1807 8.6226 40.1585 8.58 40.15C8.11689 40.0665 7.63922 40.133 7.21654 40.3399C6.79386 40.5467 6.44824 40.8831 6.23 41.3C5.83456 42.1059 5.67509 43.0073 5.77 43.9C5.83902 44.8683 5.99295 45.8286 6.23 46.77C6.37 47.38 6.53 47.99 6.69 48.59C7.00449 49.6818 7.25822 50.7901 7.45 51.91C7.9 54.82 7.23 57.39 5.65 58.79C5.52 58.88 5.38 59 5.22 59.13V59.27V59.33H5.38C5.53114 59.2233 5.67481 59.1063 5.81 58.98C6.98454 58.0896 8.35679 57.4961 9.81 57.25H10C10.11 57.34 11.37 56.85 11.32 56.85Z" fill="#7A913A"/>
<path d="M58.05 33.74C57.4323 34.4083 56.9611 35.1983 56.6666 36.0593C56.3721 36.9203 56.2609 37.8334 56.34 38.74V38.74C55.8709 38.5489 55.3552 38.5036 54.86 38.61C54.3802 38.7327 53.9383 38.9722 53.5736 39.3072C53.2089 39.6422 52.9328 40.0623 52.77 40.53C52.7651 40.5564 52.7651 40.5836 52.77 40.61C52.774 40.6298 52.774 40.6502 52.77 40.67V40.67C52.7178 40.7969 52.6744 40.9272 52.64 41.06V41.06C52.4417 41.6565 52.0423 42.1656 51.51 42.5C51.1768 42.6715 50.8054 42.7552 50.4309 42.7429C50.0564 42.7307 49.6912 42.623 49.37 42.43C49.3244 42.4027 49.2701 42.3937 49.2182 42.4049C49.1662 42.416 49.1204 42.4464 49.09 42.49C49.0756 42.5128 49.0661 42.5383 49.0618 42.5649C49.0576 42.5916 49.0588 42.6188 49.0653 42.6449C49.0718 42.6711 49.0836 42.6956 49.0999 42.7171C49.1161 42.7386 49.1366 42.7566 49.16 42.77C49.5397 43.0018 49.9724 43.1326 50.417 43.1501C50.8615 43.1676 51.3032 43.0712 51.7 42.87C51.9721 42.7161 52.2129 42.5126 52.41 42.27V42.27C52.41 42.46 52.41 42.64 52.41 42.83C52.41 43.35 52.58 44.61 53.57 44.92C53.9304 44.9923 54.3045 44.9444 54.6351 44.7836C54.9656 44.6228 55.2343 44.3581 55.4 44.03C55.6855 43.4275 55.8259 42.7665 55.81 42.1C55.8188 42.0483 55.8069 41.9953 55.777 41.9523C55.7471 41.9093 55.7015 41.8797 55.65 41.87C55.6212 41.8621 55.5911 41.8612 55.5619 41.8671C55.5327 41.8731 55.5053 41.8858 55.4819 41.9043C55.4586 41.9228 55.4399 41.9465 55.4274 41.9736C55.4149 42.0006 55.4089 42.0302 55.41 42.06C55.4139 42.69 55.2737 43.3125 55 43.88C54.8819 44.1278 54.6862 44.3303 54.4425 44.4566C54.1988 44.583 53.9205 44.6263 53.65 44.58C52.89 44.34 52.79 43.21 52.78 42.86C52.7617 42.3115 52.8361 41.7638 53 41.24V41.24C53.049 41.1198 53.0891 40.9961 53.12 40.87V40.87C53.2553 40.4386 53.4963 40.048 53.8212 39.7336C54.1461 39.4192 54.5444 39.1911 54.98 39.07C55.4838 38.9647 56.0086 39.0427 56.46 39.29C56.8815 39.5207 57.2476 39.8407 57.5326 40.2276C57.8176 40.6145 58.0146 41.059 58.11 41.53C58.2734 43.078 57.8486 44.6308 56.92 45.88C56.61 46.38 56.26 46.88 55.92 47.34C55.3043 48.1415 54.7589 48.9947 54.29 49.89C54.13 50.22 54.36 50.67 54.66 50.07C55.1167 49.1954 55.6487 48.3623 56.25 47.58C56.59 47.1 56.95 46.58 57.25 46.1C57.808 45.2535 58.2141 44.3161 58.45 43.33C58.5693 42.7124 58.5693 42.0776 58.45 41.46C58.3593 40.9596 58.1669 40.4832 57.8849 40.0601C57.6028 39.637 57.237 39.2762 56.81 39V39C57.6395 38.2302 58.2061 37.2193 58.43 36.11C58.6 35.3528 58.6 34.5672 58.43 33.81C58.4205 33.7739 58.4017 33.741 58.3753 33.7147C58.349 33.6883 58.3161 33.6694 58.28 33.66C58.2383 33.6443 58.1925 33.6437 58.1505 33.6583C58.1085 33.6729 58.0729 33.7018 58.05 33.74V33.74Z" fill="#7A913A"/>
<path d="M10.53 17.32V17.38H10.58H10.73C12.0611 16.1778 13.1447 14.7274 13.92 13.11C14.29 12.46 14.67 11.78 15.07 11.18C15.789 10.184 16.6796 9.32388 17.7 8.64C17.6005 9.39788 17.7337 10.1681 18.0819 10.8485C18.4302 11.529 18.9771 12.0875 19.65 12.45C19.8773 12.6158 20.1489 12.7098 20.43 12.72C20.6228 12.7236 20.8094 12.6519 20.95 12.52C21.0485 12.4115 21.1219 12.2828 21.1651 12.1428C21.2083 12.0028 21.2202 11.8551 21.2 11.71C21.1498 10.8859 20.8283 10.1015 20.2856 9.47929C19.743 8.85703 19.0096 8.43183 18.2 8.27C19.2688 7.57141 20.4543 7.07014 21.7 6.79C22.3548 6.61238 23.0452 6.61238 23.7 6.79C24.0021 6.86984 24.2749 7.03482 24.4859 7.2653C24.6968 7.49578 24.8371 7.78204 24.89 8.09C24.8973 8.143 24.9237 8.19154 24.9642 8.22651C25.0047 8.26148 25.0565 8.2805 25.11 8.28C25.1403 8.27461 25.169 8.26263 25.1942 8.2449C25.2193 8.22718 25.2403 8.20415 25.2555 8.17744C25.2708 8.15073 25.28 8.12099 25.2825 8.09033C25.285 8.05967 25.2807 8.02883 25.27 8C25.2153 7.60789 25.0455 7.24083 24.782 6.94532C24.5186 6.64981 24.1733 6.43914 23.79 6.34C23.0754 6.15274 22.3246 6.15274 21.61 6.34C18.8512 6.97688 16.4401 8.64391 14.87 11C14.46 11.62 14.07 12.3 13.7 13C13.1062 14.1412 12.3993 15.2199 11.59 16.22C11.7698 15.8272 11.8494 15.3959 11.8214 14.9648C11.7935 14.5337 11.659 14.1163 11.43 13.75C11.0132 13.2618 10.485 12.8811 9.89001 12.64C9.67001 12.53 9.45001 12.42 9.24001 12.3C8.90549 12.0946 8.60237 11.842 8.34001 11.55V11.55C7.8593 11.0157 7.51681 10.3717 7.34248 9.67438C7.16816 8.97708 7.16731 8.2477 7.34001 7.55C7.51053 6.94201 7.85874 6.39879 8.34001 5.99C8.56308 5.79176 8.82908 5.64795 9.11711 5.56987C9.40515 5.49178 9.70736 5.48156 10 5.54C10.2246 5.60629 10.4313 5.7226 10.6045 5.88021C10.7777 6.03782 10.9129 6.23263 11 6.45C11.1014 6.65524 11.1542 6.88108 11.1542 7.11C11.1542 7.33892 11.1014 7.56476 11 7.77C10.8903 7.96999 10.7373 8.14292 10.5522 8.27615C10.3671 8.40937 10.1545 8.49952 9.93001 8.54C9.70764 8.59116 9.47671 8.59259 9.25371 8.54419C9.03072 8.49579 8.82117 8.39875 8.64001 8.26C8.62014 8.23625 8.59525 8.21719 8.56715 8.20419C8.53904 8.19118 8.50841 8.18456 8.47744 8.18478C8.44648 8.18501 8.41594 8.19208 8.38803 8.20549C8.36011 8.2189 8.33551 8.23832 8.31598 8.26235C8.29645 8.28639 8.28248 8.31444 8.27507 8.34451C8.26766 8.37458 8.26699 8.40591 8.27311 8.43627C8.27923 8.46663 8.29198 8.49526 8.31047 8.5201C8.32895 8.54495 8.3527 8.56541 8.38001 8.58C8.6091 8.76096 8.87504 8.88958 9.15914 8.95681C9.44323 9.02405 9.73861 9.02827 10.0245 8.96918C10.3104 8.9101 10.5799 8.78913 10.8141 8.61479C11.0483 8.44045 11.2414 8.21695 11.38 7.96C11.5059 7.69787 11.5713 7.4108 11.5713 7.12C11.5713 6.8292 11.5059 6.54212 11.38 6.28C11.2675 6.01309 11.0983 5.7738 10.8842 5.5787C10.6701 5.38359 10.4162 5.23732 10.14 5.15C9.77211 5.04687 9.3845 5.03581 9.01132 5.11777C8.63814 5.19973 8.29084 5.3722 8.00001 5.62C7.50079 6.09954 7.15312 6.71492 7.00001 7.39C6.81212 8.13297 6.80486 8.91013 6.97884 9.65648C7.15281 10.4028 7.50296 11.0967 8.00001 11.68C7.41367 12.5208 6.98035 13.4585 6.72001 14.45V14.45C6.01769 16.817 6.28011 19.3657 7.45001 21.54C7.46958 21.5701 7.49621 21.5949 7.52759 21.6124C7.55896 21.6298 7.59413 21.6393 7.63001 21.64C7.66836 21.6394 7.70572 21.6277 7.73764 21.6064C7.76955 21.5852 7.79467 21.5552 7.81001 21.52C8.26482 20.3839 8.44044 19.1552 8.32211 17.9372C8.20379 16.7192 7.79498 15.5473 7.13001 14.52C7.34992 13.6266 7.71475 12.7754 8.21001 12C8.45644 12.2457 8.73179 12.4606 9.03001 12.64C9.25001 12.77 9.48001 12.89 9.71001 13C10.2462 13.2131 10.7206 13.5568 11.09 14C11.74 14.91 11.3 16.26 10.57 17.19V17.33L10.53 17.32Z" fill="#7A913A"/>
<path d="M7.09001 36.21C7.48548 36.0803 7.84516 35.8599 8.14033 35.5665C8.43549 35.2731 8.65797 34.9147 8.79001 34.52C9.06331 33.4885 8.97508 32.3944 8.54001 31.42L8.73001 31.51C9.14296 31.6888 9.57141 31.8294 10.01 31.93C10.5615 32.0416 11.0915 32.2408 11.58 32.52C12.1072 32.8873 12.4823 33.4342 12.6351 34.0583C12.7879 34.6823 12.7079 35.3407 12.41 35.91C12.3961 35.9334 12.387 35.9595 12.3835 35.9865C12.38 36.0136 12.382 36.0411 12.3895 36.0673C12.397 36.0935 12.4098 36.1179 12.4271 36.139C12.4444 36.1601 12.4658 36.1775 12.49 36.19C12.5226 36.2 12.5574 36.2 12.59 36.19C12.627 36.1892 12.6632 36.1786 12.6948 36.1592C12.7264 36.1399 12.7524 36.1126 12.77 36.08C13.1102 35.4138 13.1963 34.6466 13.0123 33.9216C12.8283 33.1966 12.3867 32.5633 11.77 32.14C11.2437 31.8394 10.6734 31.6234 10.08 31.5C9.66712 31.4017 9.26256 31.2713 8.87001 31.11C8.60233 30.9835 8.35058 30.8257 8.12001 30.64V30.64C7.38942 30.0189 6.84874 29.2044 6.56001 28.29C6.50859 27.773 6.57 27.251 6.74001 26.76C6.81841 26.5034 6.95749 26.2694 7.14549 26.0779C7.33349 25.8865 7.56486 25.7431 7.82001 25.66C8.05758 25.5929 8.31158 25.616 8.53313 25.7249C8.75467 25.8339 8.92809 26.0209 9.02001 26.25C9.04532 26.371 9.0403 26.4965 9.00541 26.6151C8.97051 26.7338 8.90682 26.8419 8.82001 26.93C8.75245 27.0001 8.66908 27.0531 8.57687 27.0844C8.48467 27.1157 8.3863 27.1245 8.29001 27.11C8.24132 27.1074 8.19325 27.1218 8.15404 27.1508C8.11482 27.1798 8.08691 27.2215 8.07508 27.2688C8.06326 27.3161 8.06826 27.366 8.08923 27.41C8.1102 27.454 8.14583 27.4894 8.19001 27.51C8.35621 27.5419 8.5278 27.5312 8.68871 27.4787C8.84962 27.4262 8.99458 27.3338 9.11001 27.21C9.2488 27.0711 9.34935 26.8986 9.40191 26.7094C9.45447 26.5202 9.45726 26.3206 9.41001 26.13C9.28366 25.801 9.04026 25.5302 8.72652 25.3696C8.41277 25.2091 8.05078 25.17 7.71001 25.26C7.39163 25.3603 7.10241 25.5366 6.86724 25.7735C6.63207 26.0104 6.458 26.3009 6.36001 26.62C6.32074 26.7247 6.28735 26.8316 6.26001 26.94C6.13496 25.7332 6.13496 24.5168 6.26001 23.31C6.26283 23.2559 6.24463 23.2028 6.20923 23.1618C6.17382 23.1208 6.12394 23.0951 6.07001 23.09C6.04294 23.0873 6.01559 23.0901 5.98964 23.0982C5.96368 23.1064 5.93968 23.1198 5.91908 23.1376C5.89849 23.1554 5.88174 23.1772 5.86986 23.2017C5.85799 23.2262 5.85123 23.2528 5.85001 23.28C5.66209 24.8052 5.71269 26.3504 6.00001 27.86C6.03412 28.044 6.08431 28.2247 6.15001 28.4C6.14567 28.4231 6.14567 28.4469 6.15001 28.47C6.47174 29.4569 7.06425 30.3335 7.86001 31C8.48101 32.0216 8.67499 33.2465 8.40001 34.41C8.29159 34.7362 8.10859 35.0325 7.86556 35.2755C7.62252 35.5186 7.32616 35.7016 7.00001 35.81C6.67896 35.9017 6.33516 35.8693 6.03689 35.7193C5.73862 35.5692 5.50771 35.3125 5.39001 35C5.36159 34.8369 5.37413 34.6692 5.42649 34.5122C5.47885 34.3551 5.5694 34.2135 5.69001 34.1C5.7798 34.0031 5.89418 33.9324 6.02098 33.8955C6.14777 33.8585 6.28222 33.8566 6.41001 33.89C6.46175 33.906 6.51768 33.9015 6.56614 33.8773C6.61459 33.853 6.6518 33.811 6.67001 33.76C6.68366 33.7083 6.67799 33.6533 6.65407 33.6055C6.63014 33.5576 6.58959 33.5201 6.54001 33.5C6.34052 33.4436 6.12955 33.4416 5.92906 33.4944C5.72857 33.5472 5.54588 33.6527 5.40001 33.8C5.21998 33.9653 5.08782 34.176 5.01743 34.4101C4.94705 34.6441 4.94103 34.8928 5.00001 35.13C5.11714 35.4686 5.33946 35.7609 5.63451 35.9642C5.92956 36.1675 6.28188 36.2712 6.64001 36.26C6.79155 36.2631 6.94285 36.2463 7.09001 36.21V36.21Z" fill="#7A913A"/>
<path d="M57.91 50.08C57.5265 50.2459 57.1943 50.5114 56.9481 50.8491C56.7019 51.1867 56.5506 51.5841 56.51 52C56.2693 53.2867 56.4496 54.6168 57.0242 55.793C57.5988 56.9692 58.5371 57.929 59.7 58.53H59.79C59.8281 58.5282 59.8649 58.5161 59.8966 58.495C59.9283 58.4738 59.9537 58.4445 59.97 58.41C59.982 58.3864 59.9892 58.3606 59.9911 58.3342C59.9931 58.3078 59.9898 58.2813 59.9814 58.2562C59.973 58.2311 59.9597 58.2079 59.9423 58.1879C59.9249 58.168 59.9037 58.1517 59.88 58.14C58.7927 57.5838 57.9137 56.6919 57.3734 55.5967C56.833 54.5015 56.6599 53.2613 56.88 52.06C56.96 51.66 57.24 50.7 58 50.46C58.2414 50.3973 58.4959 50.4064 58.7322 50.4864C58.9685 50.5663 59.1763 50.7136 59.33 50.91C59.4853 51.1157 59.5883 51.356 59.6302 51.6104C59.672 51.8647 59.6513 52.1254 59.57 52.37C59.5242 52.581 59.4156 52.7732 59.2585 52.9213C59.1015 53.0694 58.9033 53.1666 58.69 53.2V53.2C58.5862 53.1893 58.487 53.1513 58.4027 53.0898C58.3184 53.0283 58.2519 52.9456 58.21 52.85C58.1734 52.7934 58.1539 52.7274 58.1539 52.66C58.1539 52.5926 58.1734 52.5266 58.21 52.47C58.2335 52.4279 58.2419 52.379 58.2336 52.3315C58.2254 52.284 58.201 52.2408 58.1647 52.2091C58.1283 52.1774 58.0821 52.1592 58.0339 52.1576C57.9857 52.1559 57.9384 52.1709 57.9 52.2C57.8065 52.3129 57.7481 52.4508 57.7321 52.5965C57.7161 52.7423 57.7432 52.8895 57.81 53.02C57.8852 53.1879 58.0052 53.3319 58.157 53.436C58.3087 53.5401 58.4862 53.6003 58.67 53.61C58.9802 53.5882 59.2756 53.4692 59.5144 53.2699C59.7531 53.0707 59.923 52.8013 60 52.5C60.0962 52.1899 60.1173 51.8613 60.0617 51.5414C60.0061 51.2215 59.8752 50.9194 59.68 50.66C59.4742 50.4005 59.1968 50.2073 58.8821 50.1041C58.5674 50.001 58.2294 49.9926 57.91 50.08V50.08Z" fill="#7A913A"/>
<path d="M40.93 38C40.6423 38.302 40.4405 38.6754 40.3456 39.0815C40.2506 39.4876 40.266 39.9118 40.39 40.31C40.6858 41.5766 41.3793 42.7153 42.369 43.5592C43.3587 44.4031 44.5926 44.9081 45.89 45H46C46.0363 44.9851 46.0678 44.9604 46.0907 44.9286C46.1137 44.8968 46.1273 44.8592 46.13 44.82C46.1301 44.766 46.1093 44.714 46.0721 44.6749C46.0348 44.6358 45.984 44.6126 45.93 44.61C44.7155 44.5195 43.5622 44.041 42.6404 43.2452C41.7185 42.4494 41.0768 41.3783 40.81 40.19C40.7149 39.8626 40.7026 39.5167 40.7742 39.1833C40.8458 38.85 40.9989 38.5396 41.22 38.28C41.4147 38.1265 41.6501 38.0334 41.8971 38.012C42.1441 37.9907 42.3919 38.0421 42.61 38.16C42.8328 38.2902 43.0214 38.4714 43.1605 38.6887C43.2996 38.906 43.3851 39.1532 43.41 39.41C43.4499 39.6218 43.4255 39.8407 43.3399 40.0385C43.2544 40.2363 43.1116 40.404 42.93 40.52C42.8305 40.5516 42.7243 40.5562 42.6224 40.5334C42.5205 40.5105 42.4265 40.4611 42.35 40.39C42.2957 40.3491 42.2545 40.2933 42.2314 40.2293C42.2084 40.1654 42.2044 40.0961 42.22 40.03C42.2293 40.0051 42.2332 39.9786 42.2315 39.9521C42.2299 39.9256 42.2227 39.8997 42.2105 39.8762C42.1982 39.8526 42.1812 39.8319 42.1604 39.8153C42.1397 39.7987 42.1157 39.7867 42.09 39.78C42.0644 39.7707 42.0372 39.7667 42.0101 39.7682C41.9829 39.7698 41.9563 39.7768 41.932 39.789C41.9077 39.8012 41.8861 39.8182 41.8685 39.839C41.851 39.8598 41.8379 39.884 41.83 39.91C41.7895 40.0517 41.7915 40.2022 41.836 40.3427C41.8805 40.4832 41.9653 40.6074 42.08 40.7C42.2134 40.82 42.3767 40.9019 42.5526 40.9371C42.7285 40.9722 42.9107 40.9594 43.08 40.9C43.3429 40.7522 43.554 40.527 43.6846 40.2551C43.8152 39.9832 43.859 39.6776 43.81 39.38C43.7783 39.0582 43.6712 38.7484 43.4975 38.4756C43.3237 38.2029 43.0882 37.9748 42.81 37.81C42.513 37.6521 42.1758 37.5859 41.8412 37.6197C41.5065 37.6536 41.1894 37.7859 40.93 38V38Z" fill="#7A913A"/>
<path d="M14.56 28.67C14.1441 28.6991 13.728 28.6162 13.3551 28.4297C12.9823 28.2433 12.6662 27.9602 12.44 27.61C11.6358 26.5781 11.1859 25.3144 11.1571 24.0065C11.1283 22.6986 11.5221 21.4163 12.28 20.35C12.2952 20.3221 12.3201 20.3008 12.35 20.29C12.3834 20.2707 12.4214 20.2605 12.46 20.2605C12.4986 20.2605 12.5366 20.2707 12.57 20.29C12.6066 20.3274 12.6272 20.3776 12.6272 20.43C12.6272 20.4824 12.6066 20.5326 12.57 20.57C11.8642 21.5629 11.4976 22.757 11.5246 23.9749C11.5516 25.1927 11.9709 26.3694 12.72 27.33C12.97 27.65 13.66 28.39 14.45 28.25C14.696 28.1988 14.9216 28.0769 15.0992 27.8992C15.2769 27.7216 15.3988 27.496 15.45 27.25C15.4907 26.9977 15.4712 26.7393 15.393 26.496C15.3148 26.2527 15.1801 26.0313 15 25.85C14.8631 25.6836 14.6787 25.5629 14.4715 25.504C14.2643 25.445 14.044 25.4506 13.84 25.52V25.52C13.7502 25.5753 13.6769 25.6536 13.6277 25.7468C13.5784 25.84 13.5551 25.9447 13.56 26.05C13.5608 26.1179 13.5798 26.1842 13.615 26.2423C13.6502 26.3003 13.7002 26.3479 13.76 26.38C13.809 26.4 13.8481 26.4385 13.8687 26.4873C13.8893 26.536 13.8898 26.5909 13.87 26.64C13.8611 26.6652 13.8472 26.6883 13.8293 26.708C13.8113 26.7277 13.7895 26.7436 13.7653 26.7548C13.7411 26.766 13.7148 26.7722 13.6882 26.7731C13.6615 26.774 13.6349 26.7695 13.61 26.76C13.4755 26.7009 13.3607 26.6045 13.2792 26.4822C13.1977 26.36 13.1528 26.2169 13.15 26.07C13.1402 25.8854 13.1817 25.7017 13.27 25.5393C13.3582 25.3769 13.4898 25.2422 13.65 25.15C13.9321 25.0398 14.2415 25.02 14.5354 25.0935C14.8292 25.167 15.0929 25.33 15.29 25.56C15.5186 25.7907 15.6894 26.0723 15.7885 26.3816C15.8876 26.691 15.9121 27.0194 15.86 27.34C15.7971 27.6645 15.6405 27.9635 15.4094 28.1999C15.1783 28.4363 14.883 28.5997 14.56 28.67V28.67Z" fill="#7A913A"/>
<path d="M44.4 59.65C44.4264 59.6463 44.4518 59.6374 44.4747 59.6238C44.4976 59.6102 44.5176 59.5922 44.5334 59.5708C44.5492 59.5493 44.5606 59.525 44.5669 59.4991C44.5732 59.4732 44.5742 59.4463 44.57 59.42C44.459 58.9213 44.1984 58.4684 43.8232 58.1218C43.4479 57.7751 42.9759 57.5512 42.47 57.48C41.5015 57.3756 40.5228 57.5381 39.64 57.95L38.89 58.27C38.3016 58.551 37.6891 58.7786 37.06 58.95C36.1306 59.1621 35.1619 59.1276 34.25 58.85C33.9636 57.9407 33.4746 57.1083 32.8199 56.4154C32.1651 55.7225 31.3616 55.1873 30.47 54.85C30.4411 54.8333 30.4083 54.8245 30.375 54.8245C30.3416 54.8245 30.3089 54.8333 30.28 54.85C30.2524 54.8722 30.232 54.9021 30.2213 54.9359C30.2106 54.9697 30.2102 55.0059 30.22 55.04C30.5757 56.5262 31.5026 57.8124 32.8 58.62C33.1839 58.8619 33.5973 59.0534 34.03 59.19V59.19C34.25 59.26 34.48 59.32 34.71 59.37C35.5134 59.55 36.3466 59.55 37.15 59.37C37.8036 59.2004 38.4398 58.9693 39.05 58.68L39.79 58.36C40.6037 57.9781 41.5054 57.8227 42.4 57.91C42.8212 57.9649 43.2159 58.1463 43.5319 58.4301C43.8479 58.714 44.0704 59.087 44.17 59.5C44.1819 59.5496 44.2124 59.5928 44.2552 59.6207C44.2979 59.6486 44.3498 59.6591 44.4 59.65V59.65Z" fill="#7A913A"/>
<path d="M59.2 5.7C59.1612 5.68628 59.1188 5.68628 59.08 5.7C59.0543 5.67429 59.0222 5.65606 58.9869 5.64725C58.9517 5.63844 58.9147 5.63939 58.88 5.65C56.5042 6.3394 53.9872 6.38083 51.59 5.77L51.36 5.71C50.6562 5.45153 49.8938 5.39608 49.16 5.55C48.8495 5.63657 48.5691 5.8077 48.3501 6.04431C48.1312 6.28092 47.9823 6.5737 47.92 6.89C47.8806 7.24699 47.981 7.60536 48.2 7.89C48.2997 8.00771 48.4218 8.10453 48.5591 8.1749C48.6963 8.24526 48.8462 8.28778 49 8.3H49.09C49.2604 8.29583 49.4274 8.25101 49.577 8.16925C49.7266 8.0875 49.8545 7.97119 49.95 7.83C50.0497 7.70104 50.1134 7.54789 50.1345 7.38624C50.1556 7.22458 50.1333 7.06023 50.07 6.91C50.048 6.86028 50.0076 6.82103 49.9572 6.80051C49.9068 6.78 49.8505 6.77981 49.8 6.8C49.7741 6.81065 49.7507 6.82664 49.7313 6.84692C49.712 6.86721 49.6971 6.89133 49.6876 6.91773C49.6782 6.94414 49.6744 6.97223 49.6766 7.00018C49.6787 7.02814 49.6867 7.05533 49.7 7.08C49.7328 7.16682 49.7417 7.26083 49.7259 7.35227C49.71 7.4437 49.67 7.52924 49.61 7.6C49.5488 7.69408 49.4639 7.7704 49.3638 7.8213C49.2638 7.8722 49.1521 7.8959 49.04 7.89C48.9413 7.87825 48.8461 7.84646 48.7601 7.7966C48.6741 7.74673 48.5992 7.67983 48.54 7.6C48.4605 7.50126 48.4018 7.38745 48.3674 7.26544C48.3331 7.14342 48.3237 7.01572 48.34 6.89C48.3924 6.64458 48.5147 6.41957 48.6921 6.24212C48.8696 6.06468 49.0946 5.94238 49.34 5.89C50.0095 5.76025 50.702 5.8191 51.34 6.06L51.57 6.12C53.8897 6.71006 56.3203 6.71006 58.64 6.12C58.1019 6.72402 57.6952 7.43325 57.4456 8.20272C57.1959 8.97219 57.1089 9.78513 57.19 10.59C57.3241 11.3102 57.5527 12.0096 57.87 12.67C57.3565 13.2512 57.0033 13.9562 56.8455 14.7156C56.6877 15.4749 56.7306 16.2623 56.97 17C57.0263 17.2391 57.1687 17.4491 57.37 17.59C57.4783 17.6563 57.603 17.6909 57.73 17.69C57.916 17.6737 58.0954 17.6136 58.2536 17.5145C58.4118 17.4154 58.5442 17.2802 58.64 17.12C58.9224 16.5916 59.0776 16.0046 59.0932 15.4057C59.1089 14.8067 58.9845 14.2124 58.73 13.67C58.6 13.33 58.45 12.99 58.31 12.67C57.9744 11.9969 57.7354 11.2798 57.6 10.54C57.5165 9.71133 57.6176 8.87445 57.8959 8.08947C58.1743 7.3045 58.6231 6.59092 59.21 6C59.2307 5.98053 59.247 5.95689 59.2578 5.93063C59.2686 5.90438 59.2737 5.87612 59.2728 5.84774C59.2718 5.81936 59.2648 5.79151 59.2523 5.76603C59.2398 5.74056 59.2219 5.71805 59.2 5.7V5.7Z" fill="#7A913A"/>
<path d="M34.63 29.16C36.7194 28.6461 38.7791 28.0185 40.8 27.28C41.968 26.7885 43.1757 26.3971 44.41 26.11C45.59 25.83 45.7 25.63 45.73 24.41C45.73 22.7 45.78 20.99 45.85 19.28C45.85 18.71 45.76 17.98 46.57 17.79C47.19 17.64 47.37 18.89 47.33 20.02C47.49 23.02 46.72 30.64 46.9 34.3C46.96 35.55 46.43 37.21 48.35 37.92C50.01 38.85 51.25 37.16 51.11 35.72C51.05 35.09 50.81 34.46 51.7 34.31C52.27 34.22 52.87 34.93 52.78 35.72C52.5 38.28 50.99 40.21 48.13 39.51C45.47 38.86 45.24 37.37 45.13 34.89C45.05 32.73 45.13 31.37 45.2 29.23C45.2 28.7 45.01 27.97 44.2 28.31C41.52 29.39 38.64 30 35.9 31C35.5031 31.1016 35.1571 31.3446 34.9269 31.6835C34.6967 32.0223 34.5982 32.4336 34.65 32.84C34.71 35.99 34.72 39.13 34.58 42.27C34.5274 44.2573 34.1525 46.2228 33.47 48.09C32.8222 49.8103 31.6414 51.2784 30.1 52.28C25.68 54.76 18.43 53.38 15 48C14.065 46.6021 13.5403 44.9702 13.4855 43.2893C13.4307 41.6084 13.848 39.9458 14.69 38.49C14.96 37.99 15.83 38.15 15.69 38.57C14.95 41.12 18.69 43.94 19.06 37.27C19.19 35.57 19.82 26.55 19.65 23.74C19.65 23.52 19.7 23.3 19.65 23.08C19.65 22.03 19.39 21.87 18.34 22.08C17.63 22.2 16.93 22.34 16.22 22.41C15.51 22.48 14.86 22.53 14.77 21.72C14.68 20.91 15.42 20.79 16.04 20.72C17.4967 20.5943 18.9413 20.3536 20.36 20C23.49 19.32 26.55 18.4 29.61 17.48C30.35 17.26 31.12 17.15 31.87 16.96C32.94 16.68 33.87 16.23 33.96 14.96C34.017 14.5777 34.1569 14.2125 34.37 13.89C34.5345 13.5974 34.7924 13.3684 35.1024 13.2397C35.4124 13.111 35.7566 13.0899 36.08 13.18C36.3792 13.2507 36.6466 13.4186 36.8402 13.6575C37.0338 13.8963 37.1428 14.1926 37.15 14.5C37.2742 15.0451 37.2151 15.6159 36.9818 16.1239C36.7486 16.6319 36.3543 17.0489 35.86 17.31C35.5314 17.4877 35.2618 17.7573 35.0842 18.0859C34.9066 18.4145 34.8287 18.7878 34.86 19.16C34.59 22.35 35 25.59 34.63 29.16ZM32.63 46.71C32.75 42.04 32.55 29.41 32.63 24.97C32.63 23.16 32.35 21.35 32.45 19.53C32.45 19.28 32.45 18.93 32.1 18.89C31.75 18.85 31.6 19.21 31.58 19.54C31.58 19.71 31.58 19.88 31.58 20.04C31.18 24 31.43 46.22 32.62 46.71H32.63Z" fill="#383529"/>
</g>
<defs>
<clipPath id="clip0">
<rect width="64" height="64" fill="white"/>
</clipPath>
</defs>
</svg>
