<svg width="779" height="233" viewBox="0 0 779 233" fill="none" xmlns="http://www.w3.org/2000/svg">
<path d="M42.7324 119.427C44.8444 119.707 47.6364 120.014 50.9271 120.2C55.4911 120.459 61.8164 120.532 69.2537 119.714C71.1231 119.507 79.0204 118.588 89.3564 115.579C96.3044 113.556 102.571 111.616 110.14 107.515C118.064 103.223 125.228 97.9804 130.012 90.1737C133.719 84.1244 135.448 77.567 133.527 70.427C132.32 65.9417 129.703 62.4284 125.998 59.775C121.543 56.583 116.459 55.0017 111.007 54.7244C108.271 54.5844 105.494 54.4417 102.788 54.759C98.6684 55.2444 94.7004 56.5084 90.9551 58.3217C84.9524 61.231 79.6991 65.199 74.9231 69.8444C66.1457 78.3817 59.1884 88.2524 53.4404 99.0097C52.5257 100.72 49.9884 106.16 45.9604 113.596C44.5897 116.127 43.4444 118.168 42.7324 119.427ZM42.7324 119.427C41.3311 123.307 40.1311 126.755 38.8444 130.171C36.2484 137.062 34.1977 144.092 33.0711 151.386C32.2617 156.626 32.0831 161.874 33.6977 166.959C35.8044 173.592 40.4844 177.859 46.9364 180.243C52.6711 182.36 58.6564 182.93 64.6804 182.506C71.3684 182.034 76.0457 180.151 81.7057 177.924C92.7617 173.574 100.323 168.123 104.579 165.02C108.646 162.056 113.924 157.807 119.554 152.04" stroke="#383529" stroke-width="6.66667" stroke-miterlimit="10" stroke-linecap="round" stroke-linejoin="round"/>
<path d="M538.74 163.365C536.282 166.819 528.883 176.205 516.798 178.058C513.696 178.533 506.139 179.69 502.202 175.35C498.566 171.341 499.998 164.83 501.524 157.887C503.018 151.101 506.222 145.845 510.326 135.663C511.638 132.406 513.13 129.223 514.484 125.983C515.088 124.542 515.558 123.043 516.05 121.675C511.295 119.926 506.532 118.177 501.76 116.431C495.802 114.25 489.851 112.079 483.91 109.918C485.131 107.047 486.352 104.265 487.499 101.45C488.268 99.5659 488.892 97.6659 488.544 95.5352C488.008 92.2605 486.102 90.1925 483.026 89.3779C480.012 88.5779 477.066 88.9312 474.37 90.7632C471.067 93.0072 470.682 96.5899 471.824 99.7085C473.479 104.215 477.166 106.801 481.31 108.807C482.103 109.193 482.944 109.479 484.019 109.914C482.478 112.938 481.067 115.993 479.407 118.905C474.756 127.069 469.98 135.165 465.295 143.31C461.951 149.122 458.347 154.775 453.999 159.874C447.987 166.927 440.918 172.671 432.088 175.897C427.866 177.439 423.492 178.265 418.968 178.586C414.806 178.883 410.732 178.663 406.703 177.77C404.048 177.182 397.88 175.238 393.146 169.417C390.716 166.43 389.522 163.429 388.914 161.467C388.774 158.401 388.903 154.167 390.062 149.301C391.146 144.745 392.782 141.109 394.194 138.511C396.872 139.417 400.762 140.465 405.538 140.83C408.347 141.045 417.554 141.49 428.168 136.903C432.891 134.863 441.304 131.229 446.763 122.442C448.858 119.069 452.784 112.746 450.399 107.873C447.399 101.745 436.227 101.603 430.004 102.699C420.067 104.451 413.775 110.949 408.426 116.474C404.534 120.494 398.6 127.642 394.194 138.511" stroke="#383529" stroke-width="6.66667" stroke-miterlimit="10" stroke-linecap="round" stroke-linejoin="round"/>
<path d="M702.449 190.659C693.994 192.831 687.246 194.337 682.791 195.287C673.039 197.363 664.013 199.151 658.538 205.496C658.19 205.9 657.909 206.292 657.658 206.677C654.463 211.576 652.802 219.543 656.607 224.448C661.027 230.147 670.319 228.948 671.507 228.787C684.934 226.971 692.822 212.293 693.845 210.325C696.683 204.865 698.962 197.141 702.449 190.659C704.09 187.607 705.859 184.503 705.859 184.503C707.13 182.272 708.051 180.747 708.594 179.8C711.303 175.081 713.435 171.201 714.798 168.689C717.434 164.108 720.163 159.701 722.557 155.121C726.39 147.78 730.01 140.329 733.698 132.912C735.459 129.368 737.363 125.875 738.826 122.207C740.659 117.608 740.587 115.987 740.459 114.871C739.878 109.857 735.493 106.701 733.962 105.601C728.162 101.427 721.679 101.869 719.313 102.031C713.375 102.436 709.178 104.793 706.435 106.373C700.559 109.759 697.253 113.779 692.995 119.052C691.301 121.152 686.139 127.733 681.165 137.787C678.646 142.873 675.659 149.896 673.337 158.645C673.227 160.483 673.183 165.429 676.297 170.428C677.073 171.676 680.283 176.831 686.366 178.547C691.526 180.003 695.923 178.187 702.681 175.396C708.059 173.176 712.138 170.587 714.798 168.689" stroke="#383529" stroke-width="6.66667" stroke-miterlimit="10" stroke-linecap="round" stroke-linejoin="round"/>
<path d="M103.795 189.439C99.8323 189.936 95.3283 190.635 90.4003 191.639C84.6817 192.803 80.5377 193.94 76.5723 195.035C67.1057 197.651 62.271 199.015 57.323 201.748C52.0377 204.669 49.459 206.563 47.5177 210.124C45.059 214.64 46.259 220.631 49.5217 223.84C52.7043 226.971 56.5457 228.385 60.931 228.756C64.039 229.021 66.9603 228.8 69.719 228.149C75.9617 226.677 80.0617 223.317 83.599 220.376C91.1777 214.077 95.2137 207.316 97.4337 203.525C100.651 198.031 102.603 193.053 103.795 189.439ZM103.795 189.439C105.034 188.112 102.03 191.332 103.795 189.439ZM103.795 189.439C109.506 175.417 114.831 162.881 119.554 152.04C125.226 139.024 131.963 124.009 139.726 107.517C140.378 106.133 140.922 104.983 141.296 104.191" stroke="#383529" stroke-width="6.66667" stroke-miterlimit="10" stroke-linecap="round" stroke-linejoin="round"/>
<path d="M602.209 112.609C603.59 113.467 607.77 109.977 615.308 106.051C617.722 104.793 622.212 102.455 627.648 102.237C635.566 101.92 645.836 106.095 648.576 113.577C650.54 118.941 647.754 123.281 642.958 134.216C634.316 153.921 627.221 170.096 632.608 176.507C637.548 182.388 651.213 177.935 652.974 177.361C666.306 173.019 672.086 161.227 673.237 158.747" stroke="#383529" stroke-width="6.66667" stroke-miterlimit="10" stroke-linecap="round" stroke-linejoin="round"/>
<path d="M565.994 104.332C562.094 112.915 558.105 121.457 554.189 130.032C551.819 135.224 550.353 138.748 547.669 144.595C544.013 152.568 540.875 159.035 538.741 163.364C538.69 164.647 538.598 170.456 542.855 174.651C546.562 178.304 551.283 178.477 554.481 178.595C564.134 178.949 571.353 173.543 574.031 171.295C583.423 151.732 592.817 132.171 602.209 112.609C603.431 110.064 604.653 107.52 605.874 104.973" stroke="#383529" stroke-width="6.66667" stroke-miterlimit="10" stroke-linecap="round" stroke-linejoin="round"/>
<path d="M157.195 161.663C158.017 164.092 160.052 168.985 164.849 173.067C170.513 177.884 178.715 180.451 186.179 178.717C194.911 176.691 200.708 169.227 206.829 161.344C207.416 160.588 207.913 159.907 207.955 159.844C208.785 158.604 209.632 156.728 215.227 145.823C223.185 130.312 225.696 127.509 225.852 120.783C225.917 117.993 225.96 113.431 223 109.243C219.107 103.732 212.652 102.6 211.016 102.312C203.352 100.968 197.208 104.507 189.661 108.821C180.215 114.221 174.407 120.471 172.688 122.387C169.069 126.419 162.055 134.421 158.833 146.997C157.307 152.956 157.1 158.115 157.195 161.663ZM157.195 161.663C157.195 161.663 157.177 161.677 157.144 161.705C138.587 177.932 127.309 183.559 127.309 183.559C122.029 185.319 114.575 188.769 103.936 189.484" stroke="#383529" stroke-width="6.66667" stroke-miterlimit="10" stroke-linecap="round" stroke-linejoin="round"/>
<path d="M17.3406 56.4219C9.92589 64.2325 5.20189 73.4005 4.14589 84.1459C3.41922 91.5352 5.39922 98.3325 10.4192 104.058C15.8979 110.307 22.7299 113.054 28.9006 115.439C30.2552 115.962 32.8886 116.918 36.0632 117.897C38.6152 118.682 40.7726 119.254 42.3166 119.638" stroke="#383529" stroke-width="6.66667" stroke-miterlimit="10" stroke-linecap="round" stroke-linejoin="round"/>
<path d="M770.908 146.466C765.79 156.811 759.557 163.691 755.35 167.694C744.722 177.806 733.824 182.111 727.032 184.717C717.236 188.477 708.565 189.994 702.449 190.659" stroke="#383529" stroke-width="6.66667" stroke-miterlimit="10" stroke-linecap="round" stroke-linejoin="round"/>
<path d="M288.508 73.4596C282.861 85.165 278.493 94.7596 275.623 101.178C268.353 117.436 265.36 125.254 257.909 141.572C253.581 151.049 249.913 158.654 247.607 163.372C246.997 164.188 246.101 165.324 244.932 166.602C243.053 168.656 239.664 172.294 234.105 175.122C234.105 175.122 227.813 178.322 220.727 178.686C218.96 178.777 217.495 178.552 215.927 178.202C215.504 178.108 213.731 177.538 211.72 176.098C210.369 175.133 207.559 173.122 206.529 169.81C205.341 165.993 206.812 161.4 206.829 161.345V161.344" stroke="#383529" stroke-width="6.66667" stroke-miterlimit="10" stroke-linecap="round" stroke-linejoin="round"/>
<path d="M318.769 113.111C321.793 109.815 326.608 105.641 333.497 103.113C338.278 101.359 348.04 97.7387 355.46 102.952C360.389 106.416 361.774 112.012 362.08 113.448C362.841 117.023 362.336 120.237 359.77 127.42C356.816 135.695 353.332 143.289 348.71 153.273C345.666 159.845 344.154 163.195 344.608 166.288C345.388 171.592 349.438 176.945 354.938 178.684C361.573 180.781 367.566 176.78 372.266 173.643C383.081 166.421 387.93 155.599 390.061 149.301" stroke="#383529" stroke-width="6.66667" stroke-miterlimit="10" stroke-linecap="round" stroke-linejoin="round"/>
<path d="M335.282 74.0443C329.315 89.5416 323.594 102.668 318.769 113.111C316.89 117.179 312.906 125.21 304.939 141.275C302.674 145.843 300.255 150.696 296.561 156.999C293.533 162.163 290.794 166.346 288.797 169.282" stroke="#383529" stroke-width="6.66667" stroke-miterlimit="10" stroke-linecap="round" stroke-linejoin="round"/>
<path d="M247.607 163.371C247.607 165.068 247.855 167.592 249.192 170.152C253.732 178.84 266.201 179.106 267.983 179.143C270.093 179.187 277.464 179.084 284.132 173.986C286.305 172.323 287.819 170.576 288.797 169.282" stroke="#383529" stroke-width="6.66667" stroke-miterlimit="10" stroke-linecap="round" stroke-linejoin="round"/>
<path d="M276.501 100.081H301.983" stroke="#383529" stroke-width="6.66667" stroke-miterlimit="10" stroke-linecap="round" stroke-linejoin="round"/>
<path d="M276.501 100.081C268.593 100.299 260.685 100.519 252.777 100.739" stroke="#383529" stroke-width="6.66667" stroke-miterlimit="10" stroke-linecap="round" stroke-linejoin="round"/>
<path d="M569.511 180.732C571.018 177.586 572.524 174.44 574.031 171.294" stroke="#383529" stroke-width="6.66667" stroke-miterlimit="10" stroke-linecap="round" stroke-linejoin="round"/>
<path d="M574.533 90.3294C573.838 90.9414 571.838 92.6988 570.287 92.0814C568.547 91.3894 568.429 88.1241 568.405 87.5121C568.167 80.9428 576.198 75.6548 578.29 74.3454C578.355 74.3774 578.418 74.4108 578.479 74.4454C578.819 77.6081 579.355 86.0841 574.533 90.3294Z" fill="#383529"/>
<path d="M232.933 109.531C230.293 115.034 227.652 120.535 225.01 126.038" stroke="#383529" stroke-width="6.66667" stroke-miterlimit="10" stroke-linecap="round" stroke-linejoin="round"/>
<path d="M745.714 106.659L738.825 122.207" stroke="#383529" stroke-width="6.66667" stroke-miterlimit="10" stroke-linecap="round" stroke-linejoin="round"/>
<path d="M656.618 15.1173C656.597 15.136 656.59 15.1626 656.586 15.192C656.582 15.224 656.585 15.252 656.588 15.2693C656.55 15.1826 656.513 15.0946 656.476 15.0066C656.581 15.0426 656.686 15.0786 656.792 15.1133C656.717 15.0933 656.649 15.092 656.618 15.1173Z" fill="white"/>
<path d="M656.618 15.1173C656.597 15.136 656.59 15.1626 656.586 15.192C656.582 15.224 656.585 15.252 656.588 15.2693C656.55 15.1826 656.513 15.0946 656.476 15.0066C656.581 15.0426 656.686 15.0786 656.792 15.1133C656.717 15.0933 656.649 15.092 656.618 15.1173Z" stroke="#383529" stroke-width="1.54" stroke-miterlimit="10"/>
<path d="M643.277 42.2096C643.205 42.1829 643.154 42.1469 643.153 42.1122C643.153 42.0882 643.171 42.0656 643.193 42.0416C643.218 42.0149 643.243 41.9962 643.261 41.9842C643.281 42.0656 643.302 42.1442 643.327 42.2242C643.31 42.2202 643.294 42.2149 643.277 42.2096Z" fill="white"/>
<path d="M643.277 42.2096C643.205 42.1829 643.154 42.1469 643.153 42.1122C643.153 42.0882 643.171 42.0656 643.193 42.0416C643.218 42.0149 643.243 41.9962 643.261 41.9842C643.281 42.0656 643.302 42.1442 643.327 42.2242C643.31 42.2202 643.294 42.2149 643.277 42.2096Z" stroke="#383529" stroke-width="1.54" stroke-miterlimit="10"/>
<path d="M656.587 15.1915C656.591 15.1635 656.597 15.1355 656.619 15.1168C656.649 15.0928 656.717 15.0941 656.792 15.1128C656.808 15.1181 656.824 15.1248 656.84 15.1315C656.755 15.1755 656.669 15.2208 656.587 15.2701C656.585 15.2515 656.583 15.2235 656.587 15.1915Z" fill="white"/>
<path d="M656.587 15.1915C656.591 15.1635 656.597 15.1355 656.619 15.1168C656.649 15.0928 656.717 15.0941 656.792 15.1128C656.808 15.1181 656.824 15.1248 656.84 15.1315C656.755 15.1755 656.669 15.2208 656.587 15.2701C656.585 15.2515 656.583 15.2235 656.587 15.1915Z" stroke="#383529" stroke-width="1.54" stroke-miterlimit="10"/>
<path d="M598.039 32.7044C598.039 32.7377 598.092 32.7617 598.168 32.7737C598.054 32.7631 597.94 32.7524 597.826 32.7404C597.935 32.6831 598.043 32.6257 598.152 32.5684C598.132 32.5817 598.104 32.6044 598.08 32.6324C598.059 32.6591 598.036 32.6817 598.039 32.7044Z" fill="white"/>
<path d="M598.039 32.7044C598.039 32.7377 598.092 32.7617 598.168 32.7737C598.054 32.7631 597.94 32.7524 597.826 32.7404C597.935 32.6831 598.043 32.6257 598.152 32.5684C598.132 32.5817 598.104 32.6044 598.08 32.6324C598.059 32.6591 598.036 32.6817 598.039 32.7044Z" stroke="#383529" stroke-width="1.54" stroke-miterlimit="10"/>
<path d="M621.049 36.4024C620.975 36.3824 620.921 36.3531 620.92 36.3184C620.92 36.2957 620.939 36.2704 620.961 36.2464C620.985 36.2184 621.013 36.1997 621.032 36.1864C621.052 36.2624 621.075 36.3371 621.101 36.4117C621.084 36.4077 621.067 36.4051 621.049 36.4024Z" fill="white"/>
<path d="M621.049 36.4024C620.975 36.3824 620.921 36.3531 620.92 36.3184C620.92 36.2957 620.939 36.2704 620.961 36.2464C620.985 36.2184 621.013 36.1997 621.032 36.1864C621.052 36.2624 621.075 36.3371 621.101 36.4117C621.084 36.4077 621.067 36.4051 621.049 36.4024Z" stroke="#383529" stroke-width="1.54" stroke-miterlimit="10"/>
<path d="M634.665 9.22401C634.644 9.24268 634.637 9.26934 634.633 9.29734C634.627 9.32801 634.631 9.35601 634.635 9.37201C634.595 9.29201 634.555 9.20934 634.516 9.12934C634.625 9.15468 634.735 9.18001 634.844 9.20534C634.768 9.19201 634.697 9.19601 634.665 9.22401Z" fill="white"/>
<path d="M634.665 9.22401C634.644 9.24268 634.637 9.26934 634.633 9.29734C634.627 9.32801 634.631 9.35601 634.635 9.37201C634.595 9.29201 634.555 9.20934 634.516 9.12934C634.625 9.15468 634.735 9.18001 634.844 9.20534C634.768 9.19201 634.697 9.19601 634.665 9.22401Z" stroke="#383529" stroke-width="1.54" stroke-miterlimit="10"/>
<path d="M598.169 32.7735C598.091 32.7615 598.038 32.7388 598.039 32.7041C598.037 32.6828 598.058 32.6588 598.081 32.6335C598.105 32.6041 598.133 32.5815 598.153 32.5695C598.173 32.6388 598.195 32.7095 598.222 32.7775L598.169 32.7735Z" fill="white"/>
<path d="M598.169 32.7735C598.091 32.7615 598.038 32.7388 598.039 32.7041C598.037 32.6828 598.058 32.6588 598.081 32.6335C598.105 32.6041 598.133 32.5815 598.153 32.5695C598.173 32.6388 598.195 32.7095 598.222 32.7775L598.169 32.7735Z" stroke="#383529" stroke-width="1.54" stroke-miterlimit="10"/>
<path d="M634.633 9.29692C634.637 9.26892 634.645 9.24226 634.665 9.22359C634.698 9.19692 634.767 9.19159 634.845 9.20626C634.861 9.20892 634.878 9.21292 634.894 9.21692C634.805 9.26759 634.719 9.31959 634.634 9.37292C634.631 9.35559 634.626 9.32759 634.633 9.29692Z" fill="white"/>
<path d="M634.633 9.29692C634.637 9.26892 634.645 9.24226 634.665 9.22359C634.698 9.19692 634.767 9.19159 634.845 9.20626C634.861 9.20892 634.878 9.21292 634.894 9.21692C634.805 9.26759 634.719 9.31959 634.634 9.37292C634.631 9.35559 634.626 9.32759 634.633 9.29692Z" stroke="#383529" stroke-width="1.54" stroke-miterlimit="10"/>
<path d="M620.92 36.3177C620.922 36.3524 620.975 36.3831 621.05 36.4017C620.936 36.3804 620.824 36.3577 620.712 36.3364C620.819 36.2871 620.924 36.2351 621.031 36.1857C621.014 36.1991 620.984 36.2191 620.962 36.2457C620.939 36.2711 620.92 36.2951 620.92 36.3177Z" fill="white"/>
<path d="M620.92 36.3177C620.922 36.3524 620.975 36.3831 621.05 36.4017C620.936 36.3804 620.824 36.3577 620.712 36.3364C620.819 36.2871 620.924 36.2351 621.031 36.1857C621.014 36.1991 620.984 36.2191 620.962 36.2457C620.939 36.2711 620.92 36.2951 620.92 36.3177Z" stroke="#383529" stroke-width="1.54" stroke-miterlimit="10"/>
<path d="M643.152 42.112C643.154 42.1467 643.204 42.184 643.276 42.2094C643.168 42.1787 643.06 42.1454 642.952 42.1134C643.055 42.0707 643.158 42.028 643.262 41.984C643.243 41.996 643.218 42.016 643.192 42.0414C643.171 42.0654 643.152 42.088 643.152 42.112Z" fill="white"/>
<path d="M643.152 42.112C643.154 42.1467 643.204 42.184 643.276 42.2094C643.168 42.1787 643.06 42.1454 642.952 42.1134C643.055 42.0707 643.158 42.028 643.262 41.984C643.243 41.996 643.218 42.016 643.192 42.0414C643.171 42.0654 643.152 42.088 643.152 42.112Z" stroke="#383529" stroke-width="1.54" stroke-miterlimit="10"/>
<path d="M598.221 32.7773L598.168 32.7733C598.055 32.7627 597.94 32.752 597.825 32.7413C597.935 32.684 598.044 32.6267 598.153 32.5693C601.112 30.5173 612.849 22.616 622.691 24.352C623.615 24.4973 628.492 25.4253 628.777 27.4627C629.037 29.26 625.524 30.8893 624.293 31.4693C615.817 35.3493 603 33.348 598.221 32.7773ZM621.101 36.412C621.084 36.408 621.067 36.4053 621.049 36.4027C620.937 36.38 620.825 36.3587 620.712 36.336C620.819 36.2867 620.925 36.236 621.032 36.1867C623.928 34.3173 635.411 27.1573 644.971 29.8293C645.871 30.0627 650.603 31.4547 650.868 33.596C651.111 35.4893 647.695 36.8787 646.5 37.376C638.26 40.6827 625.779 37.4507 621.101 36.412V36.412ZM643.327 42.224C643.311 42.22 643.293 42.2147 643.277 42.2093C643.168 42.1787 643.06 42.1453 642.952 42.1133C643.055 42.0707 643.159 42.0267 643.261 41.984C646.081 40.292 657.267 33.8413 666.481 37.416C667.348 37.7333 671.905 39.572 672.141 41.8147C672.36 43.8013 669.057 44.9627 667.9 45.3787C659.936 48.1347 647.872 43.7173 643.327 42.224ZM625.107 19.6027C615.428 17.5373 612.633 8.10801 612.037 5.63735L611.916 5.41468L612.251 5.45734C612.268 5.45868 612.285 5.46134 612.301 5.46534C617.183 5.75468 629.824 7.79735 632.935 14.4253C633.389 15.36 634.689 18.084 632.855 19.408C630.8 20.876 626.013 19.7787 625.107 19.6027ZM647.337 25.0973C637.936 22.0987 635.215 12.0053 634.635 9.37201C634.595 9.29201 634.555 9.20935 634.516 9.12935C634.625 9.15468 634.735 9.18001 634.844 9.20535C634.86 9.20801 634.877 9.21201 634.893 9.21735C639.672 9.97468 651.981 13.2347 654.965 20.396C655.401 21.408 656.648 24.3533 654.861 25.5707C652.863 26.92 648.22 25.3613 647.337 25.0973ZM668.801 32.6987C659.741 28.7987 657.139 18.0587 656.587 15.2693C656.551 15.1827 656.513 15.0947 656.475 15.0067C656.581 15.0427 656.687 15.0787 656.792 15.1133C656.808 15.1187 656.824 15.124 656.84 15.132C661.484 16.34 673.381 20.772 676.195 28.4493C676.608 29.536 677.787 32.696 676.055 33.8133C674.12 35.052 669.651 33.0467 668.801 32.6987V32.6987ZM572.907 35.1067C600.143 35.3107 626.784 40.2293 651.764 49.3427C670.976 56.3533 677.847 44.4413 678.976 42.9627C679.475 42.3107 680.755 40.6 681.337 38.1107C683.572 28.5693 674.092 16.8747 668.808 14.8893C644.231 5.65468 618.015 0.568013 591.212 0.140013C590.073 0.122679 588.816 0.749345 588.407 1.53068C587.997 2.31201 588.591 2.95068 589.732 2.96801C594.549 3.04134 599.345 3.26534 604.117 3.63601C605.431 7.49201 608.485 14.0667 614.693 18.792C610.428 18.148 606.135 17.624 601.82 17.2173C590.244 16.1293 578.509 15.8987 566.703 16.572C565.548 16.6387 564.273 17.336 563.857 18.12C563.443 18.9053 564.045 19.476 565.203 19.4107C577.024 18.7293 588.773 18.9507 600.364 20.032C604.759 20.4427 609.129 20.976 613.473 21.6333C610.265 22.3613 606.872 23.4947 603.303 25.032C597.28 27.6267 592.053 30.8387 589.004 32.8547C584.155 32.512 579.28 32.3187 574.387 32.2787C573.231 32.2693 571.96 32.9053 571.551 33.6867C571.14 34.468 571.749 35.0973 572.907 35.1067" fill="#383529"/>
<path d="M677.711 38.9661C694.11 42.3048 707.243 46.9101 716.58 50.7355C735.156 58.3448 747.442 63.5448 758.303 76.1941C768.178 87.6928 771.77 99.4021 772.836 103.271C778.327 123.203 773.256 139.977 770.907 146.466" stroke="#383529" stroke-width="6.66667" stroke-miterlimit="10" stroke-linecap="round" stroke-linejoin="round"/>
<path d="M593.262 205.032C592.352 204.403 590.967 203.56 589.151 202.875C585.546 201.515 582.467 201.623 579.798 201.745C577.21 201.862 574.756 201.996 571.884 203.286C570.878 203.738 569.207 204.506 567.568 206.164C566.648 207.094 565.16 208.598 564.588 211.096C563.951 213.879 564.844 216.159 565.204 216.954C566.286 219.344 568.07 220.56 569.418 221.476C571.567 222.939 573.531 223.452 575.071 223.84C575.987 224.071 579.316 224.85 583.704 224.354C587.734 223.899 590.892 222.57 592.954 221.476" stroke="#383529" stroke-width="4" stroke-miterlimit="10" stroke-linecap="round" stroke-linejoin="round"/>
<path d="M447.237 201.277C447.254 205.217 447.271 209.157 447.29 213.096C447.306 216.831 447.322 220.565 447.339 224.3" stroke="#383529" stroke-width="4" stroke-miterlimit="10" stroke-linecap="round" stroke-linejoin="round"/>
<path d="M472.793 201.38C472.811 205.287 472.828 209.191 472.845 213.096C472.863 216.864 472.879 220.634 472.896 224.403" stroke="#383529" stroke-width="4" stroke-miterlimit="10" stroke-linecap="round" stroke-linejoin="round"/>
<path d="M447.29 213.096H472.846" stroke="#383529" stroke-width="4" stroke-miterlimit="10" stroke-linecap="round" stroke-linejoin="round"/>
<path d="M607.451 201.4C607.469 205.338 607.486 209.278 607.505 213.218C607.521 216.953 607.537 220.686 607.554 224.421" stroke="#383529" stroke-width="4" stroke-miterlimit="10" stroke-linecap="round" stroke-linejoin="round"/>
<path d="M633.007 201.503L633.06 213.217C633.076 216.987 633.092 220.755 633.11 224.524" stroke="#383529" stroke-width="4" stroke-miterlimit="10" stroke-linecap="round" stroke-linejoin="round"/>
<path d="M607.504 213.219L633.06 213.217" stroke="#383529" stroke-width="4" stroke-miterlimit="10" stroke-linecap="round" stroke-linejoin="round"/>
<path d="M513.047 201.34V216.249C513.051 217.135 512.926 218.585 512.067 219.977C510.532 222.457 507.683 223.1 505.004 223.703C501.544 224.483 498.77 224.083 497.746 223.9C495.57 223.513 492.932 223.044 490.879 220.957C489.166 219.216 488.688 217.157 488.328 215.66C487.912 213.931 487.979 212.853 488.132 208.205C488.178 206.844 488.25 204.592 488.328 201.732" stroke="#383529" stroke-width="4" stroke-miterlimit="10" stroke-linecap="round" stroke-linejoin="round"/>
<path d="M528.348 223.703V214.707V202.123C536.532 202.167 539.237 202.188 541.973 202.05C542.636 202.015 546.823 202.052 547.809 202.331C550.068 202.968 551.421 204.468 551.959 205.143C552.269 205.491 552.841 206.227 553.084 207.323C553.433 208.9 552.868 210.168 552.675 210.56C551.925 212.07 550.804 212.886 550.271 213.231C549.516 213.718 548.504 214.174 545.535 214.503C544.015 214.672 541.939 214.811 539.443 214.707" stroke="#383529" stroke-width="4" stroke-miterlimit="10" stroke-linecap="round" stroke-linejoin="round"/>
<path d="M433.098 204.895C432.189 204.265 430.804 203.421 428.988 202.736C425.382 201.376 422.304 201.484 419.634 201.605C417.046 201.723 414.593 201.859 411.721 203.147C410.714 203.599 409.044 204.368 407.405 206.025C406.485 206.955 404.997 208.459 404.425 210.959C403.788 213.74 404.681 216.02 405.041 216.816C406.122 219.207 407.906 220.421 409.254 221.339C411.404 222.8 413.368 223.313 414.908 223.701C415.824 223.932 419.153 224.711 423.541 224.216C427.57 223.761 430.729 222.431 432.79 221.339" stroke="#383529" stroke-width="4" stroke-miterlimit="10" stroke-linecap="round" stroke-linejoin="round"/>
<path d="M528.348 214.707H539.443" stroke="#383529" stroke-width="4" stroke-miterlimit="10" stroke-linecap="round" stroke-linejoin="round"/>
<path d="M552.876 224.113L539.442 214.707" stroke="#383529" stroke-width="4" stroke-miterlimit="10" stroke-linecap="round" stroke-linejoin="round"/>
<path d="M150.011 56.4519H164.299H178.166" stroke="#383529" stroke-width="4" stroke-miterlimit="10" stroke-linecap="round" stroke-linejoin="round"/>
<path d="M164.275 79.2513V56.4513" stroke="#383529" stroke-width="4" stroke-miterlimit="10" stroke-linecap="round" stroke-linejoin="round"/>
<path d="M190.303 56.2331C190.321 60.1731 190.338 64.1131 190.357 68.0517C190.373 71.7864 190.389 75.5211 190.406 79.2557" stroke="#383529" stroke-width="4" stroke-miterlimit="10" stroke-linecap="round" stroke-linejoin="round"/>
<path d="M215.86 56.336C215.877 60.2426 215.895 64.1466 215.912 68.052C215.929 71.82 215.945 75.5893 215.963 79.3586" stroke="#383529" stroke-width="4" stroke-miterlimit="10" stroke-linecap="round" stroke-linejoin="round"/>
<path d="M190.356 68.0521H215.912" stroke="#383529" stroke-width="4" stroke-miterlimit="10" stroke-linecap="round" stroke-linejoin="round"/>
<path d="M254.319 56.5182H231.34V78.7462H254.77" stroke="#383529" stroke-width="4" stroke-miterlimit="10" stroke-linecap="round" stroke-linejoin="round"/>
<path d="M253.268 67.4818H231.49" stroke="#383529" stroke-width="4" stroke-miterlimit="10" stroke-linecap="round" stroke-linejoin="round"/>
</svg>
