<svg width="111" height="54" viewBox="0 0 111 54" fill="none" xmlns="http://www.w3.org/2000/svg">
<path d="M63.4061 13.9278C63.3495 13.8832 63.3079 13.9652 63.3615 13.9845C65.5525 16.0085 66.2542 19.1078 67.8545 21.5613C68.6375 22.7516 69.2167 24.1714 69.8346 25.484C63.9514 22.4098 61.2399 18.1633 61.1383 11.0403C66.8535 11.6192 69.1535 18.0192 70.1299 23.216C69.5782 22.4602 69.0265 21.7044 68.585 21.0126C66.9787 18.5084 65.7176 15.8863 63.4061 13.9278Z" fill="#A3BF66"/>
<path d="M71.9265 28.1871C71.9029 28.4209 71.6022 28.4823 71.4516 28.2948C71.3637 28.2026 71.2981 28.0821 71.2354 27.9869C70.6837 27.2311 70.2495 26.3843 69.8346 25.484C69.2137 24.1461 68.6374 22.7516 67.8544 21.5613C66.2541 19.1077 65.5271 16.0115 63.3615 13.9844C63.3301 13.9368 63.3748 13.8802 63.4061 13.9278C65.7206 15.9115 66.9533 18.5114 68.5626 21.0408C69.0041 21.7327 69.5811 22.4855 70.1076 23.2443C70.6936 24.073 71.2604 24.9553 71.5994 25.8647C71.895 26.6252 72.0388 27.4038 71.9265 28.1871Z" fill="#7A913A"/>
<path d="M28.9934 14.0357C29.8616 14.9453 30.275 16.1442 29.7376 17.2398C29.7582 17.2604 29.7582 17.2604 29.7789 17.2811C30.151 17.3018 30.5437 17.2398 30.8951 17.0537C30.7504 16.0202 30.6264 14.9866 30.3163 13.9944C30.2957 13.9324 30.3784 13.9117 30.399 13.9531C30.9365 14.8212 31.2052 15.7308 31.4326 16.7023C31.5153 16.6403 31.598 16.5783 31.6806 16.4956C32.0527 16.1442 32.2801 15.7308 32.4041 15.2967C32.4455 15.214 32.4661 15.152 32.4868 15.0693C32.6729 14.5525 32.5902 14.0357 32.3835 13.5396C32.0734 12.2994 31.1432 11.1831 29.9443 10.873C29.4688 10.749 28.9521 10.811 28.518 10.9764C27.8565 11.0384 27.2363 11.3278 26.8023 11.9273C26.6989 12.0513 26.6369 12.1753 26.5542 12.32C27.5257 12.6301 28.4146 13.2709 28.9934 14.0357Z" fill="#B82025"/>
<path d="M55.2249 23.5652C55.4109 23.1517 55.5143 22.6763 55.5143 22.2009C55.5763 21.9115 55.5763 21.6221 55.4936 21.312C55.4523 21.1053 55.3903 20.9192 55.3076 20.7332C55.0595 19.9684 54.6254 19.2862 54.026 18.8728C52.5583 17.8392 50.9873 19.1415 50.2225 20.3818C49.2509 21.9528 49.9951 23.7305 51.3801 24.392C52.2069 24.4747 53.0544 24.5367 53.8813 24.6194C54.4394 24.516 54.9355 24.1853 55.2249 23.5652ZM52.3103 22.1388C52.3103 22.1595 52.3103 22.1595 52.3103 22.1388C52.1656 21.9941 52.1862 21.9941 52.3103 22.1388Z" fill="#B82025"/>
<path d="M41.4787 33.818C41.8714 34.1074 42.2849 34.3761 42.7396 34.6242C42.781 34.5208 42.8016 34.4175 42.8223 34.3141C43.0083 33.1152 42.2849 31.8956 41.1893 31.3995C40.3004 30.9861 39.2669 31.0894 38.44 31.6062C36.7243 32.6604 36.2695 34.9549 38.0059 36.1952C39.1635 37.022 41.6027 37.4768 42.5122 36.0712C42.7189 35.7611 42.781 35.4097 42.781 35.0583C42.3262 34.6862 41.8921 34.2935 41.4373 33.9007C41.396 33.8387 41.4373 33.7973 41.4787 33.818ZM39.701 35.0169C39.6803 35.0169 39.6596 34.9963 39.6596 34.9963C39.6183 34.9756 39.5769 34.9136 39.5356 34.8722C39.5976 34.9342 39.6596 34.9756 39.701 35.0169Z" fill="#B82025"/>
<path d="M24.5489 38.0556C26.0166 38.3863 27.6289 38.0556 28.1664 36.712C28.4558 35.9885 28.1044 35.1823 27.6703 34.5208C27.3602 33.694 26.5747 33.0945 25.6445 32.9292C24.3629 32.6811 23.1019 33.1152 22.2958 34.1488C21.3862 35.3477 21.7583 36.4433 22.6885 37.1874C23.2053 37.2908 23.7221 37.5388 24.1562 37.8696C24.3009 37.9316 24.4249 37.9936 24.5489 38.0556Z" fill="#B82025"/>
<path d="M14.2549 23.7925C14.2342 23.7718 14.2342 23.7305 14.2135 23.7098C13.8208 23.0897 13.2213 22.6556 12.5805 22.4282C12.3118 23.0897 11.795 23.6478 11.1335 23.9372C10.9888 23.9992 10.8235 24.0612 10.6581 24.1026C9.91393 24.392 9.10776 24.516 8.44628 24.3713C8.15689 25.5289 8.81836 26.8312 9.76924 27.4927C11.0302 28.3402 12.8492 28.2781 13.9862 27.2446C14.4409 26.8312 14.6476 26.273 14.689 25.6942C14.5443 25.4462 14.4409 25.1982 14.3789 24.9294C14.2549 24.5367 14.1929 24.1646 14.2549 23.7925Z" fill="#B82025"/>
<path d="M69.6327 33.6526C69.6121 33.6733 69.5707 33.632 69.5914 33.6113C70.1082 33.1979 70.4389 32.4124 70.687 31.6889C70.4182 31.5235 70.1288 31.4201 69.8188 31.3788C69.426 31.3168 69.0539 31.3581 68.6819 31.4615C68.4338 31.5855 68.2064 31.7095 67.979 31.8542C67.7517 31.9989 67.5243 32.1436 67.2969 32.2883C67.0695 32.5157 66.8628 32.7844 66.6768 33.0738C67.5243 33.756 68.0411 34.8309 67.6896 35.9885C67.6483 36.1125 67.607 36.2365 67.5449 36.3399C67.5243 36.5259 67.5036 36.6913 67.4623 36.8567C67.917 37.084 68.4131 37.1874 68.9299 37.2287C70.873 37.3941 72.9401 36.4019 72.5887 34.2108C72.4647 33.3839 71.9066 32.5364 71.1831 32.0196C70.7903 32.6398 70.2735 33.1979 69.6327 33.6526Z" fill="#B82025"/>
<path d="M54.5429 39.6886C54.7496 38.655 55.101 36.9187 55.9692 35.8851C51.2562 34.9342 45.861 46.1587 45.0135 50.4583C44.7654 51.7399 51.773 51.0784 53.6334 49.5281C54.1088 49.094 54.5222 48.6805 54.8943 48.2464C54.0881 45.5799 54.0055 42.7479 54.5429 39.6886ZM46.7706 49.7968C46.7499 49.8175 46.7292 49.7761 46.7499 49.7554C48.5483 48.4325 50.326 46.7581 51.3595 44.753C52.3518 42.8306 53.6334 41.0736 54.5842 39.1511C54.6049 39.1098 54.6463 39.1511 54.6463 39.1718C53.8401 41.549 52.4965 43.9882 51.0495 46.014C49.8506 47.6676 48.4449 48.6599 46.7706 49.7968Z" fill="#98B252"/>
<path d="M17.6034 20.9192L17.314 20.9192C17.314 20.8985 17.314 20.8985 17.314 20.8779C17.1693 20.8572 17.0246 20.8365 16.8799 20.8159C16.8179 20.8572 16.7146 20.8572 16.6525 20.7745C16.2805 20.7125 15.929 20.6505 15.557 20.5471C14.5441 20.5058 13.5312 20.4851 12.5183 20.4645C12.5803 20.5885 12.6217 20.7125 12.663 20.8572C16.0531 21.0432 19.4225 21.498 22.8332 21.5807C22.8952 21.5807 22.9572 21.5807 23.0399 21.5807C22.6472 21.8908 22.2751 22.2008 21.8823 22.4902C21.655 22.6556 20.9315 23.193 20.332 23.4204C20.4354 23.5858 20.4974 23.7718 20.5594 23.9579C20.8488 23.9165 21.1588 23.8132 21.3862 23.6891C22.4405 23.131 23.288 22.2835 24.3009 21.6634C28.2491 22.0148 32.0732 23.3791 35.9801 24.1026C44.7446 25.7563 53.7366 26.1077 62.5838 27.3273C65.1264 27.6787 67.6896 28.0301 70.2528 28.3608C68.9712 28.6709 67.7309 29.1256 66.4907 29.6218C62.5632 31.1514 58.739 32.8878 54.7495 34.1694C54.8322 34.2108 54.9355 34.2728 55.0182 34.3141C55.1629 34.4175 55.1422 34.6449 54.9769 34.7069C54.3567 34.8722 53.7159 34.8516 53.0751 34.6862C50.7599 35.3477 48.4034 35.8851 46.0469 36.3399C45.5921 35.9678 44.91 35.6991 44.5172 35.4924C43.9591 35.1823 43.3803 34.8929 42.8015 34.5828C42.3674 34.3348 41.9334 34.0867 41.5406 33.7767C41.4993 33.756 41.4579 33.818 41.4993 33.8387C41.954 34.2314 42.3881 34.6242 42.8429 34.9963C43.1943 35.2857 43.5457 35.5751 43.9385 35.8438C44.2692 36.0712 44.5999 36.2985 44.9513 36.5259C42.8015 36.9187 40.6517 37.2287 38.4813 37.5388C37.8405 37.4148 37.2203 37.1874 36.6209 36.898C35.8974 36.5673 35.1532 35.9058 34.347 35.8645C34.285 35.8645 34.223 35.8438 34.1403 35.8645C34.1197 35.8645 34.1197 35.8851 34.1197 35.8851C34.1403 35.9058 34.1403 35.9265 34.161 35.9471C34.6364 36.836 35.8974 37.3528 36.7862 37.7455C32.8587 38.1796 28.9725 38.2003 25.045 38.283C25.2104 38.407 25.3758 38.531 25.5205 38.6964C26.8021 38.7791 28.0837 38.8618 29.3653 38.9238C28.8485 39.2132 28.3524 39.4819 27.7323 39.6886C27.2362 39.8333 26.6987 39.9573 26.1819 40.04C26.1819 40.164 26.1819 40.2881 26.1406 40.4328C27.7736 40.4741 29.572 40.2054 30.5849 38.9858C32.6107 39.0685 34.6364 39.0685 36.7036 38.8824C37.3444 38.8204 37.9852 38.7584 38.6466 38.6964C38.1919 39.6266 37.6544 40.4535 36.9723 41.1356C37.1376 41.363 37.2823 41.5904 37.3857 41.8591C38.0265 41.2803 38.6053 40.4948 39.0601 39.73C39.1634 39.3992 39.3288 39.0892 39.5355 38.8411C39.5768 38.7584 39.6182 38.6757 39.6595 38.593C39.7215 38.593 39.7629 38.5724 39.8249 38.5724C40.321 38.2003 40.8998 38.2003 41.4372 38.3863C42.7809 38.2416 44.1245 38.0556 45.4475 37.8489C45.0754 38.2623 44.7033 38.6551 44.2899 39.0478C43.9178 39.3992 43.4837 39.7093 43.0703 39.9987C43.215 40.2054 43.339 40.4535 43.4217 40.7015C44.724 40.0607 45.8402 38.7584 46.667 37.6628C48.0934 37.4355 49.5197 37.1667 50.946 36.836C55.0389 35.9058 58.9457 34.4588 62.8319 32.8878C62.9766 32.7431 63.142 32.6191 63.328 32.5157C63.7001 32.3297 64.0928 32.2263 64.4856 32.2056C64.5269 32.185 64.5476 32.185 64.5889 32.1643C66.0359 31.5649 67.5242 30.9034 69.0332 30.3659C68.6198 30.6553 68.1857 30.9241 67.7516 31.1928C67.1108 31.5649 66.532 32.0196 65.9532 32.4744C66.1599 32.5571 66.3873 32.6811 66.5734 32.8051C66.8628 32.5984 67.1522 32.3917 67.4416 32.2056C67.6689 32.0609 67.8963 31.9163 68.1237 31.7716C68.3511 31.6475 68.5785 31.5028 68.8265 31.3788C69.7361 30.9034 70.7696 30.3866 71.4518 29.6424C71.3484 30.0765 71.2244 30.49 71.059 30.9034C70.9763 31.1101 70.8936 31.3582 70.811 31.6062C70.5629 32.309 70.2322 33.1152 69.7154 33.5286C69.6947 33.5493 69.7154 33.5906 69.7567 33.57C70.3975 33.1359 70.9143 32.5777 71.3277 31.9369C71.8238 31.1928 72.1546 30.3453 72.3199 29.4357C72.7747 29.353 73.2501 29.3117 73.7256 29.2704C77.4877 30.2832 81.2912 30.8827 85.1981 31.5235C90.3245 32.371 95.2649 33.7973 100.164 35.513C103.017 36.5052 105.911 37.4148 108.743 38.4483C109.135 37.3114 109.693 36.2159 110.396 35.2237C108.515 34.6242 106.593 34.1281 104.65 33.7147C104.588 33.694 104.526 33.6733 104.464 33.6733C100.267 32.5984 96.0918 31.3995 91.8749 30.4693C82.7175 28.4642 73.3122 26.9759 64.0308 25.6529C60.7028 25.1775 57.354 24.8467 54.0053 24.5367C53.1785 24.454 52.3309 24.392 51.5041 24.3093C50.8426 24.2473 50.2018 24.1852 49.5403 24.1439C49.499 24.1026 49.4577 24.0612 49.4163 24.0199C48.9202 23.5238 48.5274 22.9863 48.1554 22.4075C47.7626 21.7667 47.5352 21.0846 47.3492 20.4024C47.1218 20.4024 46.9151 20.3818 46.7084 20.3197C46.7704 21.0639 47.0598 21.7874 47.3699 22.4695C47.5766 22.9036 47.9073 23.5445 48.3207 24.0612C46.6877 23.9165 45.0547 23.7718 43.4217 23.6065C43.3183 23.5031 43.1943 23.3998 43.0083 23.2344C42.4915 22.821 41.954 22.4489 41.4166 22.0768C40.7138 21.6013 39.9283 21.0639 39.1014 20.7125C39.0187 20.8985 38.9154 21.0639 38.7913 21.1879C39.4528 21.6427 40.135 22.0768 40.7758 22.5316C41.1685 22.8003 41.5406 23.131 41.9127 23.4411C40.0936 23.2344 38.2539 23.0277 36.4348 22.7589C35.8767 22.6763 35.3186 22.5936 34.7811 22.4902C33.8923 21.9734 33.1688 21.25 32.5073 20.4438C32.652 20.113 32.5073 19.9477 32.3419 19.5962C32.0939 18.9761 31.9492 18.294 31.8045 17.6532C31.7425 17.3224 31.6598 17.0124 31.5978 16.7023C31.3704 15.7514 31.081 14.8212 30.5642 13.953C30.5436 13.9117 30.4609 13.9324 30.4815 13.9944C30.7916 14.9659 30.9156 16.0202 31.0603 17.0537C31.1637 17.7359 31.267 18.418 31.4324 19.0588C31.1844 18.7487 30.957 18.4387 30.7089 18.1286C30.4609 17.8185 30.2128 17.5498 29.9441 17.2604C29.9234 17.2398 29.9234 17.2397 29.9027 17.2191C29.7994 17.4464 29.6547 17.6532 29.4687 17.8599C30.0474 18.5834 30.5642 19.3689 30.9776 19.9063C31.5564 20.6711 32.1559 21.436 32.838 22.1181C30.1921 21.6014 27.5462 21.0432 24.859 20.8985C24.7556 20.7538 24.5489 20.6712 24.3422 20.7745C24.3009 20.7952 24.2595 20.8365 24.1975 20.8572C21.965 20.7745 19.7119 20.6712 17.438 20.5885C17.438 20.6712 17.438 20.7745 17.438 20.8572C17.3967 20.8986 17.5001 20.9192 17.6034 20.9192ZM99.9986 33.818C99.9159 33.8387 99.8332 33.8594 99.7506 33.9007C99.1924 33.7147 98.6136 33.5286 98.0555 33.3426C98.6963 33.4873 99.3578 33.6526 99.9986 33.818Z" fill="#513131"/>
<path d="M16.6112 20.7745C16.4252 20.4644 16.2805 20.1337 16.1771 19.803L15.7637 19.3895C13.4072 17.5498 13.2832 14.1597 13.6759 11.3071C10.1618 6.42872 4.74598 2.29451 0.38437 7.61259e-06C-1.45536 3.70014 3.77444 12.9195 6.23431 15.3793C8.5288 17.4258 12.1049 19.6789 15.557 20.5678C15.9084 20.6712 16.2805 20.7332 16.6112 20.7745C16.6319 20.7952 16.6319 20.7952 16.6112 20.7745ZM15.3296 19.6376C12.2289 18.0873 9.52102 14.8005 7.39189 12.134C5.07672 9.24 3.21632 6.22201 1.52128 2.9353C1.52128 2.91463 1.54195 2.91463 1.54195 2.91463C3.36102 6.28403 5.63484 9.59142 8.11538 12.5061C10.3479 15.1106 13.0971 17.033 15.433 19.4722C15.5363 19.5549 15.433 19.6789 15.3296 19.6376Z" fill="#A3BF66"/>
<path d="M16.9418 20.6918C16.9418 20.7538 16.9005 20.7952 16.8591 20.8159C17.0038 20.8365 17.1485 20.8572 17.2932 20.8779C17.2932 20.7952 17.2932 20.6918 17.2932 20.6091C17.2932 20.4231 17.2932 20.2371 17.2726 20.0304C17.1692 20.0924 17.0452 20.1544 16.9418 20.1957C16.9418 20.3818 16.9418 20.5265 16.9418 20.6918Z" fill="#A3BF66"/>
<path d="M17.6035 20.9192C17.5002 20.9192 17.3968 20.8985 17.2935 20.8779C17.2935 20.8985 17.2935 20.8985 17.2935 20.9192L17.6035 20.9192Z" fill="#A3BF66"/>
<path d="M13.9239 9.83948C13.8412 10.2942 13.7585 10.7904 13.6758 11.2865C13.2831 14.1598 13.4071 17.5498 15.7636 19.3689L16.177 19.7823C15.1642 16.7436 17.0659 12.8988 18.1201 10.1495C19.195 7.3176 20.2493 4.09291 22.7505 2.17049C22.7918 2.14982 22.8125 2.19114 22.7918 2.23249C20.7454 4.77504 19.8565 7.99975 18.9056 11.0797C17.9548 14.1598 16.9625 16.971 16.9419 20.1957C17.0452 20.1544 17.1486 20.0924 17.2726 20.0304C18.5129 19.3069 20.2079 17.3431 20.9934 16.2889C22.8332 14.1391 23.4533 10.749 23.7634 7.97908C24.0734 6.44941 24.9416 1.71573 24.3835 0.289419C23.7634 -1.21957 14.544 7.37961 13.9239 9.83948Z" fill="#98B252"/>
<path d="M55.9689 35.9058C55.1007 36.9187 54.7493 38.6551 54.5426 39.7093C54.0052 42.748 54.1085 45.5799 54.8734 48.2672C55.4315 50.1896 56.341 52.05 57.6226 53.8484C58.2428 51.6986 59.7724 50.4583 60.3926 48.6186C61.3228 47.0889 61.0127 44.9184 61.0127 43.0787C60.7026 40.0194 59.483 37.2494 57.3332 35.0996C56.7751 35.1823 56.3203 35.4717 55.9689 35.9058ZM56.3203 36.0712C57.6433 37.3941 57.4159 40.5155 57.5193 42.2312C57.7053 45.4145 57.912 48.7013 57.4159 51.8639C57.4159 51.9053 57.3332 51.9053 57.3126 51.8639C56.8991 48.8873 57.2505 45.7866 57.0025 42.7893C56.8164 40.5361 56.341 38.3657 56.0723 36.1745C56.0723 36.0298 56.2583 35.9885 56.3203 36.0712Z" fill="#A3BF66"/>
<path d="M57.3127 35.0789L57.3334 35.0996C57.4161 35.0789 57.5195 35.0789 57.6228 35.0789L57.3127 35.0789Z" fill="#A3BF66"/>
<path d="M42.595 29.2497C42.5537 29.2083 42.6157 29.167 42.6364 29.2083C44.4761 30.7793 47.0393 31.048 49.1685 32.1023C50.202 32.6191 51.4009 32.9498 52.5172 33.3219C49.4785 28.8776 45.7991 27.0999 40.0525 27.6993C41.0654 32.247 46.4399 33.4873 50.7188 33.7767C50.0573 33.4046 49.3959 33.0325 48.7964 32.7431C46.6259 31.6889 44.3934 30.924 42.595 29.2497Z" fill="#A3BF66"/>
<path d="M35.5255 40.1434C35.1327 39.8746 34.7193 39.6679 34.2852 39.5439C32.9209 39.1305 31.0605 39.6679 30.4817 41.0529C29.6755 42.9546 31.722 44.8357 33.6237 45.4559C33.9545 45.5799 34.3265 45.6626 34.6573 45.6832C35.0294 45.7246 35.3601 45.6625 35.6908 45.5385C37.0345 45.1251 37.7786 43.7815 37.4479 42.3345C37.4065 42.1898 37.3652 42.0451 37.3032 41.9004C37.1998 41.6317 37.0551 41.4043 36.8898 41.1769C36.5384 40.7221 36.0629 40.3707 35.5255 40.1434Z" fill="#E12526"/>
<path d="M25.4585 38.7377C25.3138 38.593 25.1485 38.4483 24.9831 38.3243C24.8798 38.2623 24.7764 38.1796 24.673 38.1176C24.6317 38.0969 24.5904 38.0763 24.549 38.0556C24.425 37.9936 24.301 37.9316 24.1563 37.8695C23.7222 37.5388 23.2054 37.2908 22.6886 37.1874C22.1718 37.0841 21.6344 37.1047 21.1589 37.3114C19.2572 38.1176 19.5053 41.4043 21.283 42.2105C21.593 42.3552 21.9238 42.4379 22.2752 42.4792C22.4612 42.5412 22.6473 42.5826 22.8333 42.6032C23.5775 42.6859 24.239 42.4585 24.7351 41.9831C25.1485 41.7557 25.5206 41.4663 25.7893 41.0942C25.9547 40.8669 26.058 40.6602 26.0994 40.4328C26.12 40.3087 26.1407 40.164 26.1407 40.04C26.0994 39.5646 25.8513 39.1098 25.4585 38.7377Z" fill="#E12526"/>
<path d="M34.0783 35.9058C34.1403 35.9058 34.2024 35.9058 34.285 35.9058C35.2359 35.451 35.8974 34.5622 35.5253 33.4459C35.5046 33.3632 35.4633 33.2806 35.422 33.2185C35.3393 32.371 34.8018 31.5649 34.1403 31.0067C33.0034 30.0765 31.5151 29.8492 30.1715 30.4693C28.4764 31.2548 27.2155 33.8387 28.8485 35.265C30.0888 36.3606 32.1352 36.5259 33.6856 36.1539C33.8303 36.1125 33.9956 36.0712 34.1403 36.0091C34.1197 35.9885 34.1197 35.9678 34.099 35.9471C34.0577 35.9265 34.0577 35.9058 34.0783 35.9058ZM29.8821 34.1487C29.8201 34.0454 29.7787 33.9627 29.7374 33.8387C29.7167 33.7767 29.634 33.7973 29.634 33.8387C29.6134 33.7767 29.572 33.7146 29.572 33.632C29.572 33.6733 29.5927 33.5906 29.5927 33.5286C29.7374 33.818 29.9441 34.0867 30.2128 34.3141C30.0888 34.2728 29.9854 34.2108 29.8821 34.1487Z" fill="#E12526"/>
<path d="M42.8635 39.8954C42.8428 39.8747 42.8221 39.854 42.8014 39.8333C42.512 39.1925 41.9539 38.6551 41.3338 38.4277C40.7963 38.221 40.2175 38.2417 39.7214 38.6137C39.6181 38.6758 39.5354 38.7585 39.4527 38.8618C39.4527 38.8618 39.4527 38.8618 39.432 38.8825C39.2047 39.1305 39.06 39.4406 38.9566 39.7713C38.6052 40.9083 38.9359 42.3966 39.7835 43.1201C40.5276 43.7609 41.4578 43.6782 42.2847 43.2647C43.2769 42.748 43.6076 41.6937 43.3182 40.7429C43.2355 40.4948 43.1322 40.2674 42.9668 40.0401C42.9461 39.9987 42.9048 39.9574 42.8635 39.8954Z" fill="#E12526"/>
<path d="M67.7102 35.9472C68.0616 34.7896 67.5448 33.7353 66.6973 33.0325C66.6146 32.9705 66.5319 32.9085 66.4492 32.8465C66.2632 32.7225 66.0565 32.5984 65.8291 32.5157C65.3743 32.3297 64.8576 32.2264 64.3821 32.247C63.9894 32.2677 63.5759 32.3504 63.2245 32.5571C63.0385 32.6605 62.8731 32.7845 62.7284 32.9292C61.8396 33.7974 61.7155 35.327 62.191 36.4019C62.9145 38.035 64.6922 38.9238 66.3665 38.1177C66.9867 37.8283 67.3381 37.3528 67.4828 36.836C67.5241 36.6707 67.5655 36.4846 67.5655 36.3192C67.6275 36.1952 67.6688 36.0712 67.7102 35.9472Z" fill="#E12526"/>
<path d="M10.6373 24.0819C10.8027 24.0405 10.9474 23.9785 11.1127 23.9165C11.7742 23.6271 12.291 23.069 12.5597 22.4075C12.7458 21.9114 12.8078 21.3739 12.6631 20.8778C12.6217 20.7538 12.5804 20.6091 12.5184 20.4851C12.5184 20.4851 12.5184 20.4644 12.4977 20.4644C11.8362 19.2241 10.2445 18.418 8.8389 18.604C7.88803 18.5833 6.93716 18.8521 6.29635 19.5755C5.34548 20.6504 5.63488 22.1801 6.50306 23.1723C6.87514 23.5858 7.32991 23.8752 7.84669 24.0612C8.01206 24.1852 8.21877 24.2886 8.44615 24.3299C9.08696 24.4953 9.9138 24.3713 10.6373 24.0819Z" fill="#E12526"/>
<path d="M18.7404 22.1595C17.9962 21.6427 17.1281 21.4153 16.3632 21.8494C16.0738 21.8907 15.7844 21.9734 15.5157 22.0975C14.7715 22.4282 14.3374 23.069 14.2548 23.7925C14.2134 24.1646 14.2548 24.5366 14.3788 24.9087C14.4408 25.1775 14.5442 25.4255 14.6889 25.6735C14.8956 26.0043 15.1436 26.2937 15.4537 26.5418C16.3839 27.2859 17.5621 27.6373 18.7197 27.4306C19.7946 27.2446 20.5801 26.1697 20.5595 25.1154C20.6421 24.702 20.6215 24.3299 20.5181 23.9992C20.4561 23.8131 20.3941 23.6271 20.2907 23.4617C19.9807 22.883 19.4019 22.4282 18.7404 22.1595Z" fill="#E12526"/>
<path d="M28.9932 14.0357C28.4144 13.2502 27.5256 12.6301 26.5954 12.32C25.3344 11.9066 23.9702 12.1133 23.164 13.4363C22.2751 14.8833 23.3914 16.7437 24.4869 17.6945C25.6652 18.7281 27.8357 19.2449 29.1173 18.0666C29.1793 18.0046 29.2413 17.9426 29.3033 17.8806C29.4893 17.6739 29.634 17.4672 29.7374 17.2398C30.2955 16.1649 29.8614 14.9453 28.9932 14.0357Z" fill="#E12526"/>
<path d="M39.2669 19.3896C39.2875 18.9968 39.2255 18.6454 39.1222 18.3147C39.1429 15.6688 35.0086 15.028 33.3756 16.6403C31.0398 18.9555 36.745 23.4411 38.6674 21.2293C38.7914 21.0846 38.8948 20.9399 38.9775 20.7539C39.1222 20.3818 39.2462 19.9477 39.2669 19.3896Z" fill="#E12526"/>
<path d="M47.7834 20.4231C48.2175 20.5265 48.7136 20.4644 49.2097 20.1957C49.8505 19.8236 50.1399 19.2242 50.1812 18.5627C50.512 17.6325 50.3053 16.5369 49.6025 15.7928C48.817 14.9659 47.4527 14.7385 46.3778 14.9866C45.737 15.1313 45.2615 15.5447 45.0135 16.0822C44.7241 16.3302 44.4967 16.661 44.352 17.0331C43.8765 18.2526 44.9308 19.6583 45.985 20.1751C46.171 20.2784 46.3778 20.3404 46.5845 20.3818C46.7912 20.4438 47.0186 20.4645 47.2253 20.4645C47.4113 20.4645 47.5974 20.4438 47.7834 20.4231ZM46.9152 16.8677C46.9979 16.8883 47.1012 16.9297 47.1839 16.971C47.1426 17.0124 47.1012 17.0537 47.0806 17.095C47.0186 17.0124 46.9565 16.9504 46.9152 16.8677Z" fill="#E12526"/>
<path d="M16.6318 20.7952C16.6938 20.8778 16.7765 20.8778 16.8591 20.8365C16.9005 20.8158 16.9418 20.7745 16.9418 20.7125C16.9418 20.5471 16.9418 20.4024 16.9418 20.237C16.9832 17.0123 17.9547 14.201 18.9056 11.121C19.8565 8.04104 20.7453 4.81636 22.7918 2.27381C22.8124 2.25314 22.7918 2.19111 22.7504 2.21178C20.2699 4.1342 19.195 7.35889 18.1201 10.1908C17.0659 12.9401 15.1641 16.785 16.177 19.8236C16.301 20.1337 16.425 20.4644 16.6318 20.7952Z" fill="#7A913A"/>
<path d="M15.4536 19.4722C13.1178 17.033 10.3685 15.1106 8.13602 12.506C5.63481 9.61207 3.38165 6.28401 1.56259 2.91461C1.56259 2.89394 1.52125 2.9146 1.54192 2.93528C3.23695 6.22199 5.09736 9.23998 7.41253 12.1339C9.54165 14.8005 12.2702 18.0872 15.3502 19.6376C15.4329 19.6789 15.5363 19.5549 15.4536 19.4722Z" fill="#7A913A"/>
<path d="M56.0931 36.1539C56.3619 38.3657 56.8373 40.5362 57.0233 42.7686C57.2714 45.7866 56.92 48.8666 57.3334 51.8433C57.3334 51.8846 57.4161 51.8846 57.4368 51.8433C57.9122 48.6599 57.7262 45.3939 57.5401 42.2105C57.4368 40.4948 57.6435 37.3735 56.3412 36.0505C56.2585 35.9885 56.0725 36.0298 56.0931 36.1539Z" fill="#7A913A"/>
<path d="M54.5841 39.1305C53.6333 41.0529 52.331 42.81 51.3594 44.7324C50.3259 46.7375 48.5688 48.4118 46.7498 49.7348C46.7291 49.7555 46.7498 49.7968 46.7704 49.7761C48.4241 48.6392 49.8298 47.6677 51.0287 45.9933C52.4964 43.9469 53.8193 41.5077 54.6255 39.1512C54.6668 39.1305 54.6048 39.1098 54.5841 39.1305Z" fill="#7A913A"/>
<path d="M54.8943 34.7482C55.0804 34.7069 55.1011 34.4588 54.9357 34.3555C54.853 34.2935 54.7496 34.2521 54.667 34.2108C54.0055 33.8387 53.282 33.57 52.5172 33.3219C51.3802 32.9498 50.202 32.6191 49.1684 32.1023C47.0393 31.0481 44.4761 30.7587 42.6363 29.2084C42.595 29.1877 42.5537 29.229 42.595 29.2497C44.4141 30.9241 46.6259 31.6682 48.817 32.7225C49.4165 33.0119 50.078 33.4046 50.7394 33.756C51.4629 34.1488 52.2278 34.5209 52.9926 34.7069C53.6334 34.8723 54.2742 34.9136 54.8943 34.7482Z" fill="#7A913A"/>
</svg>
