<svg width="115" height="95" viewBox="0 0 115 95" fill="none" xmlns="http://www.w3.org/2000/svg">
<path d="M65.1998 62.447C65.2716 62.4408 65.2459 62.3525 65.1936 62.3752C62.2109 62.399 59.5781 60.6196 56.7321 59.926C55.3466 59.594 53.9525 58.9553 52.6037 58.4212C58.9971 56.636 63.8804 57.8763 68.8296 63.0002C64.2664 66.4897 58.2093 63.3976 53.9406 60.2769C54.8601 60.4503 55.7796 60.6238 56.5751 60.826C59.4601 61.5524 62.1741 62.6011 65.1998 62.447Z" fill="#A3BF66"/>
<path d="M49.2283 57.8822C49.0855 57.6956 49.2628 57.445 49.5008 57.4786C49.6281 57.4857 49.7584 57.5286 49.8693 57.5552C50.7888 57.7286 51.6849 58.0488 52.6036 58.4213C53.972 58.9718 55.3465 59.5941 56.7321 59.9261C59.5781 60.6196 62.2272 62.3795 65.1936 62.3752C65.249 62.3885 65.2552 62.4603 65.1998 62.4471C62.1546 62.5848 59.4765 61.5329 56.5719 60.7902C55.7765 60.5879 54.8406 60.434 53.9374 60.241C52.943 60.0379 51.9259 59.7826 51.0563 59.3516C50.3203 58.9994 49.6826 58.5302 49.2283 57.8822Z" fill="#7A913A"/>
<path d="M78.7386 34.3321C78.9768 34.7282 79.2424 35.1553 79.5079 35.5825C81.1106 37.9994 83.4427 40.463 86.4135 40.2726L86.997 40.31C84.2296 38.6972 83.1183 34.5542 82.0942 31.7936C81.031 28.9573 79.6929 25.8396 80.3014 22.7442C80.3188 22.7014 80.3616 22.7188 80.3734 22.7635C80.516 26.0242 81.9782 29.0326 83.2984 31.9733C84.6185 34.914 85.7302 37.6803 87.8443 40.1153C87.8946 40.016 87.9313 39.9012 87.9835 39.7727C88.437 38.4103 88.4128 35.8163 88.3064 34.5059C88.268 31.6766 86.4947 28.7216 84.8982 26.4369C84.1208 25.0835 81.6464 20.9557 80.2853 20.2533C78.8231 19.5298 77.5796 32.0755 78.7386 34.3321Z" fill="#98B252"/>
<path d="M88.0074 40.7702C88.1086 40.7913 88.1707 40.7367 88.2055 40.651C88.2229 40.6082 88.2266 40.5499 88.1856 40.5033C88.0764 40.3791 87.9809 40.2705 87.8717 40.1463C85.773 37.6976 84.6458 34.9451 83.3257 32.0043C82.0056 29.0636 80.5433 26.0552 80.4007 22.7945C80.4026 22.7654 80.3461 22.7324 80.3287 22.7753C79.7358 25.857 81.0583 28.9883 82.1215 31.8246C83.1456 34.5853 84.2569 38.7283 87.0243 40.341C87.3222 40.4919 87.6338 40.6584 88.0074 40.7702Z" fill="#7A913A"/>
<path d="M87.1924 40.6823C87.3606 40.3622 87.4863 40.0237 87.5708 39.6877L87.9601 39.2515C90.2086 37.2812 90.1403 33.8896 89.5866 31.0638C92.8187 25.9941 97.9916 21.5597 102.216 19.0218C104.263 22.6117 99.5635 32.1126 97.247 34.7078C95.0721 36.881 91.6294 39.3331 88.2332 40.4162C87.8882 40.5393 87.5203 40.6223 87.1924 40.6823C87.1729 40.7041 87.1729 40.7041 87.1924 40.6823ZM88.4076 39.4746C91.4154 37.7511 93.9328 34.3162 95.9074 31.5333C98.0549 28.5128 99.7413 25.3942 101.247 22.0168C101.246 21.9961 101.226 21.9973 101.226 21.9973C99.6003 25.4644 97.5176 28.8953 95.2061 31.9457C93.1248 34.6726 90.4889 36.7477 88.295 39.3153C88.1965 39.4037 88.3067 39.5217 88.4076 39.4746Z" fill="#A3BF66"/>
<path d="M88.2742 39.3165C90.4681 36.7489 93.1041 34.6738 95.1854 31.9469C97.5186 28.9159 99.5796 25.4655 101.205 21.9985C101.204 21.9779 101.246 21.9962 101.227 22.018C99.7206 25.3954 98.0341 28.514 95.8866 31.5345C93.912 34.3174 91.374 37.7534 88.3868 39.4758C88.3066 39.5217 88.1964 39.4037 88.2742 39.3165Z" fill="#7A913A"/>
<path d="M90.2682 48.0653C89.0551 47.7347 88.082 46.9214 87.9766 45.7057C87.9482 45.6986 87.9482 45.6986 87.9198 45.6916C87.5905 45.866 87.2862 46.1219 87.0813 46.4627C87.7389 47.2731 88.3788 48.0942 89.1566 48.7838C89.2063 48.8262 89.1462 48.8866 89.1072 48.8619C88.1986 48.3959 87.4989 47.7558 86.8025 47.0411C86.7637 47.1369 86.7249 47.2327 86.6968 47.3462C86.5596 47.8393 86.5783 48.3108 86.6963 48.7465C86.7035 48.8387 86.7179 48.9025 86.7428 48.984C86.8504 49.5226 87.188 49.9225 87.6212 50.2406C88.5271 51.1426 89.9001 51.6183 91.0869 51.2647C91.5581 51.1255 91.9687 50.8055 92.255 50.4398C92.7895 50.0451 93.1711 49.4771 93.2334 48.7396C93.2578 48.58 93.2469 48.4418 93.243 48.2751C92.2509 48.5113 91.1588 48.4214 90.2682 48.0653Z" fill="#B82025"/>
<path d="M62.8834 53.4489C62.9376 53.899 63.0945 54.3595 63.34 54.7666C63.4363 55.0465 63.5858 55.2943 63.8167 55.5172C63.9588 55.6729 64.108 55.8002 64.2749 55.9168C64.8822 56.4437 65.6062 56.8037 66.333 56.8483C68.1236 56.9756 68.7965 55.0491 68.8111 53.5921C68.832 51.7451 67.2768 50.6069 65.7491 50.7555C64.9984 51.1116 64.2405 51.4961 63.4897 51.8523C63.0651 52.229 62.8111 52.7684 62.8834 53.4489ZM66.1159 53.1654C66.1053 53.1477 66.1053 53.1477 66.1159 53.1654C66.3146 53.2146 66.2969 53.2253 66.1159 53.1654Z" fill="#B82025"/>
<path d="M69.3616 37.5707C68.8758 37.5257 68.383 37.509 67.8655 37.5314C67.8834 37.6413 67.9191 37.7404 67.9548 37.8396C68.4145 38.9624 69.6638 39.6333 70.8582 39.4925C71.8329 39.3876 72.6646 38.7654 73.1059 37.8959C74.0308 36.1072 73.2356 33.9074 71.1082 33.7418C69.6899 33.6314 67.3662 34.5014 67.3131 36.1748C67.2961 36.5471 67.4245 36.88 67.6059 37.181C68.1875 37.2648 68.762 37.377 69.3543 37.4786C69.4217 37.5103 69.4077 37.5671 69.3616 37.5707ZM70.2649 35.6261C70.2826 35.6154 70.311 35.6224 70.311 35.6224C70.3571 35.6188 70.4245 35.6505 70.4813 35.6646C70.3962 35.6435 70.3217 35.6401 70.2649 35.6261Z" fill="#B82025"/>
<path d="M81.6719 25.2003C80.2443 25.6749 79.0343 26.7906 79.2678 28.2188C79.3935 28.9878 80.1107 29.4967 80.824 29.8391C81.5165 30.3871 82.4987 30.4949 83.3807 30.1562C84.6063 29.7069 85.462 28.684 85.6187 27.3827C85.7786 25.8863 84.8943 25.1402 83.7134 24.9832C83.2175 25.1615 82.6469 25.2159 82.1043 25.1568C81.9484 25.1784 81.8102 25.1894 81.6719 25.2003Z" fill="#B82025"/>
<path d="M97.8522 32.0997C97.8806 32.1067 97.9019 32.1421 97.9303 32.1491C98.5868 32.4774 99.3243 32.5396 99.9905 32.4035C99.8791 31.6982 100.033 30.9535 100.451 30.3641C100.542 30.2363 100.652 30.0978 100.772 29.977C101.26 29.3449 101.887 28.8224 102.528 28.6048C102.178 27.464 100.939 26.6903 99.7831 26.6148C98.2656 26.5401 96.7398 27.5324 96.2999 29.0046C96.1239 29.5935 96.235 30.1782 96.4985 30.6952C96.7505 30.8329 96.9671 30.9919 97.1589 31.1901C97.4679 31.4624 97.7132 31.749 97.8522 32.0997Z" fill="#B82025"/>
<path d="M45.3364 52.2494C45.3434 52.2211 45.4002 52.2351 45.3931 52.2635C45.164 52.8844 45.2864 53.7279 45.4475 54.4755C45.763 54.4784 46.0642 54.4175 46.3511 54.2928C46.7195 54.1431 47.0168 53.9156 47.2821 53.6349C47.4305 53.4006 47.5611 53.177 47.6812 52.9357C47.8012 52.6944 47.9212 52.453 48.0412 52.2117C48.1185 51.8996 48.1568 51.5627 48.1667 51.2188C47.0887 51.0722 46.0911 50.4186 45.7943 49.2458C45.7657 49.1182 45.7371 48.9907 45.7368 48.8701C45.6584 48.7001 45.5908 48.5478 45.5408 48.3849C45.0339 48.425 44.5557 48.5926 44.0918 48.824C42.3424 49.6857 41.0844 51.6027 42.5168 53.2978C43.0499 53.9418 43.9655 54.3794 44.8519 54.4484C44.868 53.7146 45.0224 52.9698 45.3364 52.2494Z" fill="#B82025"/>
<path d="M55.1425 39.2888C55.4992 40.2807 56.0948 41.9491 55.8849 43.2825C60.4121 41.6633 59.2368 29.2651 57.7425 25.1454C57.2932 23.9198 51.6336 28.1045 50.8409 30.3928C50.6579 31.0101 50.5173 31.5776 50.4228 32.1414C52.4901 34.0088 54.0231 36.3913 55.1425 39.2888ZM56.5794 26.6191C56.5864 26.5908 56.6255 26.6155 56.6184 26.6439C55.7614 28.7054 55.1035 31.0572 55.2537 33.308C55.3966 35.4667 55.2063 37.6331 55.3846 39.7704C55.3883 39.8165 55.3315 39.8024 55.3208 39.7847C54.7838 37.3327 54.675 34.55 54.8682 32.0681C55.0411 30.0328 55.7325 28.4573 56.5794 26.6191Z" fill="#98B252"/>
<path d="M96.468 36.2894L96.7159 36.1399C96.7265 36.1576 96.7265 36.1576 96.7372 36.1753C96.8718 36.1183 97.0064 36.0613 97.141 36.0043C97.1727 35.9369 97.2612 35.8835 97.357 35.9223C97.7077 35.7833 98.0407 35.6549 98.4127 35.5513C99.3014 35.0637 100.18 34.5585 101.058 34.0532C100.94 33.979 100.841 33.8941 100.731 33.7915C97.7317 35.3826 94.6114 36.7329 91.6478 38.4232C91.5947 38.4552 91.5415 38.4873 91.4707 38.53C91.647 38.0616 91.8055 37.604 91.9925 37.1534C92.1018 36.8943 92.4439 36.0605 92.8398 35.5562C92.6659 35.468 92.5168 35.3407 92.3676 35.2134C92.1411 35.3982 91.9289 35.6468 91.7983 35.8704C91.1836 36.8928 90.8954 38.0562 90.3482 39.1102C86.7856 40.8479 82.8062 41.6541 79.0869 43.0518C70.7272 46.1611 62.8452 50.503 54.6388 54.0268C52.2799 55.0386 49.9034 56.0612 47.5375 57.1014C48.475 56.1742 49.3023 55.1443 50.1083 54.0791C52.6819 50.7411 55.0603 47.2796 57.8151 44.1221C57.723 44.1294 57.6024 44.1296 57.5103 44.1369C57.333 44.1231 57.2333 43.9177 57.3429 43.7792C57.7886 43.3174 58.348 43.0042 58.9822 42.815C60.6233 41.0531 62.3639 39.3761 64.1472 37.7698C64.7287 37.8537 65.4517 37.7316 65.8948 37.7058C66.5328 37.6832 67.1779 37.6322 67.8337 37.5988C68.3335 37.5871 68.8333 37.5754 69.3298 37.6381C69.3759 37.6345 69.3793 37.5601 69.3332 37.5637C68.7409 37.4622 68.1664 37.35 67.5848 37.2661C67.1344 37.1997 66.6841 37.1333 66.209 37.106C65.8083 37.082 65.4077 37.0581 64.9893 37.0448C66.6276 35.5985 68.3085 34.2229 70.0072 32.8366C70.62 32.612 71.2685 32.4865 71.9313 32.4248C72.7217 32.3345 73.7005 32.5167 74.4122 32.1359C74.4653 32.1039 74.5291 32.0895 74.5893 32.0291C74.607 32.0185 74.5963 32.0008 74.5963 32.0008C74.5679 31.9937 74.5572 31.976 74.5289 31.969C73.6627 31.4533 72.3161 31.6618 71.3521 31.7844C74.4914 29.3847 77.8088 27.3604 81.1296 25.2617C80.9239 25.2409 80.7182 25.22 80.5089 25.1531C79.3687 25.7441 78.2284 26.335 77.0989 26.9437C77.392 26.429 77.6781 25.9427 78.1024 25.4455C78.4526 25.0654 78.8488 24.6817 79.2487 24.344C79.1846 24.2378 79.1206 24.1316 79.0813 23.9863C77.6615 24.7941 76.2601 25.9528 76.0224 27.5203C74.2449 28.4954 72.51 29.5414 70.8358 30.7681C70.3191 31.1521 69.8023 31.5361 69.2679 31.9307C69.177 30.8993 69.2104 29.9137 69.4423 28.9773C69.1833 28.8679 68.942 28.7479 68.7147 28.5711C68.4648 29.3977 68.3747 30.3692 68.3802 31.259C68.4624 31.5957 68.4809 31.9466 68.432 32.2657C68.4392 32.3579 68.4465 32.4501 68.4538 32.5422C68.4007 32.5742 68.376 32.6133 68.3229 32.6453C68.0901 33.2201 67.5945 33.519 67.0382 33.6371C65.9622 34.4548 64.9076 35.3079 63.8814 36.168C63.9866 35.6219 64.1024 35.0934 64.2537 34.5436C64.3909 34.0505 64.6025 33.5608 64.8071 33.0995C64.5765 32.9972 64.3422 32.8488 64.1433 32.6791C63.3589 33.9003 63.0754 35.5919 62.933 36.9571C61.8289 37.8883 60.7462 38.8549 59.6955 39.8746C56.6707 42.7845 54.0721 46.0409 51.5552 49.3929C51.506 49.5915 51.4284 49.7831 51.3225 49.9677C51.0999 50.3191 50.8169 50.6104 50.4913 50.8309C50.4665 50.87 50.4488 50.8807 50.4241 50.9197C49.4944 52.1802 48.5614 53.5152 47.5466 54.7546C47.7513 54.2933 47.9843 53.839 48.2173 53.3847C48.5739 52.7352 48.8348 52.0469 49.0956 51.3586C48.8759 51.3945 48.6171 51.4057 48.3938 51.3956C48.2527 51.722 48.1116 52.0485 47.9598 52.3572C47.8398 52.5985 47.7198 52.8399 47.5998 53.0812C47.4691 53.3048 47.3491 53.5461 47.2007 53.7804C46.6673 54.6572 46.049 55.6334 45.849 56.6229C45.7134 56.1978 45.6061 55.7797 45.5343 55.3403C45.4984 55.1206 45.4411 54.8655 45.3838 54.6103C45.2334 53.8804 45.1003 53.0192 45.3294 52.3983C45.3365 52.37 45.2974 52.3452 45.2727 52.3843C44.948 53.0869 44.7937 53.8317 44.7705 54.5939C44.7299 55.4874 44.8842 56.3839 45.2122 57.2482C44.8655 57.5539 44.4797 57.8348 44.0939 58.1157C40.349 59.1908 36.7823 60.6413 33.1056 62.1098C28.2778 64.031 23.3105 65.3604 18.2291 66.4207C15.2738 67.0439 12.3259 67.7593 9.36697 68.3364C9.61766 69.5128 9.70538 70.7392 9.61581 71.9518C11.5363 71.4939 13.4388 70.9262 15.3163 70.2769C15.38 70.2626 15.4438 70.2483 15.4969 70.2163C19.6455 68.9701 23.8405 67.8408 27.9321 66.4601C36.8096 63.4489 45.6327 59.8672 54.2642 56.2078C57.3597 54.8965 60.3983 53.4507 63.4262 51.9872C64.177 51.631 64.9348 51.2465 65.6856 50.8904C66.2841 50.602 66.8649 50.3242 67.4527 50.0181C67.5095 50.0321 67.5662 50.0462 67.623 50.0602C68.304 50.2289 68.9178 50.4864 69.5353 50.7899C70.2026 51.1359 70.7495 51.6027 71.261 52.0908C71.4558 51.9734 71.6435 51.8844 71.8525 51.8308C71.4152 51.2255 70.7938 50.7553 70.176 50.3313C69.7748 50.0662 69.1607 49.6882 68.5398 49.4591C70.0131 48.7399 71.4863 48.0206 72.9701 47.319C73.112 47.3542 73.2716 47.3786 73.5163 47.4242C74.1723 47.5114 74.8247 47.5526 75.4771 47.5937C76.3245 47.638 77.2747 47.6926 78.1642 47.5666C78.139 47.3646 78.1421 47.1696 78.1843 46.9994C77.383 46.9515 76.5747 46.9319 75.7911 46.8734C75.316 46.846 74.8265 46.7549 74.3478 46.6815C76.0124 45.9193 77.6946 45.1464 79.3912 44.4372C79.9118 44.2199 80.4325 44.0025 80.9461 43.8135C81.9742 43.7971 82.9673 44.0431 83.95 44.392C83.9969 44.7499 84.2062 44.8168 84.5293 45.0324C85.0619 45.4354 85.538 45.9448 85.9928 46.4189C86.2167 46.6701 86.4476 46.893 86.6608 47.1265C87.3465 47.8234 88.0747 48.4706 88.9655 48.9473C89.0046 48.972 89.0647 48.9116 89.015 48.8692C88.2478 48.1972 87.5972 47.3585 86.9396 46.548C86.4989 46.0172 86.0582 45.4864 85.5857 45.023C85.9582 45.1605 86.313 45.3086 86.6856 45.4461C87.0581 45.5835 87.4093 45.6856 87.7888 45.7947C87.8172 45.8017 87.8172 45.8017 87.8456 45.8087C87.8167 45.5606 87.8339 45.3089 87.8865 45.0358C87.0172 44.7151 86.1691 44.3092 85.5375 44.0624C84.647 43.7063 83.7387 43.3608 82.8023 43.1289C85.335 42.2052 87.8891 41.317 90.2651 40.0534C90.4284 40.1239 90.6481 40.088 90.7717 39.8928C90.7965 39.8537 90.8105 39.797 90.853 39.7472C92.8075 38.6653 94.7905 37.5905 96.7804 36.4872C96.7377 36.4164 96.6844 36.3279 96.6417 36.2571C96.6557 36.2003 96.5565 36.236 96.468 36.2894ZM19.2459 67.7869C19.3061 67.7265 19.3662 67.6661 19.4157 67.588C19.9897 67.4592 20.5814 67.3196 21.1555 67.1908C20.532 67.3977 19.8801 67.5977 19.2459 67.7869Z" fill="#513131"/>
<path d="M97.152 36.1425C97.1199 36.0894 97.134 36.0326 97.1587 35.9936C97.0241 36.0506 96.8895 36.1076 96.755 36.1646C96.7977 36.2354 96.851 36.3239 96.8937 36.3948C96.9898 36.5541 97.0858 36.7134 97.2103 36.8797C97.2668 36.7733 97.341 36.6561 97.4081 36.5674C97.3121 36.408 97.2373 36.2841 97.152 36.1425Z" fill="#A3BF66"/>
<path d="M96.4681 36.2894C96.5566 36.236 96.6558 36.2003 96.755 36.1647C96.7443 36.147 96.7443 36.147 96.7336 36.1293L96.4681 36.2894Z" fill="#A3BF66"/>
<path d="M55.8744 43.2647C56.0949 41.9491 55.4993 40.2806 55.132 39.271C54.0232 36.3913 52.4725 34.0194 50.43 32.113C48.9594 30.7548 47.2199 29.6313 45.1937 28.7529C45.7727 30.9141 45.1031 32.7661 45.522 34.6618C45.5152 36.4521 46.9014 38.1508 47.8513 39.7263C49.6965 42.1861 52.1712 43.9286 55.1223 44.6596C55.5576 44.3006 55.7976 43.8179 55.8744 43.2647ZM55.4881 43.3046C53.672 42.8547 52.2551 40.0642 51.2807 38.6483C49.4777 36.0182 47.6036 33.3102 46.3954 30.3456C46.3741 30.3102 46.4449 30.2675 46.4839 30.2922C48.3749 32.6279 49.675 35.4647 51.435 37.9035C52.7578 39.737 54.2856 41.3503 55.6471 43.088C55.7218 43.2119 55.5839 43.3434 55.4881 43.3046Z" fill="#A3BF66"/>
<path d="M55.1506 44.6667L55.1222 44.6597C55.0621 44.7201 54.9735 44.7734 54.885 44.8268L55.1506 44.6667Z" fill="#A3BF66"/>
<path d="M70.7646 42.0594C70.8213 42.0734 70.7896 42.1409 70.7505 42.1162C68.3638 41.7207 66.03 42.8141 63.6623 43.0106C62.5103 43.1017 61.3128 43.4375 60.1647 43.6952C65.0618 45.9323 69.1307 45.5548 73.7425 42.0743C70.5269 38.7027 65.2839 40.4156 61.47 42.3772C62.2286 42.3543 62.9872 42.3314 63.65 42.2697C66.0531 42.0518 68.3599 41.5541 70.7646 42.0594Z" fill="#A3BF66"/>
<path d="M71.1939 29.0799C71.669 29.1073 72.1298 29.0708 72.5656 28.9529C73.9474 28.6025 75.2631 27.1816 75.0437 25.6967C74.7521 23.6518 72.0283 23.0976 70.0795 23.5484C69.7322 23.613 69.3709 23.7343 69.0769 23.8874C68.737 24.0441 68.4857 24.268 68.2665 24.545C67.3294 25.5928 67.3858 27.1277 68.4162 28.1961C68.5263 28.2987 68.6364 28.4012 68.7643 28.4931C68.9915 28.6699 69.2328 28.7899 69.4919 28.8992C70.0276 29.1072 70.6162 29.1627 71.1939 29.0799Z" fill="#E12526"/>
<path d="M80.5407 25.0857C80.7394 25.1349 80.9557 25.1735 81.1613 25.1943C81.2819 25.194 81.4131 25.2115 81.5336 25.2112C81.5797 25.2076 81.6258 25.2039 81.6719 25.2003C81.8101 25.1894 81.9483 25.1784 82.1043 25.1568C82.6468 25.2159 83.2174 25.1615 83.7134 24.9832C84.2093 24.8049 84.6589 24.5097 84.9593 24.0871C86.1717 22.4148 84.2622 19.7282 82.3235 19.9557C81.9833 19.9919 81.6573 20.0919 81.335 20.2379C81.1437 20.2808 80.963 20.3415 80.793 20.4199C80.113 20.7333 79.664 21.2696 79.4846 21.9329C79.248 22.3411 79.0787 22.781 79.0407 23.2384C79.0165 23.5185 79.0347 23.7489 79.1167 23.965C79.1631 24.0819 79.2201 24.2165 79.2841 24.3227C79.565 24.7085 80.0123 24.9699 80.5407 25.0857Z" fill="#E12526"/>
<path d="M74.6212 31.9617C74.5681 31.9937 74.515 32.0258 74.4442 32.0684C73.8647 32.9489 73.7572 34.0516 74.6522 34.8154C74.7126 34.8756 74.7907 34.925 74.8581 34.9568C75.3665 35.6399 76.243 36.0528 77.0977 36.1892C78.5516 36.3988 79.9436 35.825 80.7741 34.6002C81.8201 33.0523 81.5658 30.1884 79.4308 29.8101C77.803 29.5123 75.965 30.4273 74.8295 31.5465C74.7269 31.6566 74.6066 31.7774 74.5147 31.9052C74.5431 31.9123 74.5538 31.9299 74.5822 31.937C74.6282 31.9333 74.6389 31.951 74.6212 31.9617ZM79.122 31.2997C79.2285 31.3562 79.3066 31.4057 79.4061 31.4906C79.4558 31.533 79.5159 31.4726 79.4946 31.4372C79.5443 31.4796 79.6117 31.5114 79.6544 31.5822C79.6331 31.5468 79.6581 31.6283 79.6901 31.6814C79.4167 31.5083 79.101 31.3849 78.7534 31.3289C78.881 31.3002 79.0015 31.3 79.122 31.2997Z" fill="#E12526"/>
<path d="M65.0376 33.0813C65.066 33.0883 65.0943 33.0953 65.1227 33.1024C65.7014 33.5017 66.4569 33.6738 67.1054 33.5483C67.6724 33.4478 68.1574 33.1313 68.3901 32.5565C68.4466 32.45 68.4747 32.3365 68.4921 32.2053C68.4921 32.2053 68.4921 32.2053 68.4992 32.1769C68.5658 31.8471 68.5296 31.5068 68.4474 31.1702C68.1613 30.0151 67.1096 28.9113 66.0102 28.7294C65.042 28.5648 64.2881 29.1159 63.7935 29.8969C63.2106 30.8518 63.4717 31.9254 64.2105 32.5903C64.4094 32.76 64.6153 32.9014 64.8744 33.0107C64.9134 33.0354 64.9702 33.0495 65.0376 33.0813Z" fill="#E12526"/>
<path d="M45.7979 49.2918C46.0947 50.4646 47.0816 51.1006 48.1703 51.2648C48.2731 51.2753 48.3759 51.2857 48.4788 51.2961C48.7021 51.3062 48.9432 51.3057 49.1806 51.2591C49.6661 51.1836 50.1621 51.0053 50.5585 50.7421C50.8842 50.5216 51.1956 50.2373 51.3898 49.8789C51.4957 49.6943 51.5733 49.5027 51.6225 49.3041C51.9354 48.1016 51.2518 46.7276 50.2897 46.0526C48.8269 45.0276 46.8455 45.1843 45.8279 46.7393C45.4462 47.3073 45.3908 47.8959 45.5337 48.4132C45.5837 48.5761 45.6443 48.7568 45.7297 48.8984C45.7407 49.0367 45.7693 49.1642 45.7979 49.2918Z" fill="#E12526"/>
<path d="M100.801 29.984C100.681 30.1048 100.589 30.2326 100.479 30.3711C100.062 30.9605 99.9076 31.7053 100.019 32.4105C100.116 32.9314 100.34 33.4237 100.72 33.7738C100.82 33.8587 100.93 33.9613 101.047 34.0355C101.047 34.0355 101.058 34.0532 101.075 34.0425C102.282 34.7631 104.062 34.6317 105.169 33.7465C105.994 33.2733 106.67 32.5522 106.845 31.6017C107.104 30.1902 106.067 29.0297 104.811 28.6282C104.279 28.4663 103.74 28.4533 103.201 28.5608C102.996 28.5399 102.765 28.5582 102.549 28.6402C101.915 28.8294 101.271 29.3626 100.801 29.984Z" fill="#E12526"/>
<path d="M94.854 35.8143C95.7581 35.8726 96.619 35.619 97.0499 34.8524C97.2764 34.6676 97.4815 34.4473 97.6476 34.2023C98.1141 33.5349 98.155 32.7619 97.8522 32.0997C97.6955 31.7597 97.468 31.4624 97.1697 31.2078C96.9778 31.0097 96.7612 30.8506 96.5092 30.7129C96.1614 30.5364 95.7995 30.4166 95.4059 30.3643C94.2251 30.2073 93.0346 30.5148 92.15 31.2895C91.3255 32.0038 91.2078 33.3299 91.7699 34.2221C91.9125 34.6188 92.1224 34.9268 92.3817 35.1567C92.5308 35.284 92.68 35.4113 92.8539 35.4995C93.4183 35.8351 94.1488 35.9257 94.854 35.8143Z" fill="#E12526"/>
<path d="M90.2682 48.0653C91.1695 48.4391 92.2509 48.5113 93.2076 48.2965C94.5009 47.9995 95.5625 47.118 95.5698 45.5688C95.5839 43.8707 93.6674 42.8538 92.2382 42.6052C90.6955 42.3284 88.5699 43.0066 88.0807 44.6774C88.0596 44.7625 88.0385 44.8476 88.0174 44.9327C87.9649 45.2058 87.9477 45.4576 87.9766 45.7056C88.0536 46.9144 89.0551 47.7347 90.2682 48.0653Z" fill="#E12526"/>
<path d="M78.7059 48.785C78.891 49.132 79.1256 49.4009 79.3848 49.6308C80.7333 51.9073 84.6047 50.3214 85.1707 48.0975C85.9756 44.9087 78.7736 44.0131 78.2694 46.8999C78.2379 47.0879 78.224 47.2651 78.2493 47.4671C78.3175 47.8605 78.4354 48.2963 78.7059 48.785Z" fill="#E12526"/>
<path d="M70.8786 52.2973C70.4535 52.4329 70.0606 52.7422 69.7745 53.2285C69.4179 53.878 69.4796 54.5408 69.7857 55.1286C69.9828 56.096 70.7255 56.9275 71.7116 57.2019C72.8112 57.5044 74.097 56.9947 74.8894 56.2272C75.3635 55.7725 75.5572 55.1729 75.4921 54.5846C75.6119 54.2227 75.6358 53.8221 75.5676 53.4287C75.345 52.1388 73.7164 51.4794 72.5468 51.5811C72.3341 51.5887 72.125 51.6423 71.9267 51.7136C71.7176 51.7673 71.5122 51.867 71.3352 51.9737C71.1759 52.0698 71.0272 52.1835 70.8786 52.2973ZM73.4579 54.8938C73.3764 54.9188 73.2666 54.9368 73.1744 54.9441C73.1885 54.8873 73.2025 54.8306 73.1989 54.7845C73.2947 54.8233 73.3798 54.8444 73.4579 54.8938Z" fill="#E12526"/>
<path d="M55.6399 43.1164C54.2677 41.3609 52.7398 39.7477 51.4278 37.9319C49.6571 35.4754 48.3677 32.6563 46.4767 30.3206C46.4553 30.2852 46.3845 30.3279 46.3882 30.374C47.6247 33.3456 49.4704 36.0466 51.2734 38.6767C52.2478 40.0926 53.6825 42.8724 55.4808 43.3329C55.5836 43.3434 55.7216 43.2119 55.6399 43.1164Z" fill="#7A913A"/>
<path d="M55.3952 39.7881C55.2169 37.6508 55.4249 35.4737 55.2643 33.3257C55.1141 31.0749 55.7543 28.7338 56.629 26.6616C56.636 26.6332 56.597 26.6085 56.5899 26.6368C55.7608 28.4643 55.0586 30.0221 54.8964 32.0751C54.6962 34.5854 54.8227 37.3574 55.3491 39.7917C55.3244 39.8308 55.3881 39.8165 55.3952 39.7881Z" fill="#7A913A"/>
<path d="M57.3925 43.7011C57.2545 43.8326 57.3649 44.0557 57.5599 44.0588C57.6627 44.0692 57.7726 44.0513 57.8647 44.044C58.6233 44.0211 59.3817 43.8776 60.1647 43.6952C61.3305 43.4268 62.5103 43.1016 63.6622 43.0105C66.0299 42.814 68.3745 41.7383 70.7505 42.1161C70.7966 42.1125 70.8106 42.0557 70.7645 42.0593C68.3422 41.5647 66.0638 42.0695 63.643 42.298C62.9802 42.3597 62.2109 42.3649 61.463 42.4055C60.6406 42.4427 59.7935 42.519 59.0424 42.7546C58.4083 42.9438 57.8382 43.2393 57.3925 43.7011Z" fill="#7A913A"/>
</svg>
