<svg width="121" height="80" viewBox="0 0 121 80" fill="none" xmlns="http://www.w3.org/2000/svg">
<path d="M71.2588 29.2502C71.2144 29.1934 71.1545 29.2631 71.202 29.2946C72.8493 31.7813 72.7946 34.9585 73.7661 37.722C74.2438 39.0642 74.4692 40.581 74.7575 42.0028C69.7732 37.6188 68.1483 32.8496 69.742 25.9065C75.156 27.8267 75.8695 34.5899 75.5832 39.8699C75.2269 39.0047 74.8705 38.1395 74.606 37.3625C73.6407 34.5484 73.0388 31.7017 71.2588 29.2502Z" fill="#A3BF66"/>
<path d="M76.1473 45.1256C76.0689 45.3471 75.7622 45.3352 75.6605 45.1174C75.597 45.0069 75.5618 44.8742 75.5236 44.7669C75.1673 43.9016 74.9467 42.976 74.7576 42.0028C74.4724 40.5557 74.2439 39.0642 73.7662 37.722C72.7946 34.9585 72.8241 31.7782 71.2021 29.2946C71.183 29.2409 71.2398 29.1965 71.2589 29.2502C73.0358 31.727 73.6155 34.5453 74.5777 37.3847C74.8422 38.1617 75.2238 39.03 75.5549 39.8921C75.9273 40.8364 76.2682 41.8281 76.3814 42.792C76.4879 43.601 76.4425 44.3914 76.1473 45.1256Z" fill="#7A913A"/>
<path d="M37.8061 21.1786C38.4334 22.2684 38.5501 23.5312 37.7677 24.4677C37.7829 24.4927 37.7829 24.4927 37.7981 24.5177C38.1546 24.6261 38.5508 24.6592 38.9364 24.562C39.0414 23.5237 39.1665 22.4902 39.101 21.4528C39.0957 21.3876 39.1809 21.3872 39.1912 21.4323C39.5069 22.4033 39.5519 23.3506 39.5419 24.3483C39.637 24.3078 39.732 24.2672 39.832 24.2065C40.2769 23.9536 40.596 23.606 40.8196 23.2138C40.8794 23.1433 40.9142 23.088 40.9539 23.0126C41.2574 22.5548 41.2999 22.0332 41.217 21.5022C41.2105 20.2237 40.5722 18.9185 39.4812 18.3324C39.0489 18.099 38.5322 18.0364 38.0712 18.0939C37.4139 17.997 36.7428 18.1307 36.1787 18.6099C36.0488 18.7058 35.9591 18.8116 35.8444 18.9325C36.7145 19.4645 37.4256 20.2982 37.8061 21.1786Z" fill="#B82025"/>
<path d="M61.0224 36.6677C61.3013 36.3103 61.5147 35.8731 61.6276 35.4112C61.7566 35.1449 61.8254 34.8638 61.8188 34.5429C61.8277 34.3323 61.8117 34.1368 61.7756 33.9365C61.7163 33.1346 61.4568 32.3689 60.9727 31.8249C59.7926 30.4722 57.9572 31.3639 56.9196 32.3869C55.6026 33.6821 55.903 35.5857 57.0912 36.5574C57.8747 36.8341 58.6832 37.0957 59.4667 37.3725C60.0334 37.4047 60.5939 37.2013 61.0224 36.6677ZM58.5301 34.5897C58.5252 34.6098 58.5252 34.6098 58.5301 34.5897C58.4239 34.4148 58.444 34.4197 58.5301 34.5897Z" fill="#B82025"/>
<path d="M45.2336 43.3609C45.5463 43.7353 45.8841 44.0945 46.2669 44.4435C46.3316 44.353 46.3762 44.2575 46.4208 44.162C46.8864 43.0416 46.4734 41.685 45.5271 40.9428C44.7619 40.3301 43.7334 40.1849 42.8075 40.4904C40.8904 41.1068 39.9035 43.2275 41.2955 44.8448C42.2234 45.923 44.4847 46.9443 45.7022 45.7951C45.9767 45.543 46.1204 45.2164 46.2039 44.875C45.8505 44.4055 45.5222 43.9209 45.1738 43.4314C45.1483 43.3613 45.1983 43.331 45.2336 43.3609ZM43.2219 44.1031C43.2018 44.0982 43.1867 44.0732 43.1867 44.0732C43.1514 44.0433 43.126 43.9732 43.0957 43.9232C43.1412 43.9982 43.1916 44.0531 43.2219 44.1031Z" fill="#B82025"/>
<path d="M27.7819 43.4546C29.1289 44.1246 30.7737 44.1865 31.615 43.009C32.068 42.375 31.9182 41.5084 31.6537 40.7627C31.549 39.8859 30.9284 39.117 30.0641 38.7353C28.8782 38.1898 27.5502 38.3119 26.5215 39.1243C25.3532 40.0728 25.4543 41.2254 26.181 42.1693C26.6585 42.3925 27.1015 42.7562 27.4446 43.1806C27.5704 43.2752 27.6761 43.3649 27.7819 43.4546Z" fill="#B82025"/>
<path d="M21.1714 27.1541C21.1562 27.1291 21.1661 27.089 21.1509 27.064C20.9167 26.3683 20.4376 25.8042 19.8691 25.4311C19.4509 26.0097 18.8164 26.4291 18.1051 26.553C17.9498 26.5789 17.7744 26.5998 17.6039 26.6007C16.8123 26.705 15.9998 26.6339 15.3916 26.3362C14.8355 27.3919 15.1686 28.814 15.9351 29.6825C16.9585 30.8054 18.7402 31.1773 20.0902 30.4435C20.6301 30.1499 20.9635 29.6569 21.1412 29.1045C21.0596 28.8292 21.0181 28.5637 21.0217 28.2879C20.9946 27.877 21.0228 27.5008 21.1714 27.1541Z" fill="#B82025"/>
<path d="M72.6207 49.8896C72.5957 49.9048 72.5654 49.8548 72.5904 49.8396C73.1906 49.5608 73.6985 48.8764 74.1114 48.2325C73.8896 48.0081 73.6331 47.8389 73.3417 47.7251C72.9749 47.5715 72.6037 47.5233 72.2177 47.5353C71.9473 47.5968 71.6969 47.6633 71.4417 47.7498C71.1864 47.8363 70.9312 47.9228 70.6759 48.0094C70.401 48.1762 70.1364 48.3881 69.8869 48.625C70.5481 49.489 70.7947 50.6559 70.1783 51.6969C70.1087 51.8075 70.039 51.9182 69.9542 52.0038C69.89 52.1796 69.8306 52.3353 69.7511 52.4862C70.1389 52.8151 70.5962 53.0334 71.0884 53.1963C72.9365 53.8186 75.1802 53.346 75.3594 51.1341C75.4354 50.3014 75.0946 49.3456 74.5147 48.6717C73.9858 49.1808 73.3512 49.6001 72.6207 49.8896Z" fill="#B82025"/>
<path d="M56.5289 52.1674C56.9752 51.2125 57.7291 49.6093 58.818 48.8117C54.4659 46.7682 46.5583 56.3893 44.7135 60.3644C44.168 61.5504 51.132 62.5729 53.3075 61.5089C53.8725 61.2002 54.3723 60.8969 54.8369 60.5636C54.6873 57.7819 55.2799 55.0114 56.5289 52.1674ZM46.5774 60.1394C46.5524 60.1545 46.5421 60.1095 46.5671 60.0943C48.6283 59.2365 50.753 58.0325 52.2334 56.3304C53.6539 54.6988 55.3163 53.2966 56.6967 51.6551C56.7266 51.6199 56.7569 51.6698 56.752 51.6899C55.4041 53.8075 53.5194 55.8576 51.6326 57.4815C50.0751 58.803 48.4739 59.4329 46.5774 60.1394Z" fill="#98B252"/>
<path d="M25.1069 25.1587L24.8258 25.09C24.8307 25.0699 24.8307 25.0699 24.8356 25.0498C24.7 24.9954 24.5643 24.9409 24.4287 24.8864C24.3586 24.9119 24.2582 24.8873 24.2176 24.7923C23.871 24.6436 23.5443 24.4999 23.2075 24.3111C22.2334 24.0303 21.2544 23.7695 20.2755 23.5088C20.3062 23.644 20.3169 23.7743 20.3227 23.9247C23.5715 24.9109 26.7364 26.1532 30.0298 27.0439C30.09 27.0586 30.1502 27.0733 30.2306 27.093C29.7754 27.3009 29.3403 27.5136 28.89 27.7014C28.6299 27.808 27.7994 28.1582 27.1631 28.2366C27.2242 28.4218 27.2402 28.6173 27.2562 28.8127C27.5472 28.8413 27.8729 28.8146 28.1233 28.7481C29.2799 28.4565 30.3045 27.8346 31.4358 27.4729C35.1874 28.7523 38.5779 30.9862 42.201 32.6172C50.3216 36.306 58.9726 38.7838 67.2767 42.0706C69.6629 43.016 72.0693 43.9664 74.4805 44.8967C73.1619 44.8933 71.8491 45.0404 70.5265 45.2276C66.348 45.7803 62.2208 46.5583 58.041 46.8553C58.1115 46.9151 58.1971 47 58.2676 47.0598C58.3836 47.1945 58.3095 47.4105 58.1342 47.4314C57.4925 47.4447 56.875 47.2724 56.2918 46.9595C53.8858 47.0519 51.469 47.0141 49.072 46.8959C48.7186 46.4265 48.1199 46.0034 47.7875 45.7093C47.319 45.2755 46.8255 44.8568 46.337 44.4181C45.9743 44.074 45.6115 43.73 45.3037 43.3354C45.2685 43.3055 45.2136 43.3559 45.2488 43.3858C45.5972 43.8754 45.9256 44.36 46.2789 44.8295C46.5515 45.1941 46.8241 45.5587 47.1417 45.9131C47.409 46.2126 47.6762 46.512 47.9635 46.8164C45.782 46.6871 43.6201 46.4775 41.4381 46.263C40.8451 45.9902 40.2968 45.622 39.7832 45.1985C39.159 44.7053 38.5934 43.886 37.8201 43.6543C37.7598 43.6395 37.7045 43.6047 37.6193 43.6051C37.5992 43.6002 37.5943 43.6203 37.5943 43.6203C37.6095 43.6453 37.6046 43.6654 37.6197 43.6904C37.8704 44.6668 38.9724 45.4683 39.7425 46.061C35.8243 45.5495 32.0445 44.6462 28.2098 43.7934C28.341 43.9531 28.4721 44.1129 28.5734 44.3079C29.7987 44.6927 31.0239 45.0776 32.2541 45.4423C31.6834 45.6006 31.1376 45.7438 30.4861 45.7973C29.9698 45.8199 29.4183 45.8127 28.8967 45.7702C28.8672 45.8907 28.8378 46.0112 28.7632 46.1419C30.3397 46.5701 32.1504 46.7363 33.424 45.7923C35.3722 46.354 37.3399 46.8353 39.392 47.1457C40.0292 47.2377 40.6664 47.3298 41.3237 47.4267C40.6609 48.2222 39.9424 48.8977 39.1177 49.3982C39.2243 49.6584 39.3109 49.9136 39.3474 50.1992C40.1074 49.7893 40.8562 49.1638 41.4797 48.5289C41.6587 48.2322 41.893 47.9703 42.1527 47.7784C42.2125 47.708 42.2723 47.6374 42.3321 47.5669C42.3924 47.5817 42.4374 47.5714 42.4977 47.5862C43.068 47.3426 43.6302 47.4801 44.1081 47.7885C45.4476 47.9672 46.7969 48.1058 48.1311 48.2193C47.6715 48.5325 47.2167 48.8256 46.7218 49.1089C46.2769 49.3618 45.7816 49.5599 45.3112 49.7427C45.4027 49.9779 45.4642 50.2483 45.4856 50.5089C46.9028 50.1959 48.2965 49.1961 49.36 48.3284C50.7995 48.4464 52.2488 48.5242 53.7128 48.5419C57.9095 48.6108 62.0483 48.1335 66.1965 47.5308C66.3714 47.4246 66.5615 47.3434 66.7668 47.2873C67.1724 47.1949 67.5785 47.1879 67.9649 47.2611C68.01 47.2508 68.03 47.2558 68.0751 47.2455C69.6231 47.007 71.2259 46.7181 72.8194 46.5546C72.3491 46.7375 71.8636 46.8954 71.3781 47.0533C70.6672 47.2624 69.9969 47.5666 69.3267 47.8709C69.5078 48.0003 69.6992 48.1748 69.8505 48.3395C70.1807 48.2074 70.5109 48.0754 70.8362 47.9634C71.0915 47.8769 71.3467 47.7904 71.602 47.7039C71.8523 47.6374 72.1076 47.5509 72.378 47.4893C73.3744 47.2436 74.5012 46.9872 75.3406 46.4265C75.137 46.8236 74.9184 47.1957 74.6595 47.558C74.5301 47.7391 74.3908 47.9604 74.2515 48.1817C73.8436 48.8055 73.3308 49.51 72.7306 49.7888C72.7056 49.8039 72.7159 49.849 72.7609 49.8388C73.4865 49.5694 74.1211 49.15 74.6749 48.6258C75.3337 48.0208 75.8563 47.2761 76.233 46.4319C76.6944 46.4597 77.1661 46.5325 77.6377 46.6053C81.0515 48.483 84.6036 49.969 88.2463 51.5198C93.0246 53.561 97.4846 56.1203 101.836 58.9509C104.371 60.5925 106.966 62.1636 109.471 63.8404C110.123 62.8294 110.925 61.8978 111.844 61.101C110.159 60.0717 108.409 59.1331 106.62 58.2698C106.565 58.235 106.51 58.2002 106.449 58.1855C102.629 56.1443 98.8575 53.9876 94.9824 52.0821C86.5637 47.9587 77.7813 44.2783 69.0801 40.788C65.9603 39.5354 62.786 38.4185 59.6069 37.3216C58.8234 37.0449 58.0148 36.7833 57.2313 36.5065C56.6035 36.2891 55.9958 36.0766 55.3631 35.8792C55.3327 35.8293 55.3024 35.7793 55.2721 35.7293C54.9081 35.1295 54.6542 34.5142 54.4303 33.8635C54.2011 33.1478 54.1423 32.4311 54.1237 31.7243C53.9028 31.6703 53.7069 31.6011 53.5209 31.4917C53.4043 32.2293 53.5135 33.0009 53.6526 33.7371C53.7502 34.2079 53.9193 34.909 54.1981 35.5092C52.6462 34.9806 51.0943 34.452 49.5473 33.9034C49.4715 33.7785 49.3756 33.6486 49.2342 33.4438C48.8304 32.9194 48.3968 32.4303 47.9631 31.9411C47.3934 31.3123 46.7581 30.6036 46.0384 30.0658C45.9139 30.2269 45.7742 30.363 45.6242 30.454C46.1587 31.0529 46.7182 31.6366 47.2326 32.2306C47.5502 32.585 47.8331 32.9947 48.1208 33.3843C46.403 32.7513 44.6651 32.1133 42.9619 31.4201C42.4394 31.2072 41.917 30.9942 41.4195 30.7661C40.6788 30.053 40.148 29.1783 39.697 28.2381C39.9161 27.9512 39.8148 27.7561 39.7377 27.3755C39.6441 26.7142 39.6656 26.0172 39.6773 25.3604C39.6957 25.0244 39.689 24.7035 39.7025 24.3876C39.7075 23.4099 39.6474 22.4376 39.3517 21.4715C39.3415 21.4265 39.2562 21.4269 39.2616 21.492C39.3319 22.5094 39.2019 23.5629 39.0969 24.6013C39.0352 25.2884 38.9735 25.9756 38.9819 26.6374C38.8146 26.2772 38.6674 25.922 38.5002 25.5619C38.3329 25.2018 38.1558 24.8818 37.9635 24.5368C37.9483 24.5119 37.9483 24.5118 37.9332 24.4869C37.7788 24.6832 37.5891 24.8496 37.3593 25.0062C37.7496 25.8465 38.0649 26.7323 38.3388 27.3525C38.7193 28.233 39.1199 29.1184 39.6204 29.9431C37.1731 28.8124 34.7355 27.6416 32.1596 26.8626C32.0936 26.6975 31.9125 26.568 31.6871 26.6193C31.642 26.6296 31.5921 26.6599 31.5269 26.6653C29.378 26.0545 27.2139 25.4188 25.0249 24.7982C25.0052 24.8785 24.9807 24.9789 24.961 25.0592C24.911 25.0896 25.0065 25.1342 25.1069 25.1587ZM102.078 57.2651C101.993 57.2656 101.907 57.266 101.817 57.2865C101.319 56.9732 100.801 56.655 100.303 56.3416C100.891 56.6344 101.495 56.9523 102.078 57.2651Z" fill="#513131"/>
<path d="M24.1775 24.7824C24.0705 24.437 24.0085 24.0814 23.9867 23.7355L23.6834 23.2357C21.8315 20.8888 22.5165 17.5663 23.5757 14.8887C21.3214 9.31508 17.0429 4.01245 13.3514 0.74735C10.6852 3.90441 13.5747 14.1023 15.3797 17.0762C17.1222 19.6092 20.0606 22.6475 23.2026 24.3311C23.5194 24.515 23.8661 24.6637 24.1775 24.7824C24.1927 24.8074 24.1927 24.8074 24.1775 24.7824ZM23.2028 23.3736C20.5592 21.1309 18.7098 17.2949 17.2752 14.1988C15.7139 10.8376 14.6239 7.46405 13.7583 3.86872C13.7632 3.84864 13.7833 3.85355 13.7833 3.85355C14.7497 7.55867 16.1726 11.3116 17.8896 14.7321C19.4393 17.7926 21.6531 20.3131 23.3425 23.2375C23.4232 23.3423 23.2933 23.4383 23.2028 23.3736Z" fill="#A3BF66"/>
<path d="M24.5183 24.7807C24.5036 24.8409 24.4536 24.8712 24.4085 24.8815C24.5442 24.936 24.6798 24.9904 24.8155 25.0449C24.8351 24.9646 24.8597 24.8642 24.8793 24.7839C24.9235 24.6031 24.9677 24.4224 24.9968 24.2167C24.8816 24.2524 24.7464 24.2832 24.6362 24.2988C24.592 24.4795 24.5576 24.62 24.5183 24.7807Z" fill="#A3BF66"/>
<path d="M25.1069 25.1587C25.0065 25.1342 24.911 25.0896 24.8155 25.0449C24.8106 25.065 24.8106 25.065 24.8057 25.0851L25.1069 25.1587Z" fill="#A3BF66"/>
<path d="M24.1652 13.522C23.9769 13.9441 23.7787 14.4064 23.5805 14.8686C22.5163 17.5663 21.8313 20.8888 23.6881 23.2156L23.9915 23.7155C23.7296 20.5232 26.4904 17.2403 28.1676 14.8202C29.8846 12.3248 31.6748 9.44291 34.5612 8.16983C34.6063 8.15957 34.6165 8.20463 34.5866 8.23987C31.9947 10.2234 30.3651 13.1446 28.7096 15.9104C27.0542 18.6763 25.4224 21.1713 24.6362 24.2988C24.7464 24.2832 24.8615 24.2475 24.9967 24.2167C26.3734 23.8086 28.4865 22.3038 29.4999 21.4664C31.7978 19.8153 33.2056 16.6697 34.165 14.0527C34.8296 12.6405 36.7976 8.2487 36.5944 6.73063C36.3505 5.11751 25.3521 11.2799 24.1652 13.522Z" fill="#98B252"/>
<path d="M58.8129 48.8318C57.7289 49.6094 56.975 51.2125 56.5238 52.1874C55.2797 55.0114 54.7072 57.7868 54.8117 60.5788C54.8971 62.5788 55.3385 64.602 56.1561 66.6534C57.2693 64.7125 59.0498 63.8712 60.0893 62.2315C61.3563 60.9667 61.5709 58.7847 62.008 56.9976C62.4337 53.9523 61.9071 50.9718 60.3297 48.3728C59.7679 48.3205 59.2574 48.4936 58.8129 48.8318ZM59.115 49.0759C60.0857 50.6753 59.1232 53.6532 58.816 55.3443C58.2403 58.4807 57.6602 61.7225 56.4268 64.6767C56.417 64.7169 56.3367 64.6972 56.3264 64.6522C56.6321 61.6625 57.7102 58.7341 58.1814 55.7637C58.536 53.5309 58.5899 51.3096 58.8495 49.1174C58.8838 48.9768 59.0744 48.9808 59.115 49.0759Z" fill="#A3BF66"/>
<path d="M60.3147 48.3478L60.3299 48.3728C60.4151 48.3724 60.5155 48.397 60.6159 48.4215L60.3147 48.3478Z" fill="#A3BF66"/>
<path d="M47.4035 39.1886C47.3732 39.1386 47.4432 39.1132 47.4535 39.1582C48.8673 41.1214 51.2932 41.9914 53.1109 43.5213C53.9921 44.2689 55.0781 44.875 56.074 45.5017C54.1783 40.4626 51.0266 37.8616 45.3021 37.0785C45.2055 41.7366 50.1314 44.2183 54.219 45.5161C53.6649 44.9975 53.1108 44.4789 52.5972 44.0554C50.7394 42.5157 48.7526 41.2423 47.4035 39.1886Z" fill="#A3BF66"/>
<path d="M37.9479 48.0906C37.6302 47.7362 37.2777 47.4372 36.8855 47.2136C35.6585 46.4879 33.7237 46.5679 32.8324 47.7757C31.5975 49.4314 33.1384 51.7449 34.8383 52.7991C35.1301 52.9982 35.4719 53.1669 35.7883 53.2655C36.1399 53.3941 36.4759 53.4124 36.8266 53.3705C38.23 53.2882 39.2721 52.1599 39.2946 50.6757C39.2888 50.5254 39.283 50.375 39.2572 50.2197C39.2206 49.9341 39.1341 49.6789 39.0275 49.4187C38.7942 48.8935 38.4159 48.4392 37.9479 48.0906Z" fill="#E12526"/>
<path d="M28.5034 44.3334C28.3973 44.1584 28.271 43.9786 28.1398 43.8188C28.0542 43.734 27.9734 43.6291 27.8878 43.5443C27.8525 43.5144 27.8173 43.4845 27.782 43.4546C27.6763 43.3649 27.5705 43.2752 27.4447 43.1806C27.1016 42.7562 26.6586 42.3925 26.1812 42.1693C25.7038 41.9461 25.1768 41.8385 24.6659 41.9263C22.627 42.2575 22.0871 45.5091 23.6223 46.7145C23.8891 46.9288 24.1907 47.0877 24.5223 47.2113C24.6882 47.3158 24.8591 47.4001 25.0349 47.4644C25.7381 47.7215 26.4347 47.6578 27.0296 47.3139C27.4852 47.1912 27.9154 46.9985 28.2648 46.7009C28.4795 46.5194 28.629 46.3431 28.7232 46.1321C28.7727 46.0165 28.8272 45.8809 28.8566 45.7604C28.9294 45.2888 28.7965 44.7881 28.5034 44.3334Z" fill="#E12526"/>
<path d="M37.5491 43.6305C37.6094 43.6453 37.6696 43.66 37.7499 43.6797C38.7816 43.4638 39.6354 42.7576 39.5392 41.5849C39.5387 41.4997 39.5182 41.4096 39.4928 41.3395C39.6138 40.4966 39.2833 39.5858 38.7734 38.8865C37.8901 37.7128 36.4984 37.1383 35.0459 37.4215C33.2128 37.7817 31.374 39.992 32.6214 41.7655C33.5658 43.1244 35.5144 43.7713 37.1087 43.7782C37.2591 43.7724 37.4295 43.7715 37.5848 43.7457C37.5697 43.7207 37.5746 43.7006 37.5594 43.6756C37.5242 43.6457 37.5291 43.6256 37.5491 43.6305ZM33.8905 40.9268C33.8549 40.8117 33.8344 40.7215 33.8237 40.5912C33.8183 40.5261 33.7331 40.5265 33.7233 40.5667C33.7179 40.5015 33.6925 40.4315 33.7121 40.3511C33.7023 40.3913 33.742 40.3159 33.7568 40.2557C33.8286 40.5711 33.9655 40.8813 34.1725 41.166C34.0619 41.0964 33.9762 41.0116 33.8905 40.9268Z" fill="#E12526"/>
<path d="M45.1348 49.5932C45.1196 49.5682 45.1044 49.5432 45.0893 49.5182C44.9604 48.827 44.546 48.1724 43.9976 47.8042C43.5247 47.4757 42.9575 47.3582 42.3872 47.6018C42.2721 47.6374 42.1721 47.6981 42.0673 47.7789C42.0673 47.7789 42.0673 47.7789 42.0423 47.794C41.7625 47.981 41.5482 48.2478 41.3693 48.5445C40.7578 49.5654 40.7254 51.0896 41.3768 51.9938C41.9474 52.793 42.8706 52.9337 43.772 52.7286C44.8586 52.4624 45.4303 51.5169 45.3751 50.5245C45.3538 50.2639 45.3074 50.0185 45.2008 49.7583C45.1905 49.7133 45.1602 49.6633 45.1348 49.5932Z" fill="#E12526"/>
<path d="M70.2081 51.6617C70.8245 50.6207 70.573 49.4739 69.9168 48.5898C69.8512 48.5099 69.7856 48.4301 69.72 48.3502C69.5688 48.1855 69.3975 48.0159 69.1962 47.8816C68.7987 47.5928 68.3213 47.3696 67.8545 47.2767C67.4681 47.2035 67.0469 47.1856 66.6564 47.3029C66.4512 47.3591 66.2611 47.4403 66.0861 47.5464C65.0164 48.1786 64.5325 49.635 64.7389 50.792C65.0537 52.5502 66.5693 53.836 68.3873 53.4507C69.0584 53.317 69.5127 52.9386 69.7761 52.471C69.8555 52.3202 69.9399 52.1493 69.9792 51.9887C70.0689 51.883 70.1385 51.7723 70.2081 51.6617Z" fill="#E12526"/>
<path d="M17.5887 26.5757C17.7592 26.5748 17.9144 26.5489 18.0898 26.528C18.8011 26.404 19.4357 25.9847 19.8539 25.406C20.1525 24.9683 20.3404 24.461 20.3177 23.9447C20.307 23.8144 20.3013 23.664 20.2705 23.5288C20.2705 23.5288 20.2754 23.5087 20.2553 23.5038C19.9075 22.1419 18.5529 20.9806 17.1433 20.8274C16.2246 20.5814 15.2371 20.6165 14.4428 21.167C13.2637 21.9852 13.1814 23.5398 13.789 24.7099C14.0522 25.1999 14.4251 25.589 14.8829 25.8925C15.0141 26.0523 15.1903 26.2018 15.4014 26.296C15.9845 26.6089 16.8172 26.6849 17.5887 26.5757Z" fill="#E12526"/>
<path d="M25.9166 26.6336C25.3166 25.9548 24.5273 25.5276 23.6812 25.7676C23.3903 25.739 23.0895 25.7505 22.799 25.8072C21.9976 25.9516 21.4237 26.4709 21.1715 27.1541C21.0429 27.5057 20.9946 27.8769 21.0267 28.2678C21.0231 28.5436 21.0646 28.8091 21.1462 29.0844C21.2684 29.4548 21.4406 29.7948 21.6828 30.1095C22.4096 31.0533 23.4706 31.6746 24.6441 31.7489C25.7325 31.8235 26.7509 30.9661 26.9813 29.9371C27.1598 29.5552 27.2281 29.1888 27.2063 28.843C27.1903 28.6476 27.1743 28.4521 27.1132 28.2669C26.9495 27.6311 26.4953 27.0518 25.9166 26.6336Z" fill="#E12526"/>
<path d="M37.806 21.1786C37.4304 20.2781 36.7143 19.4645 35.8844 18.9423C34.7578 18.2411 33.3835 18.1178 32.2861 19.2113C31.0789 20.4056 31.7211 22.478 32.5594 23.6619C33.4583 24.9458 35.4439 25.9635 36.9687 25.1235C37.0437 25.078 37.1187 25.0325 37.1936 24.987C37.4235 24.8304 37.6131 24.664 37.7676 24.4677C38.5651 23.5562 38.4332 22.2684 37.806 21.1786Z" fill="#E12526"/>
<path d="M46.5132 28.8201C46.6266 28.4435 46.6498 28.0874 46.628 27.7416C47.2768 25.1763 43.4132 23.5716 41.4438 24.7498C38.6248 26.4437 43.1009 32.1564 45.4938 30.4647C45.6486 30.3536 45.7834 30.2376 45.9079 30.0765C46.1369 29.7495 46.3605 29.3573 46.5132 28.8201Z" fill="#E12526"/>
<path d="M54.5404 31.8475C54.9375 32.0511 55.4342 32.1087 55.9799 31.9656C56.6908 31.7564 57.1143 31.2428 57.3116 30.6101C57.8539 29.7852 57.9134 28.6719 57.4075 27.782C56.841 26.7922 55.5698 26.2472 54.4667 26.2327C53.8099 26.221 53.2498 26.5096 52.8812 26.9728C52.5412 27.145 52.2417 27.4122 52.0127 27.7393C51.2611 28.811 51.9512 30.4268 52.8525 31.1793C53.0086 31.3239 53.1947 31.4332 53.3856 31.5225C53.5717 31.6319 53.7877 31.706 53.9884 31.7551C54.1692 31.7993 54.3548 31.8234 54.5404 31.8475ZM54.5418 28.1876C54.6173 28.2274 54.7078 28.2921 54.7783 28.3519C54.7283 28.3822 54.6784 28.4126 54.6485 28.4478C54.6079 28.3527 54.5624 28.2778 54.5418 28.1876Z" fill="#E12526"/>
<path d="M24.1924 24.8074C24.233 24.9024 24.3133 24.922 24.4035 24.9015C24.4486 24.8913 24.4985 24.8609 24.5133 24.8007C24.5526 24.6401 24.5869 24.4995 24.6262 24.3389C25.4326 21.2164 27.0443 18.7164 28.6997 15.9505C30.3551 13.1847 31.9847 10.2635 34.5767 8.28001C34.6017 8.26484 34.5963 8.19968 34.5513 8.20994C31.685 9.48793 29.8747 12.3649 28.1577 14.8603C26.4804 17.2804 23.7196 20.5633 23.9815 23.7556C24.0283 24.0863 24.0702 24.437 24.1924 24.8074Z" fill="#7A913A"/>
<path d="M23.3624 23.2424C21.673 20.318 19.4592 17.7975 17.9095 14.737C16.1675 11.3317 14.7697 7.56356 13.8033 3.85845C13.8082 3.83837 13.7631 3.84862 13.7783 3.87361C14.6438 7.46894 15.7339 10.8425 17.2952 14.2037C18.7297 17.2998 20.5993 21.1407 23.2227 23.3785C23.2932 23.4383 23.4231 23.3423 23.3624 23.2424Z" fill="#7A913A"/>
<path d="M58.8746 49.1022C58.6101 51.3145 58.5563 53.5358 58.2065 55.7486C57.7304 58.7391 56.6573 61.6474 56.3516 64.637C56.3418 64.6771 56.4221 64.6968 56.452 64.6615C57.6702 61.6823 58.2655 58.4656 58.8411 55.3292C59.1484 53.6381 60.0908 50.6552 59.1401 49.0607C59.0745 48.9809 58.884 48.9768 58.8746 49.1022Z" fill="#7A913A"/>
<path d="M56.7016 51.6351C55.3211 53.2765 53.6387 54.6738 52.2382 56.3104C50.7578 58.0125 48.6533 59.2214 46.572 60.0743C46.547 60.0894 46.5572 60.1345 46.5822 60.1193C48.4587 59.4079 50.0549 58.7982 51.6173 57.4566C53.5292 55.8175 55.3938 53.7625 56.7368 51.665C56.7819 51.6547 56.7265 51.6199 56.7016 51.6351Z" fill="#7A913A"/>
<path d="M58.0439 47.452C58.2345 47.456 58.3135 47.22 58.1774 47.0803C58.1118 47.0004 58.0213 46.9357 57.9508 46.8759C57.3966 46.3573 56.7577 45.9244 56.0737 45.5017C55.0578 44.8701 53.9919 44.2689 53.1107 43.5214C51.293 41.9914 48.8719 41.1013 47.4532 39.1583C47.418 39.1284 47.368 39.1587 47.4033 39.1886C48.7724 41.2472 50.7441 42.4956 52.622 44.0402C53.1355 44.4638 53.6847 45.0025 54.2438 45.501C54.8532 46.0544 55.5078 46.5975 56.2065 46.96C56.7896 47.2729 57.4023 47.4653 58.0439 47.452Z" fill="#7A913A"/>
</svg>
